<svg id="圖層_1" data-name="圖層 1" xmlns="http://www.w3.org/2000/svg" viewBox="0 0 39.47 39.47"><defs><style>.cls-1{fill:#441d09;stroke:#441d09;}.cls-1,.cls-2{stroke-miterlimit:10;}.cls-2{fill:none;stroke:#fff;stroke-width:0.75px;}.cls-3{fill:#fff;}.cls-4{fill:#fffefd;}.cls-5{fill:#f9bbf5;}</style></defs><title>Icon</title><circle class="cls-1" cx="19.74" cy="19.74" r="19.24"/><circle class="cls-2" cx="19.74" cy="19.74" r="17.79"/><circle class="cls-1" cx="19.03" cy="19.74" r="16.35"/><circle class="cls-3" cx="21.05" cy="25.16" r="7.69"/><path class="cls-3" d="M28.1,25.21c.09,0,.28,0,.24-.05l-.33,0Z" transform="translate(-0.03 -0.05)"/><path class="cls-3" d="M28.69,24.75a1.18,1.18,0,0,0-.75-.07c.32.05.19.08.57.14,0,.07-.1.12-.22.12.09,0-.07.1.14.13s.26-.21,0-.32A.41.41,0,0,1,28.69,24.75Z" transform="translate(-0.03 -0.05)"/><path class="cls-3" d="M25.8,18.57v.06A.07.07,0,0,0,25.8,18.57Z" transform="translate(-0.03 -0.05)"/><path class="cls-3" d="M21.62,16.9a.07.07,0,0,0,.06-.07S21.62,16.87,21.62,16.9Z" transform="translate(-0.03 -0.05)"/><path class="cls-3" d="M20.83,16.52l.05,0S20.84,16.49,20.83,16.52Z" transform="translate(-0.03 -0.05)"/><path class="cls-3" d="M25.8,18.57l0-.16C25.69,18.5,25.76,18.52,25.8,18.57Z" transform="translate(-0.03 -0.05)"/><path class="cls-3" d="M27.8,24s.05,0,.09,0l0-.05Z" transform="translate(-0.03 -0.05)"/><path class="cls-3" d="M27.46,19.73l0,0,.12-.07Z" transform="translate(-0.03 -0.05)"/><path class="cls-3" d="M28.41,21s-.25.09-.37.14q.16-.06.21,0Z" transform="translate(-0.03 -0.05)"/><path class="cls-3" d="M28.85,23.43l0,0Z" transform="translate(-0.03 -0.05)"/><path class="cls-3" d="M26.71,18.88l.06-.08Z" transform="translate(-0.03 -0.05)"/><path class="cls-3" d="M27.3,26.58h0Z" transform="translate(-0.03 -0.05)"/><polygon class="cls-3" points="28.81 25.16 28.83 25.18 28.98 25.19 28.81 25.16"/><path class="cls-3" d="M19.27,16.33h0S19.29,16.3,19.27,16.33Z" transform="translate(-0.03 -0.05)"/><path class="cls-3" d="M12.42,27.09c.2-.2.37.17.59-.11C12.91,27,12.53,26.86,12.42,27.09Z" transform="translate(-0.03 -0.05)"/><path class="cls-3" d="M27.83,23.92a.09.09,0,0,1,0-.05S27.81,23.91,27.83,23.92Z" transform="translate(-0.03 -0.05)"/><path class="cls-3" d="M13,27h0l0,0Z" transform="translate(-0.03 -0.05)"/><path class="cls-3" d="M16.06,17.86l.1.08A.31.31,0,0,0,16.06,17.86Z" transform="translate(-0.03 -0.05)"/><path class="cls-3" d="M18.55,17.1l-.07,0A.11.11,0,0,0,18.55,17.1Z" transform="translate(-0.03 -0.05)"/><path class="cls-3" d="M15.27,19s-.07,0-.08,0h0S15.21,19,15.27,19Z" transform="translate(-0.03 -0.05)"/><path class="cls-3" d="M14.36,20l.06,0V20Z" transform="translate(-0.03 -0.05)"/><path class="cls-3" d="M26,29.42a1.27,1.27,0,0,1,.22.13C26.1,29.43,26.15,29.27,26,29.42Z" transform="translate(-0.03 -0.05)"/><path class="cls-3" d="M28,23.93a.17.17,0,0,1-.12,0l0,0Z" transform="translate(-0.03 -0.05)"/><path class="cls-3" d="M16.76,20.66l-.15.07A.3.3,0,0,0,16.76,20.66Z" transform="translate(-0.03 -0.05)"/><path class="cls-3" d="M19.26,31.5l0,0S19.28,31.48,19.26,31.5Z" transform="translate(-0.03 -0.05)"/><path class="cls-3" d="M16.32,21.11a.55.55,0,0,0-.21-.05l0,.06Z" transform="translate(-0.03 -0.05)"/><path class="cls-3" d="M26.27,29.55h0Z" transform="translate(-0.03 -0.05)"/><path class="cls-3" d="M26.33,28.28c-.08.12.28.25.44.38,0,.22-.27-.06-.47-.11,0,.15.26.41.19.48a.34.34,0,0,1-.13-.09c.16.27-.2.3,0,.65l-.08,0a3.77,3.77,0,0,1,.4.3c-.05.06.08.26-.12.13,0,0,0-.1-.08-.16l0,.12c-.31-.17,0-.16-.22-.32,0,.18.08.51-.08.54-.26-.22.1-.29-.22-.38l.22,0c-.5-.26.09-.06-.42-.35-.22.09,0,.31-.26.39.09.17.21.19.3.36,0,.48-.76-.46-.64,0,.1.21.35.56.06.49l-.18-.34c-.2.1.22.52-.12.45-.05-.15.07-.21,0-.22-.3-.16,0,.24-.06.31l-.21-.27c-.17.16-.26.52-.47.7,0-.1,0-.21-.15-.28-.21.31-.66.26-1,.16l0,.32s-.08-.11-.07-.17c-.15-.08.05.18,0,.3s-.13-.14-.12-.23c-.12.29-.49.68-.77.39l0-.09c-.19-.09-.12.63-.33.38l0,0c-.41-.1-.86.19-1.14-.28-.09.42-.37-.21-.46.36-.19-.32-.11-.42-.37-.65-.08,0-.2.33-.31.37l.06-.31-.21.28,0-.37-.11.05a.31.31,0,0,1,0,.24c-.19.1-.3-.3-.25-.46l-.41.12c.05-.11.12-.13.19-.19-.29.23.09-.31-.18-.1,0,.07-.08.17-.11.22a.3.3,0,0,0-.34-.28l.12-.18c-.21-.14-.52-.16-.76-.31,0,.13-.19.43-.29.41l.15-.28c-.16.13,0,.15-.22.29-.08-.1.15-.35.25-.4H17.3c.05-.08.11-.11.18-.2-.16.13,0-.4-.25-.16l.05-.08c-.22-.16-.37-.19-.56-.33-.2.2-.23.1-.44.21-.06-.2,0-.5-.19-.63s-.21.11-.39.16c.2-.17.05-.32.26-.35a1.71,1.71,0,0,0-.59-.38c-.07.08-.08.14-.17.17s0-.18.13-.23h0c-.55-.15.26-1.08-.33-1.11h0l-.36-.18c0-.15.21,0,.32-.14-.53-.16-.07-.5-.42-.68.7-.34-.2-.71.29-1l-.18,0c-.18-.06.1-.09.14-.14-.14,0-.16.08-.26,0-.26-.61.29-1.25.58-1.75.1-.19-.85-.36-.38-.52l.3.17a.81.81,0,0,1,.05-.7,1,1,0,0,0,.18-.68c0,.06.14.11.12.15.25,0,.18-.28,0-.39,0,0,.16.08.26.09s-.14-.37.09-.27c0,0,0,.06.06.08s.19-.2-.07-.32c.21-.05.09-.34.31-.33-.17-.27.3-.12,0-.43.33.31.45,0,.4-.19.06.12.16,0,.26.21.08-.09.11-.22-.06-.38.5.25.08-.63.61-.16a2.44,2.44,0,0,1,.6-1c.19.4-.3.22-.05.63.15-.33.16-.73.49-.78.1,0,0,.2.05.28.21-.3.56-.18.76-.5a.24.24,0,0,1,0,.14c.05,0,.14,0,.08-.17l0,.07c-.18-.26,0-.65,0-.81,0,.59.32.07.34.83a.44.44,0,0,0,0-.29c.06,0,.09.1.07.27.17-.16.06-.35.25-.38,0,.1,0,.15,0,.26.05-.2.12-.41.28-.35,0,.06,0,.14,0,.14.25-.08.41-.55.73-.39-.08.44.11.14.13.51l.15-.11-.06-.18c.13,0,.27-.25.39-.13l-.11.15.26,0-.14-.15c.16-.19,0-.48.21-.36-.05,0,.15,0,.2.24h0c.09-.1.18-.22.28-.11s-.09.41-.08.49c.12-.3.34,0,.49-.34a1,1,0,0,0-.08.3l.11-.24c.05.1.05.14,0,.29.18.1.05-.48.23-.22,0,0,0,.06-.07.08.21.17.5,0,.67.17-.06.37-.21,0-.24.34.3,0,.77-.2,1,0l0-.06c.28-.46.1.33.35.18-.06,0-.19.23-.15.18.13.19.42.1.79.14l-.11.09c0,.17.22.25.29.38.11-.08.16,0,.24-.2-.07.42.12.48.35.51s.46.09.34.45c0,0-.15,0-.13,0l.3.14c.16-.17.08-.12.17-.29a.32.32,0,0,1,.33,0c-.22,0-.28.24-.35.37.05-.05.12-.09.18-.14-.23.4.38-.26.3.1l-.1.06c.1,0,.28,0,.3.1-.19.19-.15,0-.33.12.08.09.57-.08.41.17-.09,0-.13-.07-.23-.07-.18.27-.12.25-.11.35h0v.25l0-.09c.68-.22.29.2.78.19-.47,0-.23.09-.51.21,0,.09-.1.2-.19.22.26,0-.1.22.28.2-.08,0,0,.1-.2.17.13.08.15-.09.26-.13.4.06-.21.57.32.68.25.18.57.14.79.35-.13.11-.36,0-.36,0-.11.17-.05.25.08.35a.48.48,0,0,0-.26.08c0,.09.36,0,.24.16-.11,0-.29,0-.4,0,.1.09.3.17.41.28-.17,0-.27,0-.39-.06.1.11.21.31.47.32l.09-.09c0,.05-.22.05-.28,0-.22-.09.07-.17.17-.19l.07.07c.56-.16-.14-.33-.13-.5h.42l-.37-.12c.1-.05.32-.13.4-.05.18-.17-.17-.08,0-.24a.06.06,0,0,1,.07,0l-.16-.1c.1,0,.28-.09.25,0,.17-.29-.4-.29-.12-.46h0c-.23-.27-.3.06-.72-.05l.66-.4-.3.07s0-.1.12-.13c-.24,0-.12.06-.33.07.21-.26-.28-.35.15-.58-.24.05-.1.21-.32.13.45-.27-.17-.14,0-.38.26-.08.19.12.34-.13-.44.13,0-.31-.19-.38-.32.18-.27-.16-.49-.27.12-.07-.06-.44-.08-.68l.05,0c-.31.2-.37,0-.53-.07.17-.14.26-.18.39-.17l-.1-.11a.31.31,0,0,1-.28,0l.23-.16c-.15-.13-.49-.07-.54-.36-.18.17-.37.62-.66.59.09-.11.25-.28.34-.28s-.14,0-.13,0l.23-.1c0-.15-.17.1-.22,0,.14-.14.05-.15.17-.25s0,.11.07.07a.55.55,0,0,1,0-.4c-.06.09-.17.2-.24.17s.1-.22.09-.37c-.12.07-.13-.12-.32.11,0,0,0-.14.07-.22-.17,0-.4-.25-.49.07v0h0c-.4,0-.45-.49-.78-.55l0-.09c-.21,0-.4-.13-.61,0-.05,0,0-.22,0-.32-.16,0-.21.09-.35-.13.2-.11,0-.16.19-.06-.14-.15-.13-.31-.42-.13.15-.21,0-.35-.14-.31l.07.22a.49.49,0,0,1-.27-.1l.15-.3c-.3-.51-.86.47-1-.25-.15.22.18.2,0,.45-.16-.07-.27-.57-.33-.58-.24-.22-.3.44-.54.29,0,.12,0,.44-.17.54s-.19-.51-.07-.6.06,0,.06.07.14-.08.08-.22l0,.12c-.08-.12-.34-.12-.27-.32-.15.11-.07.2,0,.26-.23-.18-.37,0-.61-.13,0,.06.08.2,0,.2-.36-.13-.15.23-.38.3-.14-.18,0-.44-.21-.27-.16-.12-.06-.31,0-.41-.21.23-.44-.1-.59-.13l.11-.11a.22.22,0,0,1-.19.08l.11.23c-.08,0-.14,0-.15-.12-.05.16.11.38,0,.61-.11-.1-.24.17-.34-.13.31.05-.09-.31.15-.4a.17.17,0,0,1-.18,0,.07.07,0,0,1,0-.09c-.34-.21-.06.38-.34.44,0-.18-.15-.31-.19-.26.12,0,.13.27.07.43-.22-.08-.17.15-.26.16l.12,0c0,.18-.08.18-.17.28-.06-.13.07-.13,0-.17,0,.34-.4-.2-.51.07-.13-.08-.13-.31-.24-.36-.13.29-.33-.12-.47.15.16.19.14.13.1.41l.27-.32-.08.43c.11-.05.16-.25.24-.23,0,.22,0,.16.08.32-.28-.26-.18.32-.44.18l-.25-.54c-.38-.11-.3.49-.67.55l.15,0c.08.23-.17.14-.22.28-.1-.17-.2-.19-.31-.27.09.12-.22.15,0,.49l-.29-.12c-.3.1.09.64-.14.76-.08-.22-.27-.24-.23-.48-.07.06-.16.09-.07.2-.12-.06,0,.36-.2.28,0,.09.17.25.09.3a.21.21,0,0,1-.07-.07c.06.07,0,.21.2.3-.63-.22-.48.56-1,.43a3.36,3.36,0,0,1-.25.57s-.08-.05,0-.07c-.29.11.39.44.08.56-.34-.05-.07-.22-.22-.2-.57-.3-.1.32-.52.31v-.06c-.26,0,.06.44-.08.63a.19.19,0,0,0-.09,0,1.35,1.35,0,0,1,.24.83c-.22-.15-.09-.14-.35-.19,0,.11.4.12.4.32a1.42,1.42,0,0,1-.58,0,1.8,1.8,0,0,1,.05-.19c-.38,0-.07.25-.15.33l-.15-.06c0,.31.35.41.25.7h.12c.35.24-.24.1,0,.32l-.4,0a3.85,3.85,0,0,1,.37.64c-.29-.13-.39-.39-.54-.56,0,.11,0,.39.15.47,0-.05-.11-.12-.05-.16.28.18.43.36.41.58-.76-.08-.22.56-.79.74.29.39-.07.83.06,1.31.56-.27,0,.14.64,0,0,.1.06.14,0,.16l-.27.4c-.15.12-.16-.07-.29,0,0,.26-.23.17-.34.38.2-.09.32,0,.28.16l.22-.27c.39.23-.4.44,0,.68l-.22,0c.17.13.24.66.77.6,0,.06-.18.17-.25.12.11.44.9.59.81,1l-.14.06c.08,0,.3,0,.24.12s-.14.06-.13.1.34,0,.34.15l-.19,0c.09.47.71.26,1,.43a.64.64,0,0,0-.13.81l-.05,0c.33.39.87.31,1.33.42-.07.56.66.69.94,1.13,0-.11.17-.3.26-.31s.39-.15.2.21l0,0c-.09.4.15.41.31.47l.23-.48c.06.43.37.48.64.47s.52,0,.57.33c.13-.1.26-.08.39-.2l-.06.28a1.44,1.44,0,0,0,.82.15l-.1.2c.22,0,.33-.8.51-.81l0,.43c.34,0,.74.35,1.07,0,0,.06,0,.18-.06.2.17,0,.71.21.56-.36.06.38.38,0,.52-.21l0,.28c.09-.39.07-.49.25-.64.06,0,.1.21,0,.16.21.1.06-.29.3-.2l0,.19c.17,0,.14-.11.16-.34s.33,0,.45.18c0-.15,0-.38.11-.34a.26.26,0,0,1,0,.18c.36.08.27-.47.57-.31a.35.35,0,0,0,.1.14c-.22.1-.4.17-.39.14.1.24.3.19.3.58.08-.25.13-.74.36-.72l.06.07v0c.05,0,.08,0,.09-.09a.24.24,0,0,0,.17,0c.13.17.26,0,.35-.07-.15-.23,0-.26-.24-.39,0,0,0,0-.05.08a.05.05,0,0,0,0,0v0l-.19.14c0-.17,0-.31.17-.23L25.3,32c.31.27.65.31.81.48.15-.32.53-.51.31-1,0-.11.17.05.25.09s-.05.11,0,.18c0-.21.33-.37.1-.66.27,0,.16.32.32.08l.05.11c.41,0,.4-.35.39-.66s0-.62.45-.65a.26.26,0,0,1-.15,0c.68-.42.47-1.36,1.18-1.81.17-.15,0-.25-.18-.41l.3,0-.28-.3c-.19-.33.87-.31.45-.78h-.21c.06-.12-.06-.42.17-.37,0,0-.2-.07-.09-.11l.16,0a2.71,2.71,0,0,0-.24-.35c.13-.24.62.09.67-.29,0-.15-.44-.41-.55-.35s-.1.13-.26.14l-.08-.12a2,2,0,0,0-1.27.14l.27.18-.23.05v-.15c-.22.07,0,.13.09.2a.63.63,0,0,0-.25.05l.44.21c-.19,0-.36-.11-.47,0,.19.1.42,0,.53.11-.22.06-.39,0-.22.14a.39.39,0,0,1-.24-.08c.13.1,0,.23.26.31-.26,0,0,.31-.42.2.1.05.3.23.3.31-.47-.27-.1.28-.64.08.44.24.08.41.27.68,0,0-.1-.07-.07-.08s-.21.06-.32.09c.36.16.37.34.54.53-.39,0-.38-.27-.72-.38.29.13.19.33.44.41a.8.8,0,0,1-.45-.08c.43.25,0,.13.26.34-.29,0-.42-.2-.37,0C26.42,28.48,26.33,28.28,26.33,28.28Zm-2.07,3.1h0l.06-.05Zm-.3.15.14-.06c0,.09.08.18,0,.19S24,31.58,24,31.53Zm1.61,1.35c0,.07-.09,0-.12,0l.08-.09v0Z" transform="translate(-0.03 -0.05)"/><path class="cls-3" d="M25.48,32.51s0,0,0,0l-.06,0,0,.09Z" transform="translate(-0.03 -0.05)"/><path class="cls-3" d="M25.82,18.64h0a.06.06,0,0,1,0,0Z" transform="translate(-0.03 -0.05)"/><polygon class="cls-3" points="19.6 31.4 19.59 31.47 19.63 31.42 19.6 31.4"/><path class="cls-3" d="M26.61,20.7a.21.21,0,0,0,0,.06A.15.15,0,0,0,26.61,20.7Z" transform="translate(-0.03 -0.05)"/><path class="cls-3" d="M27,21.39l0,.15A.35.35,0,0,0,27,21.39Z" transform="translate(-0.03 -0.05)"/><path class="cls-3" d="M27.22,22l.11,0h0Z" transform="translate(-0.03 -0.05)"/><path class="cls-3" d="M19.14,18.89h0C19.09,19,19.12,18.94,19.14,18.89Z" transform="translate(-0.03 -0.05)"/><path class="cls-3" d="M21.91,18a.65.65,0,0,1-.11.12C21.85,18.14,21.89,18.15,21.91,18Z" transform="translate(-0.03 -0.05)"/><polygon class="cls-3" points="16.75 20.6 16.75 20.59 16.73 20.61 16.75 20.6"/><path class="cls-3" d="M21.67,18.1a.08.08,0,0,0,.13,0S21.71,18.06,21.67,18.1Z" transform="translate(-0.03 -0.05)"/><path class="cls-3" d="M27.85,24.49v0h.05Z" transform="translate(-0.03 -0.05)"/><path class="cls-3" d="M27.89,24.52l0,0S27.92,24.52,27.89,24.52Z" transform="translate(-0.03 -0.05)"/><path class="cls-3" d="M28,24.61l-.08-.07S27.92,24.6,28,24.61Z" transform="translate(-0.03 -0.05)"/><path class="cls-3" d="M27.85,23.69h0Z" transform="translate(-0.03 -0.05)"/><path class="cls-3" d="M27.76,23.46c0,.06-.18.19-.1.25h.08C27.59,23.7,27.94,23.47,27.76,23.46Z" transform="translate(-0.03 -0.05)"/><path class="cls-3" d="M28.6,22v.25c.08-.08.2-.19.26-.09C29.06,21.76,28.67,22.32,28.6,22Z" transform="translate(-0.03 -0.05)"/><path class="cls-3" d="M28.41,21.26c.1.1.14-.07.2-.1C28.48,21.13,28.45,21.13,28.41,21.26Z" transform="translate(-0.03 -0.05)"/><path class="cls-3" d="M24.47,17.61l.12-.23C24.48,17.37,24.55,17.47,24.47,17.61Z" transform="translate(-0.03 -0.05)"/><path class="cls-3" d="M23.11,18.5l0,.18.11-.21Z" transform="translate(-0.03 -0.05)"/><polygon class="cls-3" points="22.97 16.54 23.03 16.52 22.84 16.56 22.97 16.54"/><path class="cls-3" d="M14.31,19.66l.27.18C14.58,19.75,14.32,19.51,14.31,19.66Z" transform="translate(-0.03 -0.05)"/><path class="cls-3" d="M12.83,23.45c-.16,0-.28.1-.14.2C12.73,23.56,12.86,23.5,12.83,23.45Z" transform="translate(-0.03 -0.05)"/><polygon class="cls-3" points="17.95 33.54 17.84 33.61 18.02 33.58 17.95 33.54"/><path class="cls-3" d="M14.47,20.4S7.74,14.63,8.7,8.86s4.81-1,5.77,1.93A49.67,49.67,0,0,1,16.4,21.37" transform="translate(-0.03 -0.05)"/><path class="cls-3" d="M21.07,19.44S23,7.9,25.88,6.94s2.89,1.92,2.89,2.88S24,17.52,21.07,19.44Z" transform="translate(-0.03 -0.05)"/><path class="cls-3" d="M26.84,10.6s3.85,3.84,5.77,2.88S29.73,7.71,27.8,7.71H25.88Z" transform="translate(-0.03 -0.05)"/><circle cx="20.56" cy="20.97" r="1.44"/><circle cx="23.13" cy="20.6" r="1.1"/><circle class="cls-4" cx="21.53" cy="20.97" r="0.48"/><circle class="cls-4" cx="23.45" cy="20.97" r="0.48"/><polygon class="cls-5" points="21.42 22.13 23.02 21.7 23.93 27.22 21.42 22.13"/></svg>