<svg id="圖層_1" data-name="圖層 1" xmlns="http://www.w3.org/2000/svg" viewBox="0 0 55.05 55.05"><defs><style>.cls-1{stroke:#000;}.cls-1,.cls-2{stroke-miterlimit:10;}.cls-2{fill:none;stroke:#fff;stroke-width:2px;}.cls-3{fill:#fff;}</style></defs><title>logoHeader</title><circle class="cls-1" cx="27.53" cy="27.53" r="27.03"/><circle class="cls-2" cx="27.53" cy="27.53" r="25"/><circle class="cls-1" cx="26.53" cy="27.53" r="22.97"/><circle class="cls-3" cx="29.36" cy="35.15" r="10.81"/><path class="cls-3" d="M161.51,156.65c.09,0,.28,0,.24-.08l-.34-.07Z" transform="translate(-122 -121.5)"/><path class="cls-3" d="M162.09,156a.92.92,0,0,0-.75-.12c.32.09.19.12.57.22.05.09-.1.17-.22.16.09,0-.06.15.15.19.25-.12.25-.29,0-.45A.33.33,0,0,1,162.09,156Z" transform="translate(-122 -121.5)"/><path class="cls-3" d="M157.9,147.47l0,.07A.14.14,0,0,0,157.9,147.47Z" transform="translate(-122 -121.5)"/><path class="cls-3" d="M152.12,145.23a.1.1,0,0,0,.08-.07S152.11,145.2,152.12,145.23Z" transform="translate(-122 -121.5)"/><path class="cls-3" d="M151,144.84l.06,0S151.05,144.82,151,144.84Z" transform="translate(-122 -121.5)"/><path class="cls-3" d="M157.9,147.47l-.08-.19C157.75,147.36,157.84,147.4,157.9,147.47Z" transform="translate(-122 -121.5)"/><path class="cls-3" d="M161.15,154.82a.2.2,0,0,0,.1.07l-.05-.07Z" transform="translate(-122 -121.5)"/><path class="cls-3" d="M160.12,149.14l0,0,.14-.06Z" transform="translate(-122 -121.5)"/><path class="cls-3" d="M161.41,150.87c0-.05-.27.08-.39.12.12,0,.18,0,.22,0Z" transform="translate(-122 -121.5)"/><path class="cls-3" d="M162.17,154.16l.06.05Z" transform="translate(-122 -121.5)"/><path class="cls-3" d="M159.08,148l0-.08A.22.22,0,0,0,159.08,148Z" transform="translate(-122 -121.5)"/><path class="cls-3" d="M160.63,158.69h.05S160.63,158.67,160.63,158.69Z" transform="translate(-122 -121.5)"/><polygon class="cls-3" points="40.25 35.15 40.26 35.18 40.42 35.19 40.25 35.15"/><path class="cls-3" d="M148.94,144.71h0C149,144.67,149,144.68,148.94,144.71Z" transform="translate(-122 -121.5)"/><path class="cls-3" d="M139.66,159.18c.2-.26.4.26.6-.1C140.16,159.13,139.76,158.89,139.66,159.18Z" transform="translate(-122 -121.5)"/><path class="cls-3" d="M161.18,154.77s0-.05,0-.08A.15.15,0,0,0,161.18,154.77Z" transform="translate(-122 -121.5)"/><path class="cls-3" d="M140.26,159.08h0l0,0Z" transform="translate(-122 -121.5)"/><path class="cls-3" d="M144.6,146.72a.28.28,0,0,0,.11.07A.29.29,0,0,0,144.6,146.72Z" transform="translate(-122 -121.5)"/><path class="cls-3" d="M147.91,145.56h0Z" transform="translate(-122 -121.5)"/><path class="cls-3" d="M143.44,148.17c-.05,0-.09,0-.11.07h0S143.37,148.17,143.44,148.17Z" transform="translate(-122 -121.5)"/><path class="cls-3" d="M142.19,149.54h.07l0-.06Z" transform="translate(-122 -121.5)"/><path class="cls-3" d="M158.71,162.86l.24.11C158.78,162.86,158.88,162.65,158.71,162.86Z" transform="translate(-122 -121.5)"/><path class="cls-3" d="M161.3,154.79c-.07,0-.1,0-.12,0s0,0,0,0A.15.15,0,0,0,161.3,154.79Z" transform="translate(-122 -121.5)"/><path class="cls-3" d="M144.91,149.83l-.21.13A.52.52,0,0,0,144.91,149.83Z" transform="translate(-122 -121.5)"/><path class="cls-3" d="M148.69,165.93l.07,0S148.72,165.9,148.69,165.93Z" transform="translate(-122 -121.5)"/><path class="cls-3" d="M144.25,150.51a.49.49,0,0,0-.23,0,.13.13,0,0,0,0,.07Z" transform="translate(-122 -121.5)"/><path class="cls-3" d="M159,163h0Z" transform="translate(-122 -121.5)"/><path class="cls-3" d="M159.32,161.28c-.13.19.25.28.41.43-.06.3-.3,0-.51-.05,0,.19.21.5.11.59s-.09,0-.13-.09c.13.32-.31.45-.16.85l-.09,0a1.81,1.81,0,0,1,.41.29c-.07.09,0,.31-.17.19.05-.05,0-.12-.06-.19v.15c-.33-.15,0-.19-.18-.36-.06.23,0,.63-.21.69-.27-.21.18-.38-.19-.41l.27-.11c-.53-.21.13-.09-.42-.34-.29.17-.11.4-.42.56.08.18.22.18.29.37-.14.58-.85-.38-.81.19.08.23.31.59,0,.56l-.17-.35c-.28.16.18.55-.25.55,0-.16.14-.26.07-.26-.35-.12,0,.27-.14.37l-.22-.26c-.26.21-.45.65-.78.88,0-.1,0-.23-.15-.28a1.3,1.3,0,0,1-.67.34,3.4,3.4,0,0,1-.78,0l-.07.34s-.11-.11-.09-.17c-.2-.06,0,.18,0,.31s-.18-.13-.14-.23c-.23.32-.78.76-1.17.48l0-.09c-.27-.08-.22.64-.5.4l0-.05c-.58-.09-1.24.21-1.66-.27-.12.42-.55-.22-.65.35-.29-.34-.18-.43-.6-.69-.11,0-.25.32-.41.34l.06-.3-.27.26,0-.38-.15,0a.25.25,0,0,1,.05.25c-.27.08-.47-.35-.42-.51l-.58.07c.06-.11.16-.12.25-.18-.37.2.07-.32-.27-.13,0,.07-.09.16-.12.22a.59.59,0,0,0-.53-.37l.13-.17c-.32-.2-.74-.29-1.11-.52.08.17-.15.46-.28.42l.13-.3c-.18.13.05.17-.24.29-.11-.13.12-.37.26-.4l-.23,0c0-.09.12-.1.2-.19-.19.11-.07-.47-.37-.25l.05-.09c-.35-.24-.54-.31-.81-.52-.2.19-.26.06-.5.15-.12-.27-.15-.63-.38-.84s-.22.1-.42.12c.19-.17,0-.41.23-.39a3.56,3.56,0,0,0-.77-.64c-.06.1-.07.18-.16.2s0-.24.1-.29h0c-.64-.29.08-1.43-.56-1.59l0,0-.41-.32c0-.21.22,0,.32-.15-.59-.31-.14-.73-.53-1A.57.57,0,0,0,142,158c-.1-.26-.2-.55,0-.77l-.17,0c-.18-.1.09-.14.13-.21-.14,0-.15.12-.25.06-.28-.91.3-1.85.66-2.64.13-.3-.84-.42-.33-.72l.29.21a1.59,1.59,0,0,1,.16-1,2,2,0,0,0,.32-1c.05.07.13.11.1.17.28,0,.27-.42.11-.53.07-.08.16.07.28.07s-.08-.47.16-.4c0,0,0,.08.05.11-.05-.14.27-.32,0-.41.26-.12.19-.46.45-.51-.15-.3.39-.22.1-.54.32.32.54-.08.53-.33,0,.14.2,0,.28.19a.28.28,0,0,0,0-.45c.58.19.26-.76.82-.33a3.14,3.14,0,0,1,.47-.68,4.17,4.17,0,0,1,.55-.56c.19.4-.45.31-.2.71.28-.41.38-.84.84-.95.13,0,0,.21,0,.29.35-.36.83-.28,1.15-.64a.2.2,0,0,1-.05.14c.07,0,.2,0,.13-.18l-.06.07c-.22-.25.15-.68.13-.83,0,.6.45,0,.41.81a.32.32,0,0,0,0-.29c.09,0,.13.09.08.26.26-.18.12-.36.39-.4,0,.1,0,.14,0,.26.09-.21.2-.42.44-.37,0,.06,0,.13,0,.14.37-.1.62-.57,1.07-.41-.12.43.15.13.18.5l.22-.11-.09-.18c.2,0,.39-.25.57-.12l-.16.15.38,0-.21-.16c.23-.18,0-.47.29-.35-.06,0,.21,0,.3.25h0c.12-.1.25-.21.39-.09s-.1.4-.08.49c.14-.29.48,0,.68-.32a.7.7,0,0,0-.1.3l.14-.22c.07.1.08.14,0,.29.26.12,0-.49.3-.2,0,0,0,0-.09.08.31.18.7,0,1,.24,0,.39-.29,0-.29.33.43.08,1-.11,1.39.19l-.06-.08c.29-.44.19.38.5.26-.07,0-.21.22-.17.18.21.23.59.19,1.07.3l-.12.08c.07.21.33.34.45.5.12-.07.2,0,.27-.18a.63.63,0,0,0,.54.68c.29.09.58.21.51.62,0,0-.18,0-.15,0l.39.24c.15-.17.07-.13.14-.32a.38.38,0,0,1,.39.07c-.26-.06-.28.23-.33.39a1.24,1.24,0,0,1,.18-.14c-.18.45.38-.26.36.18l-.1.06c.12.06.32.06.37.19-.18.2-.18,0-.36.09.12.13.64,0,.5.3-.1,0-.16-.13-.27-.15-.15.32-.09.3-.06.44h0l0,.33,0-.11c.71-.16.37.32.9.39-.52-.07-.25.07-.53.19,0,.11-.07.26-.16.26.28,0-.08.29.33.32-.08.05.06.14-.18.21.15.13.14-.1.26-.14.43.14-.15.76.43,1,.28.29.61.27.86.57-.13.15-.37,0-.37,0a.38.38,0,0,0,.11.49c-.09,0-.16,0-.26.1s.37,0,.25.24a2.79,2.79,0,0,1-.4-.07c.11.14.31.27.43.42-.17.07-.28-.06-.39-.1.1.17.23.45.49.48l.09-.13c0,.07-.23.06-.29,0-.23-.14.06-.24.16-.27l.08.12c.55-.2-.17-.48-.17-.72l.42,0-.37-.19c.09-.08.31-.16.4-.05.16-.22-.19-.13,0-.33a.06.06,0,0,1,.07,0L162,154c.09,0,.28-.09.25,0,.15-.38-.44-.43-.16-.64l0,0c-.27-.39-.31.05-.75-.15l.63-.46-.3.06a.13.13,0,0,1,.1-.17c-.25-.09-.11.08-.33.05.19-.31-.34-.51.07-.75-.24,0-.07.27-.32.12.45-.28-.2-.21-.07-.49.27-.07.23.18.35-.12-.46.09-.09-.41-.27-.52-.31.17-.32-.25-.58-.44.13-.06-.15-.56-.21-.86l.05,0c-.33.18-.43-.1-.63-.2a.5.5,0,0,1,.42-.14l-.14-.14a.36.36,0,0,1-.32,0l.24-.15c-.2-.18-.58-.18-.7-.54-.19.18-.31.68-.67.58.08-.11.24-.29.34-.27s-.15,0-.16-.07l.27-.07c0-.18-.2.09-.27,0,.14-.14,0-.16.15-.27s0,.13.11.11a.55.55,0,0,1-.06-.47c-.07.1-.18.2-.27.16s.09-.24,0-.43c-.13.06-.18-.15-.37.08-.06-.05,0-.16,0-.24-.19,0-.53-.36-.59,0l0,0h0c-.5,0-.66-.63-1.1-.76l.05-.09c-.28,0-.55-.2-.8-.09-.07,0-.09-.24,0-.33-.21,0-.27.06-.48-.18.26-.09,0-.17.25,0-.21-.17-.22-.34-.58-.18.18-.21-.08-.37-.22-.34l.11.23a.76.76,0,0,1-.36-.14l.17-.29c-.44-.54-1.12.4-1.38-.33-.19.2.26.2.08.45-.23-.08-.41-.59-.49-.6-.33-.23-.38.42-.72.26a.45.45,0,0,1-.22.54c-.23-.06-.27-.51-.1-.6s.08,0,.08.07.19-.08.1-.22l0,.12c-.11-.13-.46-.13-.37-.32-.2.1-.09.19.05.26-.32-.18-.51-.05-.84-.14.06.06.11.2.05.2-.48-.12-.2.24-.52.31-.19-.18,0-.44-.28-.27-.21-.11-.07-.31,0-.41-.29.23-.59-.08-.78-.1l.15-.12a.45.45,0,0,1-.25.09l.12.22c-.1,0-.18,0-.19-.11-.07.17.13.38,0,.62-.14-.1-.34.18-.45-.11.41,0-.11-.31.22-.42a.27.27,0,0,1-.24,0,.08.08,0,0,1,0-.09c-.44-.19-.1.39-.48.48,0-.19-.17-.3-.23-.25.16,0,.15.27.05.43-.28-.07-.24.17-.37.19l.16,0c0,.18-.12.19-.26.31-.05-.13.12-.15,0-.18-.07.36-.51-.16-.69.13-.16-.07-.13-.31-.27-.35-.2.32-.4-.09-.63.22.19.18.18.12.08.43l.4-.38-.16.46c.14-.06.23-.28.34-.28-.08.24-.08.19.06.33-.33-.23-.28.37-.6.26l-.25-.54c-.48-.07-.46.57-.94.7h.18c.07.23-.23.18-.31.34-.1-.17-.22-.18-.35-.25.09.12-.3.21-.1.55l-.33-.08c-.38.16,0,.7-.32.9-.05-.24-.27-.23-.19-.52-.09.09-.2.14-.11.24-.14,0-.08.43-.29.37,0,.1.15.26,0,.34a.21.21,0,0,1-.07-.07c.07.07-.05.24.18.31-.69-.14-.68.77-1.26.72a7.68,7.68,0,0,1-.38.76c0-.05-.09-.06,0-.09-.33.19.36.49,0,.7-.38,0-.05-.27-.21-.22-.58-.29-.18.43-.62.48v-.08c-.28.09,0,.56-.17.83a.19.19,0,0,0-.09,0,1.93,1.93,0,0,1,.15,1.07c-.21-.17-.08-.18-.34-.21,0,.14.4.1.38.38a1.22,1.22,0,0,1-.62.13c0-.09.05-.17.07-.25-.39,0-.09.33-.18.44l-.15-.06c-.05.42.33.52.19.92l.13,0c.33.3-.25.15,0,.43H140a5.17,5.17,0,0,1,.33.86c-.28-.18-.37-.52-.51-.75,0,.15-.06.53.13.63,0-.06-.12-.15,0-.21a.93.93,0,0,1,.4.78c-.76-.09-.24.78-.8,1a1.22,1.22,0,0,1,.1.84,2.92,2.92,0,0,0,0,.93c.55-.33,0,.19.64,0,.06.14.07.19,0,.22l-.24.52c-.15.15-.17-.11-.3-.06,0,.34-.21.2-.31.46.2-.1.33,0,.3.25l.2-.35c.42.36-.37.55.09.9l-.23-.08c.19.2.31.88.88.88,0,.07-.17.19-.26.11.18.59,1.06.9,1,1.43l-.15,0c.1.07.33,0,.29.2-.06,0-.15.05-.13.1s.39.08.4.24h-.21c.18.59.85.45,1.24.71-.33.28-.14.73,0,.93l0,0c.47.5,1.09.5,1.68.71,0,.62.94.88,1.36,1.38,0-.11.17-.29.29-.29.09.15.48-.1.29.25l0,0c-.07.41.24.45.46.53l.23-.47a.87.87,0,0,0,.91.56c.37,0,.69,0,.78.38.16-.09.34-.06.51-.17l-.06.28a2.64,2.64,0,0,0,1.1.19l-.13.19c.29,0,.43-.79.67-.8l.06.43c.47,0,1,.35,1.46,0,0,.07,0,.19-.09.21.23,0,.93.18.77-.38.06.37.51,0,.72-.25l0,.28c.14-.4.12-.5.39-.67.07,0,.11.2,0,.16.27.08.11-.3.43-.23l-.06.2c.25-.05.2-.12.27-.37s.44-.09.57.14c0-.16,0-.4.19-.38a.21.21,0,0,1,0,.19c.46.05.42-.54.79-.4a.3.3,0,0,0,.11.13,2.32,2.32,0,0,1-.52.2c.09.24.36.16.31.58.13-.27.27-.81.56-.82l.07.07v0a.13.13,0,0,0,.13-.11.4.4,0,0,0,.22,0c.14.17.33-.06.45-.13-.16-.23,0-.28-.25-.39,0,0,0,0-.07.09s0,0,0,.06v0l-.27.19c0-.18.05-.34.26-.28l-.09-.48c.36.25.77.24.95.4.23-.38.73-.66.55-1.24,0-.12.2,0,.29.06s-.08.13-.06.21c.08-.25.47-.49.25-.79.32-.07.13.35.36,0l0,.12c.48-.09.53-.49.58-.87s.06-.76.63-.88a.25.25,0,0,1-.17,0c.83-.64.75-1.82,1.54-2.51.2-.23,0-.33-.13-.54l.31,0-.26-.38c-.17-.43.92-.49.51-1.1l-.21,0c.07-.17,0-.58.2-.52,0,0-.2-.08-.09-.14h.16a3.29,3.29,0,0,0-.23-.46c.14-.34.63.1.68-.42,0-.2-.43-.55-.54-.48a.28.28,0,0,1-.26.2l-.08-.17c-.46,0-.93-.14-1.28.21l.27.27-.23.07V157c-.22.11,0,.19.09.28a.37.37,0,0,0-.25.09l.43.28c-.19,0-.35-.14-.47,0,.19.14.42-.07.53.14-.23.1-.4,0-.24.2a.24.24,0,0,1-.24-.1c.13.15,0,.34.25.45-.27.07,0,.43-.44.33.09.06.28.29.27.41-.46-.34-.14.41-.67.2.43.28,0,.57.18.93,0,0-.09-.09-.06-.1s-.24.12-.35.17c.35.17.32.43.48.65-.42,0-.36-.3-.72-.4.3.13.15.43.41.49a.7.7,0,0,1-.47,0c.42.25,0,.16.21.41-.32.06-.42-.18-.41.09C159.36,161.54,159.32,161.28,159.32,161.28Zm-3.34,4.3h0l.1-.06Zm-.43.21a.52.52,0,0,0,.19-.08c.06.08.09.18,0,.2S155.65,165.83,155.55,165.79Zm1.88,1.21c-.05.08-.11.05-.15,0a.6.6,0,0,0,.12-.11v0A.43.43,0,0,1,157.43,167Z" transform="translate(-122 -121.5)"/><path class="cls-3" d="M157.38,166.6l0,0-.07,0v.09Z" transform="translate(-122 -121.5)"/><path class="cls-3" d="M157.93,147.55h0a0,0,0,0,1,0,.05S157.93,147.56,157.93,147.55Z" transform="translate(-122 -121.5)"/><polygon class="cls-3" points="27.22 44.42 27.2 44.49 27.26 44.44 27.22 44.42"/><path class="cls-3" d="M159.32,150.17s0,0,0,.07S159.31,150.2,159.32,150.17Z" transform="translate(-122 -121.5)"/><path class="cls-3" d="M159.94,151.14v.19A.59.59,0,0,0,159.94,151.14Z" transform="translate(-122 -121.5)"/><path class="cls-3" d="M160.27,152l.11,0h0Z" transform="translate(-122 -121.5)"/><path class="cls-3" d="M148.53,147.34l0,0C148.44,147.43,148.49,147.4,148.53,147.34Z" transform="translate(-122 -121.5)"/><path class="cls-3" d="M152.56,146.33l-.14.12C152.49,146.48,152.54,146.49,152.56,146.33Z" transform="translate(-122 -121.5)"/><polygon class="cls-3" points="22.93 28.32 22.93 28.31 22.91 28.33 22.93 28.32"/><path class="cls-3" d="M152.22,146.43a.17.17,0,0,0,.2,0A.2.2,0,0,0,152.22,146.43Z" transform="translate(-122 -121.5)"/><path class="cls-3" d="M161.24,155.59v0h0Z" transform="translate(-122 -121.5)"/><path class="cls-3" d="M161.28,155.63l0,0S161.31,155.63,161.28,155.63Z" transform="translate(-122 -121.5)"/><path class="cls-3" d="M161.39,155.77l-.07-.1S161.31,155.75,161.39,155.77Z" transform="translate(-122 -121.5)"/><path class="cls-3" d="M161.18,154.43h-.11A.22.22,0,0,0,161.18,154.43Z" transform="translate(-122 -121.5)"/><path class="cls-3" d="M161.06,154.1c0,.09-.16.26-.07.35h.08C160.91,154.43,161.25,154.14,161.06,154.1Z" transform="translate(-122 -121.5)"/><path class="cls-3" d="M161.76,152.22l0,.34c.08-.1.19-.22.26-.09C162.22,152,161.87,152.64,161.76,152.22Z" transform="translate(-122 -121.5)"/><path class="cls-3" d="M161.45,151.22c.12.14.14-.08.2-.1C161.5,151.07,161.47,151.06,161.45,151.22Z" transform="translate(-122 -121.5)"/><path class="cls-3" d="M156,146.2l.12-.23C156,145.94,156.11,146.06,156,146.2Z" transform="translate(-122 -121.5)"/><path class="cls-3" d="M154.3,147l.07.19.13-.2Z" transform="translate(-122 -121.5)"/><polygon class="cls-3" points="31.97 23.49 32.04 23.47 31.79 23.5 31.97 23.49"/><path class="cls-3" d="M142.2,149.12l.27.17C142.49,149.18,142.23,148.93,142.2,149.12Z" transform="translate(-122 -121.5)"/><path class="cls-3" d="M140.08,154.23c-.17,0-.29.16-.16.28C140,154.39,140.1,154.3,140.08,154.23Z" transform="translate(-122 -121.5)"/><polygon class="cls-3" points="25.2 46.45 25.05 46.51 25.29 46.5 25.2 46.45"/><path class="cls-3" d="M142.09,149.89s-9.46-8.11-8.1-16.22,6.75-1.35,8.1,2.71a69.19,69.19,0,0,1,2.71,14.86" transform="translate(-122 -121.5)"/><path class="cls-3" d="M151.36,148.54s2.71-16.22,6.76-17.57,4,2.7,4,4.06S155.42,145.84,151.36,148.54Z" transform="translate(-122 -121.5)"/><path class="cls-3" d="M159.47,136.11s5.41,5.41,8.11,4-4.05-8.1-6.76-8.1h-2.7Z" transform="translate(-122 -121.5)"/></svg>