<svg id="圖層_1" data-name="圖層 1" xmlns="http://www.w3.org/2000/svg" viewBox="0 0 265.94 55.05"><defs><style>.cls-1{fill:#202020;}.cls-2{stroke:#000;}.cls-2,.cls-3,.cls-5{stroke-miterlimit:10;}.cls-3,.cls-5{fill:none;stroke-width:2px;}.cls-3{stroke:#fff;}.cls-4{fill:#fff;}.cls-5{stroke:#441d09;}</style></defs><title>logo</title><path d="M103,137.06h-1.24a13.81,13.81,0,0,0,.19-1.9,1.19,1.19,0,0,0-.79-1.23,29.92,29.92,0,0,0-5.93-.29l-3.43,0L89.22,144h4.85a6.87,6.87,0,0,0,2.82-.34,2.52,2.52,0,0,0,.76-1.71H99q-.75,2.85-1.34,6.25H96.46c.07-.74.11-1.31.11-1.72a1.1,1.1,0,0,0-.32-.63,1,1,0,0,0-.61-.26,11.84,11.84,0,0,0-2-.12H88.85A67.67,67.67,0,0,1,84.53,158a13,13,0,0,1,3.87-.69,33,33,0,0,1,6.9.9,17,17,0,0,0,2.94.49,2.5,2.5,0,0,0,1.66-.52,1.47,1.47,0,0,0,.64-1.16,4.1,4.1,0,0,0-.32-1.22,3.47,3.47,0,0,1-.2-1.1,1.3,1.3,0,0,1,.44-.95,1.43,1.43,0,0,1,1-.42,1.52,1.52,0,0,1,1.21.56,2.21,2.21,0,0,1,.48,1.5,4.51,4.51,0,0,1-1.75,3.5,6.84,6.84,0,0,1-4.61,1.5A36,36,0,0,1,93,160.1a73.55,73.55,0,0,0-7.7-.56,67.68,67.68,0,0,0-8.12.56l.37-1.31a14.74,14.74,0,0,0,3.28-1.13,2.68,2.68,0,0,0,.83-1.06,54.84,54.84,0,0,0,2.91-8.92q1.8-6.7,3.64-14.16a11.2,11.2,0,0,0-5.33,1.33A10.55,10.55,0,0,0,79,138.33a8.07,8.07,0,0,0-1.41,4.51,7,7,0,0,0,.2,1.76,11.26,11.26,0,0,0,.9,2.11,3,3,0,0,1,.45,1.33,1.25,1.25,0,0,1-.43.92,1.53,1.53,0,0,1-1.06.39,1.62,1.62,0,0,1-1.45-.91,7.1,7.1,0,0,1-.79-3.64A12.48,12.48,0,0,1,79.12,136Q82.85,132,90,132h8a25.69,25.69,0,0,0,6.17-.54Q103.26,135.42,103,137.06Z" transform="translate(-16 -121.5)"/><path d="M124.48,166.51l-.23,1.34c-.56.05-1.06.07-1.48.07a21.76,21.76,0,0,1-2.2-.14c-1.47-.16-2.41-.24-2.8-.24a23.54,23.54,0,0,0-3,.31A29.86,29.86,0,0,0,116,164a46.83,46.83,0,0,0,.75-4.93q-2.75,0-8.5.12-6,9.1-8.76,11.44A8.37,8.37,0,0,1,94.17,173a3.15,3.15,0,0,1-2-.5,1.58,1.58,0,0,1-.64-1.3,1.4,1.4,0,0,1,.37-1,1.23,1.23,0,0,1,.94-.4,4.47,4.47,0,0,1,.89.12,10.54,10.54,0,0,0,1.88.33,5.37,5.37,0,0,0,3.47-1.79q3.1-2.91,9.15-12.2a138.56,138.56,0,0,1,11.09-15.29,44.69,44.69,0,0,0-7.22,1,5.93,5.93,0,0,0-3,1.88,4,4,0,0,0-1,2.53,3.5,3.5,0,0,0,.31,1.2,4.1,4.1,0,0,1,.33,1.27,1.29,1.29,0,0,1-.4.91,1.31,1.31,0,0,1-1,.4,1.54,1.54,0,0,1-1.27-.6,2.83,2.83,0,0,1-.48-1.79,6.74,6.74,0,0,1,.87-3.28,7.52,7.52,0,0,1,2.53-2.65,12.77,12.77,0,0,1,4.1-1.63,33.24,33.24,0,0,1,4.46-.54,23,23,0,0,0,3.48-.44,5.39,5.39,0,0,0,2.11-1.2c-.47,1.92-.81,3.61-1,5l-1.83,13.56-1.06,9.72a13,13,0,0,0,3.12.44A10.45,10.45,0,0,0,124.48,166.51Zm-7.55-9.17a117,117,0,0,1,2.25-13.91q-3,3.94-3.67,5l-6,8.93c1.29,0,3.15.07,5.55.07C115.63,157.41,116.26,157.39,116.93,157.34Z" transform="translate(-16 -121.5)"/><path d="M137.12,146.12,134,158.57a13.2,13.2,0,0,0,1.8.17,11.89,11.89,0,0,0,2.55-.35l-.23,1.15a12.6,12.6,0,0,1-2.44.32c-.61,0-1.51-.05-2.7-.16a25.36,25.36,0,0,0-2.6-.16,20.49,20.49,0,0,0-4.33.54l.35-1.32a9.92,9.92,0,0,0,3.35-1.29,6.81,6.81,0,0,0,1.81-3.54l3.28-13.11a23.52,23.52,0,0,0,.61-3,.72.72,0,0,0-.3-.63A1.94,1.94,0,0,0,134,137l.31-1.13a24.05,24.05,0,0,0,5.65-.86c-.18.59-.43,1.47-.72,2.62l-1.77,6.92a9.52,9.52,0,0,0,1.91.24,6.91,6.91,0,0,0,5-2.06,6.59,6.59,0,0,0,2.09-4.86,4.46,4.46,0,0,0-1.68-3.59,6.82,6.82,0,0,0-4.55-1.41,15.7,15.7,0,0,0-7.2,1.78,13.45,13.45,0,0,0-5.27,4.42,9.86,9.86,0,0,0-1.76,5.53,4.81,4.81,0,0,0,1.81,3.75,6.31,6.31,0,0,1,1.13,1.13,1.42,1.42,0,0,1,.21.75,1.25,1.25,0,0,1-1.25,1.22,2.77,2.77,0,0,1-2.27-1.48,8.38,8.38,0,0,1-1.27-4.74,12.33,12.33,0,0,1,2-6.73,14.9,14.9,0,0,1,6-5.16,18.66,18.66,0,0,1,8.52-2,13.5,13.5,0,0,1,6.88,1.57,5.05,5.05,0,0,1,2.69,4.64,7.53,7.53,0,0,1-2.47,5.38,12,12,0,0,1-6.8,3.19c.71,1.44,1.18,2.41,1.38,2.91.33.84.83,2.26,1.5,4.27q2.37,7,4.9,9.9a5.4,5.4,0,0,0,4.06,2.11,2.72,2.72,0,0,0,2.88-2,4,4,0,0,1,.7-1.59,1.43,1.43,0,0,1,1-.42,1.29,1.29,0,0,1,1,.4,1.34,1.34,0,0,1,.39,1,3.64,3.64,0,0,1-1.6,2.77,6.21,6.21,0,0,1-4.1,1.32,9.08,9.08,0,0,1-4.35-1.11,12.86,12.86,0,0,1-4-3.6,25.57,25.57,0,0,1-3.42-6q-.72-1.76-2.13-6.45-.84-2.86-1-3.42l-.58-.05A5.93,5.93,0,0,0,137.12,146.12Z" transform="translate(-16 -121.5)"/><path d="M166,146.12l-3.15,12.45a13.2,13.2,0,0,0,1.8.17,11.89,11.89,0,0,0,2.55-.35l-.23,1.15a12.6,12.6,0,0,1-2.44.32c-.61,0-1.51-.05-2.7-.16a25.36,25.36,0,0,0-2.6-.16,20.49,20.49,0,0,0-4.33.54l.35-1.32a9.83,9.83,0,0,0,3.35-1.29,6.66,6.66,0,0,0,1.81-3.54l3.28-13.11a23.52,23.52,0,0,0,.61-3,.72.72,0,0,0-.3-.63,1.92,1.92,0,0,0-1.15-.19l.3-1.13a24.2,24.2,0,0,0,5.66-.86c-.19.59-.43,1.47-.73,2.62l-1.76,6.92a9.35,9.35,0,0,0,1.9.24,6.89,6.89,0,0,0,5-2.06,6.55,6.55,0,0,0,2.09-4.86,4.48,4.48,0,0,0-1.67-3.59,6.87,6.87,0,0,0-4.56-1.41,15.69,15.69,0,0,0-7.19,1.78,13.41,13.41,0,0,0-5.28,4.42,9.85,9.85,0,0,0-1.75,5.53,4.83,4.83,0,0,0,1.8,3.75,6,6,0,0,1,1.13,1.13,1.42,1.42,0,0,1,.21.75,1.17,1.17,0,0,1-.37.86,1.19,1.19,0,0,1-.88.36,2.76,2.76,0,0,1-2.26-1.48,8.38,8.38,0,0,1-1.28-4.74,12.26,12.26,0,0,1,2-6.73,14.86,14.86,0,0,1,6-5.16,18.71,18.71,0,0,1,8.53-2,13.49,13.49,0,0,1,6.87,1.57,5.06,5.06,0,0,1,2.7,4.64,7.57,7.57,0,0,1-2.47,5.38,12.08,12.08,0,0,1-6.81,3.19q1.08,2.16,1.38,2.91c.33.84.83,2.26,1.5,4.27q2.37,7,4.9,9.9a5.4,5.4,0,0,0,4.06,2.11,2.72,2.72,0,0,0,2.88-2,3.94,3.94,0,0,1,.71-1.59,1.41,1.41,0,0,1,1-.42,1.29,1.29,0,0,1,.95.4,1.34,1.34,0,0,1,.39,1,3.64,3.64,0,0,1-1.6,2.77,6.21,6.21,0,0,1-4.1,1.32,9.11,9.11,0,0,1-4.35-1.11,13,13,0,0,1-4-3.6,25.57,25.57,0,0,1-3.42-6q-.72-1.76-2.13-6.45-.84-2.86-1.05-3.42l-.58-.05A5.93,5.93,0,0,0,166,146.12Z" transform="translate(-16 -121.5)"/><path d="M200.22,127.78l-.4,1.27a9.41,9.41,0,0,0-3.52.65,2.57,2.57,0,0,0-.94,1,91.58,91.58,0,0,0-2.6,9q-.7,2.67-3.59,14.62a12.34,12.34,0,0,0,4.15.46l-.37,1.13a29.56,29.56,0,0,1-3-.19c-1.07-.09-2.33-.14-3.77-.14a30.8,30.8,0,0,0-5.47.45l.28-1.25a14.75,14.75,0,0,0,3.92-1,1.53,1.53,0,0,0,.52-.4,5.54,5.54,0,0,0,.76-1.7q.4-1.28,2.8-10.45.71-2.66,2.87-11.59a17.42,17.42,0,0,0-4,.45l.45-1.29a13.44,13.44,0,0,1,2-.37c.69-.07,2.25-.13,4.67-.2A43.28,43.28,0,0,0,200.22,127.78Z" transform="translate(-16 -121.5)"/><path d="M217.18,131.29l.66,2.75q.91,3.75,1.81,6.56t4.57,13c.23-.86.7-2.76,1.41-5.72.91-3.85,1.51-6.26,1.8-7.25a30.14,30.14,0,0,1,2.54-6.38,8.11,8.11,0,0,1,2.72-2.93,6.46,6.46,0,0,1,3.4-.89,4,4,0,0,1,2.34.58,1.72,1.72,0,0,1,.8,1.41,1.43,1.43,0,0,1-.43,1,1.37,1.37,0,0,1-1,.45,2.62,2.62,0,0,1-1-.24l-1.4-.54a4.42,4.42,0,0,0-.92-.09,2.79,2.79,0,0,0-2,.77q-1.45,1.37-3.2,6.83t-4.45,17.48l-.8,3.49c-1.78-3.92-3-6.71-3.61-8.35-.84-2.2-1.81-5-2.88-8.35L215,136.8q-.48,2.82-2.2,9.49T210.73,154a18.48,18.48,0,0,1-2.31,4.85,8.07,8.07,0,0,1-2.7,2.47,6.86,6.86,0,0,1-3.22.77,6.17,6.17,0,0,1-3.62-1,2.16,2.16,0,0,1-1.08-1.85,1.22,1.22,0,0,1,.4-.88,1.34,1.34,0,0,1,1-.39,2.45,2.45,0,0,1,1.58.78,4.27,4.27,0,0,0,2.74,1.38,3.91,3.91,0,0,0,2.63-1.19q1.92-1.83,3.71-7.68A166.66,166.66,0,0,0,214,133.33a20,20,0,0,0-3.15.47,13.75,13.75,0,0,0-3.88,1.33,6.19,6.19,0,0,0-2.39,2.22,5.45,5.45,0,0,0-.83,2.88,5.74,5.74,0,0,0,.21,1.52,4.6,4.6,0,0,0,.61,1.27,2.92,2.92,0,0,1,.54,1.31,1.32,1.32,0,0,1-.41,1,1.44,1.44,0,0,1-1,.39,1.81,1.81,0,0,1-1.53-.92,5.09,5.09,0,0,1-.63-2.83,9,9,0,0,1,1.58-5.35,9.83,9.83,0,0,1,4.24-3.33,30.65,30.65,0,0,1,6.52-1.36A34,34,0,0,0,217.18,131.29Z" transform="translate(-16 -121.5)"/><path d="M256.58,142h-1.27a18.26,18.26,0,0,0,.12-2q0-3.16-1.63-4.62a5.83,5.83,0,0,0-4-1.45,11.84,11.84,0,0,0-6.64,2.23,17,17,0,0,0-5.46,6.25,17.7,17.7,0,0,0-2.12,8.37q0,4.43,2.1,6.51a6.54,6.54,0,0,0,4.7,2.09,10.59,10.59,0,0,0,5.68-1.62,22.39,22.39,0,0,0,1.08-4.9,1.15,1.15,0,0,0-.43-.93,2.57,2.57,0,0,0-1.54-.34c-.25,0-.85,0-1.81.12l.21-1.15a11.29,11.29,0,0,1,2.09-.19c.56,0,1.26,0,2.09.05l1.43,0c.56,0,1.42,0,2.58-.14.61-.05,1.13-.08,1.57-.09l-.26,1.19a2.2,2.2,0,0,0-1.68.51,7.26,7.26,0,0,0-1,2.75,54.33,54.33,0,0,1-3.81,11.58,13.24,13.24,0,0,1-4.26,5.14,9.21,9.21,0,0,1-5.15,1.56,6.2,6.2,0,0,1-3.78-1.07,2.91,2.91,0,0,1-1.44-2.24,1.54,1.54,0,0,1,1.51-1.52,2.69,2.69,0,0,1,1.8,1.12A9,9,0,0,0,239,171a2.66,2.66,0,0,0,1.37.37,3.53,3.53,0,0,0,2.6-1.15c1.54-1.52,3-5,4.53-10.53a14.71,14.71,0,0,1-3.14,1.28,12.37,12.37,0,0,1-3.26.43,9.24,9.24,0,0,1-6.5-2.18,10.46,10.46,0,0,1-3.17-8.11,17.49,17.49,0,0,1,2.41-8.91,19.67,19.67,0,0,1,6.68-6.87,15.45,15.45,0,0,1,8.13-2.69,21.83,21.83,0,0,1,4.9.66,23,23,0,0,0,4.32.65A29.45,29.45,0,0,0,256.58,142Z" transform="translate(-16 -121.5)"/><path class="cls-1" d="M260.88,150.9c-.24.09-.76.38-.62.38l.9-.42Z" transform="translate(-16 -121.5)"/><path class="cls-1" d="M259.52,152.21a8.92,8.92,0,0,0,2-1c-.85.43-.52.21-1.54.7-.14,0,.21-.27.53-.44-.23.1.14-.2-.43.07-.63.45-.58.59,0,.38A4.88,4.88,0,0,1,259.52,152.21Z" transform="translate(-16 -121.5)"/><path class="cls-1" d="M265.29,158.27l0-.13A.23.23,0,0,0,265.29,158.27Z" transform="translate(-16 -121.5)"/><path class="cls-1" d="M271,158.75s0,.14,0,.22A.33.33,0,0,0,271,158.75Z" transform="translate(-16 -121.5)"/><path class="cls-1" d="M272.33,159.49l-.09-.05C272.3,159.52,272.34,159.56,272.33,159.49Z" transform="translate(-16 -121.5)"/><path class="cls-1" d="M265.29,158.27l.07.34C265.45,158.3,265.34,158.35,265.29,158.27Z" transform="translate(-16 -121.5)"/><path class="cls-1" d="M262,151.67l-.25.12.12,0Z" transform="translate(-16 -121.5)"/><path class="cls-1" d="M262.61,158.14l-.05,0-.21.35Z" transform="translate(-16 -121.5)"/><path class="cls-1" d="M260.77,157.22a7.16,7.16,0,0,0,.75-.91,1.89,1.89,0,0,1-.41.42A5.6,5.6,0,0,0,260.77,157.22Z" transform="translate(-16 -121.5)"/><path class="cls-1" d="M259.54,154.05l-.12,0Z" transform="translate(-16 -121.5)"/><path class="cls-1" d="M263.89,158.88a2.27,2.27,0,0,0-.08.29A1.82,1.82,0,0,0,263.89,158.88Z" transform="translate(-16 -121.5)"/><path class="cls-1" d="M262.76,150.51l-.15,0Z" transform="translate(-16 -121.5)"/><path class="cls-1" d="M258.91,151.92h-.05l-.42.21Z" transform="translate(-16 -121.5)"/><path class="cls-1" d="M274.67,159.63h0C274.65,159.73,274.67,159.7,274.67,159.63Z" transform="translate(-16 -121.5)"/><path class="cls-1" d="M281.28,142.59c-.57.56-1,.09-1.62.8C279.93,143.19,281,143.1,281.28,142.59Z" transform="translate(-16 -121.5)"/><path class="cls-1" d="M262,151.77s0,0,0,0S262,151.76,262,151.77Z" transform="translate(-16 -121.5)"/><path class="cls-1" d="M279.66,143.39h0l-.06.06Z" transform="translate(-16 -121.5)"/><path class="cls-1" d="M278.13,156.32a2.25,2.25,0,0,0-.3-.22A2.12,2.12,0,0,0,278.13,156.32Z" transform="translate(-16 -121.5)"/><path class="cls-1" d="M274.84,157.55l.12,0A.19.19,0,0,0,274.84,157.55Z" transform="translate(-16 -121.5)"/><path class="cls-1" d="M278.33,154.26c.08,0,.18.07.13,0l-.1,0C278.44,154.25,278.47,154.31,278.33,154.26Z" transform="translate(-16 -121.5)"/><path class="cls-1" d="M279.3,152.86l-.17-.06v.07Z" transform="translate(-16 -121.5)"/><path class="cls-1" d="M263.54,148.55l-.6-.47C263.4,148.47,263.45,148.73,263.54,148.55Z" transform="translate(-16 -121.5)"/><path class="cls-1" d="M261.66,152a1.27,1.27,0,0,1,.31-.19.06.06,0,0,0-.06,0A2.26,2.26,0,0,0,261.66,152Z" transform="translate(-16 -121.5)"/><path class="cls-1" d="M273.09,150.17l.19,0A.19.19,0,0,0,273.09,150.17Z" transform="translate(-16 -121.5)"/><path class="cls-1" d="M270.36,144.53v.1S270.37,144.62,270.36,144.53Z" transform="translate(-16 -121.5)"/><path class="cls-1" d="M273.44,149.68a3.66,3.66,0,0,0,.53.24l-.17-.13Z" transform="translate(-16 -121.5)"/><path class="cls-1" d="M262.93,148.08h0Z" transform="translate(-16 -121.5)"/><path class="cls-1" d="M263.89,150.09c.09-.08-.86-.67-1.36-1.05-.15-.33.71.4,1.2.7-.2-.25-.94-.94-.85-1a2.91,2.91,0,0,1,.37.29c-.6-.65.18-.3-.53-1.14a1.93,1.93,0,0,1,.21.17c-.43-.35-.85-.73-1.15-1,.05-.07-.4-.59.16-.13-.06,0,.16.23.31.4l-.18-.28c.82.65.19.33.76.85-.15-.34-.64-1.09-.32-1,.73.7,0,.46.8,1l-.41-.13c1.27,1-.15,0,1.19,1.08.35,0-.21-.54.17-.49-.36-.44-.6-.58-1-1-.42-1,1.94,1.69,1.21.52-.4-.55-1.22-1.54-.63-1.15l.7.92c.24-.07-1-1.37-.26-.93.25.38.09.41.2.5.71.6-.32-.58-.21-.66l.65.78c.09-.29-.11-1,0-1.38a3.69,3.69,0,0,0,.54.77c0-.63.72-.34,1.31,0l-.33-.82a1.31,1.31,0,0,1,.3.48c.28.22-.27-.49-.39-.82,0-.1.34.38.43.64-.18-.77-.13-1.75.52-1l.07.26c.32.24-.57-1.73,0-1.06l0,.15c.54.16.73-.77,1.48.38-.34-1.22.56.41.06-1.29a9,9,0,0,0,1,1.58c.09.06-.16-1.1-.09-1.31l.22.9-.08-1,.31,1.06.05-.25a2.12,2.12,0,0,1-.22-.65c.08-.44.5.55.58,1a8.12,8.12,0,0,1,.22-.81,3.48,3.48,0,0,1,0,.74c.05-1,.15,1,.2.08a6.41,6.41,0,0,1-.07-.73c.15.53.31.54.43.29l0,.64c.22.13.44-.32.68-.31a4.42,4.42,0,0,1,.08-1.5v1a6.67,6.67,0,0,1,.08-1.1,4.18,4.18,0,0,1-.07,1.42l.13-.32c0,.29-.06.44-.09.81.1-.6.06,1,.23-.05l0,.29c.2,0,.33-.27.51-.29a6.56,6.56,0,0,1,.45-1.27c.09.32,0,1,.18,1a10.32,10.32,0,0,0,.53-1.1c-.28.72-.11.71-.4,1.19.22-.06.24,0,.78-.47a4.23,4.23,0,0,1,.32-.64c.12-.08-.05.34-.25.65l-.06.06c.44-.43.29.19.1.65s-.53.84.1.31l-.07.05a6.13,6.13,0,0,1,.74-.46c-.05.14-.47.34-.79.69.51-.36.52-.26.46-.17s-.14.19.25,0c-1,.58-1,.55-.8.54s.39,0-.29.23l.52-.12c.52-.08-.29.1-.41.13.41-.08.46-.12.75-.16s.22.13.17.23a.75.75,0,0,1-.33.29c-.37.2-.81.3-1.11.44s2.68.67,1.4.62l-1-.3c.55.3.45.51.37.68s-.24.34.14.74c-.19-.12-.47-.24-.45-.27-.69-.23-.14.26.37.53-.09,0-.48-.22-.77-.32s.71.62.05.32a.76.76,0,0,1-.23-.17c.28.22-.2.19.54.55-.41-.06.16.47-.34.32.73.58-.52,0,.54.75-1.11-.78-1-.39-.61.08-.31-.28-.4-.19-.83-.56-.05.09.08.33.64.75-1.38-.86.69,1.23-1-.06a3.65,3.65,0,0,1,.34,1.82c-.89-1,.2-.35-.79-1.38.18.58.79,1.61.32,1.57-.18-.1-.32-.49-.45-.68.09.61-.52.24-.33,1a1.55,1.55,0,0,1-.15-.33c0,.06-.21-.11.12.4l0-.16a9.24,9.24,0,0,1,1,2.11c-.81-1.57-.49-.22-1.47-2.24a3.25,3.25,0,0,0,.35.75,1.69,1.69,0,0,1-.42-.71c0,.38.37.94.2,1-.13-.26-.15-.38-.3-.7.19.55.35,1.11.1,1-.07-.16-.18-.37-.14-.38-.18.18.18,1.63-.34,1.2-.34-1.25-.24-.37-.61-1.42l0,.36.22.5c-.13,0,0,.86-.25.53l0-.47-.2.26.25.38c0,.59.38,1.36.09,1.11,0-.12-.18,0-.4-.6h0c0,.37,0,.75-.18.51s-.2-1.22-.26-1.46c.09.94-.29.3-.25,1.3a8.84,8.84,0,0,0-.1-.93l0,.76a2.15,2.15,0,0,1-.16-.82c-.22-.11.22,1.41-.1.83a1.74,1.74,0,0,1,0-.29c-.26-.28-.46.5-.72.14-.07-1.12.19-.28.1-1.23-.27.23-.67,1.34-1,1l.05.13c-.2,1.58-.17-.79-.41-.08A4.59,4.59,0,0,0,267,155c-.17-.29-.47.33-.92.74l.13-.39c0-.39-.28-.29-.36-.5a3,3,0,0,0-.33.88c.11-1.16-.12-.94-.45-.67s-.69.57-.46-.41c.05,0,.24-.28.21-.29l-.44.2a4.66,4.66,0,0,0-.31.91c-.22.36-.46.59-.54.55a3.34,3.34,0,0,0,.62-1.36c-.09.19-.22.39-.31.58.41-1.17-.69,1.23-.53.36l.19-.31c-.17.12-.49.48-.53.34.37-.72.28-.27.62-.84-.13,0-1,1.15-.73.4.17-.15.25-.11.42-.27.38-.87.24-.67.24-.85v0a4.19,4.19,0,0,1,.06-.48l-.1.25c-1.33,1.61-.49.11-1.51,1,1-.88.49-.57,1.06-1.27a2.65,2.65,0,0,1,.4-.69c-.54.52.25-.53-.54.19.19-.22-.06-.09.45-.62-.24.09-.32.4-.57.67s-.3,0-.21-.28.14-.5-.45-.14a15.29,15.29,0,0,1-1.94.9A2.7,2.7,0,0,1,261,153c.23-.38.12-.41-.23-.32a3.32,3.32,0,0,0,.62-.51c-.12,0-.9.58-.63.21.28-.17.72-.46,1-.61-.27.07-.79.29-1.08.34a5,5,0,0,1,1-.54,2.67,2.67,0,0,0-1.28.37l-.2.24c-.06,0,.57-.4.72-.44.58-.25-.14.29-.38.46l-.21,0c-1.37,1,.46.17.48.36l-1.05.68,1-.46a3.44,3.44,0,0,1-1,.72c-.39.5.43-.17,0,.37a.42.42,0,0,1-.17.13l.39-.12c-.22.15-.66.59-.58.4-.35.69,1-.27.38.44l-.07,0c.57,0,.7-.58,1.66-1.12-.5.56-1,1.14-1.47,1.72l.67-.62c0,.05,0,.15-.25.4.55-.34.26-.3.73-.67-.43.74.63.05-.29,1.18.5-.48.22-.53.68-.76-1,1.24.34-.05,0,.6-.55.61-.43.16-.73.84.94-1,.12.46.42.36.64-.89.53-.16,1-.33-.22.29.1.76.13,1.24l-.09.15c.57-.93.7-.64,1-.76a3.24,3.24,0,0,1-.68,1l.17.07c.2-.29.33-.44.49-.5l-.39.72c.26.07.83-.66.91-.05a9.09,9.09,0,0,1,1-2.44,5.54,5.54,0,0,1-.52,1.19s.21-.29.19-.11l-.36.61c0,.33.27-.52.35-.43-.21.56-.08.43-.26.86,0,.05,0-.26-.12-.06a1.69,1.69,0,0,1,0,1c.1-.32.27-.75.38-.79s-.15.7-.11,1c.18-.37.21.07.47-.77.07,0,0,.42-.08.66.24-.34.61,0,.71-.9l0-.07,0,0h0c.56-.74.68.66,1.15.36l0,.29c.27-.29.54-.13.76-.76a1.92,1.92,0,0,1,.06.9c.2-.21.23-.54.47,0-.2.51.05.47-.2.37.22.27.29.75.56-.07-.1.77.2.95.31.72l-.18-.53c.13-.12.24-.05.36,0l0,1c.3.59.54.08.71-.37s.33-.77.68.2c0-.7-.36-.44-.34-1.27.23.11.71,1.49.8,1.47.46.47,0-1.5.43-1.2a3.64,3.64,0,0,1-.23-1.63,3.1,3.1,0,0,1,.57,1.69c-.05,0-.11-.06-.13-.18a.74.74,0,0,0,.08.67l-.06-.35c.21.32.53.21.61.79a.65.65,0,0,0-.26-.73c.44.41.46-.13.88.09-.11-.17-.29-.55-.24-.56.58.27,0-.7.18-.94.36.44.42,1.23.54.68a1.91,1.91,0,0,1,.44,1.16c0-.76.71.17.94.2l0,.34c0-.2.1-.23.18-.27l-.4-.6c.14.07.22,0,.35.31a15.76,15.76,0,0,1-.71-1.68c.28.28.13-.51.61.3-.48-.09.5.81.27,1.12,0-.13.08-.17.22-.11a.43.43,0,0,1,.08.24c.77.53-.35-1,0-1.21.23.49.6.82.6.69-.15.08-.52-.72-.61-1.14.43.22.06-.4.19-.42l-.23-.09c-.25-.47-.12-.47-.09-.7.25.33.05.32.19.44-.39-.87.88.56.72-.11.31.22.61.8.85.93-.19-.73.73.38.61-.28a1.77,1.77,0,0,1-.71-1c0,.23,0,.47-.06.7-.13-.34-.26-.67-.41-1-.11.08,0,.53-.1.49a1.6,1.6,0,0,0-.57-.83c.83.73-.11-.71.51-.29l1.15,1.36c.79.34-.13-1.1.49-1.08l-.31-.12c-.45-.55.11-.27,0-.57a4.05,4.05,0,0,0,.94.72c-.32-.3.27-.22-.58-1l.71.38c.51-.07-1-1.42-.66-1.53.44.49.87.63,1.08,1.1.07-.08.22-.1-.1-.36.34.18-.43-.74.08-.47-.17-.2-.66-.59-.55-.65a1.78,1.78,0,0,1,.24.17c-.23-.17-.21-.38-.8-.69,1.69.8.38-.8,1.88-.2a2.35,2.35,0,0,1,0-.88c.15.1.26.14.18.15.64,0-1.41-1-.71-1,.94.28.38.39.75.46,1.78.82-.06-.5,1.07-.24l.08.1c.69.08-.49-.72-.25-.94a1.72,1.72,0,0,0,.28.11,3.21,3.21,0,0,1-1.25-1.34,3.38,3.38,0,0,0,1.11.41c-.07-.15-1.2-.33-1.34-.61a9,9,0,0,1,1.64.14l0,.26c1.08.16,0-.34.26-.42l.45.12c-.06-.45-1.22-.67-1.06-1H280c-1.11-.38.69-.09-.15-.42l1.18.07c-.27-.21-1.1-.64-1.31-.87a5,5,0,0,1,1.8.77c0-.16-.05-.58-.63-.67.11.07.4.16.21.21-.92-.24-1.35-.45-1.36-.73,1.15,0,1.28-.22,1.35-.48s.06-.54.9-.83c-.49-.26-.47-.57-.39-1a1.5,1.5,0,0,0-.05-1.21c-1.51,1-.14-.2-1.78.64-.17-.09-.16-.16-.06-.22a9.15,9.15,0,0,0,.69-1c.38-.39.44-.06.79-.29-.12-.44.56-.55.79-1.09-.51.41-.87.39-.82,0q-.23.41-.48.78c-.57,0-.32-.28-.1-.62s.45-.73-.14-.63l.57-.24c-.46,0-.89-.92-2.06,0,.1-.19.37-.63.56-.63-.21-.35-.75-.23-1.2-.18s-.81.1-.8-.41l.27-.37c-.18.05-.59.64-.51.17.1-.16.26-.37.22-.42-.14.1-.64.54-.66.25l.34-.4c-.37-.8-1.38.72-1.89.9a2.05,2.05,0,0,0-.12-2.09l.05-.18c-.72-.33-1.47.8-2.09,1.27-.26-1.48-1.25-.68-1.88-1.44a2.38,2.38,0,0,1-.06,1.17c-.16-.26-.31.94-.38-.27l.05,0c-.21-1.18-.49-.84-.72-.84l.16,1.58c-.41-1.1-.8-.85-1.07-.54s-.5.63-.9-.34c0,.42-.2.46-.22.88l-.22-.82c-.42-.11-.65-.17-1,.18l-.09-.61c-.29,0,.46,2.43.27,2.54l-.49-1.17c-.39.17-1.26-.69-1.2.54-.07-.17-.21-.51-.16-.59-.2.06-1.12-.43-.29,1.11-.5-1-.47.1-.43.64l-.35-.76c.32,1,.45,1.3.36,1.68-.1-.06-.37-.56-.19-.41-.4-.29.24.77-.19.5l-.18-.51c-.22.05-.06.29.15.89.06.35-.44,0-.87-.61.22.41.45,1,.23.87a1.67,1.67,0,0,1-.25-.49c-.61-.28.09,1.1-.56.54a1.87,1.87,0,0,0-.32-.38c.25-.15.47-.23.49-.17-.42-.65-.7-.63-1.12-1.62.14.6.58,1.82.19,1.65a2.11,2.11,0,0,1-.18-.2l0-.08c-.08,0-.08.06,0,.19-.14-.06-.23-.11-.3-.08-.4-.49-.43-.11-.55-.06.52.67.32.65.85,1.12-.05,0,0-.09,0-.17a.19.19,0,0,0,0-.1l0,.06a1.24,1.24,0,0,1,.2-.21c.17.4.31.74-.07.44l.7,1.18c-.82-.84-1.46-1.15-2-1.68,0,.58-.47.81.43,2.13.06.21-.39-.27-.59-.42s0-.19-.13-.38c.12.43-.33.54.41,1.36-.53-.18-.61-.83-.74-.45l-.2-.28c-.88-.38-.59.36-.3,1s.57,1.22-.57.82a1.07,1.07,0,0,1,.37.16c-.66,0-.77.56-.86,1s-.22.9-1.15,1.05c-.41.16.24.45.7.77l-.88-.23c.29.2.6.41.91.59s-.26.29-.76.42-.91.38-.22.72l.62,0c-.14.2.37.61-.34.62.11,0,.64,0,.32.13L257,151a4.58,4.58,0,0,0,.89.38c-.13.22-.58.34-1,.46s-.83.26-.72.67a2.17,2.17,0,0,0,1.8-.08c0-.09.18-.33.61-.52l.28,0c.63-.3,1.27-.61,1.84-.92l.83-.44.06,0h0l-.09,0,.1,0h.08a2.61,2.61,0,1,0-.36.05l.4-.06h.08a5.7,5.7,0,0,1-.74.08c.64-.1,1.16-.1.62-.09H262c.17,0,.2,0-.51,0,.79,0-.18-.14,1.13.05a3.51,3.51,0,0,1-1.06-.27c1.52.41.13-.12,1.74.38-.69-.21-.8-.32-.86-.39s-.05-.13-.37-.36c.1.05.3.16.23.14a3.48,3.48,0,0,1,.8.23,8.49,8.49,0,0,1-1.83-1.19c1.05.46,1.17.74,2.15,1.22-.85-.44-.74-.6-1.45-1a7.08,7.08,0,0,1,1.19.59c-1.24-.79-.18-.19-.9-.74.68.29,1.16.74.87.38A3.63,3.63,0,0,1,263.89,150.09Zm.94-4.38v0l0,.09Zm.3-.22a.25.25,0,0,0-.16.06c-.17-.23-.33-.49-.29-.5C264.78,145.23,265,145.32,265.13,145.49ZM261,141.25c0-.14.12,0,.23.11a.37.37,0,0,0-.05.16l.05.09Z" transform="translate(-16 -121.5)"/><path class="cls-1" d="M261.55,142.22s0,.05,0,.07l.15.12-.13-.23Z" transform="translate(-16 -121.5)"/><path class="cls-1" d="M265.26,158.12v0a.66.66,0,0,1,0-.13Z" transform="translate(-16 -121.5)"/><polygon class="cls-1" points="254.12 23.5 254.07 23.29 254.09 23.48 254.12 23.5"/><path class="cls-1" d="M264.13,154.62c0-.07.06-.14.08-.2A.76.76,0,0,0,264.13,154.62Z" transform="translate(-16 -121.5)"/><path class="cls-1" d="M263.5,154l.07-.31A1,1,0,0,0,263.5,154Z" transform="translate(-16 -121.5)"/><path class="cls-1" d="M263.24,153.33l-.23.28h0Z" transform="translate(-16 -121.5)"/><path class="cls-1" d="M271.69,152.87a.13.13,0,0,0,0-.05C271.63,152.66,271.64,152.73,271.69,152.87Z" transform="translate(-16 -121.5)"/><path class="cls-1" d="M269.81,155.74a2.43,2.43,0,0,1,0-.41C269.76,155.28,269.71,155.27,269.81,155.74Z" transform="translate(-16 -121.5)"/><path class="cls-1" d="M273.06,150.18h0l0,0Z" transform="translate(-16 -121.5)"/><path class="cls-1" d="M270,155.31c-.1-.15-.13-.11-.14,0S270,155.44,270,155.31Z" transform="translate(-16 -121.5)"/><path class="cls-1" d="M261.8,151.21v0l-.11.07Z" transform="translate(-16 -121.5)"/><path class="cls-1" d="M261.7,151.24l-.1,0S261.62,151.29,261.7,151.24Z" transform="translate(-16 -121.5)"/><path class="cls-1" d="M261.39,151.32l.21,0S261.6,151.21,261.39,151.32Z" transform="translate(-16 -121.5)"/><path class="cls-1" d="M261.94,152.07l.24-.18Z" transform="translate(-16 -121.5)"/><path class="cls-1" d="M262.17,152.2c0-.09.4-.52.21-.46l-.2.15C262.55,151.63,261.73,152.49,262.17,152.2Z" transform="translate(-16 -121.5)"/><path class="cls-1" d="M260.34,155.73l0-.38c-.19.27-.43.64-.59.6C259.33,156.93,260.14,155.36,260.34,155.73Z" transform="translate(-16 -121.5)"/><path class="cls-1" d="M260.78,156.7c-.23,0-.29.37-.41.52C260.64,157.05,260.71,157,260.78,156.7Z" transform="translate(-16 -121.5)"/><path class="cls-1" d="M267.25,159.1l-.06.77C267.33,159.77,267.2,159.57,267.25,159.1Z" transform="translate(-16 -121.5)"/><polygon class="cls-1" points="252.39 33.65 252.29 33.18 252.28 33.88 252.39 33.65"/><polygon class="cls-1" points="253.56 39.03 253.5 39.15 253.71 38.84 253.56 39.03"/><path class="cls-1" d="M279.76,153.52l-.82-.48C279,153.2,279.92,153.8,279.76,153.52Z" transform="translate(-16 -121.5)"/><path class="cls-1" d="M280.83,148.24c.47,0,.81-.1.36-.26C281.11,148.1,280.72,148.16,280.83,148.24Z" transform="translate(-16 -121.5)"/><polygon class="cls-1" points="253.82 15.85 253.88 15.53 253.71 15.81 253.82 15.85"/><circle class="cls-2" cx="27.53" cy="27.53" r="27.03"/><circle class="cls-3" cx="27.53" cy="27.53" r="25"/><circle class="cls-2" cx="26.53" cy="27.53" r="22.97"/><circle class="cls-4" cx="29.36" cy="35.15" r="10.81"/><path class="cls-4" d="M55.51,156.65c.09,0,.28,0,.24-.08l-.34-.07Z" transform="translate(-16 -121.5)"/><path class="cls-4" d="M56.09,156a.92.92,0,0,0-.75-.12c.32.09.19.12.57.22.05.09-.1.17-.22.16.09,0-.06.15.15.19.25-.12.25-.29,0-.45A.33.33,0,0,1,56.09,156Z" transform="translate(-16 -121.5)"/><path class="cls-4" d="M51.9,147.47l0,.07A.14.14,0,0,0,51.9,147.47Z" transform="translate(-16 -121.5)"/><path class="cls-4" d="M46.12,145.23a.1.1,0,0,0,.08-.07C46.15,145.18,46.11,145.2,46.12,145.23Z" transform="translate(-16 -121.5)"/><path class="cls-4" d="M45,144.84l.06,0S45.05,144.82,45,144.84Z" transform="translate(-16 -121.5)"/><path class="cls-4" d="M51.9,147.47l-.08-.19C51.75,147.36,51.84,147.4,51.9,147.47Z" transform="translate(-16 -121.5)"/><path class="cls-4" d="M55.15,154.82a.2.2,0,0,0,.1.07l0-.07Z" transform="translate(-16 -121.5)"/><path class="cls-4" d="M54.12,149.14l0,0,.14-.06Z" transform="translate(-16 -121.5)"/><path class="cls-4" d="M55.41,150.87c0-.05-.27.08-.39.12.12,0,.18,0,.22,0Z" transform="translate(-16 -121.5)"/><path class="cls-4" d="M56.17,154.16l.06.05Z" transform="translate(-16 -121.5)"/><path class="cls-4" d="M53.08,148l.05-.08A.22.22,0,0,0,53.08,148Z" transform="translate(-16 -121.5)"/><path class="cls-4" d="M54.63,158.69h0S54.63,158.67,54.63,158.69Z" transform="translate(-16 -121.5)"/><polygon class="cls-4" points="40.25 35.15 40.26 35.18 40.42 35.19 40.25 35.15"/><path class="cls-4" d="M42.94,144.71h0S43,144.68,42.94,144.71Z" transform="translate(-16 -121.5)"/><path class="cls-4" d="M33.66,159.18c.2-.26.4.26.6-.1C34.16,159.13,33.76,158.89,33.66,159.18Z" transform="translate(-16 -121.5)"/><path class="cls-4" d="M55.18,154.77s0-.05,0-.08A.15.15,0,0,0,55.18,154.77Z" transform="translate(-16 -121.5)"/><path class="cls-4" d="M34.26,159.08h0l0,0Z" transform="translate(-16 -121.5)"/><path class="cls-4" d="M38.6,146.72a.28.28,0,0,0,.11.07A.29.29,0,0,0,38.6,146.72Z" transform="translate(-16 -121.5)"/><path class="cls-4" d="M41.91,145.56h0Z" transform="translate(-16 -121.5)"/><path class="cls-4" d="M37.44,148.17s-.09,0-.11.07h0S37.37,148.17,37.44,148.17Z" transform="translate(-16 -121.5)"/><path class="cls-4" d="M36.19,149.54h.07l0-.06Z" transform="translate(-16 -121.5)"/><path class="cls-4" d="M52.71,162.86,53,163C52.78,162.86,52.88,162.65,52.71,162.86Z" transform="translate(-16 -121.5)"/><path class="cls-4" d="M55.3,154.79c-.07,0-.1,0-.12,0s0,0,0,0A.15.15,0,0,0,55.3,154.79Z" transform="translate(-16 -121.5)"/><path class="cls-4" d="M38.91,149.83l-.21.13A.52.52,0,0,0,38.91,149.83Z" transform="translate(-16 -121.5)"/><path class="cls-4" d="M42.69,165.93l.07,0S42.72,165.9,42.69,165.93Z" transform="translate(-16 -121.5)"/><path class="cls-4" d="M38.25,150.51a.49.49,0,0,0-.23,0,.13.13,0,0,0,0,.07Z" transform="translate(-16 -121.5)"/><path class="cls-4" d="M53,163h0Z" transform="translate(-16 -121.5)"/><path class="cls-4" d="M53.32,161.28c-.13.19.25.28.41.43-.06.3-.3,0-.51-.05,0,.19.21.5.11.59s-.09,0-.13-.09c.13.32-.31.45-.16.85L53,163a1.81,1.81,0,0,1,.41.29c-.07.09,0,.31-.17.19.05-.05,0-.12-.06-.19v.15c-.33-.15,0-.19-.18-.36-.06.23,0,.63-.21.69-.27-.21.18-.38-.19-.41l.27-.11c-.53-.21.13-.09-.42-.34-.29.17-.11.4-.42.56.08.18.22.18.29.37-.14.58-.85-.38-.81.19.08.23.31.59,0,.56l-.17-.35c-.28.16.18.55-.25.55,0-.16.14-.26.07-.26-.35-.12,0,.27-.14.37l-.22-.26c-.26.21-.45.65-.78.88,0-.1,0-.23-.15-.28a1.3,1.3,0,0,1-.67.34,3.4,3.4,0,0,1-.78,0l-.07.34s-.11-.11-.09-.17c-.2-.06,0,.18,0,.31s-.18-.13-.14-.23c-.23.32-.78.76-1.17.48l.05-.09c-.27-.08-.22.64-.5.4l0-.05c-.58-.09-1.24.21-1.66-.27-.12.42-.55-.22-.65.35-.29-.34-.18-.43-.6-.69-.11,0-.25.32-.41.34l.06-.3-.27.26,0-.38-.15,0a.25.25,0,0,1,.05.25c-.27.08-.47-.35-.42-.51l-.58.07c.06-.11.16-.12.25-.18-.37.2.07-.32-.27-.13,0,.07-.09.16-.12.22a.59.59,0,0,0-.53-.37l.13-.17c-.32-.2-.74-.29-1.11-.52.08.17-.15.46-.28.42l.13-.3c-.18.13.05.17-.24.29-.11-.13.12-.37.26-.4l-.23,0c.05-.09.12-.1.2-.19-.19.11-.07-.47-.37-.25l0-.09c-.35-.24-.54-.31-.81-.52-.2.19-.26.06-.5.15-.12-.27-.15-.63-.38-.84s-.22.1-.42.12c.19-.17,0-.41.23-.39a3.56,3.56,0,0,0-.77-.64c-.06.1-.07.18-.16.2s0-.24.1-.29h0c-.64-.29.08-1.43-.56-1.59l0,0-.41-.32c0-.21.22,0,.32-.15-.59-.31-.14-.73-.53-1A.57.57,0,0,0,36,158c-.1-.26-.2-.55,0-.77l-.17,0c-.18-.1.09-.14.13-.21-.14,0-.15.12-.25.06-.28-.91.3-1.85.66-2.64.13-.3-.84-.42-.33-.72l.29.21a1.59,1.59,0,0,1,.16-1,2,2,0,0,0,.32-1c0,.07.13.11.1.17.28,0,.27-.42.11-.53.07-.08.16.07.28.07s-.08-.47.16-.4c0,0,0,.08,0,.11,0-.14.27-.32,0-.41.26-.12.19-.46.45-.51-.15-.3.39-.22.1-.54.32.32.54-.08.53-.33.05.14.2,0,.28.19a.28.28,0,0,0,0-.45c.58.19.26-.76.82-.33a3.14,3.14,0,0,1,.47-.68,4.17,4.17,0,0,1,.55-.56c.19.4-.45.31-.2.71.28-.41.38-.84.84-.95.13,0,0,.21,0,.29.35-.36.83-.28,1.15-.64a.2.2,0,0,1,0,.14c.07,0,.2,0,.13-.18l-.06.07c-.22-.25.15-.68.13-.83,0,.6.45,0,.41.81a.32.32,0,0,0,0-.29c.09,0,.13.09.08.26.26-.18.12-.36.39-.4,0,.1,0,.14,0,.26.09-.21.2-.42.44-.37,0,.06,0,.13,0,.14.37-.1.62-.57,1.07-.41-.12.43.15.13.18.5l.22-.11-.09-.18c.2,0,.39-.25.57-.12l-.16.15.38,0-.21-.16c.23-.18,0-.47.29-.35-.06,0,.21,0,.3.25h0c.12-.1.25-.21.39-.09s-.1.4-.08.49c.14-.29.48,0,.68-.32a.7.7,0,0,0-.1.3l.14-.22c.07.1.08.14,0,.29.26.12,0-.49.3-.2,0,0,0,0-.09.08.31.18.7,0,1,.24,0,.39-.29,0-.29.33.43.08,1-.11,1.39.19l-.06-.08c.29-.44.19.38.5.26-.07,0-.21.22-.17.18.21.23.59.19,1.07.3l-.12.08c.07.21.33.34.45.5.12-.07.2,0,.27-.18a.63.63,0,0,0,.54.68c.29.09.58.21.51.62,0,0-.18,0-.15,0l.39.24c.15-.17.07-.13.14-.32a.38.38,0,0,1,.39.07c-.26-.06-.28.23-.33.39a1.24,1.24,0,0,1,.18-.14c-.18.45.38-.26.36.18l-.1.06c.12.06.32.06.37.19-.18.2-.18,0-.36.09.12.13.64,0,.5.3-.1,0-.16-.13-.27-.15-.15.32-.09.3-.06.44h0l0,.33,0-.11c.71-.16.37.32.9.39-.52-.07-.25.07-.53.19,0,.11-.07.26-.16.26.28,0-.08.29.33.32-.08.05.06.14-.18.21.15.13.14-.1.26-.14.43.14-.15.76.43,1,.28.29.61.27.86.57-.13.15-.37,0-.37,0a.38.38,0,0,0,.11.49c-.09,0-.16,0-.26.1.05.13.37,0,.25.24a2.79,2.79,0,0,1-.4-.07c.11.14.31.27.43.42-.17.07-.28-.06-.39-.1.1.17.23.45.49.48l.09-.13c0,.07-.23.06-.29,0-.23-.14.06-.24.16-.27l.08.12c.55-.2-.17-.48-.17-.72l.42,0-.37-.19c.09-.08.31-.16.4-.05.16-.22-.19-.13,0-.33a.06.06,0,0,1,.07,0L56,154c.09,0,.28-.09.25,0,.15-.38-.44-.43-.16-.64l0,0c-.27-.39-.31.05-.75-.15l.63-.46-.3.06a.13.13,0,0,1,.1-.17c-.25-.09-.11.08-.33.05.19-.31-.34-.51.07-.75-.24,0-.07.27-.32.12.45-.28-.2-.21-.07-.49.27-.07.23.18.35-.12-.46.09-.09-.41-.27-.52-.31.17-.32-.25-.58-.44.13-.06-.15-.56-.21-.86l0,0c-.33.18-.43-.1-.63-.2a.5.5,0,0,1,.42-.14l-.14-.14a.36.36,0,0,1-.32,0l.24-.15c-.2-.18-.58-.18-.7-.54-.19.18-.31.68-.67.58.08-.11.24-.29.34-.27s-.15,0-.16-.07l.27-.07c0-.18-.2.09-.27,0,.14-.14,0-.16.15-.27s0,.13.11.11a.55.55,0,0,1-.06-.47c-.07.1-.18.2-.27.16s.09-.24,0-.43c-.13.06-.18-.15-.37.08-.06-.05,0-.16,0-.24-.19,0-.53-.36-.59,0l0,0h0c-.5,0-.66-.63-1.1-.76l0-.09c-.28,0-.55-.2-.8-.09-.07,0-.09-.24,0-.33-.21,0-.27.06-.48-.18.26-.09,0-.17.25,0-.21-.17-.22-.34-.58-.18.18-.21-.08-.37-.22-.34l.11.23a.76.76,0,0,1-.36-.14l.17-.29c-.44-.54-1.12.4-1.38-.33-.19.2.26.2.08.45-.23-.08-.41-.59-.49-.6-.33-.23-.38.42-.72.26a.45.45,0,0,1-.22.54c-.23-.06-.27-.51-.1-.6s.08,0,.08.07.19-.08.1-.22l0,.12c-.11-.13-.46-.13-.37-.32-.2.1-.09.19,0,.26-.32-.18-.51-.05-.84-.14.06.06.11.2,0,.2-.48-.12-.2.24-.52.31-.19-.18,0-.44-.28-.27-.21-.11-.07-.31,0-.41-.29.23-.59-.08-.78-.1l.15-.12a.45.45,0,0,1-.25.09l.12.22c-.1,0-.18,0-.19-.11-.07.17.13.38,0,.62-.14-.1-.34.18-.45-.11.41,0-.11-.31.22-.42a.27.27,0,0,1-.24,0,.08.08,0,0,1,0-.09c-.44-.19-.1.39-.48.48,0-.19-.17-.3-.23-.25.16,0,.15.27.05.43-.28-.07-.24.17-.37.19l.16,0c0,.18-.12.19-.26.31-.05-.13.12-.15,0-.18-.07.36-.51-.16-.69.13-.16-.07-.13-.31-.27-.35-.2.32-.4-.09-.63.22.19.18.18.12.08.43l.4-.38-.16.46c.14-.06.23-.28.34-.28-.08.24-.08.19.06.33-.33-.23-.28.37-.6.26l-.25-.54c-.48-.07-.46.57-.94.7h.18c.07.23-.23.18-.31.34-.1-.17-.22-.18-.35-.25.09.12-.3.21-.1.55l-.33-.08c-.38.16,0,.7-.32.9-.05-.24-.27-.23-.19-.52-.09.09-.2.14-.11.24-.14,0-.08.43-.29.37,0,.1.15.26,0,.34a.21.21,0,0,1-.07-.07c.07.07-.05.24.18.31-.69-.14-.68.77-1.26.72a7.68,7.68,0,0,1-.38.76c0-.05-.09-.06,0-.09-.33.19.36.49,0,.7-.38,0-.05-.27-.21-.22-.58-.29-.18.43-.62.48v-.08c-.28.09,0,.56-.17.83a.19.19,0,0,0-.09,0,1.93,1.93,0,0,1,.15,1.07c-.21-.17-.08-.18-.34-.21,0,.14.4.1.38.38a1.22,1.22,0,0,1-.62.13c0-.09,0-.17.07-.25-.39,0-.09.33-.18.44l-.15-.06c0,.42.33.52.19.92l.13,0c.33.3-.25.15,0,.43H34a5.17,5.17,0,0,1,.33.86c-.28-.18-.37-.52-.51-.75,0,.15-.06.53.13.63,0-.06-.12-.15-.05-.21a.93.93,0,0,1,.4.78c-.76-.09-.24.78-.8,1a1.22,1.22,0,0,1,.1.84,2.92,2.92,0,0,0,0,.93c.55-.33,0,.19.64,0,.06.14.07.19,0,.22l-.24.52c-.15.15-.17-.11-.3-.06,0,.34-.21.2-.31.46.2-.1.33,0,.3.25l.2-.35c.42.36-.37.55.09.9l-.23-.08c.19.2.31.88.88.88,0,.07-.17.19-.26.11.18.59,1.06.9,1,1.43l-.15,0c.1.07.33,0,.29.2-.06,0-.15.05-.13.1s.39.08.4.24h-.21c.18.59.85.45,1.24.71-.33.28-.14.73,0,.93l-.05,0c.47.5,1.09.5,1.68.71,0,.62.94.88,1.36,1.38,0-.11.17-.29.29-.29.09.15.48-.1.29.25l0,0c-.07.41.24.45.46.53l.23-.47A.87.87,0,0,0,42,168c.37,0,.69,0,.78.38.16-.09.34-.06.51-.17l-.06.28a2.64,2.64,0,0,0,1.1.19l-.13.19c.29,0,.43-.79.67-.8l.06.43c.47,0,1,.35,1.46,0,0,.07,0,.19-.09.21.23,0,.93.18.77-.38.06.37.51,0,.72-.25l0,.28c.14-.4.12-.5.39-.67.07,0,.11.2,0,.16.27.08.11-.3.43-.23l-.06.2c.25-.05.2-.12.27-.37s.44-.09.57.14c0-.16,0-.4.19-.38a.21.21,0,0,1,0,.19c.46.05.42-.54.79-.4a.3.3,0,0,0,.11.13,2.32,2.32,0,0,1-.52.2c.09.24.36.16.31.58.13-.27.27-.81.56-.82l.07.07v0a.13.13,0,0,0,.13-.11.4.4,0,0,0,.22,0c.14.17.33-.06.45-.13-.16-.23,0-.28-.25-.39,0,0,0,0-.07.09s0,0,0,.06v0l-.27.19c0-.18,0-.34.26-.28l-.09-.48c.36.25.77.24.95.4.23-.38.73-.66.55-1.24,0-.12.2,0,.29.06s-.08.13-.06.21c.08-.25.47-.49.25-.79.32-.07.13.35.36,0l0,.12c.48-.09.53-.49.58-.87s.06-.76.63-.88a.25.25,0,0,1-.17,0c.83-.64.75-1.82,1.54-2.51.2-.23,0-.33-.13-.54l.31,0-.26-.38c-.17-.43.92-.49.51-1.1l-.21,0c.07-.17,0-.58.2-.52,0,0-.2-.08-.09-.14h.16a3.29,3.29,0,0,0-.23-.46c.14-.34.63.1.68-.42,0-.2-.43-.55-.54-.48a.28.28,0,0,1-.26.2l-.08-.17c-.46,0-.93-.14-1.28.21l.27.27-.23.07V157c-.22.11,0,.19.09.28a.37.37,0,0,0-.25.09l.43.28c-.19,0-.35-.14-.47,0,.19.14.42-.07.53.14-.23.1-.4,0-.24.2a.24.24,0,0,1-.24-.1c.13.15,0,.34.25.45-.27.07,0,.43-.44.33.09.06.28.29.27.41-.46-.34-.14.41-.67.2.43.28,0,.57.18.93,0,0-.09-.09-.06-.1s-.24.12-.35.17c.35.17.32.43.48.65-.42,0-.36-.3-.72-.4.3.13.15.43.41.49a.7.7,0,0,1-.47,0c.42.25,0,.16.21.41-.32.06-.42-.18-.41.09C53.36,161.54,53.32,161.28,53.32,161.28ZM50,165.58h0l.1-.06Zm-.43.21a.52.52,0,0,0,.19-.08c.06.08.09.18,0,.2S49.65,165.83,49.55,165.79ZM51.43,167c0,.08-.11.05-.15,0a.6.6,0,0,0,.12-.11v0A.43.43,0,0,1,51.43,167Z" transform="translate(-16 -121.5)"/><path class="cls-4" d="M51.38,166.6l0,0-.07,0v.09Z" transform="translate(-16 -121.5)"/><path class="cls-4" d="M51.93,147.55h0a0,0,0,0,1,0,.05S51.93,147.56,51.93,147.55Z" transform="translate(-16 -121.5)"/><polygon class="cls-4" points="27.22 44.42 27.2 44.49 27.26 44.44 27.22 44.42"/><path class="cls-4" d="M53.32,150.17s0,0,0,.07S53.31,150.2,53.32,150.17Z" transform="translate(-16 -121.5)"/><path class="cls-4" d="M53.94,151.14v.19A.59.59,0,0,0,53.94,151.14Z" transform="translate(-16 -121.5)"/><path class="cls-4" d="M54.27,152l.11,0h0Z" transform="translate(-16 -121.5)"/><path class="cls-4" d="M42.53,147.34l0,0C42.44,147.43,42.49,147.4,42.53,147.34Z" transform="translate(-16 -121.5)"/><path class="cls-4" d="M46.56,146.33l-.14.12C46.49,146.48,46.54,146.49,46.56,146.33Z" transform="translate(-16 -121.5)"/><polygon class="cls-4" points="22.93 28.32 22.93 28.31 22.91 28.33 22.93 28.32"/><path class="cls-4" d="M46.22,146.43a.17.17,0,0,0,.2,0A.2.2,0,0,0,46.22,146.43Z" transform="translate(-16 -121.5)"/><path class="cls-4" d="M55.24,155.59v0h0Z" transform="translate(-16 -121.5)"/><path class="cls-4" d="M55.28,155.63l0,0S55.31,155.63,55.28,155.63Z" transform="translate(-16 -121.5)"/><path class="cls-4" d="M55.39,155.77l-.07-.1S55.31,155.75,55.39,155.77Z" transform="translate(-16 -121.5)"/><path class="cls-4" d="M55.18,154.43h-.11A.22.22,0,0,0,55.18,154.43Z" transform="translate(-16 -121.5)"/><path class="cls-4" d="M55.06,154.1c0,.09-.16.26-.07.35h.08C54.91,154.43,55.25,154.14,55.06,154.1Z" transform="translate(-16 -121.5)"/><path class="cls-4" d="M55.76,152.22l0,.34c.08-.1.19-.22.26-.09C56.22,152,55.87,152.64,55.76,152.22Z" transform="translate(-16 -121.5)"/><path class="cls-4" d="M55.45,151.22c.12.14.14-.08.2-.1C55.5,151.07,55.47,151.06,55.45,151.22Z" transform="translate(-16 -121.5)"/><path class="cls-4" d="M50,146.2l.12-.23C50,145.94,50.11,146.06,50,146.2Z" transform="translate(-16 -121.5)"/><path class="cls-4" d="M48.3,147l.07.19.13-.2Z" transform="translate(-16 -121.5)"/><polygon class="cls-4" points="31.97 23.49 32.04 23.47 31.79 23.5 31.97 23.49"/><path class="cls-4" d="M36.2,149.12l.27.17C36.49,149.18,36.23,148.93,36.2,149.12Z" transform="translate(-16 -121.5)"/><path class="cls-4" d="M34.08,154.23c-.17,0-.29.16-.16.28C34,154.39,34.1,154.3,34.08,154.23Z" transform="translate(-16 -121.5)"/><polygon class="cls-4" points="25.2 46.45 25.05 46.51 25.29 46.5 25.2 46.45"/><path class="cls-4" d="M36.09,149.89s-9.46-8.11-8.1-16.22,6.75-1.35,8.1,2.71a69.19,69.19,0,0,1,2.71,14.86" transform="translate(-16 -121.5)"/><path class="cls-4" d="M45.36,148.54s2.71-16.22,6.76-17.57,4.05,2.7,4.05,4.06S49.42,145.84,45.36,148.54Z" transform="translate(-16 -121.5)"/><path class="cls-4" d="M53.47,136.11s5.41,5.41,8.11,4-4-8.1-6.76-8.1h-2.7Z" transform="translate(-16 -121.5)"/><path class="cls-5" d="M283,163" transform="translate(-16 -121.5)"/></svg>