<svg id="圖層_1" data-name="圖層 1" xmlns="http://www.w3.org/2000/svg" viewBox="0 0 31.24 31.24"><defs><style>.cls-1{fill:#441d09;stroke:#441d09;}.cls-1,.cls-2{stroke-miterlimit:10;}.cls-2{fill:none;stroke:#fff;stroke-width:0.75px;}.cls-3{fill:#fff;}.cls-4{fill:#fffefd;}.cls-5{fill:#f9bbf5;}</style></defs><title>smallIcon</title><circle class="cls-1" cx="15.62" cy="15.62" r="15.12"/><circle class="cls-2" cx="15.62" cy="15.62" r="13.98"/><circle class="cls-1" cx="15.06" cy="15.62" r="12.85"/><circle class="cls-3" cx="16.65" cy="19.88" r="6.05"/><path class="cls-3" d="M22.29,19.93c.09,0,.28,0,.24,0l-.33,0Z" transform="translate(-0.26 -0.05)"/><path class="cls-3" d="M22.89,19.57a1.49,1.49,0,0,0-.75,0c.32,0,.19,0,.57.1,0,.05-.1.09-.23.09.09,0-.07.08.14.1s.26-.17.05-.24A.55.55,0,0,1,22.89,19.57Z" transform="translate(-0.26 -0.05)"/><path class="cls-3" d="M20.68,14.63v.06A.11.11,0,0,0,20.68,14.63Z" transform="translate(-0.26 -0.05)"/><path class="cls-3" d="M17.35,13.26s0,0,0-.07S17.35,13.23,17.35,13.26Z" transform="translate(-0.26 -0.05)"/><path class="cls-3" d="M16.71,12.89l0,0S16.72,12.86,16.71,12.89Z" transform="translate(-0.26 -0.05)"/><path class="cls-3" d="M20.68,14.63l0-.14C20.6,14.57,20.66,14.59,20.68,14.63Z" transform="translate(-0.26 -0.05)"/><path class="cls-3" d="M22,19l.1,0a.08.08,0,0,1,0,0Z" transform="translate(-0.26 -0.05)"/><path class="cls-3" d="M22.05,15.52l0,0,.12-.06Z" transform="translate(-0.26 -0.05)"/><path class="cls-3" d="M22.83,16.53s-.26.1-.37.15a.38.38,0,0,1,.2,0Z" transform="translate(-0.26 -0.05)"/><path class="cls-3" d="M23.08,18.51l.05,0Z" transform="translate(-0.26 -0.05)"/><path class="cls-3" d="M21.46,14.83l.06-.08A.21.21,0,0,0,21.46,14.83Z" transform="translate(-0.26 -0.05)"/><path class="cls-3" d="M21.53,21h0Z" transform="translate(-0.26 -0.05)"/><polygon class="cls-3" points="22.77 19.88 22.78 19.9 22.94 19.9 22.77 19.88"/><path class="cls-3" d="M15.43,12.66h0S15.45,12.64,15.43,12.66Z" transform="translate(-0.26 -0.05)"/><path class="cls-3" d="M9.86,21.46c.22-.17.37.12.6-.11C10.35,21.39,10,21.27,9.86,21.46Z" transform="translate(-0.26 -0.05)"/><path class="cls-3" d="M22.05,19a.06.06,0,0,1,0,0S22,18.94,22.05,19Z" transform="translate(-0.26 -0.05)"/><polygon class="cls-3" points="10.19 21.29 10.2 21.29 10.22 21.27 10.19 21.29"/><path class="cls-3" d="M12.83,13.94a.38.38,0,0,0,.09.09S12.88,14,12.83,13.94Z" transform="translate(-0.26 -0.05)"/><path class="cls-3" d="M14.87,13.39l0,0A.06.06,0,0,0,14.87,13.39Z" transform="translate(-0.26 -0.05)"/><path class="cls-3" d="M12.24,14.93s-.07,0-.07,0h0S12.18,14.92,12.24,14.93Z" transform="translate(-0.26 -0.05)"/><path class="cls-3" d="M11.5,15.74l.06,0v0Z" transform="translate(-0.26 -0.05)"/><path class="cls-3" d="M20.62,23.07l.22.14C20.68,23.09,20.7,23,20.62,23.07Z" transform="translate(-0.26 -0.05)"/><path class="cls-3" d="M22.17,19q-.11,0-.12,0a0,0,0,0,0,0,0Z" transform="translate(-0.26 -0.05)"/><path class="cls-3" d="M13.73,16.57l-.12.05A.18.18,0,0,0,13.73,16.57Z" transform="translate(-0.26 -0.05)"/><path class="cls-3" d="M15.56,24.64l0,0S15.57,24.61,15.56,24.64Z" transform="translate(-0.26 -0.05)"/><path class="cls-3" d="M13.4,16.91a.64.64,0,0,0-.19-.08.13.13,0,0,0,0,.06Z" transform="translate(-0.26 -0.05)"/><path class="cls-3" d="M20.84,23.21Z" transform="translate(-0.26 -0.05)"/><path class="cls-3" d="M20.75,22.17c-.06.09.28.23.45.36s-.26-.08-.45-.15c.05.13.29.37.24.42a.37.37,0,0,1-.14-.09c.18.25-.15.23.07.55l-.08-.05c.15.11.3.22.4.31s.1.24-.1.1c0,0,0-.09-.08-.15l0,.11c-.3-.18,0-.14-.23-.3,0,.15.13.45,0,.45-.25-.22.06-.23-.24-.35h.19c-.47-.28.08,0-.41-.35-.18.05,0,.26-.18.3.1.16.2.2.3.36,0,.42-.71-.51-.54-.05.11.2.36.55.11.45l-.2-.33c-.15.07.26.5,0,.4-.06-.14,0-.18,0-.2-.27-.18.06.22,0,.28L19.61,24c-.12.13-.15.46-.31.6a.61.61,0,0,0-.15-.27c-.14.27-.5.19-.77.06v.31s-.08-.12-.07-.17.05.17,0,.3-.12-.15-.11-.24c-.07.27-.34.64-.57.35l0-.09c-.14-.1-.07.62-.24.36l0-.05c-.3-.1-.65.18-.86-.29-.07.43-.27-.2-.35.38-.14-.32-.07-.41-.26-.64-.05,0-.16.34-.26.38l.07-.3-.18.29,0-.37-.09.06a.43.43,0,0,1,0,.23c-.16.11-.21-.28-.16-.43l-.34.15a.58.58,0,0,1,.17-.2c-.24.25.1-.31-.13-.08a.88.88,0,0,1-.1.22.2.2,0,0,0-.25-.24l.12-.18c-.15-.12-.4-.1-.58-.21,0,.12-.2.43-.28.42l.15-.29c-.14.15,0,.14-.22.3-.05-.08.17-.34.26-.4l-.14,0a2.61,2.61,0,0,1,.17-.2c-.15.13.07-.37-.19-.12l.06-.08c-.17-.11-.3-.11-.44-.21-.2.2-.21.11-.41.23,0-.16,0-.42-.09-.52s-.2.13-.37.19c.2-.17.08-.28.28-.33a1,1,0,0,0-.5-.25c-.07.08-.09.13-.18.16s0-.15.15-.21h0c-.51-.07.36-.89-.2-.85h0l-.34-.12c0-.11.2,0,.33-.13-.5-.09,0-.37-.38-.49.72-.29-.16-.53.33-.79l-.18,0c-.18,0,.1-.07.14-.1-.14,0-.16.06-.26,0-.24-.46.29-.93.54-1.28.08-.13-.87-.33-.4-.42l.3.15c-.28-.44.24-.61.09-1.05.06.05.14.1.13.13.24.05.14-.21,0-.32.05,0,.16.08.26.11s-.17-.32,0-.21c0,0,.05,0,.06.07s.15-.14-.1-.27c.18,0,0-.27.24-.25-.19-.25.26,0-.05-.36.33.31.4.08.32-.12.08.12.15.06.26.21.06-.06.06-.18-.1-.34.46.3,0-.56.49-.07a1.73,1.73,0,0,1,.39-.84c.19.39-.23.17,0,.58.08-.28.06-.67.32-.69.08,0,0,.2.06.28.14-.27.42-.13.55-.43a.29.29,0,0,1,0,.13s.11,0,0-.15l0,.06c-.16-.27,0-.64,0-.8.07.59.26.09.31.84a.5.5,0,0,0,0-.28c.05,0,.08.1.07.27.12-.15,0-.34.17-.36s0,.14,0,.25c0-.2.08-.4.21-.34s0,.14,0,.14c.18-.07.3-.54.55-.37-.05.43.08.14.1.51l.12-.11-.05-.19c.1,0,.21-.25.3-.12l-.09.15.21-.06-.11-.15c.13-.19,0-.47.17-.36,0,0,.12,0,.15.24h0c.07-.11.15-.22.22-.12s-.08.41-.08.49c.1-.3.26-.06.4-.36a1,1,0,0,0-.08.3l.1-.24a.38.38,0,0,1,0,.29c.14.08.06-.48.2-.23,0,0,0,0-.06.08.15.15.39-.07.51.12-.07.37-.16,0-.21.36.23,0,.62-.26.8-.06l0-.06c.26-.46,0,.31.26.14a1.13,1.13,0,0,0-.14.19c.09.16.34.05.65.05l-.11.09c0,.16.16.21.2.32.11-.09.15,0,.24-.21-.11.39,0,.42.24.42s.4,0,.26.36c0,0-.14,0-.13,0l.25.09c.17-.17.09-.12.19-.27a.31.31,0,0,1,.3,0c-.2,0-.28.24-.36.36,0-.05.12-.09.18-.14-.25.36.37-.27.27.05l-.11.07c.09,0,.26,0,.28,0-.2.18-.15,0-.33.14.07.07.54-.13.37.1-.09,0-.12-.05-.21,0-.2.26-.13.22-.14.31h0l0,.21.05-.08c.66-.25.25.14.72.08-.46.05-.24.1-.51.22-.06.08-.12.18-.2.2.25,0-.12.19.25.13-.09.05,0,.08-.21.16.11.05.15-.09.26-.13.38,0-.25.47.26.52.23.12.55.08.76.23a.47.47,0,0,1-.36,0c-.11.13-.06.19.06.27a.56.56,0,0,0-.26.07c0,.07.36,0,.23.11h-.39a3.6,3.6,0,0,1,.39.2.92.92,0,0,1-.38,0,.65.65,0,0,0,.46.24l.09-.08s-.22,0-.28,0c-.22-.06.08-.13.17-.15l.08.05c.55-.14-.14-.26-.12-.38l.41,0-.36-.08c.1-.05.33-.12.4-.06.18-.14-.16-.06,0-.19a.11.11,0,0,1,.07,0l-.15-.07c.09,0,.29-.08.24,0,.19-.24-.37-.21-.09-.36h0c-.21-.21-.3.06-.7,0l.67-.37-.3.08s0-.09.13-.12c-.23,0-.12.06-.33.08.22-.22-.24-.26.19-.49-.23.06-.11.19-.32.13.46-.25-.15-.1,0-.3s.18.07.34-.14c-.43.14,0-.26-.15-.31-.32.18-.24-.11-.43-.19.11-.06,0-.37,0-.58l.06,0c-.32.2-.35,0-.49,0a.62.62,0,0,1,.37-.19l-.08-.09a.33.33,0,0,1-.26.05l.23-.16c-.12-.11-.44,0-.45-.28-.18.18-.4.6-.65.6.09-.1.25-.28.32-.28s-.12,0-.1,0l.22-.12c0-.13-.17.11-.21.05.14-.14.06-.14.18-.25s0,.11.06.07a.47.47,0,0,1,.05-.37c-.07.09-.18.2-.24.18s.12-.21.12-.35c-.12.08-.11-.09-.3.14,0,0,.05-.14.09-.22-.15.06-.33-.19-.44.12v0h0c-.36.08-.35-.42-.63-.45l.05-.09c-.18,0-.33-.09-.51.06,0,0,0-.21.05-.31-.14,0-.19.11-.28-.1.17-.12,0-.15.16-.07-.11-.13-.09-.3-.34-.1.14-.22,0-.34-.1-.3l0,.21a.3.3,0,0,1-.21-.08l.14-.3c-.22-.49-.73.51-.82-.2-.13.22.14.19,0,.45-.13-.07-.2-.56-.25-.57-.19-.22-.26.44-.45.3,0,.12,0,.44-.14.54-.13-.05-.15-.51,0-.6s0,0,0,.07a.16.16,0,0,0,.07-.22l0,.12c-.06-.12-.27-.12-.22-.31-.12.1,0,.19,0,.26-.19-.18-.3,0-.5-.13,0,.06.07.2,0,.2-.29-.14-.12.23-.3.29-.12-.17,0-.43-.18-.27-.12-.12,0-.31,0-.41-.16.23-.36-.11-.48-.14l.09-.11a.19.19,0,0,1-.15.08l.09.23c-.06,0-.11,0-.13-.13,0,.17.11.39,0,.61-.09-.1-.19.16-.28-.14.25.06-.09-.3.1-.39,0,0-.08,0-.14,0a.1.1,0,0,1,0-.09c-.29-.22,0,.38-.26.43,0-.18-.13-.31-.16-.27s.12.28.07.43c-.18-.1-.13.14-.21.14l.11,0c0,.18-.06.17-.13.26,0-.12.06-.12,0-.16,0,.33-.34-.22-.42,0-.11-.09-.13-.31-.22-.36-.09.27-.28-.14-.39.11.15.19.13.14.11.41l.22-.29,0,.4c.08,0,.11-.22.18-.2,0,.21,0,.16.09.32-.25-.28-.13.29-.35.13l-.26-.53c-.33-.14-.21.45-.53.47l.13,0c.09.22-.13.12-.15.25a.86.86,0,0,0-.3-.28c.09.12-.18.12,0,.45l-.26-.13c-.25.06.14.59,0,.68-.1-.2-.26-.24-.25-.46-.06,0-.13.07,0,.17-.12-.06,0,.34-.15.24,0,.09.17.24.1.28a.43.43,0,0,1-.07-.07c.07.07,0,.19.21.29-.58-.26-.37.45-.88.28a2.41,2.41,0,0,1-.18.48s-.08-.06-.05-.07c-.26.07.41.41.13.49-.33-.07-.09-.19-.23-.2-.57-.3-.07.28-.46.23l0-.05c-.25,0,.09.37,0,.52l-.09,0a1.08,1.08,0,0,1,.29.71c-.22-.14-.1-.12-.35-.18,0,.09.4.12.41.29a1.52,1.52,0,0,1-.57,0c0-.05,0-.1,0-.15-.37,0,0,.2-.13.26L10.17,18c0,.25.37.35.28.58h.12c.35.2-.23.07,0,.25l-.4,0a3.16,3.16,0,0,1,.39.53,1.57,1.57,0,0,1-.56-.47c0,.09,0,.32.17.39,0,0-.12-.1-.06-.13.29.15.44.3.43.47-.77-.07-.23.44-.8.59.29.32-.08.67,0,1.07.56-.24,0,.11.63,0,.05.08.06.11,0,.12l-.29.35c-.16.1-.15-.05-.28,0,0,.21-.23.14-.36.32.21-.08.32,0,.27.13l.23-.24c.38.17-.41.39,0,.56l-.22,0c.16.11.2.54.72.46-.06.05-.19.16-.26.12.08.37.82.43.7.81l-.14.06c.07,0,.29-.06.22.09s-.14.07-.13.09.31,0,.3.11l-.18,0c.05.41.64.17.89.29a.65.65,0,0,0-.2.74l0,0c.27.33.76.2,1.14.27-.1.53.52.59.73,1,0-.1.16-.3.24-.31s.34-.18.16.18l0,0c-.11.39.1.38.23.43l.22-.48c0,.41.28.44.51.42s.43-.06.45.3c.12-.11.22-.09.33-.21l-.06.28a1,1,0,0,0,.67.13l-.08.2c.18,0,.28-.8.42-.81l0,.42c.28,0,.6.36.87,0,0,.06,0,.18-.05.2.14,0,.59.22.45-.34.06.37.31,0,.42-.2l0,.28c.05-.39,0-.48.18-.62.05,0,.09.21,0,.15.17.11,0-.28.23-.18v.19c.15,0,.11-.1.12-.33s.27,0,.38.21c0-.15,0-.37.07-.33a.26.26,0,0,1,0,.18c.31.09.19-.44.46-.26a.35.35,0,0,0,.1.14.92.92,0,0,1-.32.11c.1.23.26.2.29.58,0-.23.06-.71.25-.67l.06.07v0c.05,0,.06,0,.07-.08a.25.25,0,0,0,.15,0c.12.17.22,0,.3,0-.16-.23-.05-.25-.25-.39,0,0,0,0,0,.07a.05.05,0,0,0,0,0v0l-.16.11c0-.15,0-.29.13-.2l-.15-.44c.29.28.58.35.74.52.11-.27.42-.42.18-.93,0-.09.15.07.22.11s0,.09,0,.16c0-.19.27-.31,0-.59.24,0,.17.31.29.1l.06.11c.37,0,.33-.28.29-.56s-.1-.54.36-.52a.22.22,0,0,1-.14,0c.6-.3.31-1.1,1-1.42.15-.12-.06-.21-.2-.35l.3.06-.29-.26c-.2-.27.84-.22.4-.62h-.2c.05-.09-.07-.34.16-.29,0,0-.21-.06-.1-.09l.16,0a3.22,3.22,0,0,0-.24-.28c.12-.19.62.08.67-.23-.06-.12-.45-.33-.56-.28s-.1.11-.26.11L23,20a2.61,2.61,0,0,0-1.27.11l.28.14-.23,0v-.11c-.21.05,0,.1.1.15a.49.49,0,0,0-.25,0l.44.16c-.19,0-.36-.09-.47,0,.2.08.42,0,.54.1-.23,0-.39,0-.23.1a.53.53,0,0,1-.24-.07c.14.08,0,.17.28.25-.27,0,0,.23-.41.13.1,0,.31.19.32.25-.49-.24-.09.21-.63,0,.44.21.11.32.32.54,0,0-.1-.06-.08-.06s-.2,0-.3,0c.36.16.39.3.57.47-.38-.07-.39-.25-.73-.37.29.13.22.28.47.37a1.12,1.12,0,0,1-.44-.11c.43.24.05.1.28.3-.27,0-.41-.21-.34,0A.49.49,0,0,1,20.75,22.17Zm-1.41,2.47h0l.05,0Zm-.22.11a.26.26,0,0,0,.1,0c.05.09.08.18.06.19S19.18,24.81,19.12,24.75Zm1.45,1.43c0,.07-.07,0-.1,0a.28.28,0,0,0,.06-.08v0Z" transform="translate(-0.26 -0.05)"/><path class="cls-3" d="M20.47,25.82v0l0,0,0,.09Z" transform="translate(-0.26 -0.05)"/><path class="cls-3" d="M20.69,14.7h0s0,0,0,0Z" transform="translate(-0.26 -0.05)"/><polygon class="cls-3" points="15.57 24.52 15.56 24.59 15.59 24.53 15.57 24.52"/><path class="cls-3" d="M21.17,16.46l0,.06A.15.15,0,0,0,21.17,16.46Z" transform="translate(-0.26 -0.05)"/><path class="cls-3" d="M21.48,17l0,.13A.3.3,0,0,0,21.48,17Z" transform="translate(-0.26 -0.05)"/><path class="cls-3" d="M21.6,17.47l.11,0h0Z" transform="translate(-0.26 -0.05)"/><path class="cls-3" d="M15.46,15.18v0C15.43,15.26,15.45,15.23,15.46,15.18Z" transform="translate(-0.26 -0.05)"/><path class="cls-3" d="M17.56,14.35a.62.62,0,0,1-.09.12S17.54,14.51,17.56,14.35Z" transform="translate(-0.26 -0.05)"/><polygon class="cls-3" points="13.48 16.52 13.47 16.51 13.46 16.52 13.48 16.52"/><path class="cls-3" d="M17.37,14.46c0,.06.07,0,.1,0S17.41,14.42,17.37,14.46Z" transform="translate(-0.26 -0.05)"/><path class="cls-3" d="M22.05,19.38v0h.05Z" transform="translate(-0.26 -0.05)"/><path class="cls-3" d="M22.09,19.4l0,0S22.12,19.4,22.09,19.4Z" transform="translate(-0.26 -0.05)"/><path class="cls-3" d="M22.19,19.47l-.07,0S22.11,19.46,22.19,19.47Z" transform="translate(-0.26 -0.05)"/><path class="cls-3" d="M22.08,18.77h0Z" transform="translate(-0.26 -0.05)"/><path class="cls-3" d="M22,18.6s-.18.15-.1.2l.08,0C21.82,18.79,22.18,18.6,22,18.6Z" transform="translate(-0.26 -0.05)"/><path class="cls-3" d="M22.92,17.37v.21c.09-.07.21-.17.27-.09C23.39,17.13,23,17.62,22.92,17.37Z" transform="translate(-0.26 -0.05)"/><path class="cls-3" d="M22.8,16.76c.09.07.14-.07.19-.1C22.88,16.65,22.85,16.65,22.8,16.76Z" transform="translate(-0.26 -0.05)"/><path class="cls-3" d="M19.64,13.83l.11-.23C19.66,13.6,19.71,13.69,19.64,13.83Z" transform="translate(-0.26 -0.05)"/><path class="cls-3" d="M18.47,14.8V15l.1-.22Z" transform="translate(-0.26 -0.05)"/><polygon class="cls-3" points="18.22 12.87 18.26 12.84 18.1 12.9 18.22 12.87"/><path class="cls-3" d="M11.42,15.43l.26.18C11.68,15.53,11.41,15.29,11.42,15.43Z" transform="translate(-0.26 -0.05)"/><path class="cls-3" d="M10.28,18.51c-.16,0-.28.08-.13.16C10.18,18.6,10.31,18.56,10.28,18.51Z" transform="translate(-0.26 -0.05)"/><polygon class="cls-3" points="14.13 26.72 14.02 26.79 14.18 26.75 14.13 26.72"/><path class="cls-3" d="M11.72,16.15S6.43,11.62,7.19,7.08,11,6.33,11.72,8.59a38.9,38.9,0,0,1,1.52,8.32" transform="translate(-0.26 -0.05)"/><path class="cls-3" d="M16.91,15.4s1.51-9.07,3.78-9.83S23,7.08,23,7.84,19.18,13.89,16.91,15.4Z" transform="translate(-0.26 -0.05)"/><path class="cls-3" d="M21.45,8.45s3,3,4.53,2.26S23.71,6.18,22.2,6.18H20.69Z" transform="translate(-0.26 -0.05)"/><circle cx="16.27" cy="16.59" r="1.13"/><circle cx="18.28" cy="16.3" r="0.86"/><circle class="cls-4" cx="17.02" cy="16.59" r="0.38"/><circle class="cls-4" cx="18.54" cy="16.59" r="0.38"/><polygon class="cls-5" points="16.94 17.5 18.2 17.16 18.91 21.5 16.94 17.5"/></svg>