<?xml version="1.0" encoding="utf-8"?>
<!-- Generator: Adobe Illustrator 22.0.1, SVG Export Plug-In . SVG Version: 6.00 Build 0)  -->
<svg version="1.1" id="圖層_1" xmlns="http://www.w3.org/2000/svg" xmlns:xlink="http://www.w3.org/1999/xlink" x="0px" y="0px"
	 viewBox="0 0 89.2 352.7" style="enable-background:new 0 0 89.2 352.7;" xml:space="preserve">
<style type="text/css">
	.st0{stroke:#000000;stroke-width:0.75;stroke-miterlimit:10;}
</style>
<title>什麼美麗天生麗質</title>
<g>
	<path class="st0" d="M62.2,2.3c0.6-0.6,1.1-0.4,1.5,0.6l0.9,1.8c0,0.4-0.2,0.9-0.8,1.3c-0.7,0.8-1.7,2.1-2.9,3.9
		c-0.4,0.6-0.6,1.2-0.6,1.8c0.1,10.1,0,18.7-0.2,25.8c0,0.4-0.1,0.7-0.5,0.9c-0.4,0.1-0.7-0.3-1.1-1c-0.7-1.2-0.9-2.2-0.6-3.1
		c0.5-1.3,0.7-3.5,0.6-6.7c0-4.5,0-8.9-0.1-13.4c0-0.7-0.3-0.6-1,0.2c-1.8,2.1-3.6,3.9-5.5,5.4c-0.5,0.5-0.9,0.6-1.4,0.4
		c-0.3-0.5,0-1,0.7-1.5C58.1,12.4,61.7,6.9,62.2,2.3z M71.4,3.2c0-0.8,0.1-1.2,0.4-1.2C72.3,2,72.6,2.3,73,2.7
		c1.4,0.7,1.7,1.7,1.1,3.2C74,7,73.9,8.3,73.8,9.7l-0.1,4.5c0,0.6,0.4,0.9,1.3,0.7c2.4-0.3,4.3-0.7,5.8-1.2c0.5-0.2,1,0,1.6,0.5
		c0.9,0.7,1,1.3,0.5,1.6c-0.1,0.1-0.3,0.1-0.7,0.2c-2.5,0.3-5,0.6-7.5,1c-0.6,0.1-0.9,0.5-0.9,1.1l0,16.5c0,1.6-0.2,2.8-0.5,3.4
		c-0.6,0.3-1.1-0.1-1.5-1.1c-0.5-0.9-0.7-1.8-0.5-2.7c0.5-2.7,0.7-7.9,0.7-15.8c0-0.6-0.4-0.9-1.2-0.9c-2.7,0.3-4.7,0.6-5.9,0.9
		c-1,0.2-1.9-0.2-2.6-1.4c0-0.2,0.4-0.3,1.2-0.5c0.7,0,1.8-0.1,3.1-0.4c1.4-0.3,2.9-0.5,4.4-0.7c0.6-0.1,0.9-0.4,0.9-1.1
		C71.9,9.8,71.7,6,71.4,3.2z"/>
	<path class="st0" d="M67.1,45.9c0.3-0.5,0.9-0.3,1.6,0.5c1.8,1.4,2.6,2.6,2.1,3.8c-0.4,0.7-0.2,1,0.6,0.9c2.9-0.4,5.6-0.8,8.1-1.4
		c0.3-0.1,0.8,0.2,1.6,0.8c0.5,0.5,0.6,0.9,0.3,1.2c-2.8,0.1-5.1,0.4-6.8,0.7c-0.6,0.1-0.7,0.3-0.4,0.7c0.3,0.4,0.3,1,0.1,2
		c-0.1,0.4-0.1,0.8-0.1,1.2c0,0.7,0.4,0.9,1.2,0.7c0.9-0.2,1.8-0.3,2.7-0.4c1-0.4,1.7-0.3,2.2,0.2c0.6,0.3,0.7,0.7,0.3,1.1
		c-0.1,0.1-0.3,0.1-0.6,0.2c-1.6,0.2-3.2,0.4-4.8,0.7c-0.6,0.2-0.9,0.6-0.9,1.4c0.1,2.8,0.1,5.7,0,8.6c-0.2,0.4-0.5,0.3-0.9-0.2
		c-0.8-1-1-1.8-0.8-2.5l0-5.7c0-0.8-0.4-1.1-1.3-1c-0.6,0.1-1.2-0.1-1.8-0.6c-0.1-0.1-0.2-0.1-0.3,0c-0.2,0.1-0.4,0.2-0.6,0.2
		c-0.9,0.1-1.7,0.2-2.6,0.4c-0.6,0.2-0.9,0.6-0.9,1.4c0.1,2.7,0,5.5,0,8.3c-0.2,0.4-0.5,0.3-0.9-0.2c-0.9-1.1-1.1-2.2-0.7-3.3l0-4.6
		c0-0.6-0.4-0.9-1.2-0.7c-1,0.4-1.9,0.2-2.9-0.5c-0.1-0.1-0.1-0.3-0.1-0.4c0.1-0.2,0.6-0.4,1.4-0.4l1.8-0.4c0.7-0.1,1-0.5,1-1.3
		l-0.2-2.1c-0.1-0.6-0.5-0.9-1.3-0.9c-0.5,0-1,0.1-1.5,0.2c-0.7,0.1-1.1,0.5-1.1,1c-0.1,3.7-0.4,7.5-0.9,11.2
		c-0.1,0.7,0.1,0.7,0.7-0.1c1.4-2,2.2-3.9,2.3-5.7l0.3-0.3c0.5,0,0.9,0.6,1.4,1.6c0,0.2-0.2,0.7-0.7,1.4c-0.9,1.8-2,3.5-3.5,5
		c-0.6,0.5-1,0.9-1.1,1.4c-0.9,4.2-2.8,8.1-5.5,11.7c-0.4,0.5-0.7,0.8-0.9,0.9c-0.5,0-0.7-0.2-0.6-0.7c3.3-5.1,5.2-10.4,5.9-15.9
		c0.7-5.3,0.9-10.2,0.5-14.6c0-0.5,0-0.8,0-1c0.5-0.4,0.9-0.3,1.1,0.4l0.4,0.8c0.3,0.8,0.9,1.2,1.6,1.1l8.5-1.1
		c0.7-0.1,0.9-0.4,0.5-1c-0.8-1.6-1.6-3-2.3-4.1L67.1,45.9z M66.7,68.4c0.4-0.9,0.6-1.4,0.8-1.5c0.2-0.1,0.5,0.3,0.9,1.1
		c0.2,0.9,0.3,1.4,0.2,1.5c-0.9,0.5-1.8,1.4-2.7,2.6c-0.6,0.7-0.5,1,0.3,0.9l2.7-0.5c0.6-0.1,1.1-0.4,1.4-0.8c0.5-0.7,0.9-1.3,1.3-2
		c0.4-0.8,0.7-1.1,0.8-1.1c0.5,0.4,0.9,1.1,1.1,2.3c-0.1,0.2-0.5,0.6-1.3,1.2c-2.1,2.3-4.2,4.3-6.3,6.1c-0.8,0.7-0.8,1,0,0.9
		c2.4-0.4,4.8-0.9,7.2-1.4c0.6-0.2,0.6-0.6-0.2-1.4c-1.1-1.1-1.4-1.8-0.8-2.3c0.2,0,0.6,0.2,1.1,0.5c1.4,1,2.9,2.3,4.6,4
		c0.4,0.5,0.6,1.2,0.4,2c-0.3,0.8-0.5,1.2-0.6,1.3c-0.3,0.1-0.7-0.2-1.1-1.1c-0.7-1.5-1.4-2.1-2.2-1.8c-5,0.8-9.1,1.7-12.2,2.7
		c-0.1,0-0.3-0.2-0.6-0.4c-1-0.9-0.9-1.6,0.4-1.8c1.6-1,3.5-2.5,5.4-4.5c0.5-0.6,0.4-0.9-0.4-0.8c-1.3,0.2-2.6,0.7-4.1,1.4
		c-0.3,0.1-0.7-0.2-1-0.6c-0.4-0.6-0.3-1,0.4-1.3C64.4,72.2,65.8,70.4,66.7,68.4z M72.2,53.6c-0.1-0.6-0.5-0.8-1.4-0.7l-5.1,0.6
		c-0.7,0.1-0.9,0.3-0.7,0.5c0.5,0.4,0.6,1.1,0.2,2l0,0.7c-0.1,0.7,0.3,1,1,0.8l0.8-0.2c0.8-0.1,1.4-0.1,1.7,0.1
		c0.4,0.4,0.6,0.5,0.6,0.4l2.3-0.2c0.6-0.1,0.8-0.5,0.8-1.4C72.4,55.4,72.3,54.5,72.2,53.6z M66.3,61.1c0-0.8,0.1-1.3,0.2-1.4
		c0.7,0.1,1.3,0.6,1.7,1.5c-0.2,1.4-0.3,2.7-0.3,4.1c-0.1,0.8-0.2,1.3-0.3,1.4c-0.2,0.1-0.5-0.1-0.9-0.6c-0.4-0.5-0.5-0.9-0.4-1.3
		V61.1z M70.5,60.8c0-0.8,0.2-1.3,0.4-1.4c0.3-0.1,0.7,0.2,1.2,1c0.5,0.5,0.5,1-0.1,1.6c-0.9,2.4-2.1,4-3.6,4.7
		c-0.2,0-0.3-0.1-0.4-0.2c0-0.1,0.2-0.6,0.7-1.4C69.7,63.6,70.3,62.2,70.5,60.8z M75.6,58.9c0.4-0.3,0.9-0.1,1.6,0.9
		c0.1,0.2,0.2,0.5,0.2,0.8c-0.3,0.8-0.4,1.9-0.3,3.2c0.1,0.9,0.5,1.3,1.1,1.3c0.7-0.1,1.1-0.5,1.1-1.3c-0.2-1.3,0.1-1.9,0.7-1.9
		c0.1,0.1,0.2,0.5,0.4,1.3l0.4,1.7c0.1,0.8,0.2,1.2,0.1,1.3c-0.3,0.2-0.7,0.4-1.4,0.4c-1.4,0.1-2.5,0-3.3-0.4
		c-0.4-0.3-0.6-0.8-0.7-1.4v-4.2C75.5,59.5,75.5,59,75.6,58.9z"/>
	<path class="st0" d="M75.1,92.3c0.6-0.1,1-0.2,1.2-0.1c0.9,0.5,1.4,1.1,1.4,1.7c-0.1,0.2-0.5,0.3-1.3,0.4c-2,0.2-4.4,0.5-7.1,0.9
		c-0.7,0.1-1,0.3-0.7,0.6c0.3,0.4,0.4,0.9,0.1,1.3l-0.7,5c-0.1,0.7,0.1,1,0.7,0.9c3.5-0.6,7.1-1.2,10.7-1.9c1-0.5,1.9-0.1,2.8,1.3
		c0,0.7-0.4,0.9-1.3,0.9c-3.4,0.4-7.1,0.8-10.9,1.4c-0.7,0.1-0.9,0.4-0.6,1c2.9,5,5.5,9.1,8,12.3c1.1,1.3,2.8,2.2,4.9,2.7
		c1,0.3,1.6,0.5,1.7,0.7c0.1,0.3-0.1,0.5-0.4,0.7l-5.7,0.4c-0.3,0.1-0.6-0.2-0.9-0.9c-1.4-2.5-2.7-4.5-3.9-6.3
		c-1.7-2.8-3.4-5.7-5-8.6c-0.4-0.8-0.6-0.8-0.7-0.1c-0.9,5.6-4.2,10.6-9.9,14.8c-1.3,0.9-2.9,1.8-4.7,2.5c-0.3,0.3-0.7,0.2-1-0.2
		c-0.1-0.1,0.2-0.5,1-1.1c3.9-2.2,7.3-5.4,10.2-9.6c1.2-2.4,2-4.7,2.5-6.8c0.2-0.7-0.2-1-0.9-0.9c-2.7,0.3-5.2,0.6-7.5,1.1
		c-0.8,0.2-1.3,0.3-1.6,0.2c-0.3-0.1-0.5-0.2-0.8-0.4c-0.5-0.3-0.8-0.5-1-0.7c-0.2-0.3-0.2-0.5,0.2-0.7c3.8-0.4,7.5-0.8,11.3-1.3
		c0.6-0.1,0.9-0.5,1.1-1.4c0.3-2.1,0.4-4,0.4-5.5c-0.1-0.8-0.5-1.1-1.3-1c-1.5,0.2-3.1,0.4-4.6,0.7c-0.7,0.4-1.4,0.3-2.1-0.3
		c-0.8-0.6-1.1-1-0.9-1.2c0.2-0.1,0.6-0.2,1.2-0.2C63.7,94.6,69.2,93.7,75.1,92.3z"/>
	<path class="st0" d="M66.7,133.7c0.4,0,1,0.3,1.8,0.9c0.8,0.6,1.2,1.1,1.3,1.5c-0.2,0.5-0.3,1-0.4,1.5c-0.2,2.3-0.2,5.5-0.3,9.6
		c0,0.6,0.4,0.9,1.3,0.7l5.8-1.1c0.8-0.3,1.4-0.4,1.9-0.2c1.6,1.1,1.7,1.9,0.5,2.2c-2.5,0.3-5.4,0.6-8.5,1.1c-0.7,0.1-1,0.5-1,1.1
		v4.4c0,0.6,0.4,0.9,1.3,0.7c2-0.3,4-0.6,5.8-1.1c1.1,0.3,1.7,1,1.8,1.9c-0.2,0.2-0.7,0.3-1.4,0.4c-2.1,0.2-4.3,0.5-6.4,0.8
		c-0.6,0.1-0.9,0.5-0.9,1.1v6c0,0.6,0.4,0.9,1.2,0.8c4.3-0.4,7.3-0.8,9-1.1c0.2,0,0.3,0,0.5-0.1c0.8-0.2,1.7,0.1,2.6,0.9
		c0.7,1,0.4,1.5-0.9,1.4c-8.3,0.7-16.7,1.4-25,2.2c-1.1,0.3-1.9,0.2-2.3-0.3c-0.9-0.5-1.1-1-0.6-1.6c3.5-0.2,7.8-0.5,12.9-1
		c0.6-0.1,0.9-0.4,0.9-1v-5.9c0-0.6-0.4-0.9-1.2-0.9l-3.5,0.5c-0.8,0.3-1.8,0.1-2.9-0.5c-0.4-0.3-0.5-0.6-0.5-0.8
		c0.2-0.2,0.7-0.4,1.5-0.5c1.9-0.1,3.8-0.3,5.6-0.6c0.6-0.1,0.9-0.5,0.9-1.1v-4.4c0-0.6-0.4-0.9-1.2-0.9c-1.6,0.2-3.1,0.4-4.3,0.6
		c-0.8,0.2-1.5,0.2-2.1-0.2c-0.4-0.2-0.8,0-1.2,0.8c-1.3,2.4-2.5,4.5-3.7,6.3c-0.3,0.6-0.6,0.7-1.1,0.3c-0.1-0.2-0.1-0.6,0.2-1
		c3.4-5.6,5.5-10.8,6.3-15.7c-0.2-1.1,0-1.7,0.5-1.8c0.2,0,0.6,0.4,1.2,1.1c0.5,0.7,0.6,1.4,0.2,2.3l-2.2,5c-0.2,0.6,0,0.9,0.8,0.9
		c1.4-0.1,3.2-0.4,5.5-0.7c0.7-0.1,1-0.5,1-1.3c0.2-5.9-0.2-10.3-0.9-13C66.5,134,66.6,133.8,66.7,133.7z"/>
	<path class="st0" d="M66.3,189.3c0.1-0.2,0.5,0,1.3,0.5c1.1,0.8,1.6,1.4,1.4,2c-0.1,0.3,0.4,0.4,1.2,0.3c2.5-0.4,5.1-0.8,7.7-1.2
		c0.8,0.4,1.2,0.9,1.4,1.4c-0.1,0.4-0.7,0.6-1.6,0.5c-1.5,0.1-3,0.3-4.5,0.5c-0.6,0.1-0.9,0.2-0.9,0.5l-0.4,1.4
		c-0.1,0.6,0.2,0.9,1,0.7l1.6-0.2c0.9,0.1,1.6-0.3,1.9-1.2c0.6-0.3,1.3,0.2,2,1.4c-0.5,0.9-0.8,1.6-0.9,2.3c-0.1,0.6,0,1.1,0.4,1.4
		c0.4,0.3,0.6,0.7,0.5,1.2c-0.1,0.1-0.6,0.3-1.4,0.4c-1.3,0.1-2.6,0.2-3.9,0.4c-0.7,0.1-1,0.4-0.8,0.7c0.3,0.4,0.4,0.9,0.1,1.7
		c-0.1,0.5-0.1,1-0.1,1.6c0,0.6,0.4,0.7,1.2,0.2c1.1-0.7,2-1.4,2.7-2.3c0.4-0.6,0.7-1,1.1-1.3c0.2-0.1,0.5,0.3,1.1,1.1
		c0.6,0.7,0.4,1.3-0.7,1.6c-1.5,0.8-3,1.7-4.5,2.6c-0.6,0.3-0.9,0.8-0.9,1.7c0,0.8,0.1,1.4,0.4,1.7c0.4,0.3,1.1,0.4,2,0.4
		c2,0.1,3.5,0,4.6-0.2c0.6-0.2,1-0.7,1-1.3c0.1-1.6,0.1-3.2-0.1-4.8c0.1-0.7,0.4-0.9,0.9-0.7c0.1,0.1,0.3,0.6,0.4,1.4
		c0.4,2.3,0.7,4.3,1.1,5.9c0.1,0.7-0.2,1-0.9,1.2c-3.4,0.5-6.3,0.6-8.9,0.3c-1.5-0.5-2.2-1.5-2.3-2.9l0-7.2
		c-0.1-0.6-0.5-0.9-1.3-0.8l-4.7,0.6c-0.8,0.1-1,0.2-0.9,0.4c0.2,0.3,0.2,0.8,0,1.5c-0.2,0.8,0.2,1.1,0.9,1l2.7-0.6
		c0.5-0.3,1-0.2,1.6,0.4c0.4,0.2,0.6,0.5,0.5,0.9c-0.1,0.1-0.5,0.3-1.3,0.4c-1.3,0.2-2.6,0.4-3.7,0.7c-0.6,0.2-0.9,0.6-0.9,1.3v0.9
		c0.1,0.8,0.5,1.1,1.3,0.8l3.5-1.2c0.6-0.3,1-0.3,1.3,0.1c0.1,0.3,0.1,0.6-0.2,0.9c-2.5,1-4.6,2-6.4,3c-1,0.9-1.8,0.6-2.4-1.1
		c0.1-0.3,0.3-0.5,0.6-0.5c0.5-0.1,0.7-0.4,0.7-0.8c0.4-1.6,0.4-3.9,0.2-6.7c-0.1-0.6-0.5-0.9-1.3-0.7c-0.8-0.1-1.3,0.3-1.5,1.1
		c-0.9,3.9-3.3,7.3-7,10.2c-1.1-0.4-0.9-1.1,0.7-2.2c1.9-2,3.3-4.1,4.1-6.3c1.4-4.6,1.8-9.2,1.1-13.8c-0.1-0.4,0.1-0.7,0.5-0.9
		c0.4,0,0.6,0.2,0.7,0.7c0.3,0.8,0.9,1.2,1.6,1.1c1.8-0.3,3.6-0.5,5.4-0.7c0.7-0.1,1-0.4,0.7-1c-0.1-0.4-0.3-0.8-0.5-1.3
		C66.2,190,66.1,189.7,66.3,189.3z M64.5,179.1c0.7-0.2,1.2-0.2,1.4-0.2c0.6,0.2,1,0.7,1.1,1.4c-0.1,0.2-0.5,0.3-1.3,0.5
		c-2.4,0.2-5,0.6-7.7,1.2c-1.2,0.1-2-0.2-2.4-1c0.1-0.4,0.5-0.6,1.1-0.6C59.2,180,61.8,179.6,64.5,179.1z M64.3,182.3
		c0.3-0.4,0.6-0.5,1.1-0.2c1.2,0.5,1.4,1.2,0.5,2.1c-0.1,0.3-0.2,0.8-0.2,1.4c0,2.6-0.2,4.3-0.5,5.3c-0.4,0.4-0.8,0.3-1.2-0.3
		c-0.4-0.7-0.5-1.3-0.3-1.8c0.3-1,0.4-2.2,0.5-3.6c0-0.6-0.4-0.9-1.2-0.8c-0.9,0.1-1.8,0.3-2.7,0.5c-0.7,0.2-1,0.6-1,1.3
		c0,2.2-0.1,3.8-0.2,4.7c-0.1,0.4-0.4,0.4-0.7,0.2c-0.8-0.6-1-1.4-0.9-2.5c0.3-0.9,0.3-2.8,0-5.5c0.2-0.3,0.5-0.3,1,0.1
		c0.3,0.3,0.8,0.3,1.5,0.1C62.1,183.2,63.5,182.8,64.3,182.3z M60.5,199.1c-0.4-0.3-0.6-0.1-0.7,0.6l-0.1,0.9
		c-0.2,0.7,0.2,1,0.9,0.9l2.4-0.3c0.6-0.1,0.9-0.5,0.9-1.2c0-0.7-0.4-1-1.2-0.9c-0.3,0-0.6,0-0.9,0.1
		C61.2,199.3,60.7,199.3,60.5,199.1z M62.6,194.6l-0.4,0c-0.4,0-0.9,0.1-1.4,0.2c-0.6,0.1-0.9,0.6-0.9,1.4v0.7
		c0,0.6,0.4,0.8,1.2,0.7l1.9-0.2c0.6-0.1,0.9-0.5,0.9-1.3c0-0.2,0-0.4,0-0.6C63.9,194.8,63.4,194.6,62.6,194.6z M60.5,185.4
		c0.1-0.3,0.6,0,1.5,0.7c1.1,0.9,1.4,1.7,1.1,2.3c-0.5,0.8-0.8,1.1-0.9,1.1c-0.2-0.1-0.4-0.4-0.5-0.9c-0.1-0.5-0.3-1-0.5-1.6
		C60.6,186.2,60.4,185.7,60.5,185.4z M68.8,198.2c-0.8,0.1-1.5,0.2-2.3,0.4c-0.6,0.1-0.9,0.5-0.9,1.3c0,0.7,0.4,1,1.1,0.8l2-0.2
		c0.7-0.1,1.1-0.5,1.1-1.1C69.9,198.5,69.6,198.2,68.8,198.2z M69,193.8c-0.7,0.1-1.5,0.1-2.3,0.3c-0.6,0.1-0.9,0.2-0.8,0.4
		c0.1,0.3,0,0.8-0.2,1.6c0,0.6,0.4,0.9,1.2,0.8c0.7-0.2,1.5-0.3,2.3-0.4c0.6-0.1,1-0.5,1.1-1.3v-0.5C70.2,194,69.7,193.7,69,193.8z
		 M78.6,178c0.9-0.3,1.6,0.2,1.9,1.4c-0.3,0.4-1,0.6-2.1,0.6c-2.8,0.3-5.4,0.8-7.8,1.3c-0.7,0.1-1.2,0.1-1.6,0c-0.6-0.1-1-0.5-1.1-1
		c0-0.2,0.4-0.4,1.4-0.6C72.6,179.3,75.7,178.7,78.6,178z M76.7,181.8c0.6-0.8,1.4-0.6,2.2,0.5c0.1,0.1-0.1,0.6-0.5,1.4
		c-0.1,0.3-0.2,0.5-0.2,0.8c0.1,1.7,0,3.3-0.2,4.9c-0.1,0.7-0.4,1.1-0.8,1.1c-0.2-0.1-0.5-0.5-0.9-1.2c-0.2-0.5-0.1-1.1,0.2-1.9
		c0.2-0.9,0.3-1.8,0.2-2.9c0-0.6-0.4-0.8-1.1-0.7c-1.3,0.2-2.5,0.4-3.8,0.7c-0.6,0.1-0.9,0.5-0.9,1.1c0.1,2,0,3.8-0.3,5.5
		c-0.3,0.3-0.6,0.2-1-0.3c-0.5-0.7-0.7-1.3-0.6-1.8c0.3-1.1,0.4-2.8,0.2-4.9c-0.1-0.9-0.1-1.5,0-1.6c0.1-0.1,0.4,0,0.7,0.2
		c0.3,0.3,0.9,0.4,1.7,0.2c1.3-0.3,2.6-0.5,3.8-0.7C76,182.1,76.4,182,76.7,181.8z M74.8,197.3l-0.7,0.1l-1.5,0.2
		c-0.7,0.1-1.1,0.5-1.1,1.2c-0.1,0.8,0.3,1.1,1.1,1c0.7-0.1,1.4-0.2,2.1-0.4c0.6-0.2,1-0.6,1.2-1.3
		C75.9,197.5,75.5,197.2,74.8,197.3z M72,185l0.3-0.3c0.1-0.1,0.6,0.3,1.4,1.2c0.9,0.9,1.2,1.8,0.9,2.5c-0.3,0.6-0.6,0.9-0.7,1
		c-0.3,0-0.5-0.5-0.9-1.5l-0.5-1.5C72.1,185.6,71.9,185.2,72,185z"/>
	<path class="st0" d="M65.1,223.2c0.8-1,1.5-0.8,2.2,0.4c0.4,0.6,0.1,1.1-0.9,1.5c-2,0.5-4,1-6,1.7c-0.6,0.2-1,0.7-1.1,1.4
		c-0.1,0.8,0.2,1.2,0.9,1.1c1.9-0.3,3.8-0.6,5.7-0.9c0.9-0.2,1.5-0.1,1.8,0.2c0.7,0.5,0.8,0.9,0.4,1.3c-1,0.1-2,0.1-3,0.3
		c-0.7,0.1-1.1,0.5-1.1,1.3l-0.1,6.2c-0.3,0.4-0.8,0.3-1.4-0.3c-0.6-0.5-0.7-1.1-0.5-1.6c0.2-0.8,0.3-2,0.3-3.7
		c0-0.9-0.4-1.3-1.2-1.2l-1.6,0.2c-0.5,0.1-1,0.5-1.2,1.4c-0.9,3-2.9,5.4-5.8,7.2c-0.3,0-0.5-0.1-0.5-0.4c0-0.2,0.4-0.7,1.2-1.4
		c1.8-1.6,3.1-3.6,3.8-6c0.6-2.2,0.8-4.4,0.6-6.7c0-0.8,0-1.2,0.1-1.3c0.5-0.3,0.8-0.1,1,0.7c0.4,0.8,0.9,1.1,1.7,0.9
		C62.2,224.7,63.7,224,65.1,223.2z M72,225.1c3-0.8,5.4-1.8,7.3-3c0.2,0,0.7,0.4,1.4,1.1c0.6,0.8,0.4,1.3-0.7,1.3
		c-2.6,0.6-5.1,1.2-7.7,1.9c-0.7,0.2-1,0.6-1.1,1.4l-0.1,0.7c-0.1,0.6,0.3,0.9,1.1,0.9c3-0.4,6-0.8,9-1.3c0.8-0.1,1.4,0,1.8,0.3
		c0.5,0.4,0.7,0.8,0.7,0.9c-0.1,0.2-0.6,0.3-1.4,0.4c-1.7,0.1-3.5,0.3-5.3,0.6c-0.7,0.1-1,0.5-0.9,1.3c0,1.4,0,2.8,0,4.3
		c0,0.8,0.1,1.3,0.4,1.6c0.5,0.3,0.5,0.7,0.2,1.2c-0.3,0.3-0.5,1-0.5,2l-0.8,9.4c0.1,0.5-0.1,0.8-0.5,0.9c-0.2,0-0.4-0.2-0.8-0.7
		c-0.3-0.5-0.8-0.8-1.6-0.7c-1.8,0.2-3.5,0.4-5.3,0.6c-0.7,0.1-0.9,0.3-0.8,0.5c0.2,0.2,0.2,0.6,0,1c-0.6,0.4-1.1,0.8-1.7,1.2
		c-2.3,2.1-4.9,3.9-7.8,5.5c-0.8,0.3-1.3,0.5-1.4,0.5c-0.3-0.1-0.3-0.4-0.2-0.7c1.1-0.8,2.2-1.5,3.3-2.2c2.3-1.5,4-3,5.2-4.5
		c0.5-0.7,0.3-1-0.5-0.9c-0.8,0.1-1.2,0.4-1.3,0.7c0,0.7-0.3,0.9-0.9,0.6c-0.7-0.9-1-1.7-0.9-2.2c0.5-1.4,0.5-4.1,0.2-8.1l-0.2-2.3
		c-0.1-1,0-1.6,0.2-1.6c0.4-0.1,0.7,0.2,0.9,0.9c0.3,0.7,0.8,1,1.6,0.8l8.9-1.2c0.8-0.1,1.6-0.2,2.2-0.5c0.4-0.3,0.5-0.7,0.2-1.1
		c-0.2-0.4-0.2-0.8-0.1-1.3c0.2-0.9,0.2-2,0.2-3.4c-0.1-0.8-0.5-1.1-1.3-1.1l-1.4,0.2c-0.6,0.1-1.1,0.6-1.3,1.4
		c-0.9,2.6-2.4,4.6-4.5,6c-0.9-0.4-0.7-1,0.5-1.9c1.5-1.6,2.5-3.7,2.9-6.3c0.2-1.8,0.1-4-0.2-6.5c0.2-0.4,0.4-0.5,0.7-0.2
		c0.1,0.1,0.3,0.5,0.6,1.1C70.9,225.1,71.4,225.3,72,225.1z M73.3,239.6c-3.4,0.5-6.8,1-10.2,1.4c-0.6,0.1-0.9,0.4-0.9,0.9
		c0,0.5,0.4,0.7,1.2,0.6c2.5-0.3,4.9-0.6,7.4-1c0.9-0.5,1.7-0.4,2.4,0.4c0.2,0.4,0.3,0.7,0.2,0.8c-0.1,0.1-0.6,0.2-1.4,0.3
		c-3,0.4-5.9,0.8-8.9,1.2c-0.6,0.1-0.9,0.4-0.9,0.9c0,0.4,0.4,0.6,1.2,0.6l5.9-0.7c0.9-0.1,1.6-0.2,2-0.3c0.8-0.1,1.4,0,1.8,0.3
		c0.5,0.4,0.6,0.8,0.4,1.1c-0.1,0.1-0.5,0.2-1.3,0.2l-8.9,1.1c-0.6,0.2-0.9,0.4-0.9,0.9c0,0.5,0.3,0.8,0.9,0.7l6-0.7
		c1.4-0.1,2.4-0.3,3.1-0.5c0.5-0.2,1-0.2,1.4,0c0.1,0.1,0.3-0.2,0.5-1.1c0.2-1.7,0.4-3.7,0.4-6C74.5,239.9,74.1,239.6,73.3,239.6z
		 M69.6,250.6c0.2-0.5,0.5-0.6,1-0.2c2,1,4.1,2.4,6.3,4c1,0.6,1.4,1.4,1.3,2.4c0,0.7-0.1,1.1-0.2,1.3c-0.2,0.1-0.7-0.2-1.6-1.1
		c-2-2.1-3.9-3.8-5.7-5.1C69.9,251.5,69.6,251.1,69.6,250.6z"/>
	<path class="st0" d="M17.6,22.1c0.4-0.5,0.9-0.2,1.5,0.8c0.3,0.7,0.4,1.1,0.4,1.3c-0.1,0.3-0.5,0.8-1.3,1.4c-0.9,1-1.8,2-2.6,3
		c-2.1,2.5-4.5,4.7-7.1,6.7c-0.7,0.7-1.3,0.9-1.8,0.9c-0.1-0.1-0.2-0.2-0.2-0.4c0.4-0.7,1.5-1.7,3.1-3.2
		C14.4,28.2,17,24.7,17.6,22.1z M28.7,5.2c0.5-0.9,1.1-1,1.8-0.3c0.5,0.6,0.6,1.3,0.2,2.2c-0.6,2.1-1.3,4.9-1.9,8.5
		c-0.1,0.7,0,1.1,0.4,1.3c0.7,0.5,1,1,0.8,1.4c-0.1,0.1-0.2,0.2-0.5,0.2c-2.6,0.2-6.7,0.7-12.3,1.4c-0.6,0.1-1,0.4-1,0.8
		c0.1,0.5-0.1,0.9-0.4,1.3c-0.2,0.1-0.6-0.4-1.3-1.4c-0.6-0.9-0.7-1.8-0.3-2.5c0.6-3.6,0.5-7.1-0.2-10.6c-0.3-0.8-0.1-1.4,0.4-1.6
		c0.4-0.1,0.7,0.2,0.8,0.8c0.2,0.4,0.7,0.6,1.4,0.5c2.1-0.2,5.9-0.8,11.3-1.8C28.3,5.5,28.5,5.3,28.7,5.2z M27.2,7.6
		c-3.5,0.4-6.9,0.9-10.3,1.5c-0.6,0.1-0.9,0.6-0.9,1.4l0.2,6.8c0.1,0.6,0.5,0.9,1.3,0.8l8.1-1.1c0.6-0.1,1-0.5,1.2-1.3
		c0.4-2.4,0.9-4.8,1.4-7.2C28.3,7.8,28,7.5,27.2,7.6z M24.8,22.3c0.1-0.1,0.6,0.1,1.3,0.6c2,1.7,4.3,4,6.9,6.8
		c0.7,0.5,1.1,1.4,1,2.5c0.2,0.8,0,1.4-0.4,1.8c-0.2,0.1-0.7-0.4-1.4-1.3c-1.8-2.8-4.2-5.9-7.2-9.4C24.7,22.9,24.6,22.6,24.8,22.3z"
		/>
	<path class="st0" d="M33.5,61.3c0.7-0.3,1.3-0.4,1.8-0.3c1,0.7,1.5,1.3,1.4,2c-0.2,0.2-0.6,0.3-1.4,0.4c-3.8,0.4-7.6,0.8-11.3,1.4
		c-0.7,0.1-1,0.4-1,1.1v2.7c0,0.6,0.4,0.9,1.2,0.7c2.8-0.5,4.7-0.9,5.9-1.3c0.5-0.1,1.1,0.3,1.7,1.1c-0.1,0.6-0.5,0.8-1.4,0.8
		c-2.1,0.3-4.2,0.7-6.4,1.1c-0.6,0.2-0.9,0.6-0.9,1.2c0,1,0,2,0,3.1c0,0.8,0.5,1.3,1.3,1.6c3.9,1.7,6.8,2.6,8.8,2.6l3.9-0.1
		c0.8,0,1.2,0.1,1.3,0.2c0.1,0.8-0.5,1.3-1.6,1.3c-3.2,0.9-5.3,1.3-6.4,1.4c-0.3,0-0.7-0.2-1.4-0.7c-4.1-2.3-8.8-4.7-14-7.2
		c-0.7-0.3-1.3-0.1-1.9,0.7c-2,2.7-4.2,5-6.7,6.8c-0.5,0.3-0.9,0.5-1.1,0.5c-0.6,0-0.7-0.3-0.4-0.9c5.9-5.2,9.2-9.8,10-13.9
		c0.1-0.4,0.3-0.7,0.7-0.7c0.4,0.2,0.7,0.7,1.1,1.6c0.2,0.9,0,1.6-0.7,2.3l-0.5,0.7c-0.4,0.7-0.3,1.2,0.2,1.5
		c1.5,0.8,2.9,1.5,4.4,2.1c0.7,0.3,1.1,0.2,1.1-0.4V66c0-0.6-0.4-0.9-1.2-0.8c-4.6,0.5-8.1,1-10.5,1.4c-0.7,0.2-1.3,0.2-1.6-0.1
		c-0.4-0.3-0.9-0.6-1.3-1c-0.2-0.1-0.1-0.4,0.2-0.7c1.1,0,2.2-0.1,3.3-0.3c7.7-0.9,14-1.7,18.8-2.4C30.8,61.8,32.4,61.6,33.5,61.3z
		 M28.2,46.2c0.5-0.6,1.1-0.5,1.9,0.5c0.3,0.5,0.3,0.8-0.1,1.1c-0.2,0.2-0.3,0.6-0.5,1.2c-0.4,2.3-0.7,4.5-1,6.8
		c-0.1,0.6,0.1,1,0.5,1.4c0.4,0.4,0.6,0.7,0.6,0.9c-0.1,0.2-0.5,0.4-1.3,0.5c-3.8,0.5-7.3,1-10.4,1.6c-0.7,0.2-1.1,0.5-1.1,0.9
		c-0.1,0.5-0.2,0.8-0.4,0.9c-0.5,0-0.8-0.4-1.1-1.1c-0.8-1.1-0.9-2.2-0.4-3.1c0.4-1.9,0.5-4.3,0.2-7.4c-0.2-1.4-0.3-2.4-0.3-3
		c0.1-0.3,0.3-0.5,0.5-0.5c0.2,0,0.5,0.3,0.7,0.9c0.3,0.6,0.7,0.8,1.3,0.7c3-0.6,6-1.1,9.1-1.6C27.2,46.9,27.8,46.6,28.2,46.2z
		 M26.6,48.8c-2.9,0.4-5.8,0.9-8.8,1.4c-0.6,0.2-0.9,0.5-0.9,1.2v1.4c0,0.8,0.4,1.1,1.2,1c2.3-0.3,4.2-0.7,5.9-1.2
		c0.8-0.5,1.6-0.2,2.2,0.9c0,0.2-0.1,0.3-0.2,0.4c-2.7,0.5-5.3,1-8,1.6c-0.7,0.2-1.1,0.5-1.1,1.1v0.9c0,0.8,0.5,1.1,1.3,0.9l7.4-1.1
		c0.7-0.1,1.1-0.6,1.1-1.4c0.3-2.1,0.6-4.3,0.9-6.4C27.8,49,27.4,48.7,26.6,48.8z"/>
	<path class="st0" d="M21.1,89.4c0.4-0.3,1-0.1,1.6,0.5c1.1,0.7,1.6,1.4,1.4,2.1c-0.3,2.1-0.2,5,0.3,8.7c0.1,0.7,0.4,1,1,0.9
		c1.7-0.2,3.5-0.7,5.2-1.3c0.6-0.3,1.1-0.2,1.6,0.3c0.6,0.7,0.9,1.1,0.9,1.3c-0.1,0.2-0.7,0.4-1.7,0.5c-1.9,0.2-3.8,0.5-5.6,0.9
		c-0.6,0.1-0.9,0.6-0.7,1.4c0.4,2.2,0.8,4.2,1.3,6.1c0.2,0.7,0.5,0.6,1.2-0.2c1-1.4,1.8-2.6,2.2-3.6c0.3-1,0.5-1.5,0.7-1.6
		c0.3-0.2,0.6-0.1,0.8,0.2c0.7,1.5,0.8,2.5,0.4,3c-0.9,0.7-2.2,2-3.8,4.1c-0.5,0.6-0.6,1.3-0.3,2.1c1.2,3.6,3.3,6.5,6.4,8.6
		c0.1,0,0.3-0.4,0.5-1.2c0.2-1.3,0.3-2.6,0.3-3.9c0.1-0.8,0.2-1.2,0.3-1.4c0.3-0.1,0.6,0,0.7,0.2c0.2,3,0.4,5.8,0.8,8.2
		c0.1,1,0.1,1.5-0.1,1.6c-0.1,0.1-0.4,0.1-0.7,0.1c-1-0.3-2-0.9-3.1-1.9c-3.2-2.8-5.4-5.8-6.5-9c-0.2-0.7-0.8-0.6-1.6,0.1
		c-2.1,2-4,3.4-5.8,4.1c-0.3,0-0.4-0.1-0.5-0.4c-0.1-0.4,0.4-0.9,1.5-1.6c1.5-1.1,3.1-2.4,4.6-4c0.5-0.6,0.7-1.3,0.5-2.1
		c-0.7-2.3-1.1-4.7-1.5-7.3c-0.1-0.6-0.5-0.9-1.3-0.8l-4.3,0.8c-0.7,0.1-1.1,0.5-1.1,1.1v2.6c0,0.8,0.5,1,1.3,0.6
		c1.3-0.6,2.2-0.9,2.8-1c0.5,0.1,0.6,0.3,0.5,0.6c-0.1,0.3-0.5,0.6-1.2,0.9c-0.8,0.3-1.5,0.7-2.3,1.2c-0.7,0.4-1,0.9-1,1.6
		c0.2,4.8,0,8.7-0.5,11.7c-0.2,1.5-0.8,1.6-2,0.5c-1-1.1-2.1-2.2-3.3-3.4c-0.7-0.8-1.1-1.2-1.1-1.4c0.1-0.4,0.3-0.5,0.6-0.5l3,2
		c0.6,0.4,1,0.2,1.1-0.7c0.2-2.1,0.3-4.6,0.2-7.4c0-0.7-0.4-0.8-1.2-0.4c-1.4,0.7-2.8,1.4-4.3,2.1c-0.8,0.7-1.6,0.7-2.4-0.1
		c-0.6-0.5-0.9-0.8-0.9-1.1c0.2-0.2,0.7-0.5,1.5-0.7c2.6-0.9,4.7-1.7,6.3-2.3c0.6-0.3,0.9-0.7,0.9-1.3v-3.2c0-0.6-0.4-0.9-1.2-0.8
		c-0.9,0.1-1.8,0.3-2.7,0.5c-1.2,0.5-2.2,0.5-3.1,0c-0.6-0.2-0.9-0.5-0.9-0.9c0.1-0.2,0.5-0.3,1.3-0.5c2-0.2,3.9-0.5,5.9-0.9
		c0.5-0.1,0.8-0.5,0.8-1.3c-0.1-1.1-0.1-2.3,0-3.4c0-0.8-0.4-1.1-1.3-0.7l-4.2,1.7c-1.1,0.5-1.7,0.5-2-0.2c0.2-0.4,0.4-0.6,0.8-0.7
		c4.1-1.7,7.1-3.3,9-4.8c0.7-1.1,1.3-1.4,1.8-0.8c1,0.7,1.4,1.2,1.4,1.5c-0.1,0.3-0.5,0.5-1.3,0.9c-0.5,0.2-1.1,0.4-1.6,0.7
		c-0.6,0.3-0.9,0.8-0.9,1.4c0,1.5,0,2.9,0,4.4c0,0.7,0.4,0.9,1.2,0.7l4.1-0.7c0.7-0.1,0.9-0.5,0.8-1.3c-0.2-1.9-0.4-3.9-0.6-5.8
		c-0.2-1.8-0.5-3.3-1.1-4.7C20.9,90.1,20.9,89.8,21.1,89.4z M26.8,93.3c0.1-0.2,0.5-0.2,1.3,0.2c1,0.6,1.9,1.2,2.7,1.9
		c0.8,0.6,1.1,1.1,1.2,1.4c0.1,1.1-0.2,1.8-0.6,2.1c-0.2,0-0.6-0.4-1.2-1.1c-0.6-0.9-1.4-1.8-2.2-2.7C27.1,94.3,26.7,93.7,26.8,93.3
		z"/>
	<path class="st0" d="M13.4,134.2c0.7-0.5,1.4,0,2,1.4c0.5,0.6,0.6,1.1,0.3,1.6c-0.4,0.5-1,1.6-1.8,3.1c-0.7,1-1,1.8-0.9,2.5
		c0,11.2-0.1,19.9-0.4,26c0,0.8-0.1,1.3-0.2,1.4c-0.3,0.3-0.6,0.3-0.9-0.2c-1-1.5-1.2-2.9-0.7-4c0.2-0.9,0.4-1.8,0.4-2.7
		c0.1-5.8,0.1-11.6,0-17.5c0-0.7-0.2-0.6-0.7,0.2c-0.5,0.9-1.1,1.8-1.9,2.7c-0.8,1-1.7,2.1-2.6,3.1c-0.5,0.6-0.9,1-1.2,1.3
		c-0.3,0.2-0.5,0.1-0.7-0.3c0-0.4,0.3-1,1.1-1.8c3.3-4.2,5.7-8.3,7.4-12.5c0.5-1,0.7-2,0.7-3C13.3,134.8,13.3,134.3,13.4,134.2z
		 M23.4,137.1c0.7-0.5,1.3-0.7,1.8-0.3c0.4,0.4,0.5,1,0.3,1.8c-0.4,2.3-0.7,5-0.9,8.2c-0.1,0.7,0.1,1.2,0.3,1.4
		c0.5,0.4,0.7,0.7,0.5,1c-0.1,0.1-0.5,0.2-1.3,0.3c-1.4,0.2-2.8,0.4-4.2,0.7c-0.6,0.2-0.9,0.6-0.9,1.2c-0.1,5.3,0,10.7,0.2,16.2
		c0,0.9,0,1.4-0.1,1.6c-0.1,0.3-0.4,0.4-0.7,0.3c-1.2-1.3-1.7-2.8-1.3-4.3c0.2-12.3,0.2-21.3-0.2-27c-0.1-0.5-0.1-1,0.1-1.4
		c0.4-0.2,0.9,0.1,1.3,1.1l0.3,0.6c0.1,0.1,0.5,0,1.3-0.1C21.2,138,22.4,137.6,23.4,137.1z M22.3,139.4l-0.3,0.1l-2.1,0.4
		c-0.6,0.2-0.9,0.5-0.9,1.2v1.3c0,0.7,0.4,0.9,1.2,0.7l0.9-0.2c0.9-0.1,1.4-0.1,1.7,0.2c0.3,0.3,0.5,0.1,0.6-0.7
		c0-0.8,0.1-1.5,0.2-2.3C23.5,139.4,23.1,139.2,22.3,139.4z M23.1,144.9c0.1-0.7-0.3-0.9-1.1-0.6c-0.7,0.1-1.4,0.3-2.1,0.5
		c-0.6,0.2-0.9,0.5-0.9,1.2v1.8c0,0.6,0.4,0.9,1.2,0.8l1.8-0.3c0.6-0.2,1-0.7,1.1-1.4C22.9,146.2,23,145.6,23.1,144.9z M33.8,135.9
		c0.8-0.9,1.6-0.6,2.5,0.7c-0.1,0.2-0.2,0.3-0.3,0.5c-0.2,0.2-0.3,0.6-0.3,1.3l0.1,27c-0.1,1-0.2,2.1-0.3,3.1
		c-0.1,0.8-0.3,1.3-0.8,1.6c-0.1,0-0.6-0.4-1.3-1.1c-1.2-1.2-2.4-2.2-3.6-2.9c-0.9-0.6-1.3-1-1.4-1.1c-0.2-0.3,0-0.6,0.5-0.7
		c0.1,0,0.5,0.2,1,0.5l2.9,1.6c0.7,0.3,1.1,0,1.1-0.8c0.1-2.7,0.2-8,0.1-16l0-0.4c0-0.6-0.4-0.8-1.2-0.7c-0.9,0.2-1.8,0.4-2.7,0.7
		c-0.7,0.2-1,0.4-1,0.6c0,0.4-0.1,0.7-0.4,0.9c-0.2,0-0.5-0.2-0.9-0.6c-0.5-0.9-0.7-1.7-0.4-2.3c0.3-1.2,0.4-3.6,0.2-7.2
		c0-0.7,0-1.4-0.1-2.2c0-0.7,0-1.4,0-2.2c0.1-0.1,0.2-0.2,0.4-0.2c0.2,0,0.4,0.2,0.7,0.7c0.3,0.5,0.8,0.7,1.6,0.5
		C31.6,136.9,32.8,136.5,33.8,135.9z M33.8,143.9c0-0.5-0.4-0.7-1.3-0.5l-2.4,0.6c-0.6,0.2-0.9,0.7-0.9,1.4l0,1.3
		c0,0.6,0.4,0.8,1.2,0.7l2.6-0.6c0.6-0.2,0.9-0.6,0.9-1.4V143.9z M32.3,138.3l-0.8,0.2c-0.4,0.1-0.9,0.1-1.4,0.3
		c-0.6,0.1-0.9,0.5-0.9,1.1v1.5c0,0.6,0.4,0.8,1.2,0.7c0.8-0.2,1.6-0.4,2.3-0.5c0.3,0,0.5,0.1,0.7,0.3c0.2,0.2,0.4-0.1,0.4-0.7V139
		C33.8,138.3,33.3,138,32.3,138.3z"/>
	<path class="st0" d="M28.3,187.9c0.5-0.8,1.1-0.8,1.8,0c0.6,0.4,0.7,0.8,0.4,1.3c-0.4,0.6-0.7,1.6-0.8,3.1l-0.3,2.9
		c0,0.6,0.4,0.8,1.3,0.7c1-0.1,2.5-0.4,4.4-0.8c0.5-0.3,1-0.2,1.6,0.3c0.7,1,1,1.5,0.9,1.6c-0.2,0.1-0.6,0.2-1.4,0.3
		c-2,0.1-4.1,0.3-6.1,0.5c-0.6,0.1-0.9,0.5-1,1.3l-0.4,4.1c-0.1,0.5,0.4,0.8,1.3,0.6l1.8-0.2c0.8-0.1,1.5,0.1,2,0.4
		c0.5,0.5,0.7,0.9,0.5,1.1c-0.2,0.1-0.6,0.2-1.1,0.2l-3.8,0.4c-0.7,0.1-1,0.5-1.1,1.3c-0.5,3.4-1.2,5.8-2.1,7.2
		c-0.5,0.5-1,0.3-1.7-0.7c-0.8-0.9-1.6-1.8-2.6-2.7c-0.9-0.9-1.4-1.4-1.4-1.5c0.1-0.5,0.4-0.6,0.9-0.5c0.9,0.6,1.8,1.2,2.7,1.9
		c0.7,0.4,1.2,0.2,1.5-0.5c0.3-1,0.6-2.1,0.8-3.2c0.1-0.7-0.2-1-1-0.9c-3.8,0.3-7.6,0.7-11.4,1.1c-0.5,0.1-0.9,0.2-1.1,0.4
		c-0.3,0.4-0.6,0.5-1,0.3c-0.8-0.7-1-1.4-0.6-2c0.7-1,1.3-2.9,1.6-5.6c0.1-0.5-0.3-0.8-1.2-0.7c-2.2,0.2-3.7,0.4-4.5,0.6
		c-0.2,0.2-0.6,0.1-1.2-0.3c-0.8-0.5-1.2-0.8-1.3-1.1c0-0.3,0.4-0.5,1.3-0.6l6.5-0.5c0.6-0.1,0.9-0.5,1.1-1.3
		c0.3-2.2,0.6-4.5,0.7-6.8c0.1-1,0.2-1.6,0.3-1.6c0.4-0.1,0.8,0.2,1,1c0.2,0.6,0.7,0.8,1.4,0.7l10.6-1.4
		C27.7,188.3,28,188.1,28.3,187.9z M15.7,177.5c0.8-0.3,1.4,0.2,1.9,1.6c0.2,0.4,0.2,0.8-0.1,1.1c-0.6,0.7-1.2,1.6-1.8,2.8
		c-0.5,0.8-0.3,1.2,0.5,1.1c6.3-0.8,11.5-1.7,15.6-2.7c0.7-0.1,1.2,0.2,1.7,0.9c0.3,0.5,0.4,0.8,0.2,1c-0.3,0.2-0.9,0.3-1.9,0.4
		c-5.2,0.7-10.4,1.5-15.6,2.3c-0.5,0.1-1,0-1.4,0c-0.4-0.2-0.9,0.1-1.4,0.8c-1.3,1.7-3.2,3.8-5.5,6.3c-0.6,0.6-1.1,0.8-1.4,0.5
		c-0.3-0.2-0.3-0.5,0-0.9C11.9,187.1,15,182,15.7,177.5z M27.4,199c0.1-0.6-0.3-0.8-1.2-0.8l-6,0.6c-0.8,0.1-0.8,0.3-0.3,0.6
		c0.7,0.4,1.4,1,2,1.8c0.9,0.8,0.9,1.8,0.2,2.9c-0.1,0.1-0.3,0.1-0.5,0.1c-0.2,0-0.5-0.5-0.9-1.3c-0.4-0.7-0.8-1.4-1.3-2.1
		c-0.6-1-0.9-1.6-0.7-1.7c0.2-0.1-0.2-0.1-0.9-0.1l-2.3,0.2c-0.7,0.1-1,0.5-1.2,1.3c-0.2,1.3-0.4,2.6-0.6,4
		c-0.1,0.6,0.3,0.9,1.2,0.8l10.6-1c0.7-0.1,1.1-0.4,1.2-0.9C27.1,202,27.2,200.5,27.4,199z M26.8,190.2c-2.3,0.2-4.5,0.4-6.6,0.8
		c-0.6,0.1-0.9,0.2-0.8,0.2c0.7,0.3,1.5,1,2.5,2.1c0.7,1,0.6,1.9,0,2.8c-0.6,0.4-1,0-1.2-1.1l-1-2c-0.4-0.8-0.7-1.3-0.6-1.5
		c0.1-0.2-0.3-0.2-1.1-0.1l-1.2,0.2c-0.6,0.1-1,0.6-1.1,1.4l-0.5,3.4c-0.1,0.7,0.1,1.1,0.7,1c3.6-0.3,7.3-0.7,10.9-1.1
		c0.6-0.1,1-0.5,1.1-1.3l0.3-4C28,190.4,27.6,190.1,26.8,190.2z"/>
	<path class="st0" d="M29.3,224.6c0.6-0.1,1-0.2,1.2-0.1c0.9,0.5,1.4,1.1,1.4,1.7c-0.1,0.2-0.5,0.3-1.3,0.4c-2,0.2-4.4,0.5-7.1,0.9
		c-0.7,0.1-1,0.3-0.7,0.6c0.3,0.4,0.4,0.9,0.1,1.3l-0.7,5c-0.1,0.7,0.1,1,0.7,0.9c3.5-0.6,7.1-1.2,10.7-1.9c1-0.5,1.9-0.1,2.8,1.3
		c0,0.7-0.4,0.9-1.3,0.9c-3.4,0.4-7.1,0.8-10.9,1.4c-0.7,0.1-0.9,0.4-0.6,1c2.9,5,5.5,9.1,8,12.3c1.1,1.3,2.8,2.2,4.9,2.7
		c1,0.3,1.6,0.5,1.7,0.7c0.1,0.3-0.1,0.5-0.4,0.7l-5.7,0.4c-0.3,0.1-0.6-0.2-0.9-0.9c-1.4-2.5-2.7-4.5-3.9-6.3
		c-1.7-2.8-3.4-5.7-5-8.6c-0.4-0.8-0.6-0.8-0.7-0.1c-0.9,5.6-4.2,10.6-9.9,14.8c-1.3,0.9-2.9,1.8-4.7,2.5c-0.3,0.3-0.7,0.2-1-0.2
		c-0.1-0.1,0.2-0.5,1-1.1c3.9-2.2,7.3-5.4,10.2-9.6c1.2-2.4,2-4.7,2.5-6.8c0.2-0.7-0.2-1-0.9-0.9c-2.7,0.3-5.2,0.6-7.5,1.1
		c-0.8,0.2-1.3,0.3-1.6,0.2c-0.3-0.1-0.5-0.2-0.8-0.4c-0.5-0.3-0.8-0.5-1-0.7c-0.2-0.3-0.2-0.5,0.2-0.7c3.8-0.4,7.5-0.8,11.3-1.3
		c0.6-0.1,0.9-0.5,1.1-1.4c0.3-2.1,0.4-4,0.4-5.5c-0.1-0.8-0.5-1.1-1.3-1c-1.5,0.2-3.1,0.4-4.6,0.7c-0.7,0.4-1.4,0.3-2.1-0.3
		c-0.8-0.6-1.1-1-0.9-1.2c0.2-0.1,0.6-0.2,1.2-0.2C17.9,226.8,23.3,226,29.3,224.6z"/>
	<path class="st0" d="M31,268.8c0.9-1.2,1.7-0.9,2.6,0.7c0.1,0.4,0,0.7-0.5,1c-0.3,0.3-0.5,0.5-0.6,0.8c-0.8,2.5-2,4.9-3.4,7.4
		c-0.4,0.6-0.3,1.3,0.2,2c2,2.9,4.5,4.5,7.5,4.9c1,0.1,1.5,0.2,1.6,0.3c0.2,0.3,0.2,0.6-0.1,0.9c-0.8,0.3-2.3,0.5-4.5,0.8
		c-1.1,0.3-1.9,0.2-2.3-0.4l-3-4.7c-0.5-0.8-1.1-0.9-1.7-0.2c-0.8,1.1-2.1,2.5-4.1,4.2c-0.6,0.5-0.6,1.1,0.1,1.7
		c0.3,0.5,0.4,1.2,0.1,2.2c0,0.6,0.4,0.9,1.1,0.7c1.9-0.2,3.8-0.6,5.7-1.1c1,0.3,1.6,0.8,1.8,1.7c0,0.3-0.3,0.5-0.9,0.5
		c-2.3,0.2-4.7,0.5-7,0.9c-0.6,0.1-1,0.5-1,1.4c-0.1,0.8-0.1,1.7,0,2.5c0,0.6,0.4,0.9,1.2,0.8c3.8-0.4,7.1-0.9,9.8-1.6
		c0.9-0.1,1.6,0.5,2.1,1.7c-0.1,0.2-0.1,0.3-0.2,0.4c-0.1,0.1-0.5,0.2-1,0.2c-7.6,0.7-15.4,1.6-23.4,2.5c-0.7,0.2-1.3,0.3-1.6,0.2
		c-1.1-0.5-1.8-1-1.9-1.4c0.3-0.5,0.7-0.7,1.3-0.5c2.7-0.2,6.4-0.6,11.1-1.1c0.6-0.1,0.9-0.4,0.9-1.1v-2.7c0-0.6-0.4-0.9-1.2-0.9
		c-1.4,0.2-2.9,0.4-4.3,0.6c-0.9,0.2-1.8,0.2-2.5-0.1c-0.7-0.5-1-0.8-1-1c0.1-0.4,0.4-0.6,0.9-0.5c2.4-0.3,4.8-0.6,7.2-0.9
		c0.6-0.1,0.9-0.5,0.9-1.3l-0.2-1.4c-0.1-0.6-0.3-0.8-0.6-0.7c-0.6,0.4-1,0.3-1.3-0.2c0-0.2,0.4-0.6,1.1-1.3c2.4-2,4.4-4.1,6-6.4
		c0.4-0.6,0.4-1.3,0-1.9l-2.2-3.2c-0.6-0.8-0.9-1.3-0.9-1.5c0.1-0.8,0.7-1,1.8-0.5c0.1,0.1,0.3,0.6,0.6,1.3c0.4,0.8,0.9,1.5,1.4,2.3
		c0.5,0.7,1,0.7,1.4,0c0.9-1.8,1.6-3.5,2.1-5c0.2-0.7,0-1-0.6-1c-1.8,0.3-3.6,0.7-5.6,1.3c-0.8,0.2-1.4-0.1-1.8-0.6
		c-0.3-0.4-0.4-0.7-0.4-0.8c0.1-0.1,0.6-0.3,1.4-0.4c2-0.2,4.1-0.6,6.3-1.1C29.9,269.3,30.4,269.1,31,268.8z M8.8,267.7
		c0.5-0.3,0.9-0.1,1.1,0.7c0.3,0.6,0.9,0.8,1.8,0.7c2.4-0.4,4.8-0.8,7.2-1.2c0.8-0.1,1.4-0.1,1.8,0.2c0.5,0.3,0.7,0.6,0.7,1.1
		c-0.1,0.1-0.5,0.2-1.3,0.4l-3.1,0.5c-0.7,0.1-1,0.6-1,1.3l0,1.8c0.1,0.7,0.5,0.9,1.3,0.8c0.3-0.1,0.7-0.2,1.1-0.4
		c0.9-1.1,1.7-0.9,2.3,0.8c-0.4,0.7-0.7,1.5-0.9,2.5c-0.1,0.7,0,1.1,0.2,1.3c0.5,0.3,0.7,0.6,0.7,1c-0.1,0.4-0.6,0.5-1.3,0.5
		l-2.6,0.4c-0.6,0.1-0.9,0.5-0.9,1.1l0,2c0.1,0.7,0.4,1,0.9,0.9c0.9-0.2,1.9-0.4,2.9-0.6c0.6-0.3,1.2-0.2,1.8,0.5
		c0.7,0.4,0.8,0.8,0.4,1.2c-5.5,0.7-9.2,1.3-11.1,1.7c-0.4,0.2-0.7,0.3-0.8,0.5c-0.5,0.5-1.1,0.2-1.8-1c-0.1-0.2,0-0.4,0.1-0.6
		c0.4-0.4,0.5-1,0.5-1.9c0.2-3.4,0.2-8.2,0-14.6C8.7,268.2,8.7,267.7,8.8,267.7z M17.2,275.5c-1.9,0.3-3.8,0.6-5.6,0.9
		c-0.7,0.1-1,0.6-1,1.4v0.5c0,0.6,0.4,0.9,1.2,0.8l5-0.7c0.7-0.1,1.1-0.4,1.2-1l0.2-1C18.2,275.6,17.9,275.3,17.2,275.5z
		 M13.1,280.4l-0.6,0.1l-0.9,0.2c-0.6,0.2-0.9,0.5-0.9,1.2v1.8c0,0.8,0.4,1.1,1.2,1.1c0.5,0,1-0.1,1.6-0.2c0.6-0.1,0.9-0.4,0.9-1.1
		v-2C14.3,280.7,13.9,280.3,13.1,280.4z M14.3,271.3c0-0.6-0.5-0.8-1.3-0.7l-1.2,0.2c-0.7,0.1-1.1,0.5-1.1,1.1v2.1
		c0,0.6,0.4,0.9,1.2,0.8c0.5-0.1,1-0.2,1.5-0.2c0.7-0.1,1-0.4,1-1.1L14.3,271.3z"/>
	<path class="st0" d="M12.2,310.2c0.3-0.5,0.8-0.5,1.3,0.2c0.8,0.7,1.4,1.3,1.6,2c-0.3,1.7-0.5,4.1-0.5,7.2c0,0.6,0.4,0.8,1.3,0.6
		c0.4-0.1,0.7-0.2,1.1-0.3c1-0.1,1.7,0,2.1,0.4c0.7,0.4,0.7,0.8,0.2,1.2c-0.4,0.2-0.8,0.3-1.4,0.3c-0.7,0.1-1.5,0.2-2.2,0.4
		c-0.7,0.2-1,0.5-1,1.1v3.9c0,0.7,0.4,0.7,1.2,0.3c0.6-0.4,1.1-0.6,1.6-0.7c0.3-0.1,0.5,0.1,0.6,0.5c-0.1,0.2-0.5,0.5-1.3,1.1
		l-1.1,0.7c-0.7,0.5-1,1.1-1,1.8c0.1,4.5,0.1,8.8-0.2,13c-0.1,1.1-0.3,2-0.5,2.5c-0.2,0.3-0.5,0.4-0.7,0.2c-0.3-0.1-0.6-0.6-1.1-1.3
		c-0.8-1-1.6-2.1-2.5-3.1c-0.4-0.5-0.7-0.9-0.7-1c-0.1-0.3,0.1-0.5,0.5-0.6c0.2,0,0.7,0.3,1.5,0.9l0.5,0.4c0.8,0.5,1.2,0.4,1.3-0.4
		c0.2-3.1,0.3-6.3,0.3-9.7c0-0.7-0.4-0.7-1.2-0.2c-1.4,0.9-2.8,1.8-4.3,2.7c-0.7,0.3-1.5,0-2.5-0.8c-0.2-0.3,0.1-0.7,1-1.2
		c0.4-0.1,0.8-0.3,1.3-0.5l4.6-2.3c0.7-0.4,1.1-0.8,1.1-1.4v-4.5c0-0.6-0.4-0.9-1.2-0.7l-2.7,0.5c-0.7,0.1-1.4-0.1-2.1-0.4
		c-0.5-0.3-0.6-0.6-0.4-1.1c0.3-0.1,0.7-0.2,1.4-0.4l4.1-0.7c0.6-0.2,0.9-0.5,0.9-1.2c0.1-3.2-0.2-6.2-0.9-9
		C12.1,310.5,12.2,310.3,12.2,310.2z M25.9,309.7c0.2-0.1,0.8,0.2,1.7,1c0.4,0.3,0.6,0.6,0.7,1c-0.3,1.1-0.5,2.9-0.5,5.2
		c0,0.6,0.4,0.8,1.3,0.7l4.2-0.9c0.8,0,1.4,0.5,1.8,1.5c0,0.3-0.3,0.5-0.8,0.5c-1.8,0.2-3.6,0.5-5.4,0.8c-0.7,0.1-1.1,0.5-1.1,1.1
		v2.9c0,0.6,0.4,0.9,1.2,0.8c3.5-0.6,6-1.1,7.4-1.5c0.9,0,1.6,0.5,2,1.6c-0.1,0.3-0.5,0.5-1.3,0.6c-1.7,0.2-3.5,0.4-5.2,0.7
		c-0.6,0.1-0.8,0.3-0.6,0.5c0.4,0.3,0.4,0.6,0.2,1c-0.2,0.5-0.3,1-0.3,1.6c0,0.6,0.4,0.8,1.1,0.7c0.9-0.2,1.9-0.4,2.9-0.6
		c0.7-0.3,1.3-0.3,1.6-0.1c0.7,0.4,1.1,1,1.3,1.5c-0.1,0.4-0.5,0.6-1.2,0.5c-1.5,0.1-3,0.3-4.6,0.6c-0.7,0.1-1,0.5-1,1.1
		c0.2,6.3,0,11-0.6,14.1c-0.2,0.9-0.7,1-1.3,0.4c-0.8-1.2-1.8-2.3-2.8-3.5c-0.7-0.8-1.1-1.3-1.1-1.4c0.4-0.8,1-0.6,1.9,0.5l0.8,0.6
		c0.8,0.5,1.1,0.4,1.2-0.5c0.1-3.3,0.1-6.6,0.1-9.9c0-0.6-0.4-0.9-1.2-0.8l-4.3,0.6c-0.7,0.1-0.8,0.4-0.4,1c1.2,0.9,1.5,1.9,0.9,2.9
		c-0.2,0.7-0.5,1-0.9,1c-0.1-0.1-0.3-0.5-0.6-1c-0.3-0.8-0.7-1.6-1.2-2.5c-0.4-0.6-0.9-0.9-1.7-0.7c-1.1,0.1-2-0.2-2.9-1.1
		c0.1-0.5,0.7-0.7,1.9-0.6l9.3-1.4c0.7-0.1,1-0.5,0.9-1.3l-0.1-1.6c-0.1-0.6-0.5-0.9-1.3-0.7c-2.1,0.3-4.2,0.6-6.3,1
		c-1.1,0.4-2.1,0-3.1-1.2c0-0.1,0.4-0.3,1.2-0.6c1.8-0.3,3.6-0.5,5.4-0.7c0.7-0.1,1-0.4,1-1.1v-2.8c0-0.6-0.4-0.9-1.2-0.8
		c-0.4,0-0.8,0.1-1.2,0.2c-1.3,0.3-2.1,0.3-2.7,0c-0.7-0.3-1-0.7-1-1.1c0.1-0.2,0.7-0.3,1.7-0.5l3.4-0.5c0.6-0.1,0.9-0.5,0.9-1.2
		c0-2.1-0.1-4.1-0.4-6C25.7,310.3,25.7,309.8,25.9,309.7z"/>
</g>
<g>
	<g>
		<path d="M67.5,288.2l-12.7-13h25.3L67.5,288.2z M56.9,276l10.6,10.9L78.1,276H56.9z"/>
	</g>
	<g>
		<path d="M80,276H55l4.2-6h16.6L80,276z M56.7,275.1h21.6l-3-4.3H59.7L56.7,275.1z"/>
	</g>
	<g>
		<polygon points="67.1,287.7 61.9,275.7 59.1,270.6 59.8,270.2 62.8,275.4 67.9,287.4 		"/>
	</g>
	<g>
		<polygon points="72.9,276.3 66.9,271.1 62.5,275.9 61.8,275.3 66.8,269.8 72.6,274.9 75.2,270.2 76,270.6 		"/>
	</g>
	<g>
		<polygon points="67.9,287.7 67.1,287.4 72.5,275.4 73.3,275.7 		"/>
	</g>
</g>
</svg>
