<svg id="圖層_1" data-name="圖層 1" xmlns="http://www.w3.org/2000/svg" viewBox="0 0 89.21 352.71"><defs><style>.cls-1{stroke:#000;stroke-miterlimit:10;stroke-width:2px;}</style></defs><title>什麼美麗天生麗質</title><path class="cls-1" d="M300.5,127a22.36,22.36,0,0,1,2.88,1.24.63.63,0,0,1,.2.42c0,.22-.22.36-.64.43a7.47,7.47,0,0,1-1.1.14,55.4,55.4,0,0,1-2.45,5.8c-.27.57-.54,1.1-.83,1.59.87.43,1.3.76,1.3,1s-.37.5-1.1.85v18.12a6.46,6.46,0,0,0,.16,1.69,4.09,4.09,0,0,1,.1.82q0,1.09-1.2,1.17c-.42,0-.64-.19-.64-.57V138.92c-.2.31-.4.6-.6.89a41.19,41.19,0,0,1-3.68,4.28l-.54-.39a46,46,0,0,0,3.32-4.46q1.06-1.8,2.11-4.07t1.77-4.14A26,26,0,0,0,300.5,127ZM302,139.28a14.59,14.59,0,0,0,3.88.42h6.3v-9.59a22,22,0,0,0-.14-2.86,11.53,11.53,0,0,1,3.18.78c.31.14.47.32.47.53s-.16.33-.47.42a4.49,4.49,0,0,1-1.4.43V139.7h6.66l1.74-2.09c.89.71,1.73,1.4,2.51,2.06a.59.59,0,0,1,.3.49.47.47,0,0,1-.54.53H313.79V157a6.08,6.08,0,0,0,.06,1.06,9.12,9.12,0,0,1,.07,1c0,.78-.36,1.17-1.07,1.17s-.84-.19-.84-.57,0-1.17.07-1.95.07-1.54.07-2.15v-14.9h-6.3c-1.56,0-2.62.07-3.18.14Z" transform="translate(-236.79 -125.65)"/><path class="cls-1" d="M307.09,171.86c.51.24,1,.47,1.41.71a5,5,0,0,1,1.14.67,1.83,1.83,0,0,1,.6.57.69.69,0,0,1,.17.42,2.56,2.56,0,0,1-.21,1.13.75.75,0,0,1-.26.29h10.14l1.57-2c.87.66,1.68,1.31,2.41,2a.49.49,0,0,1,.3.42c0,.4-.17.6-.53.6H296.35v10c0,1.87-.06,3.61-.17,5.24-.07,1.44-.19,2.9-.37,4.39a26.13,26.13,0,0,1-.7,3.32,17.41,17.41,0,0,1-.94,2.69,12.25,12.25,0,0,1-1.41,2.19l-.4-.28a14.86,14.86,0,0,0,.84-2.12c.22-.69.42-1.42.6-2.2a23.74,23.74,0,0,0,.47-3c.16-1.32.27-2.67.34-4,.08-1.84.13-3.91.13-6.2q0-7.67-.13-12.31l1.87,1.28H309.1a1.06,1.06,0,0,1-.27-.46,2.76,2.76,0,0,0-.47-1,5.61,5.61,0,0,0-.77-.92,5.22,5.22,0,0,0-1.07-1Zm-7.63,11c1.41.33,2.11.66,2.11,1s-.31.49-.94.57a15.12,15.12,0,0,1-.53,2,19.84,19.84,0,0,1-.91,2.23,12.93,12.93,0,0,1-1.07,2.09l-.84-.53a18,18,0,0,0,1.14-2.76,17.07,17.07,0,0,0,.7-2.51A13.69,13.69,0,0,0,299.46,182.9Zm-1.77-2.44a13.57,13.57,0,0,0,3.88.46h1.1v-.6a22,22,0,0,0-.13-2.83,10.74,10.74,0,0,1,2.68.77.57.57,0,0,1,.4.5.47.47,0,0,1-.34.46,2,2,0,0,1-1,.42v1.28h2.24l1.34-1.42c.65.5,1.25,1,1.81,1.49a.39.39,0,0,1,.23.35c0,.36-.13.53-.4.53h-5.22v8.63c0,.48-.32.71-1,.71s-.77-.27-.77-.81a11.23,11.23,0,0,1,.07-1.17c0-.47.06-.9.06-1.27v-6.09h-1.1c-1.56,0-2.62.07-3.18.14Zm10.17,9.94a13.08,13.08,0,0,1,2.24,1.24.33.33,0,0,1,.17.31c0,.12-.1.23-.3.32a4.5,4.5,0,0,1-1,.22,9.2,9.2,0,0,1-1.2,1.3,7.51,7.51,0,0,1-1.51,1.24,14,14,0,0,1-1.71,1.21l-.87.46h.27c1.14,0,2.49-.13,4-.25,1.23-.07,2.45-.17,3.65-.28a19.59,19.59,0,0,0,1.51-1.7,8.58,8.58,0,0,0,1.3-2.41,15.46,15.46,0,0,1,2.38,1.38.35.35,0,0,1,.2.32c0,.14-.11.26-.33.35a7.75,7.75,0,0,1-1,.25c-.76.83-1.56,1.64-2.41,2.44a29.79,29.79,0,0,1-3,2.37,34.69,34.69,0,0,1-3.38,2.16c-.78.47-1.6.92-2.44,1.34,1,0,2-.1,2.84-.17,1.63-.12,3.42-.27,5.36-.46l5.76-.67c-.34-.45-.66-.85-1-1.21a13.34,13.34,0,0,0-1.91-1.73l.37-.39a26.89,26.89,0,0,1,3.44,2.34,9.41,9.41,0,0,1,1.81,1.69,4.27,4.27,0,0,1,.67,1.17,2.85,2.85,0,0,1,.1.74c0,.66-.26,1-.77,1a1,1,0,0,1-.43-.1,2.36,2.36,0,0,1-.64-.82,11.67,11.67,0,0,0-1.17-1.94c-2,.38-3.78.68-5.32.92-1.81.31-3.54.56-5.19.78s-3.13.4-4.82.56c-.23.85-.41,1.28-.54,1.28s-.68-1-1.57-2.83l1.44-.07a48.19,48.19,0,0,0,4.18-2.69,34.2,34.2,0,0,0,3.38-2.8.41.41,0,0,1,.14-.1,17.43,17.43,0,0,1-1.94.31c-1.39.26-2.59.45-3.62.57-.6.12-1.14.2-1.61.25-.27.85-.48,1.27-.63,1.27s-.51-.94-1.11-2.83h.64a19.39,19.39,0,0,0,2-1.59,13.51,13.51,0,0,0,1.64-1.66,17.94,17.94,0,0,0,1.31-1.67A6,6,0,0,0,307.86,190.4ZM306,183q1.31.36,2.07.54c.34.07.5.23.5.49s-.17.38-.53.5-.57.27-.57.46v2.15c0,.36.3.53.9.53a6,6,0,0,0,1.14-.14.87.87,0,0,1,.91.89.65.65,0,0,1-.51.63,6.2,6.2,0,0,1-1.54.18,3,3,0,0,1-1.84-.42,2,2,0,0,1-.53-1.38Zm4.68-2.54a13.65,13.65,0,0,0,3.89.46h1.23v-.6a22,22,0,0,0-.13-2.83,10.74,10.74,0,0,1,2.68.77.57.57,0,0,1,.37.5.47.47,0,0,1-.3.46,2.06,2.06,0,0,1-1,.42v1.28h3.21l1.34-1.42c.69.5,1.34,1,1.94,1.49a.4.4,0,0,1,.24.35c0,.36-.15.53-.44.53h-6.29v8.53c0,.45-.31.67-.94.67s-.77-.27-.77-.81a11.23,11.23,0,0,1,.07-1.17c0-.47.06-.9.06-1.27v-5.95h-1.23c-1.57,0-2.63.07-3.18.14Zm2.05,2.69q2.1.53,2.1,1c0,.29-.3.46-.9.53a11.74,11.74,0,0,1-.54,2,18.34,18.34,0,0,1-.87,2.12,16.51,16.51,0,0,1-1,2l-.84-.53a20.82,20.82,0,0,0,1.07-2.66,16.47,16.47,0,0,0,.67-2.44A10,10,0,0,0,312.72,183.15Zm6.66,0c.87.23,1.56.41,2.07.53.31.09.47.26.47.49s-.17.38-.5.5-.54.27-.54.46v2.69c0,.4.43.6,1.27.6a10.55,10.55,0,0,0,1.51-.14c.6,0,.92.29.94.81a.75.75,0,0,1-.57.67,8,8,0,0,1-1.88.21,3.36,3.36,0,0,1-2.1-.46,1.74,1.74,0,0,1-.67-1.41Z" transform="translate(-236.79 -125.65)"/><path class="cls-1" d="M295.71,220.12a14.34,14.34,0,0,0,3.88.42h17.14l1.74-2.16q1.38,1.06,2.61,2.13c.23.11.34.26.34.42q0,.6-.54.6H309.5a58.17,58.17,0,0,1-.4,6.76c-.07.85-.16,1.61-.27,2.3h10.71l1.74-2.16c.9.73,1.73,1.44,2.52,2.12a.53.53,0,0,1,.3.46c0,.36-.19.53-.57.53H309.67a38.32,38.32,0,0,0,2.07,5.2,30.68,30.68,0,0,0,2.51,4,24,24,0,0,0,3.22,3.36,14.55,14.55,0,0,0,3.81,2.59,11.32,11.32,0,0,0,3.45,1.41v.43c-1.4,0-2.25.47-2.54,1.41A15.61,15.61,0,0,1,318,247a19.23,19.23,0,0,1-3.85-4,23.3,23.3,0,0,1-3.18-5.17,36.67,36.67,0,0,1-2.38-6.26,18.61,18.61,0,0,1-.67,2.62,21.34,21.34,0,0,1-2,5.3,27.46,27.46,0,0,1-2.88,4.36,21.71,21.71,0,0,1-4.38,3.71,25,25,0,0,1-5.29,2.76l-.4-.74a25.66,25.66,0,0,0,6.69-4,22.93,22.93,0,0,0,3.72-4.24A20.74,20.74,0,0,0,306,236a22.67,22.67,0,0,0,1.17-4.43h-10c-1.58,0-2.65.07-3.21.15l-.7-1.56a13.35,13.35,0,0,0,3.91.46h10.11a6.06,6.06,0,0,0,.1-.67,78.48,78.48,0,0,0,.34-8.39h-8.14c-1.58,0-2.66.07-3.24.14Z" transform="translate(-236.79 -125.65)"/><path class="cls-1" d="M300.77,264.8a31,31,0,0,1,2.87,1.24.69.69,0,0,1,.24.46c0,.23-.23.39-.67.46a6.86,6.86,0,0,1-1.11.14,50.73,50.73,0,0,1-2.27,5.48h8v-6.37a22.13,22.13,0,0,0-.13-2.83,12.51,12.51,0,0,1,3.18.78c.31.14.47.31.47.5s-.16.36-.47.46a3.51,3.51,0,0,1-1.41.42v7h7.63l1.71-2.08c.94.7,1.82,1.39,2.65,2.05a.55.55,0,0,1,.3.49c0,.36-.17.53-.51.53H309.5V282h6.66l1.74-2.16c.9.73,1.73,1.44,2.51,2.12a.54.54,0,0,1,.31.46.47.47,0,0,1-.54.53H309.5v10.62H320l1.84-2.23c.93.75,1.82,1.48,2.64,2.19a.61.61,0,0,1,.3.5c0,.37-.17.56-.5.56H296.48c-1.56,0-2.63.06-3.21.11l-.64-1.52a15.24,15.24,0,0,0,3.85.39h11.38V282.91h-7.63c-1.56,0-2.62.07-3.18.15l-.7-1.56a13.22,13.22,0,0,0,3.88.46h7.63v-8.39h-8.57a30.94,30.94,0,0,1-2.11,3.54,33.93,33.93,0,0,1-3.51,4.11l-.54-.39a52.55,52.55,0,0,0,3.12-4.28c.67-1.16,1.34-2.46,2-3.9s1.18-2.73,1.64-4A27.76,27.76,0,0,0,300.77,264.8Z" transform="translate(-236.79 -125.65)"/><path class="cls-1" d="M307.09,317.05a9.64,9.64,0,0,1,1,.71,5.08,5.08,0,0,1,.74.67,2,2,0,0,1,.43.53,1.2,1.2,0,0,1,.1.46,2.37,2.37,0,0,1-.16,1,1,1,0,0,1-.24.29h11.25l1.47-1.56c.74.57,1.41,1.11,2,1.63q.3.18.3.39c0,.37-.14.56-.43.56H313v2.41h6l1-1.13c1.13.71,1.7,1.22,1.7,1.55s-.31.56-.93,1v4.24c0,.45-.35.75-1,.89-.38,0-.57-.09-.57-.28v-.46H300.5a19.4,19.4,0,0,0-3.22.14l-.36-1a25.23,25.23,0,0,1-.21,3.36,17,17,0,0,1-.46,3,10.52,10.52,0,0,1-.74,2.2,9.37,9.37,0,0,1-1.07,1.8,8.49,8.49,0,0,1-1.54,1.49l-.4-.32a7.36,7.36,0,0,0,1-1.42,7.57,7.57,0,0,0,.73-1.45,15.34,15.34,0,0,0,.54-2c.16-.87.28-1.77.37-2.69a37.55,37.55,0,0,0,.2-4q0-5.94-.14-9.52l1.88,1.28h11.21a2.53,2.53,0,0,1-.13-.43,3.63,3.63,0,0,0-.37-1,6.57,6.57,0,0,0-.5-.88,3.76,3.76,0,0,0-.74-1ZM293,309.55a15.85,15.85,0,0,0,3.92.39h7.59l1.34-1.55c.74.56,1.42,1.1,2,1.62.17.12.26.24.26.36,0,.4-.14.6-.43.6H296.92c-1.59,0-2.67.07-3.25.14Zm2.31,2.37,2,1.14H304l.91-1.14q1.77,1.14,1.77,1.56c0,.26-.31.59-.94,1v4c0,.42-.37.69-1.1.81-.34,0-.5-.09-.5-.28v-4.92h-7.23v4.53c0,.19-.15.35-.44.5a2.7,2.7,0,0,1-.77.17c-.27,0-.4-.14-.4-.42Zm8.13,12.21v-2.41h-6.52v2.13a17.64,17.64,0,0,0,3.58.28Zm-6.52,4.56a19.67,19.67,0,0,0,3.58.25h2.94v-3.86H300.5a18.9,18.9,0,0,0-3.22.15l-.36-1ZM299,330c1,.21,1.83.41,2.48.6.22.12.34.25.34.39a.34.34,0,0,1-.24.32,4.29,4.29,0,0,1-.83.42v1.56h4.71l1.34-1.42c.67.5,1.3,1,1.88,1.49a.41.41,0,0,1,.23.35c0,.36-.12.53-.37.53h-7.79v4.18l1.37-.21a26.43,26.43,0,0,0,3.11-.61c1.12-.23,2.39-.54,3.82-.92l.13.68a23.72,23.72,0,0,1-3.05,1.23,25.57,25.57,0,0,1-2.71.92c-.8.26-1.64.49-2.51.68-.24.85-.43,1.27-.57,1.27s-.69-.94-1.6-2.83a2.58,2.58,0,0,1,.4,0v-5.76A21.64,21.64,0,0,0,299,330Zm.44-15.43a10.62,10.62,0,0,1,1.17,1.14,4.22,4.22,0,0,1,.94,1,2.64,2.64,0,0,1,.53.85,1.8,1.8,0,0,1,.14.71,2.06,2.06,0,0,1-.17.88.75.75,0,0,1-.6.39.31.31,0,0,1-.3-.18,1.2,1.2,0,0,1-.24-.63,6.46,6.46,0,0,0-.43-1.31q-.27-.6-.57-1.2a11.55,11.55,0,0,0-.91-1.21Zm11.92,9.52v-2.41h-6.33v2.41Zm-6.33,4.81h6.33v-3.86h-6.33Zm4-19.39a15.76,15.76,0,0,0,3.91.39h7.2l1.47-1.55q1.11.84,2,1.62.3.18.3.36c0,.4-.14.6-.43.6H313c-1.58,0-2.65.07-3.21.14Zm9.77,22.36c.74.55,1.42,1.09,2,1.63a.4.4,0,0,1,.27.35c0,.36-.14.53-.43.53H312v3.12a1.1,1.1,0,0,0,.14.53.74.74,0,0,0,.4.35,2.29,2.29,0,0,0,.77.25,17.49,17.49,0,0,0,2.47.14h1.48c1.16,0,2,0,2.54-.07l1.07-.18a1.54,1.54,0,0,0,.67-.31,1.46,1.46,0,0,0,.37-.64,19.19,19.19,0,0,0,.7-3.61l.64.28a17.74,17.74,0,0,0-.27,2.44c0,.66.08,1.07.24,1.21.67.23,1,.57,1,1a.65.65,0,0,1-.17.46,1.9,1.9,0,0,1-.73.46,7.31,7.31,0,0,1-1.74.39c-.83.07-2.27.11-4.32.11h-1.48a15.69,15.69,0,0,1-3.07-.21,3.61,3.61,0,0,1-1.34-.39,2,2,0,0,1-.67-.82,2.45,2.45,0,0,1-.17-.81v-6.09a5.26,5.26,0,0,0-.4-2,21.36,21.36,0,0,1,3,.6c.24.07.37.2.37.39s-.13.4-.44.56a3.39,3.39,0,0,1-1,.46v1.42h5.49Zm-8.3-20,2,1.14h6.66l.94-1.14q1.74,1.14,1.74,1.56t-.9,1v3.86c0,.42-.36.69-1.07.81-.38,0-.57-.09-.57-.28v-4.78h-7.23v4.78a.62.62,0,0,1-.41.53,1.94,1.94,0,0,1-.77.21c-.29,0-.43-.15-.43-.46Zm2.44,17h6.13v-3.86H313Zm1.71-14.19a11,11,0,0,1,1.14,1,7.62,7.62,0,0,1,.94,1,3.61,3.61,0,0,1,.5.77,2.54,2.54,0,0,1,.1.68,2.68,2.68,0,0,1-.14.95.74.74,0,0,1-.63.46.31.31,0,0,1-.3-.18,1.14,1.14,0,0,1-.24-.6,6.9,6.9,0,0,0-.4-1.27,8.36,8.36,0,0,0-.64-1.17,6.53,6.53,0,0,0-.83-1.17Z" transform="translate(-236.79 -125.65)"/><path class="cls-1" d="M305.48,355.23c-.78.21-1.58.39-2.41.53-1,.19-2,.33-3,.42-.76.07-1.65.13-2.68.18l-.07.18c0,.89,0,1.69-.1,2.4h7.74l1.47-1.55q1.07.81,2,1.62c.18.1.27.21.27.36,0,.35-.14.53-.4.53h-4.42v4.38c0,.43-.4.68-1.21.75-.29,0-.43-.2-.43-.6V359.9h-5.12c0,.16-.05.29-.07.39a14.55,14.55,0,0,1-.77,3.11,8,8,0,0,1-1,2.19,14.34,14.34,0,0,1-2.34,2.55l-.54-.6a8.19,8.19,0,0,0,1.58-2.12,11.34,11.34,0,0,0,.9-2.34,15.22,15.22,0,0,0,.6-3.15,29.76,29.76,0,0,0,.27-3.32c0-1-.07-1.88-.13-2.66l2.11,1.56v0c.37-.05.74-.11,1.1-.18a18.67,18.67,0,0,0,2.11-.46,17.31,17.31,0,0,0,1.87-.6,13.83,13.83,0,0,0,1.28-.64,5.69,5.69,0,0,0,.73-.53,14.59,14.59,0,0,1,2.14,1.56.36.36,0,0,1,.17.28.35.35,0,0,1-.4.39A6.7,6.7,0,0,1,305.48,355.23Zm-6.72,9.66,2,1.09h16.6l1-1.09c1.16.73,1.74,1.25,1.74,1.55s-.32.56-1,1v12.31c0,.45-.35.74-1,.88-.38,0-.57-.09-.57-.28v-.6H304.45c.64.42,1.21.81,1.7,1.17a.63.63,0,0,1,.1.39c0,.21-.21.31-.63.31h-1a18,18,0,0,1-3.38,2,22.22,22.22,0,0,1-3.38,1.63,32.24,32.24,0,0,1-4.05,1.31l-.44-.75a34.43,34.43,0,0,0,5.16-2.15,21,21,0,0,0,3.34-2,10.92,10.92,0,0,0,1.88-1.91h-3.42v.14a.56.56,0,0,1-.36.53,2.32,2.32,0,0,1-.84.21c-.27,0-.4-.14-.4-.42Zm1.6,5.09H317.5v-3H300.36Zm0,4.53H317.5V371H300.36Zm0,4.24H317.5V375.5H300.36Zm20.09-23.52c-.85.21-1.72.39-2.61.53-1.07.19-2.18.33-3.32.42q-1.23.1-2.94.18l-.07.18a14.16,14.16,0,0,1-.23,2.68h10l1.48-1.55c.71.54,1.38,1.08,2,1.63a.39.39,0,0,1,.23.31c0,.38-.13.57-.4.57h-6.83V364c0,.37-.39.6-1.17.67-.29,0-.44-.19-.44-.57v-4H311a6.53,6.53,0,0,1-.57,1.52,5.25,5.25,0,0,1-1,1.66,12.27,12.27,0,0,1-2.34,1.95l-.57-.6a6.41,6.41,0,0,0,1.61-1.7,6.85,6.85,0,0,0,.9-1.84,10.57,10.57,0,0,0,.61-2.48,20.7,20.7,0,0,0,.26-2.61c0-.78-.06-1.49-.13-2.13l2.11,1.56,0,0c.47-.05.92-.11,1.34-.18.81-.12,1.59-.27,2.35-.46a17.79,17.79,0,0,0,2-.6,9.51,9.51,0,0,0,1.4-.64c.29-.16.58-.34.87-.53a12.53,12.53,0,0,1,2.08,1.56.38.38,0,0,1,.16.28.35.35,0,0,1-.4.39A7.47,7.47,0,0,1,320.45,355.23Zm-9.64,25.61c1.58.31,3.17.7,4.75,1.17a26.83,26.83,0,0,1,3.55,1.31,6,6,0,0,1,1.61.92,5.06,5.06,0,0,1,.77.78,1.21,1.21,0,0,1,.16.63c0,.59-.21.89-.63.89a1.63,1.63,0,0,1-.71-.25,7.52,7.52,0,0,1-1-.64,21,21,0,0,0-1.84-1.09,27.39,27.39,0,0,0-2.54-1.17q-1.68-.78-4.55-1.81Z" transform="translate(-236.79 -125.65)"/><path class="cls-1" d="M249.6,147.52a17.07,17.07,0,0,1,2.61,1.41.53.53,0,0,1,.2.43c0,.14-.11.25-.33.32a4.93,4.93,0,0,1-1.14.21,32.92,32.92,0,0,1-2,2.72,26.59,26.59,0,0,1-2.54,2.55,26.31,26.31,0,0,1-2.84,2.41c-1,.78-2.14,1.53-3.32,2.26l-.43-.46a41.7,41.7,0,0,0,3.75-3.15,33.2,33.2,0,0,0,2.77-3.08,30.67,30.67,0,0,0,2.21-3A12.31,12.31,0,0,0,249.6,147.52Zm-5.32-18.72,2,1.56h17.37l1.1-1.56a7.33,7.33,0,0,1,1.75,1.53.7.7,0,0,1,.23.46c0,.23-.45.61-1.34,1.13v11.81c.38.29.73.56,1,.82a.39.39,0,0,1,.17.28c0,.35-.09.53-.27.53H246v1.42c0,.28-.24.42-.7.42a2,2,0,0,1-.71-.18,1,1,0,0,1-.33-.77c0-.43,0-1,.07-1.67a18.6,18.6,0,0,0,.2-3.46v-9.87A10,10,0,0,0,244.28,128.8ZM246,144.37h17.91v-13H246Zm13.36,3.72a31.32,31.32,0,0,1,4.28,3.18,28.55,28.55,0,0,1,2.95,2.62,11.25,11.25,0,0,1,1.57,1.73,7.41,7.41,0,0,1,.63,1.31,2.89,2.89,0,0,1,.24,1.2c0,.64-.26,1-.7,1a1.06,1.06,0,0,1-.71-.25,14.32,14.32,0,0,1-1.6-2.48,23.59,23.59,0,0,0-2.82-3.85,39.09,39.09,0,0,0-4.21-4Z" transform="translate(-236.79 -125.65)"/><path class="cls-1" d="M238.52,188.1a12.91,12.91,0,0,0,3.85.46h24.1l1.61-2c.89.69,1.73,1.36,2.51,2a.51.51,0,0,1,.3.42c0,.36-.17.53-.5.53h-15v5.66h7.8l1.6-1.94c.85.66,1.64,1.31,2.38,1.94a.51.51,0,0,1,.3.43q0,.6-.57.6H255.36v6.62l1.34.14a39.25,39.25,0,0,0,5.19.28c1.51,0,3-.07,4.55-.21s3.09-.37,4.45-.6v.67a2,2,0,0,0-1.74,1.56c-1.9.09-3.74.14-5.52.14a46.16,46.16,0,0,1-7.13-.39,15.22,15.22,0,0,1-3.92-.82,11.8,11.8,0,0,1-2.64-1.52,11.46,11.46,0,0,1-2.38-2.61,10.76,10.76,0,0,1-1.41-2.37,15,15,0,0,1-.7,1.66,19.57,19.57,0,0,1-1.27,2.37,12.88,12.88,0,0,1-1.44,1.77,9.23,9.23,0,0,1-1.64,1.55,12.6,12.6,0,0,1-2,1.49l-.54-.53a13.91,13.91,0,0,0,2.24-2,10.19,10.19,0,0,0,1.64-1.88,15.1,15.1,0,0,0,1.07-1.77c.32-.63.64-1.35,1-2.15a20.19,20.19,0,0,0,.83-2.45c.25-.87.43-1.59.54-2.15a7.69,7.69,0,0,0,.2-1.63,12.31,12.31,0,0,1,2.21.78c.31.12.47.27.47.46a.41.41,0,0,1-.34.42c-.33.12-.67.23-1,.32-.27.9-.52,1.75-.74,2.55v0a19.16,19.16,0,0,0,1.94,3.4,9.34,9.34,0,0,0,2.28,1.91,10.44,10.44,0,0,0,2.41,1.13c.18.05.35.08.5.11v-13H242.37c-1.56,0-2.63.07-3.21.15Zm5.59-15.28,2,1.55h15.67l1.07-1.55a8.39,8.39,0,0,1,1.74,1.52.7.7,0,0,1,.23.49c0,.21-.4.58-1.2,1.1v4.39c0,1.76,0,2.92.1,3.46,0,.69,0,1.24,0,1.67a.94.94,0,0,1-.33.77,2,2,0,0,1-.7.18c-.47,0-.71-.14-.71-.42v-1H245.89v1.27c0,.28-.24.42-.71.42a2.11,2.11,0,0,1-.7-.17,1,1,0,0,1-.37-.78,16.6,16.6,0,0,1,.1-1.66,17.92,17.92,0,0,0,.2-3.47v-5.34A9,9,0,0,0,244.11,172.82Zm1.78,6.4h16.16V175.4H245.89Zm0,4.81h16.16v-3.86H245.89Z" transform="translate(-236.79 -125.65)"/><path class="cls-1" d="M252.14,220a30,30,0,0,1-3.38,1.62l-.63.21v6.09h9c-.18-2-.27-3.67-.27-5a35.4,35.4,0,0,0-.27-5.09c1.79.49,2.68.88,2.68,1.16s-.31.42-.94.68c0,3.06.12,5.81.34,8.24h7.7l1.6-2c.85.69,1.66,1.36,2.41,2a.49.49,0,0,1,.27.39c0,.38-.17.57-.5.57H258.71c.06.68.13,1.32.2,1.91A36.76,36.76,0,0,0,260,237.1a20,20,0,0,0,.71,2.47,31.19,31.19,0,0,0,2.78-4.24,20.09,20.09,0,0,0,1.87-3.93,26.57,26.57,0,0,1,2.48,1.38c.22.19.33.34.33.46s-.18.27-.53.39a4.94,4.94,0,0,1-1.34.21,42.23,42.23,0,0,1-3.65,5.56c-.45.56-.88,1.07-1.31,1.52a2.55,2.55,0,0,1,.17.32,13.55,13.55,0,0,0,2.41,3.25,12.84,12.84,0,0,0,2.68,2.51,2,2,0,0,0,1.17.57.65.65,0,0,0,.44-.25,59.62,59.62,0,0,0,1.87-6l.5.43a27.87,27.87,0,0,0-1.2,5.8,1.22,1.22,0,0,0,.57,1.06,1.48,1.48,0,0,1,.4,1c0,.49-.33.74-1,.74a2.25,2.25,0,0,1-1-.25,7.37,7.37,0,0,1-2.38-1.48,13.34,13.34,0,0,1-3.48-3.12,17.13,17.13,0,0,1-2.27-3.46l-1.14,1.09a31.53,31.53,0,0,1-4.42,3.29,25.53,25.53,0,0,1-5,2.23l-.26-.6a42.66,42.66,0,0,0,4.65-2.33,20.58,20.58,0,0,0,3.21-2.48,30.07,30.07,0,0,0,2.31-2.44,32.13,32.13,0,0,1-1.27-4,43.25,43.25,0,0,1-1.07-6.8c-.05-.42-.08-.83-.1-1.23h-9.07v8c.33-.12.65-.25.94-.39q2.53-1,5.89-2.73l.13.67a48.88,48.88,0,0,1-5.09,2.91c-.64.3-1.27.61-1.87.91v9.38a2.91,2.91,0,0,1-.47,1.8,2.82,2.82,0,0,1-1.17.92,2.31,2.31,0,0,1-1.17.39l-.07-.49a1.2,1.2,0,0,0-.3-.71,3.14,3.14,0,0,0-1.41-.74,9.62,9.62,0,0,0-2.51-.5v-.81a17.94,17.94,0,0,0,4,.53,2.13,2.13,0,0,0,1.17-.21c.2-.14.3-.5.3-1.06v-7.82c-.36.16-.72.32-1.1.46a25.55,25.55,0,0,1-4.25,1.55c-.23.85-.41,1.28-.54,1.28s-.68-.95-1.57-2.83a40.42,40.42,0,0,0,5.22-1.21c.71-.21,1.46-.44,2.24-.7v-8.56h-4.15a26.86,26.86,0,0,0-3.21.17l-.64-1.59a12.91,12.91,0,0,0,3.85.46h4.15v-5.55c-.74.21-1.45.38-2.14.53a40.44,40.44,0,0,1-4.69.63l-.13-.74a23.42,23.42,0,0,0,3.18-.53,20,20,0,0,0,3.08-1,20.38,20.38,0,0,0,2.71-1.16,10.66,10.66,0,0,0,1.84-1.21c.4-.35.78-.72,1.14-1.09.78.54,1.47,1.06,2.07,1.55a.38.38,0,0,1,.17.29c0,.3-.12.46-.37.46A7.76,7.76,0,0,1,252.14,220Zm9.81-.75a15.38,15.38,0,0,1,3.15,1.91,6.39,6.39,0,0,1,1.54,1.56,1.85,1.85,0,0,1,.4,1.06c0,.78-.23,1.17-.7,1.17a1,1,0,0,1-.54-.18,1.64,1.64,0,0,1-.57-.78,9.14,9.14,0,0,0-1.44-2.23,12.55,12.55,0,0,0-2.24-1.94Z" transform="translate(-236.79 -125.65)"/><path class="cls-1" d="M245.32,262.85a29.19,29.19,0,0,1,2.88,1.24.65.65,0,0,1,.2.43c0,.21-.22.35-.64.42a5.89,5.89,0,0,1-1.1.14,62.13,62.13,0,0,1-2.08,6.09c-.11.3-.22.59-.34.85q1.38.63,1.38,1c0,.21-.36.49-1.07.82v18.71a6.55,6.55,0,0,0,.16,1.7,3.71,3.71,0,0,1,.1.81q0,1.07-1.23,1.14c-.43,0-.64-.18-.64-.54v-20.9c-.27.47-.53.93-.77,1.38a45.42,45.42,0,0,1-3.11,4.52l-.54-.46a44.05,44.05,0,0,0,2.75-4.63q.9-1.87,1.8-4.17c.56-1.56,1.05-3,1.48-4.36A41.29,41.29,0,0,0,245.32,262.85Zm3.24.53,2,1.56h4.92l.94-1.1c1.16.74,1.74,1.25,1.74,1.56s-.3.56-.9,1v9.05c0,.45-.36.75-1.07.89-.36,0-.54-.1-.54-.29v-.74H250.3v20.27c0,.29-.23.43-.7.43a1.72,1.72,0,0,1-.7-.21,1,1,0,0,1-.34-.82c0-.4,0-.94.07-1.63a18.35,18.35,0,0,0,.2-3.43V265.83A10,10,0,0,0,248.56,263.38Zm1.74,6.09h5.36V266H250.3Zm0,4.85h5.36V270.5H250.3Zm9.91-10.48,2,1.1h5.12l1-1.56a8.16,8.16,0,0,1,1.77,1.53.68.68,0,0,1,.27.49c0,.21-.45.58-1.34,1.1v26.36a2.78,2.78,0,0,1-.5,1.8,3.2,3.2,0,0,1-1.17.92,2.41,2.41,0,0,1-1.14.39,1.62,1.62,0,0,0-.37-1.2,3.18,3.18,0,0,0-1.31-.75,9,9,0,0,0-2.37-.49v-.82a19.7,19.7,0,0,0,4.28.53,1.49,1.49,0,0,0,.87-.17q.24-.18.24-1V275.27h-5.76v.28a.59.59,0,0,1-.4.54,2.53,2.53,0,0,1-.84.21c-.25,0-.37-.14-.37-.43Zm1.61,5.63h5.76V266h-5.76Zm0,4.85h5.76V270.5h-5.76Z" transform="translate(-236.79 -125.65)"/><path class="cls-1" d="M246.39,307.57a21.34,21.34,0,0,1,2.88,1.13.67.67,0,0,1,.2.43c0,.21-.15.36-.44.46a5.35,5.35,0,0,1-1.4.21,23.23,23.23,0,0,1-1,2.12H266.1l1.71-2.12,2.54,2.09a.62.62,0,0,1,.27.49c0,.36-.17.53-.5.53h-24a1.38,1.38,0,0,1-.17.32c-.65,1.14-1.35,2.28-2.11,3.43a17.33,17.33,0,0,1-2.11,2.73,20.14,20.14,0,0,1-2.67,2.58l-.54-.39a18.27,18.27,0,0,0,2.88-3.29,39.25,39.25,0,0,0,4.52-8.45A10.18,10.18,0,0,0,246.39,307.57Zm-.64,8.6,2,1.27h15.7l1.2-1.27a15,15,0,0,1,1.67,1.2.86.86,0,0,1,.31.5c0,.26-.41.68-1.21,1.27q-.11,3.86-.27,6.83H267l1.61-1.84c.78.61,1.53,1.23,2.24,1.84a.49.49,0,0,1,.27.39c0,.38-.14.56-.4.56h-5.69c-.09,1.73-.21,3.24-.34,4.53-.16,1.72-.31,3.14-.47,4.25h2.21l1.61-1.81c.8.64,1.56,1.25,2.27,1.84a.49.49,0,0,1,.27.39c0,.4-.12.6-.37.6h-6.19c-.07.41-.13.75-.2,1a5.65,5.65,0,0,1-1,2.19,3.17,3.17,0,0,1-1.27,1,7.19,7.19,0,0,1-2.48.85,2.29,2.29,0,0,0-.47-1,2,2,0,0,0-1-.56,14.6,14.6,0,0,0-2.77-.53l.1-.89a25.41,25.41,0,0,0,4.18.74,3.38,3.38,0,0,0,1.27-.24,3,3,0,0,0,1-.92,7.44,7.44,0,0,0,.77-1.67H243.34c-.56,0-.84-.09-.84-.28a1.42,1.42,0,0,1,.17-.67c.09-.21.28-.84.57-1.88q.7-2.68,1.27-6.33c0-.21.05-.42.07-.64h-1.64c-1.59,0-2.67.07-3.25.15l-.63-1.56a13,13,0,0,0,3.88.46h1.77c.18-1.49.38-3,.61-4.64C245.56,319.38,245.71,317.65,245.75,316.17Zm16.77,19.53a53.23,53.23,0,0,0,.74-5.56c.09-1.08.17-2.15.23-3.22H246.25q0,.25-.06.39-.51,3.3-1.34,6.87c-.11.7-.22,1.21-.3,1.52ZM246.39,326h17.17c.16-2.52.23-5,.23-7.5H247.22C246.93,321.56,246.66,324.06,246.39,326Zm4.68,2.69a19.9,19.9,0,0,1,3.05.95c1,.45,1.78.82,2.28,1.1a5,5,0,0,1,1.07.81c.18.24.33.46.47.68a1.51,1.51,0,0,1,.1.53c0,.49-.17.74-.51.74a.79.79,0,0,1-.43-.21,4.16,4.16,0,0,1-.64-.57,12.64,12.64,0,0,0-1.17-.92,9.85,9.85,0,0,0-1.61-1,21.26,21.26,0,0,0-2.87-1.56Zm.57-8.63a20,20,0,0,1,2.81.92,16.62,16.62,0,0,1,2.08,1.06,3.69,3.69,0,0,1,1,.77c.18.24.32.45.44.64a1.56,1.56,0,0,1,.1.53q0,.75-.51.75a.7.7,0,0,1-.4-.22,2.1,2.1,0,0,1-.6-.53,11.86,11.86,0,0,0-1-.92c-.42-.28-.92-.6-1.5-.95a28,28,0,0,0-2.62-1.52Z" transform="translate(-236.79 -125.65)"/><path class="cls-1" d="M241.87,356a14.34,14.34,0,0,0,3.88.42h17.14l1.74-2.15c.92.7,1.79,1.41,2.61,2.12.22.12.34.26.34.42,0,.41-.18.61-.54.61H255.66a60.43,60.43,0,0,1-.4,6.75c-.07.85-.16,1.62-.27,2.3H265.7l1.74-2.16c.89.74,1.73,1.44,2.51,2.13a.53.53,0,0,1,.3.46c0,.35-.19.53-.57.53H255.83a38.86,38.86,0,0,0,2.07,5.2,31.37,31.37,0,0,0,2.51,4,24,24,0,0,0,3.22,3.36,14.74,14.74,0,0,0,3.81,2.58,11.32,11.32,0,0,0,3.45,1.41v.43c-1.41,0-2.25.47-2.54,1.41a15.38,15.38,0,0,1-4.15-2.9,18.75,18.75,0,0,1-3.85-4,23.23,23.23,0,0,1-3.18-5.16,36.48,36.48,0,0,1-2.38-6.27,20.1,20.1,0,0,1-.67,2.62,21.42,21.42,0,0,1-2,5.31,27.81,27.81,0,0,1-2.88,4.35,21.71,21.71,0,0,1-4.38,3.71,24.15,24.15,0,0,1-5.29,2.76l-.4-.74a25.67,25.67,0,0,0,6.69-4,23,23,0,0,0,3.72-4.25,20.25,20.25,0,0,0,2.57-5.41,21.85,21.85,0,0,0,1.18-4.42h-10c-1.58,0-2.65.07-3.21.14l-.71-1.56a13.47,13.47,0,0,0,3.92.46h10.11c0-.23.08-.46.1-.67a81,81,0,0,0,.34-8.38h-8.14c-1.58,0-2.67.07-3.25.14Z" transform="translate(-236.79 -125.65)"/><path class="cls-1" d="M242.94,423a13.76,13.76,0,0,0,3.85.43H254v-1.28a23,23,0,0,0-.13-2.79,13.1,13.1,0,0,1,3.18.74c.31.12.46.28.46.5s-.15.39-.46.46a3.37,3.37,0,0,1-1.41.39v2h6.16l1.61-2c.84.68,1.64,1.34,2.37,2a.53.53,0,0,1,.3.46.5.5,0,0,1-.57.56h-9.87v5.38H266.1l1.71-2.16c.89.73,1.74,1.44,2.54,2.13a.52.52,0,0,1,.27.46c0,.35-.17.53-.5.53H242.64c-1.56,0-2.64.07-3.22.14l-.63-1.56a12.91,12.91,0,0,0,3.85.46H254v-5.38h-7.23a31.51,31.51,0,0,0-3.21.11Zm9.47-23.63,2.18,1.77a.49.49,0,0,1,.27.39c0,.35-.14.53-.41.53h-6v4.28H252l1-1.17c1.16.76,1.74,1.27,1.74,1.56s-.32.6-1,1v4l.67.57c.11.05.17.12.17.21q0,.57-.27.57H248.4v4.52h2.67l1.48-1.69,2.17,1.77a.47.47,0,0,1,.24.39c0,.35-.13.53-.37.53H242.14a2.56,2.56,0,0,1-.67.14c-.29,0-.44-.13-.44-.39V400l2,1.13h7.87Zm-9.77,7h4.15v-4.28h-4.15Zm0,5.8h9.5v-4.81h-9.5Zm0,5.48h4.15v-4.52h-4.15Zm12.85-16.83a17,17,0,0,0,3.75.31h7.1l1.1-1.41a10.42,10.42,0,0,1,1.74,1.55.62.62,0,0,1,.24.43,1.65,1.65,0,0,1-.37.53,3,3,0,0,1-.84.6,37.74,37.74,0,0,1-1.1,5.13,22.64,22.64,0,0,1-1.51,3.54,10.45,10.45,0,0,1-1.54,2,22.24,22.24,0,0,0,2.91,2.34,22.77,22.77,0,0,0,4,1.76v.61a2.28,2.28,0,0,0-1.87,1.13,23.79,23.79,0,0,1-3.68-2.37,11.06,11.06,0,0,1-2.48-2.44,16.45,16.45,0,0,1-2.58,2,16.86,16.86,0,0,1-4.21,1.94l-.41-.53a15.15,15.15,0,0,0,3.65-1.87,12.28,12.28,0,0,0,2.71-2.48,19.71,19.71,0,0,1-1.54-2.62,22.36,22.36,0,0,1-1.8-4.74,17.63,17.63,0,0,1-.87-4.17,10.56,10.56,0,0,0-1.88.14Zm3.08,1.27a22.16,22.16,0,0,0,1.14,4.35,20.47,20.47,0,0,0,1.94,4.17,19.43,19.43,0,0,0,1.44,1.88,16.74,16.74,0,0,0,1.47-2.41,20.48,20.48,0,0,0,1.28-3.64,24.6,24.6,0,0,0,.63-4.35Z" transform="translate(-236.79 -125.65)"/><path class="cls-1" d="M238.52,451.63a15.24,15.24,0,0,0,3.85.39h1.47v-4.91a20.61,20.61,0,0,0-.13-2.87,10.67,10.67,0,0,1,3.25.92c.26.09.4.22.4.39s-.16.38-.47.49a11.65,11.65,0,0,1-1.44.36V452h1.34l1.47-1.7,2.28,1.74a.51.51,0,0,1,.27.42c0,.38-.13.57-.37.57h-5v8.24l.37-.14a43.33,43.33,0,0,0,4.35-2.16l.13.67a35.75,35.75,0,0,1-3.58,2.41c-.44.26-.87.5-1.27.71v11.5a2.91,2.91,0,0,1-.47,1.8,2.53,2.53,0,0,1-1.17.92,2.39,2.39,0,0,1-1.17.35l-.07-.6a1.25,1.25,0,0,0-.23-.56,2.77,2.77,0,0,0-1.21-.75,6.69,6.69,0,0,0-2.07-.49v-.82a11.63,11.63,0,0,0,3.31.54,2.11,2.11,0,0,0,1.17-.22c.2-.14.3-.49.3-1.06v-9.76a1.39,1.39,0,0,1-.26.14,19,19,0,0,1-3,1.31c-.22.85-.39,1.27-.5,1.27s-.74-.94-1.61-2.83a22,22,0,0,0,3.78-1c.52-.15,1-.31,1.54-.5v-8.95h-1.47c-1.56,0-2.63.06-3.21.11Zm10.18,10.48a15.24,15.24,0,0,0,3.85.39h10.34v-2.09a21.39,21.39,0,0,0-.13-2.83,10.07,10.07,0,0,1,3.24.88c.23.1.34.23.34.39s-.15.38-.44.5a10,10,0,0,1-1.4.31v2.84h2.24l1.61-1.81c.8.64,1.56,1.25,2.27,1.84a.49.49,0,0,1,.27.39c0,.4-.12.6-.37.6h-6v10.76a2.53,2.53,0,0,1-.57,1.8,2.73,2.73,0,0,1-1.27.92,2.8,2.8,0,0,1-1.24.35l-.07-.6a1.72,1.72,0,0,0-.27-.56,2.65,2.65,0,0,0-1.14-.75,6.36,6.36,0,0,0-2-.49v-.82a11.22,11.22,0,0,0,3.22.54,2.78,2.78,0,0,0,1.37-.22c.27-.14.4-.49.4-1.06v-9.87H252.55c-1.57,0-2.64.07-3.22.14ZM250,448.77a14.2,14.2,0,0,0,3.85.42h4.41v-2.08a22.53,22.53,0,0,0-.13-2.87,11.72,11.72,0,0,1,3.18.78c.31.14.47.32.47.53s-.16.33-.47.42a4.22,4.22,0,0,1-1.41.43v2.79h5.9l1.6-1.84c.81.66,1.55,1.29,2.24,1.88a.5.5,0,0,1,.31.42c0,.36-.15.53-.44.53h-9.61V456h4.29l1.61-1.84c.8.61,1.55,1.23,2.24,1.84a.49.49,0,0,1,.27.39c0,.4-.14.6-.41.6H255.36c-1.56,0-2.64.07-3.22.14l-.63-1.55a14.2,14.2,0,0,0,3.85.42h2.94v-5.84h-4.41c-1.57,0-2.64.07-3.22.14Zm2.81,16a17.76,17.76,0,0,1,1.87,1.63,9.62,9.62,0,0,1,1.51,1.45,4.17,4.17,0,0,1,.8,1.28,2.25,2.25,0,0,1,.24,1,2.07,2.07,0,0,1-.17.92.89.89,0,0,1-.67.35.67.67,0,0,1-.47-.18,1.65,1.65,0,0,1-.37-.88,8.05,8.05,0,0,0-.7-1.81,15.89,15.89,0,0,0-1-1.66,10.8,10.8,0,0,0-1.48-1.66Z" transform="translate(-236.79 -125.65)"/><path d="M308.41,413l-12-14h24ZM298.36,400l10.05,11.71,10-11.71Z" transform="translate(-236.79 -125.65)"/><path d="M320.21,400H296.6l3.95-6.42h15.71Zm-22-.92h20.45l-2.83-4.59H301Z" transform="translate(-236.79 -125.65)"/><polygon points="71.23 286.87 66.36 274.02 63.62 268.56 64.37 268.12 67.12 273.63 72.01 286.52 71.23 286.87"/><polygon points="76.68 274.58 71.02 268.99 66.86 274.15 66.22 273.54 70.95 267.68 76.44 273.11 78.87 268.12 79.62 268.55 76.68 274.58"/><polygon points="72.01 286.87 71.23 286.51 76.31 273.66 77.09 274.02 72.01 286.87"/></svg>