<svg id="圖層_1" data-name="圖層 1" xmlns="http://www.w3.org/2000/svg" viewBox="0 0 203.96 50.69"><defs><style>.cls-1{stroke:#000;stroke-miterlimit:10;stroke-width:3px;}</style></defs><title>付款成功</title><path class="cls-1" d="M193.21,309a28.91,28.91,0,0,1,3.55,1.7,1,1,0,0,1,.25.63c0,.26-.27.44-.8.54a7.78,7.78,0,0,1-1.33.19q-1.33,4.43-3,8.5c-.16.46-.32.86-.45,1.22,1.16.58,1.75,1.05,1.75,1.41s-.46.66-1.38,1.11v26.1a9.64,9.64,0,0,0,.21,2.33,6,6,0,0,1,.12,1.11,1.38,1.38,0,0,1-1.46,1.56c-.58,0-.87-.24-.87-.73V325.23c-.39.81-.81,1.58-1.25,2.33a63.27,63.27,0,0,1-4.39,6.32l-.67-.59a65.54,65.54,0,0,0,3.93-6.51c.83-1.75,1.67-3.69,2.5-5.83s1.51-4.19,2.09-6.07A44,44,0,0,0,193.21,309Zm1.67,11.42a15,15,0,0,0,4.84.63h13.82v-7.58a31.22,31.22,0,0,0-.17-3.94,12.59,12.59,0,0,1,4.09,1.27c.31.13.46.31.46.53s-.2.52-.59.68a16.34,16.34,0,0,1-1.75.49v8.55h3l2.17-3c1.12,1,2.16,2,3.14,2.91a.72.72,0,0,1,.37.63c0,.49-.22.73-.67.73h-8v28.23a3.45,3.45,0,0,1-.79,2.48,4.4,4.4,0,0,1-1.8,1.26,3.85,3.85,0,0,1-1.79.54l0-.54a1.78,1.78,0,0,0-.55-1.12,6,6,0,0,0-2.33-1,19.06,19.06,0,0,0-4.09-.68V350.4a35.52,35.52,0,0,0,6.72.72,4.53,4.53,0,0,0,2.08-.29c.36-.19.55-.68.55-1.45v-27H199.72a39.29,39.29,0,0,0-4.05.2Zm5,7.77a29,29,0,0,1,3,2.87,14.2,14.2,0,0,1,2.38,2.57,7.64,7.64,0,0,1,1.29,2.19,4.17,4.17,0,0,1,.38,1.75,2.83,2.83,0,0,1-.21,1.21,1,1,0,0,1-1.59.15c-.25-.16-.45-.65-.62-1.46a13.52,13.52,0,0,0-1.09-3.06,23.29,23.29,0,0,0-1.63-2.72,18.14,18.14,0,0,0-2.42-2.92Z" transform="translate(-181.54 -306.88)"/><path class="cls-1" d="M241.42,339.08a29,29,0,0,1,3,1.84.58.58,0,0,1,.25.49c0,.22-.14.39-.42.48a7.21,7.21,0,0,1-1.25.34q-.5,1.13-1.08,2.19c-.39.74-.81,1.46-1.26,2.14s-.9,1.26-1.46,1.94-1.12,1.28-1.71,1.9l-.5-.59c.64-1,1.21-2,1.71-2.86a22.49,22.49,0,0,0,1.26-2.77c.41-1,.76-1.93,1-2.77A16.5,16.5,0,0,0,241.42,339.08Zm-4.13-3.89a14.83,14.83,0,0,0,4.8.63H253l1.84-2.14c.86.75,1.69,1.49,2.5,2.24a.52.52,0,0,1,.29.43c0,.52-.15.78-.46.78H248.6v16.71c0,.59-.5.93-1.51,1q-.45,0-.45-.78v-17h-4.55a31.25,31.25,0,0,0-4,.24Zm.33-19.78a17.41,17.41,0,0,0,4.84.54h4.18v-2.48a34.25,34.25,0,0,0-.17-3.94,14.75,14.75,0,0,1,3.92,1.07.86.86,0,0,1,.54.73c0,.26-.18.46-.54.59a5,5,0,0,1-1.79.58V316h4.88l1.84-2.33c.94.84,1.82,1.63,2.63,2.38a.66.66,0,0,1,.37.53c0,.55-.18.83-.54.83H248.6v5.2h3.67l1.84-2.14c.92.78,1.76,1.52,2.54,2.23a.68.68,0,0,1,.34.54c0,.48-.17.73-.5.73H244.13a40.22,40.22,0,0,0-4,.19l-.79-2.14a16.07,16.07,0,0,0,4.84.59h2.51v-5.2h-4.18a40.41,40.41,0,0,0-4.05.19ZM239.29,329a15,15,0,0,0,4.84.63h7.18l1.84-2.14c.86.75,1.69,1.49,2.5,2.24a.52.52,0,0,1,.29.43c0,.52-.15.78-.46.78H244.13a31.62,31.62,0,0,0-4,.24Zm12.52,10.54a13.56,13.56,0,0,1,3,2.92,9.22,9.22,0,0,1,1.46,2.38,4.28,4.28,0,0,1,.37,1.7c0,1-.35,1.55-1,1.55a.73.73,0,0,1-.5-.24,4.76,4.76,0,0,1-.5-1.21,20.16,20.16,0,0,0-1.3-3.4,16.93,16.93,0,0,0-2-2.92Zm12.52-16.32a26.25,26.25,0,0,1,3.43.48c.36.1.54.25.54.44a.86.86,0,0,1-.54.73l-1.13.68q0,2.28-.21,4.23c.19,2,.46,3.85.79,5.53a37.27,37.27,0,0,0,1.46,5.35,23.68,23.68,0,0,0,2.09,4.28,13.47,13.47,0,0,0,2.71,3.78,31,31,0,0,0,4.18,3.65l-.17.73c-1.36,0-2.24.4-2.63,1.21a23.07,23.07,0,0,1-3.25-3.5,43.36,43.36,0,0,1-2.38-4.17,46.2,46.2,0,0,1-2-5.3,31.19,31.19,0,0,1-1.34-5.59c-.06-.26-.1-.5-.13-.73q-.54,2.73-1.21,5.11a26.46,26.46,0,0,1-2.38,5.19,17.06,17.06,0,0,1-3.63,4.42,33.84,33.84,0,0,1-6.47,5l-.46-1a30.81,30.81,0,0,0,4.72-3.64,29.56,29.56,0,0,0,3.21-3.94,22.33,22.33,0,0,0,2.63-5.15,29.24,29.24,0,0,0,1.72-6.32,43.44,43.44,0,0,0,.62-7.14A30.9,30.9,0,0,0,264.33,323.19Zm-1.54-13.66a32.73,32.73,0,0,1,3.59,1.75.9.9,0,0,1,.25.59c0,.29-.27.5-.79.63a7.8,7.8,0,0,1-1.38.19q-.84,3.26-2,6.37v.05h10.85l1.17-1.56a17.08,17.08,0,0,1,2.5,2.38.44.44,0,0,1,.13.29c0,.26-.27.47-.8.63s-.94.26-1.33.39c-.5,1-1.12,2.09-1.84,3.26s-1.45,2.35-2.17,3.35l-.71-.58a21.23,21.23,0,0,0,1.88-3.6,17.34,17.34,0,0,0,1.17-3.25H262c-.59,1.42-1.16,2.7-1.72,3.84a49.28,49.28,0,0,1-3,4.71l-.67-.58a50.14,50.14,0,0,0,2.47-5q.83-2,1.62-4.57t1.34-4.71A37.67,37.67,0,0,0,262.79,309.53Z" transform="translate(-181.54 -306.88)"/><path class="cls-1" d="M326.61,316c1.06.94,2,1.86,3,2.77a.69.69,0,0,1,.38.58.64.64,0,0,1-.71.73H314.13q.21,3.93.58,7.14a56.75,56.75,0,0,0,1.55,8.84,19.93,19.93,0,0,0,1.17,3.75c.19-.33.36-.6.5-.83a52,52,0,0,0,4-7.43,41.14,41.14,0,0,0,2.68-6.81,26.17,26.17,0,0,1,3.33,2c.34.3.51.54.51.73s-.26.42-.76.59a5.71,5.71,0,0,1-1.75.34,90.21,90.21,0,0,1-5.13,9.81c-.84,1.26-1.67,2.41-2.51,3.45l0,.1a19.85,19.85,0,0,0,3.39,4.56,18.09,18.09,0,0,0,3.71,3.5,2.66,2.66,0,0,0,1.63.78.83.83,0,0,0,.54-.29,67.45,67.45,0,0,0,2.34-7.14l.62.63a31,31,0,0,0-1.5,6.8,1.74,1.74,0,0,0,.71,1.46,2.11,2.11,0,0,1,.5,1.41c0,.68-.4,1-1.21,1a3.12,3.12,0,0,1-1.38-.34,10.08,10.08,0,0,1-3.25-2.09,18.45,18.45,0,0,1-4.68-4.33,29.19,29.19,0,0,1-2.88-4.37,17.52,17.52,0,0,1-1.17,1.41,41.31,41.31,0,0,1-6.26,5.83,31.11,31.11,0,0,1-6.93,3.89l-.33-.83a53.82,53.82,0,0,0,6.6-4.08,34.65,34.65,0,0,0,4.42-4.28,32.49,32.49,0,0,0,2.88-3.59,33.65,33.65,0,0,1-2-6.07,58,58,0,0,1-1.5-9.48q-.3-3.54-.42-6.12h-16v9.18h9.18l1.51-1.55a9.44,9.44,0,0,1,2.13,1.75,1.12,1.12,0,0,1,.33.58c0,.39-.56.84-1.67,1.36a72.13,72.13,0,0,1-.79,7.82,28.49,28.49,0,0,1-1.13,4.91,6.16,6.16,0,0,1-1.29,2.09,8.82,8.82,0,0,1-1.55,1.26,2.88,2.88,0,0,1-1.21.44,1.8,1.8,0,0,0-.25-1.07,10.86,10.86,0,0,0-3.25-1.7l.12-.92a26.09,26.09,0,0,0,3.67.53,2.59,2.59,0,0,0,1-.19,1.2,1.2,0,0,0,.62-.68,11.67,11.67,0,0,0,.79-2,20.29,20.29,0,0,0,.71-4.17c.25-1.82.44-4.2.55-7.15h-9.48q0,3.21-.25,5.93-.12,3.26-.54,6.61a48,48,0,0,1-.88,5.05,24,24,0,0,1-1.33,4,13.54,13.54,0,0,1-1.88,3.3l-.63-.53a31,31,0,0,0,1.21-3.21,28.77,28.77,0,0,0,.92-3.26c.25-1.29.47-2.8.67-4.51.19-2,.35-4,.46-6.08.16-2.72.25-5.8.25-9.23q0-7.49-.17-12.05l2.34,2.19h15.73c0-1,0-1.83,0-2.58a53.66,53.66,0,0,0-.33-6.95q3.3.93,3.3,1.56c0,.29-.38.6-1.13.92q0,3.79.13,7.05h10.56Zm-8.85-6a17.94,17.94,0,0,1,3.63,2.24,7.63,7.63,0,0,1,1.8,1.8,2.44,2.44,0,0,1,.37,1.26c0,1-.26,1.55-.79,1.55a1,1,0,0,1-.67-.24,2.41,2.41,0,0,1-.63-.87A10.11,10.11,0,0,0,319.8,313a12.26,12.26,0,0,0-2.54-2.23Z" transform="translate(-181.54 -306.88)"/><path class="cls-1" d="M344.14,317.36a17.63,17.63,0,0,0,4.8.53h8.18l2-2.67c1.06.87,2.06,1.76,3,2.67a.71.71,0,0,1,.33.58c0,.55-.21.83-.62.83h-8.35V341c.72-.26,1.43-.55,2.13-.88a76,76,0,0,0,7-3.4l.17,1a50.38,50.38,0,0,1-6,3.55,56,56,0,0,1-5.39,2.62,34.65,34.65,0,0,1-5,2c-.27,1.13-.48,1.7-.62,1.7s-.92-1.28-2-3.84a42.83,42.83,0,0,0,6.14-1.56c.5-.13,1-.29,1.54-.48V319.3h-2.54c-1.95,0-3.28.1-4,.19Zm15.32,4.42a21.46,21.46,0,0,0,4.71.39h4.76c.06-1.36.09-2.79.09-4.28q0-6.36-.17-8.36a16.87,16.87,0,0,1,3.17.54c.47.13.7.35.67.68s-.15.52-.54.68a11.49,11.49,0,0,0-1.13.63q0,5.93-.17,10.11h9.48l1.37-1.56a8.44,8.44,0,0,1,2,1.56,1.51,1.51,0,0,1,.29.82c0,.46-.56.89-1.67,1.31q0,7.15-.58,15.21a60.3,60.3,0,0,1-1.63,10.89,5.07,5.07,0,0,1-1.3,2.42,4.32,4.32,0,0,1-1.37,1.12,5.83,5.83,0,0,1-2.92.73,3.24,3.24,0,0,0-.46-1.31,2,2,0,0,0-.84-.73,42.91,42.91,0,0,0-4.76-1.51l.21-1.11a46.69,46.69,0,0,0,6.64,1.7,2.61,2.61,0,0,0,2.59-1.75,12.31,12.31,0,0,0,.87-2.87,61.68,61.68,0,0,0,1.09-9q.42-6.41.46-14.52h-9.52q-.12,3.5-.38,5.63a47.59,47.59,0,0,1-2,9,27.61,27.61,0,0,1-3.13,7,22.18,22.18,0,0,1-5,5.4,26.64,26.64,0,0,1-7,4.32l-.5-.92a29.85,29.85,0,0,0,6.93-4.86,19.6,19.6,0,0,0,4.26-5.34,26.42,26.42,0,0,0,2.79-6.52,42.4,42.4,0,0,0,1.55-7.92q.38-2.67.54-5.87h-4.72a22.25,22.25,0,0,0-4,.19Z" transform="translate(-181.54 -306.88)"/></svg>