<?xml version="1.0" encoding="utf-8"?>
<!-- Generator: Adobe Illustrator 22.0.1, SVG Export Plug-In . SVG Version: 6.00 Build 0)  -->
<svg version="1.1" id="圖層_1" xmlns="http://www.w3.org/2000/svg" xmlns:xlink="http://www.w3.org/1999/xlink" x="0px" y="0px"
	 viewBox="0 0 88 304" style="enable-background:new 0 0 88 304;" xml:space="preserve">
<style type="text/css">
	.st0{stroke:#000000;stroke-miterlimit:10;}
</style>
<path class="st0" d="M67.8,3.1c0.3-0.5,0.9-0.2,1.6,0.7c1,0.8,1.2,1.5,0.5,2c-0.3,0.3-0.6,0.9-1,1.8L67,11.9c-0.3,0.6,0,0.8,0.8,0.7
	l5.7-1.2c1.7-0.3,3.2-0.6,4.5-1c0.8-0.4,1.6-0.4,2.2,0c0.7,0.9,1,1.4,0.9,1.5c-0.1,0.2-0.6,0.3-1.3,0.4c-3.7,0.5-8.2,1.2-13.3,2.3
	c-0.6,0.1-1.1,0.6-1.6,1.3l-3.2,5c-0.3,0.4-0.4,0.9-0.4,1.5l0.1,12.9c0,0.6,0.1,0.9,0.3,0.7c0.1-0.1,0.5-0.2,1.2-0.2l6.4-0.8
	c0.6-0.1,0.9-0.5,0.9-1.1v-6.7c0-0.6-0.4-0.9-1.1-0.8L66.4,27c-0.9,0.2-1.8,0.1-2.7-0.3c-0.2-0.2-0.4-0.4-0.5-0.6
	c0-0.2,0.3-0.5,1.1-0.7c1.6-0.2,3.2-0.5,4.8-0.8c0.6-0.1,0.9-0.5,0.9-1.1c0-2.9-0.1-5.1-0.3-6.7c-0.4-0.8-0.2-1.3,0.5-1.4
	c0.2,0.1,0.5,0.4,1.1,0.9c0.2,0.3,0.5,0.5,0.6,0.8c0.2,0.4,0.2,1,0,1.8c-0.2,1.2-0.2,2.7-0.2,4.3c0,0.6,0.4,0.8,1.1,0.7l2.6-0.5
	c0.6-0.1,1.1-0.3,1.5-0.5c1.2-0.6,2.1-0.2,2.8,1.3c0,0.1-0.3,0.2-1.1,0.4c-2,0.3-4,0.7-5.9,1.1c-0.6,0.1-1,0.5-1,1.1v6.9
	c0,0.6,0.4,0.9,1.1,0.8c3.2-0.4,6.1-1,8.5-1.6c0.3,0,0.5,0.1,0.7,0.3c0.7,0.9,1,1.4,1,1.5c-0.1,0.2-0.6,0.3-1.3,0.4
	c-3.2,0.4-9.2,1.2-17.8,2.6c-0.6,0.2-1.4-0.1-2.4-1c-0.1-0.2-0.1,0.1-0.1,0.7V39c0.1,0.3,0,0.6-0.5,0.8c-0.4,0-0.7-0.3-1.1-1
	c-0.6-0.8-0.8-1.5-0.5-2.3c0.4-1,0.5-2.2,0.4-3.7l-0.1-8.4c0-0.6-0.4-0.6-1.1,0.2c-1,1.2-2.7,2.7-5,4.6c-0.5,0.5-1,0.8-1.3,0.8
	c-0.6-0.4-0.5-0.9,0.4-1.6c3.8-3.5,6.3-6.1,7.4-7.7l3-4.6c0.4-0.7,0.3-1-0.2-0.9c-1.8,0.3-3.7,0.6-5.7,1.1c-1,0.1-1.9-0.3-2.7-1.2
	c0.1-0.5,0.5-0.7,1.4-0.7l7.9-1.3c0.6-0.1,1.1-0.5,1.5-1.3C66.9,8.6,67.8,5.7,67.8,3.1z"/>
<path class="st0" d="M60.8,58.4c0.1-1,0.2-1.5,0.4-1.6c0.3-0.2,0.7,0.2,1.1,0.9c0.5,0.9,0.7,1.5,0.7,1.6c-0.7,1-1.3,2-1.8,3
	c-2.5,4.7-5.4,8.9-8.7,12.4c-0.2,0.1-0.4,0-0.6-0.4c0-0.1,0.3-0.6,0.9-1.3C57.2,67.4,59.8,62.6,60.8,58.4z M66.5,47.9
	c0.3-0.4,0.9-0.2,1.6,0.5c0.9,0.8,1.3,1.6,1.1,2.4c-0.1,1.1-0.2,2.2-0.2,3.3c0,6.7,0,13.5-0.1,20.4c0,2.9-0.2,5.1-0.9,6.5
	c-0.5,0.6-1.1,0.3-1.9-1c-0.9-1.1-2-2.2-3.1-3.3c-0.7-0.7-1-1.2-1-1.4c0-0.2,0.2-0.3,0.4-0.3c0.2,0,0.6,0.2,1.1,0.7
	c0.7,0.7,1.5,1.2,2.4,1.7c0.6,0.3,1,0.1,1.1-0.7c0.3-3.8,0.5-11,0.4-21.7c-0.1-2.2-0.4-4.1-0.8-5.8C66.5,48.4,66.4,48,66.5,47.9z
	 M71.1,57.3c0.4-0.5,1-0.2,1.7,0.8c2.4,2.5,4.6,5.1,6.6,7.6c1.3,1.2,1.8,2.5,1.5,3.8c0.1,0.5-0.1,0.9-0.5,1.2
	c-0.1,0-0.5-0.4-1.1-1.1c-2.3-3.8-5-7.7-8.3-11.7C71,57.6,71,57.4,71.1,57.3z"/>
<path class="st0" d="M59.4,92.5c0.1-0.8,0.2-1.2,0.4-1.3c0.2,0,0.5,0.3,1.1,1c0.5,0.5,0.8,1,0.9,1.3c0,0.2-0.3,0.7-0.7,1.4
	c-0.8,1.6-1.6,3.4-2.3,5.6c-0.2,0.6,0,0.9,0.8,0.7c2-0.3,3.3-0.8,4-1.4c0.3-0.8,0.9-0.7,1.7,0.2c0.7,0.4,0.8,1,0.2,1.6
	c-0.3,0.5-0.5,1.2-0.6,2.1c-0.2,5.9-0.5,11.2-0.8,15.8c0,0.7-0.2,1.1-0.6,1.2c-0.4-0.1-0.7-0.4-1-1.2c-0.2-0.5-0.8-0.7-1.6-0.7
	c-1.1,0.1-2.3,0.2-3.4,0.4c-0.7,0.1-1,0.5-1.1,1.3l-0.1,1.3c-0.3,0.4-0.6,0.4-0.9,0c-0.8-0.8-1-1.9-0.6-3.4c0.6-4,0.6-9.7,0-17.1
	c-0.1-1,0-1.5,0.3-1.6c0.4,0,0.7,0.4,0.9,1c0.3,0.8,0.6,1.1,0.7,1.1C58.5,98.6,59.3,95.5,59.4,92.5z M62.3,102.3
	c-1.2,0.2-2.7,0.5-4.5,1c-0.6,0.1-0.9,0.5-0.9,1.1c0,1.3-0.1,2.6,0,4c0,0.6,0.4,0.9,1.1,0.8c1.1-0.2,1.9-0.4,2.6-0.6
	c0.9-0.3,1.6,0.2,1.9,1.3c0,0.1-0.1,0.2-0.3,0.3l-4.5,0.8c-0.6,0.1-0.9,0.5-0.9,1.1c0,1.5-0.1,3,0,4.5c0,0.6,0.4,0.9,1.1,0.8
	l1.1-0.1c0.7,0,1.2-0.1,1.6-0.2c0.7-0.3,1.3-0.4,1.7-0.2c0.1,0.2,0.3-0.2,0.4-1.1c0.4-3.7,0.7-7.8,0.7-12.5
	C63.5,102.5,63.1,102.1,62.3,102.3z M70.4,90.5c0.4-0.5,0.9-0.4,1.6,0.5c0.5,0.6,0.8,1,0.9,1.3c-0.2,0.6-0.4,1.2-0.6,1.8
	c-0.3,1.8-0.9,4-1.8,6.6c-0.2,0.6,0.1,0.8,1,0.6c1.9-0.4,3.8-0.7,5.7-1c0.2,0,0.5-0.1,0.7-0.3c0.7-0.7,1.2-1.1,1.3-1.1
	c0.2,0,0.6,0.1,0.9,0.4c0.9,0.7,1.1,1.3,0.5,1.8c-0.3,0.4-0.5,1.1-0.6,1.9l-1.5,12.3c-0.4,3.7-1.1,6.6-2.1,8.8
	c-0.3,0.9-0.8,1.3-1.3,1.2c-1.2-1.5-2.5-3.1-4-4.8c-0.6-0.5-0.7-1-0.4-1.4c0.2-0.1,0.5-0.1,0.9,0.2c0.9,0.7,1.8,1.3,2.7,1.9
	c0.6,0.3,1,0.1,1.3-0.7c1.3-5.3,2.1-11.2,2.4-17.6c0-0.6-0.3-0.9-1.1-0.8c-2.4,0.4-4.9,0.8-7.3,1.3c-0.2,0.1-0.5,0.6-0.9,1.4
	c-0.8,1.9-1.6,3.5-2.3,4.6c-0.6,0.5-0.9,0.5-1.1,0c0-0.2,0.1-0.5,0.3-1c2.7-5.5,4.3-10.5,4.7-15L70.4,90.5z M69.1,106.5
	c0.4-0.5,1-0.3,1.6,0.6c1,0.9,1.9,1.9,2.8,3c0.7,0.9,1,1.6,0.7,2.3c-0.1,1.1-0.5,1.6-1.2,1.5c-0.8-1.8-1.9-3.8-3.4-6
	C69.2,107,69,106.6,69.1,106.5z"/>
<path class="st0" d="M60.1,132.9c0.5-0.4,1-0.1,1.5,0.8c0.7,0.8,0.7,1.5-0.1,2.2c-0.3,0.7-0.1,1.2,0.6,1.7c1.9,1.2,3.2,2.1,4,3
	c0.5,0.5,0.6,1.3,0.3,2.3c-0.4,0.6-1.1,0.2-1.9-1c-0.7-0.8-1.5-1.6-2.3-2.5l-0.7-0.5c-0.7-0.5-1.2-0.4-1.5,0.3
	c-0.6,1.3-1.4,2.9-2.4,4.6c-0.3,0.5-0.4,1.1-0.2,1.7c0.3,0.6,0.8,0.8,1.6,0.6c0.9-0.3,1.7-0.5,2.6-0.7c0.8-0.1,1.7-0.5,2.7-1.4
	c0.3-0.1,0.6,0,0.9,0.4c0.7,0.5,0.9,1,0.3,1.5c-0.3,0.4-0.5,0.9-0.5,1.5c-0.2,1.5-0.4,3-0.6,4.5c0,0.6,0.1,1.1,0.5,1.4
	c0.3,0.4,0.4,0.7,0.4,0.8c-0.1,0.1-0.6,0.2-1.4,0.4l-5,0.9c-0.6,0.2-0.9,0.6-0.9,1.2l0.1,4.7c0.1,0.7,0.4,0.9,0.9,0.4l2.6-2.1
	c0.6-0.5,0.7-1.2,0.2-1.8c-0.2-0.3-0.4-0.6-0.6-0.9c0-0.3,0.1-0.5,0.4-0.5c1,0.6,2.2,1.6,3.7,3.2c0.7,0.8,1,1.5,0.6,2.3
	c-0.4,0.9-0.7,1.3-0.8,1.2c-0.1-0.1-0.3-0.3-0.4-0.7l-0.8-1.5c-0.5-0.7-1.1-0.7-1.9,0c-1.2,1.1-2.4,2.2-3.6,3.5
	c-0.7,0.7-1.1,1.1-1.3,1.1c-0.9-0.3-1.4-0.7-1.4-1.3c0-0.1,0.1-0.3,0.3-0.6c0.1-0.2,0.2-0.5,0.3-0.8c0.3-5.3,0.3-10.7-0.1-16.1
	c-0.1-0.6-0.4-0.5-1,0.2c-1.6,2.2-2.9,3.5-3.8,4.1c-0.3,0.1-0.5,0-0.6-0.4c0-0.4,0.2-0.7,0.5-0.9c1.5-1.7,3-3.7,4.6-6.1
	c2.2-3.4,3.5-6.6,3.9-9.6C60,133.4,60,133,60.1,132.9z M63.4,147.6c0.1-0.6-0.3-0.7-1.1-0.5c-1.1,0.2-2.2,0.5-3.3,0.8
	c-0.7,0.2-1,0.6-1,1.3c0,0.8,0.3,1.1,1,1c1.3-0.2,2.2-0.4,2.6-0.5c0.4-0.3,0.8-0.4,1.2-0.2c0.3,0.2,0.4-0.1,0.5-0.9
	C63.4,148.1,63.4,147.8,63.4,147.6z M61.9,151.2c-1,0.2-2,0.3-3.1,0.6c-0.6,0.1-0.9,0.6-0.9,1.3c0,0.8,0.4,1.1,1.1,1
	c0.9-0.2,1.8-0.4,2.7-0.5c0.6-0.2,0.9-0.6,1-1.3C62.9,151.4,62.6,151.1,61.9,151.2z M59.8,140.4c0.1-0.4,0.3-0.4,0.8,0.1
	c1.4,1.7,2,3,1.7,3.8c-0.3,0.7-0.7,1.1-1,1c-0.2-0.1-0.4-0.5-0.5-1.3c-0.1-0.6-0.3-1.2-0.5-1.9C59.9,141.2,59.8,140.6,59.8,140.4z
	 M71.6,132.8c0.1-0.3,0.3-0.3,0.6-0.2c0.2,0.2,0.5,0.5,0.9,1c0.9,0.7,0.9,1.5,0.1,2.3l-2,4.5c-0.3,0.7,0,0.9,0.7,0.8
	c4-0.6,6.8-1,8.5-1.4c1-0.4,1.6-0.3,2,0.3c0.3,0.4,0.5,0.7,0.5,0.8c-0.1,0.2-0.5,0.4-1.2,0.5c-2,0.2-4,0.5-6,0.9
	c-0.6,0.1-0.9,0.3-0.7,0.6c0.2,0.3,0.2,0.8,0,1.6c-0.2,0.8-0.2,1.9-0.2,3.1c0,0.6,0.4,0.9,1.2,0.7l1.1-0.2c0.7-0.2,1.2-0.4,1.6-0.7
	c0.7-0.9,1.4-0.9,2.1,0.1c0.3,0.4,0.4,0.7,0.2,1c-0.2,0.3-0.3,0.7-0.4,1.3l-0.4,6.1c-0.1,2.7-0.5,4.8-1,6.1
	c-0.1,0.6-0.4,0.8-0.7,0.7c-0.1-0.1-0.5-0.5-1-1.3c-0.6-0.9-1.2-1.8-1.7-2.6c-0.1-0.3,0-0.5,0.1-0.7c0.4,0,0.9,0.3,1.4,1
	c0.6,0.6,1,0.4,1.2-0.4c0.4-2.2,0.6-5,0.5-8.3c0-0.7-0.3-0.9-1-0.7l-1.9,0.3c-0.7,0.1-1,0.4-1,1l-0.1,15.8c0.1,1.3-0.1,2.1-0.6,2.5
	c-0.2,0-0.6-0.4-1.2-1.3c-0.2-0.6-0.4-1.2-0.3-1.5c0.4-1,0.6-2,0.6-2.9l0.1-12.2c0-0.6-0.4-0.9-1.1-0.8c-0.3,0-0.6,0.1-1,0.2
	c-0.6,0.1-0.9,0.5-0.9,1.1l-0.1,9.2l-0.1,1.7c-0.5,0.4-1,0.1-1.4-1c-0.3-0.4-0.3-1.1,0-1.9c0.3-3.2,0.3-6.8,0-11
	c0-0.8,0-1.2,0.2-1.3c0.2,0,0.5,0.3,0.9,0.9c0.3,0.6,0.8,0.9,1.6,0.7l1.3-0.2c0.6-0.1,0.9-0.4,0.9-1c0-2.4-0.1-4.1-0.3-5
	c0-0.1-0.4-0.1-1.2,0l-1,0.2c-0.6,0.2-1.2,0.6-1.6,1.3l-2.1,3.4c-0.6,0.7-0.9,1.1-1,1.2c-0.5-0.4-0.5-0.9,0.1-1.6
	c2.8-4.8,4.5-8.9,5.2-12.3C71.5,134.3,71.6,133.5,71.6,132.8z"/>
<path class="st0" d="M65.2,195.2l1-0.8c0.2,0,0.5,0.1,1,0.5c0.4,0.5,0.5,1.1,0.1,1.9c-0.4,1.4-0.7,3.6-1.1,6.8
	c-0.1,0.7,0,1.1,0.3,1.4c0.4,0.4,0.6,0.8,0.5,1.1c-0.1,0.1-0.5,0.2-1.3,0.3c-1.9,0.2-3.8,0.4-5.8,0.7c-0.6,0.1-0.9,0.5-1,1.3
	c0,0.5-0.1,0.9-0.2,1.4c-0.5,0.4-1,0-1.5-1.3c-0.5-0.8-0.5-1.5-0.2-2.3c0.5-2.4,0.6-5.4,0.2-9c-0.4-1.3-0.2-1.9,0.5-2.1
	c0.1,0.1,0.3,0.3,0.5,0.7c0.2,0.5,0.6,0.7,1.1,0.6C62.3,196.2,64.1,195.7,65.2,195.2z M64.1,197.5l-4.1,0.7
	c-0.6,0.1-0.9,0.5-0.9,1.1v5.2c0,0.6,0.4,0.9,1.1,0.8l3.2-0.3c0.6-0.1,1-0.5,1.1-1.3l0.7-5.5C65.3,197.5,64.9,197.3,64.1,197.5z
	 M74.4,178.9c0.7-0.8,1.4-0.5,2.1,1c0,0.3-0.2,0.8-0.7,1.7c-0.3,1.2-0.7,3.1-1.1,5.7c-0.1,0.6,0,1,0.2,1.2c0.3,0.3,0.5,0.5,0.7,0.8
	c0,0.3-0.3,0.6-1.2,0.7c-4.4,0.6-7.4,1-9.1,1.3c-0.6,0.2-0.9,0.5-0.9,1c-0.1,0.4-0.3,0.7-0.4,0.8c-0.1,0-0.5-0.4-1.1-1.4
	c-0.4-0.8-0.5-1.5-0.2-2.3c0.5-1.5,0.6-4.4,0.2-8.9c-0.1-0.5,0.1-0.9,0.6-1c0.1,0.1,0.4,0.4,0.6,0.9c0.2,0.5,0.7,0.7,1.4,0.6l7-1.3
	C73.3,179.6,73.9,179.3,74.4,178.9z M73.9,182.1c0.1-0.6-0.3-0.8-1.1-0.7c-2.4,0.4-4.8,0.8-7.1,1.2c-0.7,0.2-1,0.5-1,1.1
	c0,1.7-0.1,3.5,0,5.2c0,0.6,0.3,0.8,1,0.7c2.1-0.4,4.1-0.7,6.3-1c0.6-0.1,1-0.5,1.1-1.3L73.9,182.1z M78.6,194.5
	c0.8-1.2,1.6-1,2.4,0.7c-0.6,1.4-1.2,4.1-1.6,8.2c-0.1,0.6,0,1,0.3,1.3c0.6,0.3,0.7,0.7,0.4,1.2c-2.4,0.3-4.9,0.7-7.3,1.1
	c-0.6,0.1-0.9,0.5-0.9,1.3c0,1-0.2,1.6-0.7,1.7c-0.3-0.2-0.6-0.6-1-1.4c-0.5-0.7-0.6-1.5-0.3-2.3c0.7-2.8,0.9-6.3,0.3-10.4
	c-0.2-0.8,0-1.3,0.5-1.4c0.1,0.1,0.4,0.3,0.6,0.8c0.2,0.5,0.3,0.8,0.4,0.8c1-0.2,2.1-0.4,3.1-0.5C76.5,195.3,77.7,195,78.6,194.5z
	 M77.4,196.8l-0.7,0.2l-3.7,0.6c-0.7,0.1-1,0.5-1,1l-0.1,5.6c0,0.6,0.4,0.9,1.1,0.8l3.6-0.5c0.6-0.1,1-0.5,1.1-1.3l0.7-5.6
	C78.5,197,78.2,196.7,77.4,196.8z"/>
<path class="st0" d="M21,4.1c0.2-0.2,0.7,0.1,1.6,0.7c0.4,0.4,0.7,0.9,0.9,1.4c0,0.2-0.1,0.8-0.4,1.7L23,8.6V17c0,0.8,0.3,1,1.1,0.6
	l4-2c0.9-0.3,1.8-1,2.6-2.1c0.4-0.2,0.7-0.1,1,0.1c1.2,0.5,1.4,1.1,0.5,2c-0.2,0.4-0.4,0.9-0.5,1.5c-0.7,5.3-1.5,9.4-2.4,12.3
	c-0.3,1.3-0.9,1.9-1.6,1.9c-0.2-0.1-0.6-0.5-1-1.3l-1.2-1.5c-0.6-0.5-1-1.1-1.2-1.6c0-0.3,0.1-0.5,0.4-0.5c0.2,0,0.6,0.3,1.2,0.8
	l0.7,0.5c0.7,0.5,1.1,0.4,1.4-0.1c0.8-2.9,1.4-6.1,1.9-9.7c0.1-0.7-0.1-1-0.7-0.8c-1.8,0.8-3.6,1.6-5.3,2.5
	c-0.6,0.3-0.9,0.7-0.9,1.3c0,5.7,0,9.5-0.1,11.4c-0.2,1-0.5,1.5-0.7,1.5c-0.2-0.1-0.5-0.4-0.9-1.2c-0.6-1.2-0.8-2.1-0.4-2.7
	c0.4-1.7,0.6-4.5,0.6-8.2c0-0.6-0.4-0.8-1.1-0.5c-1.3,0.6-2.6,1.2-4,1.8c-0.6,0.3-0.9,0.7-0.9,1.3c0,4.8,0.2,8.2,0.8,10.2
	c0.2,0.5,0.6,0.7,1,0.8c1.5,0.7,3.2,1,5.2,1l3,0.1c4,0.2,7,0,9-0.7c0.2-1.3,0.3-3.1,0.3-5.6c0-0.8,0-1.2,0.1-1.3
	c0.1-0.2,0.3-0.2,0.7,0c0.3,0.3,0.4,0.7,0.4,1.4c0.2,1.9,0.5,3.8,0.9,5.8c0.5,1.1,0.1,1.7-1.2,1.8c-0.8,0.2-1.7,0.3-2.6,0.3
	c-6.3,0.1-10.7,0-13.2-0.3c-1.5-0.1-3-0.6-4.5-1.5c-0.6-0.4-1-1.4-1.2-3c-0.2-2.4-0.3-5.2-0.4-8.2c0-0.6-0.4-0.8-1.1-0.5L10,25.9
	c-0.6,0.4-1.4,0.4-2.2-0.1c-0.4-0.1-0.6-0.3-0.5-0.7c1.1-0.6,3-1.4,5.5-2.4c0.6-0.3,0.9-0.7,0.9-1.3c0.1-3.9,0-6.9-0.4-9
	c-0.3-0.8-0.2-1.3,0.3-1.5c0.1,0,0.6,0.3,1.3,0.9c0.6,0.4,0.9,0.9,0.9,1.4c-0.3,1.8-0.5,4.4-0.4,7.6c0,0.6,0.4,0.8,1.1,0.5l4-1.8
	c0.6-0.3,1-0.7,1-1.3l0-9.7c0-0.9-0.2-1.9-0.3-2.8C20.9,4.7,20.9,4.2,21,4.1z"/>
<path class="st0" d="M21.4,46.3c0.3-0.5,0.9-0.3,1.5,0.6c0.6,0.7,0.9,1.2,0.9,1.3L21,53.8c-0.3,0.7-0.1,0.9,0.6,0.8
	c5.9-0.9,10.2-1.7,12.7-2.5c0.8-0.2,1.6,0.1,2.4,0.8c0.3,0.3,0.5,0.6,0.3,0.8c-0.1,0.3-0.6,0.4-1.3,0.5c-4.4,0.6-9.5,1.3-15.3,2.3
	c-0.5,0.1-1,0.5-1.5,1.4l-0.7,1.3c-0.5,0.8-0.7,1.3-0.6,1.6c0.2,0.3,0.6,0.4,1.4,0.2l8.1-1.4c0.6-0.1,1.1-0.4,1.4-0.8
	c0.3-0.6,0.8-0.7,1.4-0.1c0.9,0.6,1.1,1.2,0.6,1.8c-0.2,0.3-0.3,0.7-0.3,1.3C30,64.5,30,68.7,30,74.4c0,2.8-0.1,4.9-0.4,6.4
	c0,0.4-0.2,0.8-0.6,1.3c-0.3,0.3-0.6,0.2-1-0.3c-0.8-1-1.6-1.9-2.6-2.9c-1-0.7-1.2-1.2-0.8-1.6c0.1-0.1,0.6,0.1,1.3,0.5
	c0.4,0.2,0.8,0.4,1.2,0.7c0.6,0.4,0.9,0.1,1-0.7l0.1-1.5l0.1-14c0-0.7-0.4-1-1.1-0.9c-2.8,0.5-5.6,1-8.4,1.5c-0.7,0.1-1,0.6-1,1.3
	v1.3c0,0.6,0.4,0.9,1.1,0.8c1.8-0.2,3.7-0.6,5.6-1.1c0.7-0.3,1.2-0.2,1.5,0c0.7,0.4,0.9,0.9,0.7,1.3c-0.1,0.1-0.4,0.2-0.9,0.3
	c-2.3,0.4-4.7,0.8-7,1.3c-0.6,0.2-0.9,0.6-0.9,1.2v1.3c0,0.6,0.4,0.9,1.1,0.8l5.6-0.8c0.8-0.7,1.5-0.6,2.3,0.4
	c0.3,0.4,0.4,0.6,0.3,0.8c-0.1,0.2-0.6,0.3-1.3,0.4l-7.1,1.2c-0.6,0.1-0.9,0.5-0.9,1.1c0,2.2,0,4.4-0.1,6.7c0,0.8-0.2,1.2-0.7,1.3
	c-1.3-1.1-1.7-2.3-1.1-3.6c0.7-4.2,0.9-9.5,0.3-15.6c-0.1-0.6-0.4-0.5-1,0.2c-2.4,3-4.7,5.3-6.9,7c-1,1.2-1.8,1.4-2.3,0.7
	c0-0.2,0.4-0.6,1.1-1.2c2-1.8,3.8-3.6,5.5-5.4c1.4-1.8,2.8-3.8,4.2-6.1c0.5-0.8,0.3-1.1-0.4-1c-2.7,0.4-4.7,0.8-5.9,1.2
	c-0.6,0.2-1.4,0-2.2-0.7c-0.3-0.2-0.5-0.4-0.4-0.9c0.1-0.2,0.6-0.3,1.3-0.4l8.6-1.2c0.6-0.1,1.1-0.5,1.5-1.3
	C20.6,51.2,21.3,48.7,21.4,46.3z"/>
<path class="st0" d="M20.5,90.4c0.3-0.7,0.9-0.4,1.7,0.7c0.5,0.7,0.8,1.1,0.8,1.2c-0.9,1.9-1.6,3.8-2.3,5.9c-0.2,0.7-0.1,1,0.5,0.9
	l5.7-1.1c0.8,0,1.5-0.4,2.2-1.2c0.6-0.7,1.4-0.4,2.4,0.9c0,0.2-0.2,0.6-0.5,1.1c-0.3,0.8-0.5,1.8-0.7,3.1c-0.4,10-0.8,16.8-1.2,20.4
	c0,0.9-0.2,1.4-0.7,1.5c-0.1-0.1-0.4-0.4-0.7-1.1c-0.3-0.7-0.8-1.1-1.5-1c-3.3,0.3-6.5,0.7-9.8,1.2c-0.6,0.1-1,0.5-1,1.3
	c-0.1,0.8-0.4,1-1.1,0.6c-0.3-0.4-0.6-0.8-0.7-1.2c-0.4-0.4-0.4-1.2,0-2.3c0.3-1.7,0.5-3.7,0.6-5.9c0.1-5,0-10.3-0.4-16
	c0-0.8,0-1.2,0.2-1.3c0.2-0.2,0.4-0.1,0.7,0.1c0.3,0.6,0.6,1.3,0.8,1.9c0.1,0.1,0.5,0.1,1.3-0.1c0.4-0.1,0.9-0.2,1.4-0.2
	c0.6-0.1,1-0.5,1.3-1.2C20.3,95.5,20.7,92.9,20.5,90.4z M28.7,100.5c0-0.6-0.4-0.9-1.2-0.8c-5.1,0.8-8.7,1.4-10.8,1.9
	c-0.7,0.2-1,0.5-1,1.1c0,0.9-0.1,1.9,0,3c0,0.6,0.4,0.9,1.1,0.8l5.6-0.8c0.7-0.1,1.4-0.2,1.9-0.5c0.8-0.2,1.5,0,2.2,0.6
	c0.3,0.3,0.4,0.7,0.1,1l-10,1.6c-0.6,0.2-0.9,0.5-0.9,1.2c0,1-0.1,2,0,3.1c0,0.6,0.4,0.9,1.1,0.8c2.4-0.2,4.8-0.6,7.1-1
	c1.3-0.7,2.3-0.5,3,0.7c0,0.1,0.1,0.2,0.1,0.4c-0.1,0.3-0.5,0.4-1.3,0.5c-4,0.5-7,0.9-9.1,1.3c-0.6,0.1-0.9,0.6-1,1.3v3.6
	c0,0.6,0.4,0.9,1.1,0.8c3.5-0.4,6.4-0.9,8.9-1.3c0.7-0.1,1.2,0,1.4,0.2c0.2,0.2,0.5-0.1,0.7-0.8C28.3,114.3,28.6,108.2,28.7,100.5z"
	/>
<path class="st0" d="M26.7,135c0.3-0.8,0.9-0.8,1.8-0.1c0.7,0.5,0.9,1,0.6,1.5c-0.7,0.8-1,1.6-1.1,2.3c-0.4,1.7-0.7,3.5-1,5.3
	c-0.1,0.7,0,1.2,0.3,1.4c0.6,0.4,0.9,0.8,0.9,1.2c0,0.2-0.4,0.4-1.2,0.5l-12,2.3c-0.6,0.1-0.9,0.5-0.9,1.1c0,3.3,0,6.5,0,9.8
	c0.1,1.3,0.3,2.3,0.6,3.1c0.3,0.8,1,1.3,2,1.4c2.2,0.5,4.9,0.6,8.4,0.5c2.1-0.1,3.8-0.2,5.3-0.5c0.8-0.3,1.2-0.9,1.4-1.6
	c0.2-1.1,0.3-3.2,0.4-6.3c0-0.7,0-1.1,0.3-1.4c0.3-0.1,0.5-0.1,0.7,0.1c0.3,4.3,0.6,7.5,1,9.5c0.2,0.6,0,1-0.6,1.2
	c-2.8,0.5-5.8,0.8-9.1,0.9c-3.3,0.2-6.3-0.1-9.1-0.8c-1.9-0.6-2.8-1.9-2.7-3.8c-0.2-3.1-0.4-7.7-0.4-13.6l-0.2-1.5
	c-0.2-0.6-0.2-1.1,0.1-1.3c0.5-0.2,0.9,0.1,1.1,0.8c0.4,0.5,1,0.7,1.8,0.6c2.9-0.5,5.8-1.2,8.8-2c0.6-0.2,1-0.6,1.2-1.4l1.2-6
	c0.1-0.6-0.3-0.9-1.1-0.7l-10.1,2.1l-1.5,0.4c-0.7,0.2-1.4-0.1-2-1.1c-0.1-0.2,0.3-0.4,1-0.7l11.9-2.4
	C25.5,135.9,26.2,135.6,26.7,135z"/>
<path class="st0" d="M14.6,178.8c0.1-0.8,0.2-1.2,0.4-1.3c0.2,0,0.5,0.3,1.1,1c0.5,0.5,0.8,1,0.9,1.3c0,0.2-0.3,0.7-0.7,1.4
	c-0.8,1.6-1.6,3.4-2.3,5.6c-0.2,0.6,0,0.9,0.8,0.7c2-0.3,3.3-0.8,4-1.4c0.3-0.8,0.9-0.7,1.7,0.2c0.7,0.4,0.8,1,0.2,1.6
	c-0.3,0.5-0.5,1.2-0.6,2.1c-0.2,5.9-0.5,11.2-0.8,15.8c0,0.7-0.2,1.1-0.6,1.2c-0.4-0.1-0.7-0.4-1-1.2c-0.2-0.5-0.8-0.7-1.6-0.7
	c-1.1,0.1-2.3,0.2-3.4,0.4c-0.7,0.1-1,0.5-1.1,1.3l-0.1,1.3c-0.3,0.4-0.6,0.4-0.9,0c-0.8-0.8-1-1.9-0.6-3.4c0.6-4,0.6-9.7,0-17.1
	c-0.1-1,0-1.5,0.3-1.6c0.4,0,0.7,0.4,0.9,1c0.3,0.8,0.6,1.1,0.7,1.1C13.7,185,14.5,181.9,14.6,178.8z M17.5,188.7
	c-1.2,0.2-2.7,0.6-4.5,1c-0.6,0.1-0.9,0.5-0.9,1.1c0,1.3-0.1,2.6,0,4c0,0.6,0.4,0.9,1.1,0.8c1.1-0.2,1.9-0.4,2.6-0.6
	c0.9-0.3,1.6,0.2,1.9,1.3c0,0.1-0.1,0.2-0.3,0.3l-4.5,0.8c-0.6,0.1-0.9,0.5-0.9,1.1c0,1.5-0.1,3,0,4.5c0,0.6,0.4,0.9,1.1,0.8
	l1.1-0.1c0.7,0,1.2-0.1,1.6-0.2c0.7-0.3,1.3-0.4,1.7-0.2c0.1,0.2,0.3-0.2,0.4-1.1c0.4-3.7,0.7-7.8,0.7-12.5
	C18.7,188.9,18.3,188.5,17.5,188.7z M25.6,176.9c0.4-0.5,0.9-0.4,1.6,0.5c0.5,0.6,0.8,1,0.9,1.3c-0.2,0.6-0.4,1.2-0.6,1.8
	c-0.3,1.8-0.9,4-1.8,6.6c-0.2,0.6,0.1,0.8,1,0.6c1.9-0.4,3.8-0.7,5.7-1c0.2,0,0.5-0.1,0.7-0.3c0.7-0.7,1.2-1.1,1.3-1.1
	c0.2,0,0.6,0.1,0.9,0.4c0.9,0.7,1.1,1.3,0.5,1.8c-0.3,0.4-0.5,1.1-0.6,1.9l-1.5,12.3c-0.4,3.7-1.1,6.6-2.1,8.8
	c-0.3,0.9-0.8,1.3-1.3,1.2c-1.2-1.5-2.5-3.1-4-4.8c-0.6-0.5-0.7-1-0.4-1.4c0.2-0.1,0.5-0.1,0.9,0.2c0.9,0.7,1.8,1.3,2.7,1.9
	c0.6,0.3,1,0.1,1.3-0.7c1.3-5.3,2.1-11.2,2.4-17.6c0-0.6-0.3-0.9-1.1-0.8c-2.4,0.4-4.9,0.8-7.3,1.3c-0.2,0.1-0.5,0.6-0.9,1.4
	c-0.8,1.9-1.6,3.5-2.3,4.6c-0.6,0.5-0.9,0.5-1.1,0c0-0.2,0.1-0.5,0.3-1c2.7-5.5,4.3-10.5,4.7-15L25.6,176.9z M24.3,192.8
	c0.4-0.5,1-0.3,1.6,0.6c1,0.9,1.9,1.9,2.8,3c0.7,0.9,1,1.6,0.7,2.3c-0.1,1.1-0.5,1.6-1.2,1.5c-0.8-1.8-1.9-3.8-3.4-6
	C24.4,193.4,24.2,192.9,24.3,192.8z"/>
<path class="st0" d="M21,219.4c0.2-0.3,0.5-0.3,0.9,0c0.5,0.4,1.1,0.8,1.6,1.2c0.2,0.2,0.2,0.7,0,1.4c-0.2,3-0.3,6.9-0.3,11.5
	c0,0.6,0.4,0.9,1.1,0.8c4.2-0.3,7.6-0.8,10-1.5c1-0.1,1.7,0.6,2.2,1.9c-0.1,0.3-0.4,0.5-0.9,0.4c-3,0.2-6.1,0.4-9.1,0.8
	c-0.6,0.1-0.9,0.2-0.8,0.3c0.2,0.4,0.1,0.7-0.1,1c-0.3,2.1-0.3,5.7-0.2,11c0.1,2.2,0.9,3.4,2.5,3.6c2.9,0.3,5.2,0.3,6.8-0.2
	c0.3-0.3,0.4-0.8,0.4-1.4c0-1.6,0-3.2,0-4.8c0.1-0.4,0.3-0.5,0.6-0.5c0.5,0.1,0.7,0.6,0.7,1.4c0.2,1.7,0.5,3.6,0.9,5.8
	c0.4,1,0,1.5-1.1,1.6c-2.3,0.3-4.8,0.3-7.4,0c-1,0-2-0.2-3-0.7c-1.1-0.8-1.7-1.7-1.7-2.9c-0.2-1.5-0.3-2.7-0.3-3.9l-0.1-8.7
	c0-0.8-0.4-1.2-1.2-1.2l-1.6,0.2c-0.6,0.1-0.8,0.2-0.5,0.5c0.4,0.3,0.5,0.7,0.3,1c-0.4,0.5-0.7,1.3-1,2.4c-1.3,4.6-4.1,8.9-8.5,12.8
	c-0.7,0.4-1.5,0.9-2.2,1.5c-0.8,0.7-1.3,0.9-1.6,0.7c-0.3-0.5,0.1-1,1-1.5c2-1.5,3.7-3.2,5.2-5.1c3-4.1,4.6-7.8,4.9-11.1
	c0-0.6-0.4-0.9-1.2-0.8c-2,0.2-4,0.4-5.9,0.7c-0.8,0.3-1.7-0.1-2.6-1.3c-0.1-0.3,0-0.5,0.4-0.6c3.1-0.1,6.9-0.4,11.6-1
	c0.6-0.1,0.9-0.5,0.9-1.2c0.1-5.4-0.1-9.7-0.5-12.7C21,219.9,21,219.5,21,219.4z M13.6,225c-0.3-0.8-0.3-1.2,0.1-1.1
	c0.3,0.1,0.8,0.4,1.4,1.1c0.9,1,1.8,2,2.6,3.1c1.2,1.2,1.2,2.5,0.2,3.9c-0.1,0.1-0.2,0.1-0.4,0c-0.1-0.1-0.4-0.5-0.8-1.3
	C15.9,228.8,14.8,226.9,13.6,225z M29.8,223.8c0.2-0.8,0.4-1.3,0.6-1.2c0.6,0.3,1,1,1.4,2c0.4,0.6,0.1,1.3-0.7,2
	c-1.3,2.1-2.7,4.1-4.1,6.1c-0.6,0.7-1,0.7-1.3-0.2C28.1,228.5,29.5,225.6,29.8,223.8z"/>
<path class="st0" d="M20.5,275.5c0.1-0.4,0.4-0.5,1-0.1c0.5,0.5,0.9,1,1.3,1.5c1,0.9,1.2,1.8,0.6,2.8c-0.3,0.6,0,0.9,0.8,0.8
	c4.3-0.5,8.1-1.1,11.4-1.8c0.9,0.5,1.4,1.1,1.6,1.7c0,0.5-0.3,0.7-0.9,0.7c-5.3,0.5-11.7,1.1-19.2,1.9c-0.6,0.1-1,0.4-1,1v9.9
	c0,0.7,0.4,1,1.1,1c4.4-0.2,9.1-0.8,14.1-1.8c0.5-0.1,1.1,0.3,1.8,1.1c0.6,1,0.2,1.4-1.1,1.2c-4.9,0.4-9.9,0.8-14.8,1.3
	c-0.6,0-1.1,0.1-1.5,0.4c-0.2,0.5-0.5,0.6-0.9,0.5c-1.4-0.8-1.6-1.7-0.7-2.7c0.1-0.3,0.2-0.8,0.2-1.4l0-9.2c0-0.6-0.4-0.9-1.1-0.8
	c-0.9,0.1-1.7,0.2-2.6,0.3c-1.3,0.3-2.5-0.1-3.4-1.3c0-0.3,0.2-0.5,0.4-0.6c1,0.1,2,0,3-0.2c3.6-0.3,7.1-0.6,10.7-0.9
	c0.6-0.1,0.7-0.5,0.4-1.3l-1.1-3C20.5,276,20.5,275.7,20.5,275.5z M26.7,263.9c0.4-0.4,0.9-0.1,1.6,0.8c0.9,0.7,1.1,1.5,0.4,2.3
	c-0.2,0.6-0.5,1.2-0.6,1.8c-0.2,0.6,0.1,0.9,0.9,0.8c1.7-0.3,3.4-0.6,5.2-1c0.8,0.1,1.5,0.7,2,1.8c0,0.5-0.4,0.7-1.1,0.6
	c-2.5,0.2-4.8,0.4-6.9,0.7c-0.6,0.1-1,0.6-1.3,1.3l-1.2,3.1c-0.2,0.7-0.6,0.9-1.1,0.5c-0.1-0.3-0.1-0.7,0-1l0.8-2.8
	c0.1-0.6-0.2-0.8-1-0.7c-1.6,0.2-3.2,0.4-4.9,0.6c-0.6,0.1-1,0.5-0.9,1.2c0,0.5,0,1.1,0,1.7c0,0.8,0,1.3-0.1,1.5
	c-0.3,0.4-0.7,0.3-1.2-0.3s-0.6-1.1-0.4-1.5c0.1-0.4,0.1-0.9,0.1-1.3c0-0.6-0.3-0.9-1.1-0.9c-1.6,0.2-3.2,0.4-4.8,0.7
	c-0.7,0.2-1.4,0.1-2.2-0.3c-0.7-0.3-1-0.7-1-1.1c0.1-0.3,0.3-0.4,0.8-0.4l7.3-0.7c0.6-0.1,0.9-0.5,0.8-1.2c-0.1-1.3-0.3-2.6-0.5-3.8
	c-0.3-0.9-0.2-1.4,0.3-1.5c0.1,0,0.5,0.2,1,0.5c1,0.4,1.3,1.1,1,2.1c-0.1,0.8-0.2,1.7-0.1,2.6c0,0.7,0.3,1,0.9,1l5.9-0.8
	c0.6-0.1,1-0.5,1.1-1.3C26.6,267.2,26.7,265.5,26.7,263.9z"/>
<g>
	<g>
		<path d="M69.1,241.9l-12.7-13h25.3L69.1,241.9z M58.5,229.7l10.6,10.9l10.6-10.9H58.5z"/>
	</g>
	<g>
		<path d="M81.6,229.7h-25l4.2-6h16.6L81.6,229.7z M58.3,228.9h21.6l-3-4.3H61.3L58.3,228.9z"/>
	</g>
	<g>
		<polygon points="68.7,241.4 63.5,229.5 60.6,224.4 61.4,224 64.3,229.1 69.5,241.1 		"/>
	</g>
	<g>
		<polygon points="74.4,230 68.4,224.8 64,229.6 63.4,229 68.4,223.6 74.2,228.6 76.7,224 77.5,224.4 		"/>
	</g>
	<g>
		<polygon points="69.5,241.4 68.7,241.1 74,229.1 74.9,229.5 		"/>
	</g>
</g>
</svg>
