<svg id="圖層_1" data-name="圖層 1" xmlns="http://www.w3.org/2000/svg" viewBox="0 0 102.5 349.89"><defs><style>.cls-1{stroke:#000;stroke-miterlimit:10;stroke-width:2px;}</style></defs><title>光芒</title><path class="cls-1" d="M302,155.94a19.66,19.66,0,0,0,4.62.43h6.87c.16-.47.3-.93.44-1.39a40.87,40.87,0,0,0,1.22-5.51,11.42,11.42,0,0,1,3,.73c.37.1.56.27.56.5s-.23.38-.68.54a7.23,7.23,0,0,1-1.34.35q-.7,2.73-1.34,4.78H333.3l2.06-2.28c1.05.75,2,1.49,3,2.24a.63.63,0,0,1,.36.5.59.59,0,0,1-.68.66H315q-.31.88-.63,1.65A35,35,0,0,1,311,165.7c-.16.28-.3.52-.43.73,1.21.54,1.81.95,1.81,1.23s-.4.54-1.22.93v12.92a6.67,6.67,0,0,0,.2,1.88,4.3,4.3,0,0,1,.12.89c0,.8-.48,1.22-1.43,1.27-.55,0-.83-.22-.83-.65V168.36a21.87,21.87,0,0,1-2.09,2.58q-2.06,2.09-5.17,4.74l-.6-.81a43.32,43.32,0,0,0,4.35-4.35,27.12,27.12,0,0,0,3.08-4.21,38.2,38.2,0,0,0,2.88-5.16q.75-1.74,1.47-3.66H306.6c-1.87,0-3.14.07-3.8.15Zm12.52,12.15a16.75,16.75,0,0,0,4.54.5h5.06v-6a22,22,0,0,0-.16-3.13,15.57,15.57,0,0,1,3.75.85c.37.15.56.35.56.58s-.19.36-.56.46a4.87,4.87,0,0,1-1.69.43v6.82h5.72l1.9-2c.95.72,1.83,1.4,2.65,2,.23.13.35.28.35.46,0,.39-.17.58-.51.58H326v13.11h7.78l1.85-2.12c1,.72,2,1.42,2.85,2.12.24.13.35.28.35.46q0,.66-.63.66H317.3q-2.76,0-3.75.15l-.83-1.69a19.85,19.85,0,0,0,4.58.42h6.8V169.63H319q-2.76,0-3.75.15Z" transform="translate(-238.09 -148.34)"/><path class="cls-1" d="M310.23,208.69a26.6,26.6,0,0,1,3.36,1.35.64.64,0,0,1,.24.46c0,.23-.25.38-.75.46a9.81,9.81,0,0,1-1.27.16c-.81,2.15-1.71,4.22-2.68,6.2a35.74,35.74,0,0,1-3,5.09,40.36,40.36,0,0,1-4,4.59l-.59-.42q2.06-2.55,3.52-4.78a47.39,47.39,0,0,0,2.25-4.36c.74-1.57,1.35-3.05,1.86-4.44A28,28,0,0,0,310.23,208.69Zm9.13-9.45a13.69,13.69,0,0,1,3.87,1c.29.11.43.23.43.39s-.18.45-.55.58c-.55.15-1.11.28-1.66.38v29.77a2.6,2.6,0,0,1-.67,2,3.63,3.63,0,0,1-1.5,1,3.36,3.36,0,0,1-1.5.42l0-.54a1.31,1.31,0,0,0-.48-.77,4.94,4.94,0,0,0-1.89-.85,18.31,18.31,0,0,0-3.44-.5v-.89a28.58,28.58,0,0,0,5.53.62,3.1,3.1,0,0,0,1.62-.27c.32-.15.48-.54.48-1.16V202.33A16.41,16.41,0,0,0,319.36,199.24Zm8.22,10.18a43.27,43.27,0,0,1,4.85,5,41.88,41.88,0,0,1,3.32,4.05,18.22,18.22,0,0,1,1.78,2.66,19,19,0,0,1,.71,2.08,5.83,5.83,0,0,1,.28,1.85c0,.83-.36,1.24-1,1.24a1,1,0,0,1-.79-.43A21.34,21.34,0,0,1,335,222a40.22,40.22,0,0,0-3.12-5.94,46.27,46.27,0,0,0-4.74-6.17Z" transform="translate(-238.09 -148.34)"/><path class="cls-1" d="M309.24,248.44a18,18,0,0,1,3.4,1.31c.19.13.28.25.28.38s-.19.41-.55.54a6,6,0,0,1-1.7.27c-.21.54-.44,1.07-.68,1.58l-.9,1.62a13.13,13.13,0,0,1-.91,1.28,5.19,5.19,0,0,1-.71.77h6.36l1.3-1.7a7.09,7.09,0,0,1,2.06,1.62.88.88,0,0,1,.27.5c0,.26-.47.68-1.42,1.27v16.35a35.67,35.67,0,0,0,.12,3.74c0,.75.08,1.34.08,1.77a1.09,1.09,0,0,1-.44.89,2,2,0,0,1-.83.23c-.55,0-.83-.15-.83-.46v-2.2h-9.28v2.35c0,.31-.28.47-.83.47a2.23,2.23,0,0,1-.83-.23,1.09,1.09,0,0,1-.4-.89c0-.44,0-1,.08-1.77a18.1,18.1,0,0,0,.24-3.75V257.07a8.91,8.91,0,0,0-.32-2.58l2.37,1.7h1.27a12.37,12.37,0,0,0,1-1.81c.34-.72.65-1.48.95-2.28s.5-1.57.71-2.39A8,8,0,0,0,309.24,248.44Zm-4.38,17.62h9.28v-8.83h-9.28Zm0,11.1h9.28V267.1h-9.28Zm17.5-29a25.59,25.59,0,0,1,3.4,1.35.65.65,0,0,1,.24.46c0,.23-.26.39-.76.46a9.52,9.52,0,0,1-1.3.16c-.39,1.51-.84,3-1.34,4.31h12.6l1.26-1.23a9.46,9.46,0,0,1,1.9,1.23,1,1,0,0,1,.32.62c0,.39-.53.75-1.58,1.08q0,6.43-.6,13.73a50.15,50.15,0,0,1-1.54,9.87,5.93,5.93,0,0,1-1.18,2.27,5.4,5.4,0,0,1-1.35.93,5.49,5.49,0,0,1-2.76.69,2.57,2.57,0,0,0-.4-1.08,1.77,1.77,0,0,0-.67-.62,25.2,25.2,0,0,0-4-1.23l.16-1a37.25,37.25,0,0,0,5.69,1.54,2.79,2.79,0,0,0,1.5-.39,2.74,2.74,0,0,0,.91-1.23,10.89,10.89,0,0,0,.87-2.58,70.19,70.19,0,0,0,1-8.25q.43-5.87.47-13.27h-13l0,.08a36.52,36.52,0,0,1-1.93,4.47,41.87,41.87,0,0,1-2.65,4.09l-.63-.46a44.37,44.37,0,0,0,2.17-4.28c.5-1.19,1-2.48,1.42-3.9s.85-2.75,1.19-4S322.2,249.56,322.36,248.17Zm.67,14.92a25.86,25.86,0,0,1,3,2.5,22.38,22.38,0,0,1,2.18,2,12.42,12.42,0,0,1,1.1,1.35c.16.36.31.69.44,1a2.21,2.21,0,0,1,.19.93c0,.79-.35,1.19-1,1.19a.65.65,0,0,1-.48-.19,11.64,11.64,0,0,1-1.14-2,17.1,17.1,0,0,0-1.94-3.08,26.28,26.28,0,0,0-2.92-3.2Z" transform="translate(-238.09 -148.34)"/><path class="cls-1" d="M308.77,297.52a15.55,15.55,0,0,1,3.16.81.39.39,0,0,1,.32.42c0,.23-.23.41-.67.54a1,1,0,0,1-.28,0,19.51,19.51,0,0,1,2,1.23,15.73,15.73,0,0,1,2.22,1.47,10.19,10.19,0,0,1,1.22,1c.16.29.3.54.44.77a1.52,1.52,0,0,1,.15.66c0,.75-.27,1.12-.75,1.12a1.11,1.11,0,0,1-.59-.16,8,8,0,0,1-1.15-1.5,13.67,13.67,0,0,0-2.09-2.31,26.18,26.18,0,0,0-2.65-2.05,13.55,13.55,0,0,1-1.06,2.32,22,22,0,0,1-1.54,2.35,21.66,21.66,0,0,1-1.62,2,19.24,19.24,0,0,0,4.22.39h1.74l1.58-1.51c.79.54,1.53,1.08,2.21,1.62a.45.45,0,0,1,.28.39c0,.38-.16.58-.47.58h-5.34c-1.87,0-3.13.08-3.79.15l-.67-1.35a9.37,9.37,0,0,1-1.74,1.66,12.29,12.29,0,0,1-2.17,1.7l-.63-.74a27,27,0,0,0,2.41-2.08c.63-.74,1.26-1.54,1.89-2.39a27.73,27.73,0,0,0,1.7-2.58,16.39,16.39,0,0,0,1.07-2.28A12.81,12.81,0,0,0,308.77,297.52Zm-3.48,24.06v9q.91-.19,1.62-.39a27.45,27.45,0,0,0,3.52-1.11c1.08-.39,2.3-.89,3.67-1.51-.05-.13-.1-.24-.15-.34a20.59,20.59,0,0,0-1.86-3.32l.47-.62a25.15,25.15,0,0,1,2.14,2.55c.6.79,1.09,1.48,1.46,2a14,14,0,0,1,.75,1.39c.1.38.2.74.28,1.08a3.8,3.8,0,0,1,.11.92c0,.93-.38,1.39-1.06,1.39a.45.45,0,0,1-.36-.19,16,16,0,0,1-.67-2c-.24-.78-.47-1.46-.71-2.05a31,31,0,0,1-3,1.7c-1.08.56-2.11,1.07-3.09,1.5a23.23,23.23,0,0,1-2.84,1.08c-.26.93-.46,1.39-.59,1.39s-.85-1-1.9-3.08a1.17,1.17,0,0,1,.32,0V311.86a22,22,0,0,0-.16-2.78l2.49,1.82h8.06l1.14-1.24c1.35.83,2,1.39,2,1.7s-.37.64-1.11,1.08v9.44c0,.47-.41.76-1.22.89-.45,0-.68-.1-.68-.31v-.88Zm0-9.57v3.71H314V312Zm0,4.78v3.71H314v-3.71Zm18.65-19a19.71,19.71,0,0,1,3.4,1.31.53.53,0,0,1,.24.38c0,.24-.18.42-.52.54a5.85,5.85,0,0,1-1.66.27,21.69,21.69,0,0,1-1.5,2.74c-.24.39-.46.76-.67,1.12h11.65l1.74-1.85c.92.62,1.81,1.25,2.65,1.89.21.1.31.23.31.38,0,.44-.15.66-.47.66h-9.64v6h5.41l1.23-1.7a9.18,9.18,0,0,1,2.09,1.66.75.75,0,0,1,.32.54c0,.23-.53.63-1.58,1.19v13.92a3.35,3.35,0,0,1-.48,2,3.41,3.41,0,0,1-1.1,1,2.14,2.14,0,0,1-1.15.42,2.78,2.78,0,0,0-.23-1.31,2,2,0,0,0-.91-.81,4.63,4.63,0,0,0-1.66-.54v-.88a10.15,10.15,0,0,0,3.12.57c.26,0,.43-.06.51-.19a2,2,0,0,0,.16-1V312.32h-5.73v18.05a5.62,5.62,0,0,0,.08,1.15,6.4,6.4,0,0,1,.12,1.12,1.11,1.11,0,0,1-1.27,1.24c-.65,0-1-.2-1-.58,0-.57,0-1.28.08-2.12s.08-1.69.08-2.36v-16.5H322.2v17.74c0,.31-.25.46-.75.46a2.56,2.56,0,0,1-.91-.23,1.14,1.14,0,0,1-.35-.89c0-.43,0-1,.08-1.77a22.24,22.24,0,0,0,.19-3.74V312.17a11.78,11.78,0,0,0-.27-2.66l2.33,1.7h5.06v-6h-5.1c-.16.23-.3.44-.44.62a19.71,19.71,0,0,1-1.85,2.19,14.13,14.13,0,0,1-2.41,2.12l-.63-.5a13.9,13.9,0,0,0,2.52-2.77c.77-1.08,1.49-2.23,2.18-3.43a35.94,35.94,0,0,0,1.7-3.71A11.72,11.72,0,0,0,323.94,297.79Z" transform="translate(-238.09 -148.34)"/><path class="cls-1" d="M303.12,364.91l2.33,1.7h9.36l1.23-1.7a7.42,7.42,0,0,1,2.09,1.62.74.74,0,0,1,.32.5c0,.26-.53.68-1.58,1.27v9.61c.42.3.82.6,1.18.88.16.08.24.18.24.31,0,.41-.1.62-.31.62H305.17v1.81c0,.31-.26.46-.79.46a2.79,2.79,0,0,1-.9-.19,1.07,1.07,0,0,1-.36-.85c0-.46,0-1.07.08-1.81a18.25,18.25,0,0,0,.24-3.78V367.5A9.61,9.61,0,0,0,303.12,364.91Zm2.05,13.69h10V367.69h-10Zm4.9-31.15,2.33,1.69H327l1.27-1.69a8.66,8.66,0,0,1,2.05,1.65.81.81,0,0,1,.28.54c0,.24-.53.63-1.58,1.2v7.87l1.06.8c.16.11.24.21.24.31,0,.39-.1.58-.32.58H312.09v1.27c0,.29-.25.43-.75.43a3.14,3.14,0,0,1-.91-.19,1.07,1.07,0,0,1-.36-.85c0-.47,0-1.07.08-1.82a22.13,22.13,0,0,0,.2-3.77v-5.36A11.14,11.14,0,0,0,310.07,347.45Zm2,11.91h15.17v-9.1H312.09Zm10.59,5.55,2.41,1.7h9.79l1.23-1.7a7.57,7.57,0,0,1,2.09,1.62.74.74,0,0,1,.32.5c0,.26-.53.68-1.58,1.27v9.61c.42.3.81.6,1.18.88.16.08.24.18.24.31,0,.41-.12.62-.36.62H324.77v1.81c0,.31-.28.46-.83.46a2.45,2.45,0,0,1-.83-.19,1,1,0,0,1-.43-.85c0-.46,0-1.07.11-1.81a18.25,18.25,0,0,0,.24-3.78V367.5A8.82,8.82,0,0,0,322.68,364.91Zm2.09,13.69H335.2V367.69H324.77Z" transform="translate(-238.09 -148.34)"/><path class="cls-1" d="M270.34,175v0l1.42-1.54a24.31,24.31,0,0,1,2.8,2.35.43.43,0,0,1,.16.31c0,.2-.29.36-.87.46s-1,.17-1.5.27c-.66,2.47-1.43,5-2.33,7.67q-1.38,4.24-2.84,7.6l-.64-.46a83.62,83.62,0,0,0,2.45-8.14,72.52,72.52,0,0,0,1.5-7.4V176l-10.11,2.58V194.8c0,.54-.38.81-1.15.81q-.9,0-.9-1c0-.31,0-.72.07-1.23a12,12,0,0,0,.08-1.39v-13l-9.79,2.51V198a1,1,0,0,0,.71,1,11.84,11.84,0,0,0,3.08.46c1.68.18,4.4.27,8.14.27q4.77,0,7.7-.12a24.68,24.68,0,0,0,3.56-.38,2.29,2.29,0,0,0,1.77-1.08q.92-1.23,1.9-5.94l.75.16a21.34,21.34,0,0,0-.63,5.08.92.92,0,0,0,.24.74,1.51,1.51,0,0,0,.67.5c.47.23.71.52.71.88s-.32.48-1,.66a11.65,11.65,0,0,1-3.24.66c-1.55.18-3.4.3-5.53.38-2.37.1-4.69.16-6.95.16-3.19,0-5.6-.06-7.23-.16a25.79,25.79,0,0,1-4.35-.54,3.42,3.42,0,0,1-1.74-.89,1.65,1.65,0,0,1-.51-1.15V182l-1.7.46-3.67,1.39-1.15-1.73,4.31-.77,2.21-.54v-8.37a16.84,16.84,0,0,0-.16-2.62,21.38,21.38,0,0,1,3.2.73.51.51,0,0,1,.44.5c0,.21-.15.34-.44.39a6.53,6.53,0,0,1-1.14.35v8.52l9.79-2.43v-8.21a24,24,0,0,0-.15-3.13,11.53,11.53,0,0,1,3.16.85c.31.15.47.35.47.58s-.13.36-.39.46a3.05,3.05,0,0,1-1.19.43v8.55Z" transform="translate(-238.09 -148.34)"/><path class="cls-1" d="M240,220.87a18,18,0,0,0,4.58.46h8.49c.16-.36.3-.73.44-1.12a29.43,29.43,0,0,0,1.34-4.86,13.69,13.69,0,0,1,3,.74c.4.1.59.25.59.46s-.23.44-.71.62a12.57,12.57,0,0,1-1.34.34c-.45,1.42-.9,2.69-1.34,3.82h17.58l2.05-2.27c1,.77,2,1.51,3,2.23a.67.67,0,0,1,.36.54.55.55,0,0,1-.63.62h-22.8l-.75,1.62a37.56,37.56,0,0,1-2.45,4.05H269l1.31-1.7a8.42,8.42,0,0,1,2.05,1.66.88.88,0,0,1,.28.54c0,.23-.53.63-1.58,1.19v18.7a2.85,2.85,0,0,1-.6,2,3.92,3.92,0,0,1-1.54,1,3.36,3.36,0,0,1-1.5.42,1.63,1.63,0,0,0-.47-1.31,4.67,4.67,0,0,0-1.86-.81,15.67,15.67,0,0,0-3.32-.54v-.88a35.76,35.76,0,0,0,6,.58,2.52,2.52,0,0,0,1.26-.2c.21-.13.32-.47.32-1V242H251.69a15,15,0,0,1-.67,3,14.68,14.68,0,0,1-1.27,3.28,17,17,0,0,1-2.37,3.32l-.59-.81a18.29,18.29,0,0,0,1.7-3c.31-.85.59-1.7.83-2.55a24.3,24.3,0,0,0,.55-3.12,40.42,40.42,0,0,0,.24-5v-7.25a31.28,31.28,0,0,1-4.27,4.51c-1.53,1.21-3.42,2.59-5.69,4.13l-.63-.81a47.92,47.92,0,0,0,4.86-3.82,25.72,25.72,0,0,0,3.44-3.66,37.19,37.19,0,0,0,3.16-4.55,31,31,0,0,0,1.62-3.2h-8c-1.87,0-3.15.06-3.83.11Zm11.81,20h17.54V235.4H252v1.7A33.85,33.85,0,0,1,251.81,240.92Zm.19-6.64h17.35V229.2H252Z" transform="translate(-238.09 -148.34)"/><path class="cls-1" d="M254.34,265.17a18.07,18.07,0,0,1,3.39,1.27.61.61,0,0,1,.28.42c0,.21-.18.38-.55.51a7.19,7.19,0,0,1-1.7.23q-.36.64-.75,1.23t-1,1.23a7.58,7.58,0,0,1-1,.93,4.72,4.72,0,0,1-.59.5h16.71l1.3-1.7a7,7,0,0,1,2.06,1.62.91.91,0,0,1,.27.5c0,.26-.47.69-1.42,1.28v21a35.67,35.67,0,0,0,.12,3.74c.05.75.08,1.35.08,1.81a1,1,0,0,1-.43.85,2.56,2.56,0,0,1-.83.23c-.56,0-.83-.16-.83-.5v-1.85H247.07v1.85c0,.34-.25.5-.75.5a2.56,2.56,0,0,1-.91-.23,1.13,1.13,0,0,1-.36-.85c0-.46,0-1.06.08-1.81a21.86,21.86,0,0,0,.2-3.74V272.38a10.31,10.31,0,0,0-.28-2.59l2.33,1.7h3.8a7.63,7.63,0,0,0,1.14-1.5c.37-.59.72-1.2,1.07-1.82a19.41,19.41,0,0,0,.75-2A5.06,5.06,0,0,0,254.34,265.17Zm-7.27,14.65h22.44v-7.29H247.07Zm0,8.33h22.44v-7.29H247.07Zm0,9.25h22.44v-8.17H247.07Z" transform="translate(-238.09 -148.34)"/><path class="cls-1" d="M241.06,316.79a21.51,21.51,0,0,0,4.43.35h23.7l1.3-1.74a7.49,7.49,0,0,1,2.06,1.66.91.91,0,0,1,.27.54c0,.23-.52.65-1.58,1.24V328c.61.41,1.16.8,1.66,1.16.19.08.28.17.28.27,0,.41-.12.62-.36.62H245.64v15.15a1.55,1.55,0,0,0,.56,1.19,9.44,9.44,0,0,0,4,1q3.68.22,9.36.23c3.48,0,6.29-.09,8.45-.27a21.46,21.46,0,0,0,3.36-.5,3.14,3.14,0,0,0,1.5-.85q.6-.58,1.51-7.44h.82l-.51,5.66c0,.77.13,1.21.32,1.31a1.38,1.38,0,0,0,.95.7.82.82,0,0,1,.47.81c0,.23-.17.45-.51.65a11.6,11.6,0,0,1-2.89.89c-1.58.23-3.41.4-5.49.5-2.5.16-5,.23-7.47.23-4.13,0-7.44-.1-9.91-.31A15,15,0,0,1,245,348a3,3,0,0,1-1.34-2.74V329.44c0-.59,0-1.3.12-2.12l2.72,1.69h23V318.18h-24a25.37,25.37,0,0,0-3.76.15Z" transform="translate(-238.09 -148.34)"/><path class="cls-1" d="M247.7,364.14a19,19,0,0,1,3.4,1.31c.18.13.27.26.27.38s-.18.42-.55.54a6,6,0,0,1-1.7.27c-.21.54-.43,1.07-.67,1.59l-.91,1.61a11.62,11.62,0,0,1-.91,1.28,5.19,5.19,0,0,1-.71.77h6.36l1.3-1.7a7,7,0,0,1,2.06,1.62.91.91,0,0,1,.28.5c0,.26-.48.68-1.43,1.27v16.35a35.67,35.67,0,0,0,.12,3.74c.06.75.08,1.34.08,1.78a1.08,1.08,0,0,1-.43.88,2.09,2.09,0,0,1-.83.23c-.56,0-.83-.15-.83-.46v-2.2h-9.29v2.35c0,.31-.27.47-.83.47a2.27,2.27,0,0,1-.83-.23,1.08,1.08,0,0,1-.39-.89c0-.44,0-1,.08-1.77a18,18,0,0,0,.24-3.74V372.77a9.27,9.27,0,0,0-.32-2.58l2.37,1.7h1.26a10.73,10.73,0,0,0,1-1.81c.34-.72.66-1.48,1-2.28s.5-1.57.71-2.39A9.16,9.16,0,0,0,247.7,364.14Zm-4.39,17.62h9.29v-8.83h-9.29Zm0,11.1h9.29V382.8h-9.29Zm17.5-29a27,27,0,0,1,3.4,1.35.65.65,0,0,1,.24.46c0,.23-.25.39-.75.46a8.26,8.26,0,0,1-1.3.16q-.6,2.26-1.35,4.32h12.6l1.27-1.24a9.23,9.23,0,0,1,1.89,1.24.93.93,0,0,1,.32.61c0,.39-.53.75-1.58,1.08q0,6.44-.59,13.73a50.94,50.94,0,0,1-1.54,9.87,5.94,5.94,0,0,1-1.19,2.27,6.23,6.23,0,0,1-4.11,1.62,2.72,2.72,0,0,0-.39-1.08,1.76,1.76,0,0,0-.67-.61,25,25,0,0,0-4-1.24l.15-1a36.26,36.26,0,0,0,5.69,1.54,2.85,2.85,0,0,0,1.51-.39,2.67,2.67,0,0,0,.9-1.23,10.72,10.72,0,0,0,.87-2.58,70.19,70.19,0,0,0,1-8.25q.44-5.87.47-13.27H260.7l0,.08a36.49,36.49,0,0,1-1.94,4.47,41.87,41.87,0,0,1-2.65,4.09l-.63-.46a42.19,42.19,0,0,0,2.17-4.28c.5-1.18,1-2.48,1.43-3.9s.84-2.75,1.18-4S260.66,365.26,260.81,363.87Zm.68,14.92a25.86,25.86,0,0,1,3,2.5,23.33,23.33,0,0,1,2.17,2,13.76,13.76,0,0,1,1.11,1.35c.16.36.3.69.43,1a2.25,2.25,0,0,1,.2.93c0,.8-.36,1.19-1,1.19a.64.64,0,0,1-.47-.19,10.85,10.85,0,0,1-1.15-2,17.15,17.15,0,0,0-1.93-3.09,26.46,26.46,0,0,0-2.93-3.2Z" transform="translate(-238.09 -148.34)"/><path class="cls-1" d="M257.5,413.49a15.13,15.13,0,0,1,3.75.85c.37.15.55.34.55.58s-.18.36-.55.46a5.81,5.81,0,0,1-1.7.46v13.57h12.37l1.89-2.2c1.06.75,2,1.48,3,2.2.23.13.35.27.35.43,0,.41-.22.61-.67.61H263.54V445a1.36,1.36,0,0,0,.32.93,1.66,1.66,0,0,0,1.06.5c.64.07,1.9.11,3.8.11,1.47,0,2.83-.05,4.07-.15a1.55,1.55,0,0,0,1.1-.43,2,2,0,0,0,.55-1.08,27.24,27.24,0,0,0,.79-5.12l.6.15v4.51a2,2,0,0,0,.23,1,1.86,1.86,0,0,0,.91.74.55.55,0,0,1,.32.54,1.17,1.17,0,0,1-.2.42,2.52,2.52,0,0,1-1.18.58,10.73,10.73,0,0,1-2.73.38c-1.37.11-2.58.16-3.63.16a39.94,39.94,0,0,1-4.27-.16,6.58,6.58,0,0,1-2.09-.3,2.13,2.13,0,0,1-1.23-.81,1.74,1.74,0,0,1-.32-.85V430.45h-7.3a35.91,35.91,0,0,1-.56,6.75,12.75,12.75,0,0,1-1.78,4.43,15.73,15.73,0,0,1-2.92,3.36,28.39,28.39,0,0,1-3.87,2.62,35.42,35.42,0,0,1-4.62,1.85l-.44-.62a36.26,36.26,0,0,0,4-1.85,15.39,15.39,0,0,0,5.42-4.47,10.87,10.87,0,0,0,1.73-2.89,17.77,17.77,0,0,0,.87-3.7,52.31,52.31,0,0,0,.28-5.48h-7.55a32.87,32.87,0,0,0-3.83.2l-.79-1.74a17,17,0,0,0,4.62.5h12.76v-12.8A23.71,23.71,0,0,0,257.5,413.49Zm-11.38,4.05a19.1,19.1,0,0,1,2.72,2.46,14.12,14.12,0,0,1,2.14,2.24,6.06,6.06,0,0,1,1.18,1.93,4.21,4.21,0,0,1,.28,1.54,2,2,0,0,1-.2,1,.83.83,0,0,1-.71.39,1,1,0,0,1-.71-.27,2.33,2.33,0,0,1-.55-1.31,10.23,10.23,0,0,0-1-2.58,14.63,14.63,0,0,0-1.46-2.43,15.61,15.61,0,0,0-2.14-2.47Zm23.9-.93a17.66,17.66,0,0,1,3.36,1.27q.27.24.27.39c0,.23-.18.41-.55.54a7.06,7.06,0,0,1-1.7.23,22.63,22.63,0,0,1-1.38,2.35c-.55.8-1.15,1.58-1.78,2.35a13.88,13.88,0,0,1-1.82,1.85,12.88,12.88,0,0,1-2.29,1.82l-.59-.5a13.77,13.77,0,0,0,2.33-2.39,25.08,25.08,0,0,0,3.72-6.25A6.74,6.74,0,0,0,270,416.61Z" transform="translate(-238.09 -148.34)"/><path class="cls-1" d="M240.15,466.54a16.61,16.61,0,0,0,4.59.5h5.65l-.6-4.47a26,26,0,0,1,3,.42c.29.08.44.18.44.31s-.17.32-.51.5a4.66,4.66,0,0,1-.91.47l.35,2.77h2l1.58-1.54c.81.54,1.58,1.08,2.29,1.62a.45.45,0,0,1,.28.38c0,.39-.18.58-.52.58h-5.49l.44,3.74a.49.49,0,0,1-.4.5,1.57,1.57,0,0,1-.83.24q-.43,0-.51-.27l-.52-4.21h-5.76c-1.87,0-3.15.08-3.84.16ZM255.76,472a16.49,16.49,0,0,1,2.41,1.5,13.43,13.43,0,0,1,1.85,1.31,4.71,4.71,0,0,1,1,1.16,1.81,1.81,0,0,1,.28,1,2.36,2.36,0,0,1-.24,1.16.77.77,0,0,1-.16.19h9.6l2.18-2.43c1.1.83,2.14,1.62,3.12,2.39a.68.68,0,0,1,.35.54.51.51,0,0,1-.59.58H247v12.84a3.62,3.62,0,0,0,.31,2,2.44,2.44,0,0,0,1.51.73,47,47,0,0,0,4.85.46c2.53.16,5.23.23,8.1.23q2.92,0,6.8-.19a27.33,27.33,0,0,0,3.67-.39,8,8,0,0,1,1.31-.19,2.07,2.07,0,0,1,1.18.31,1,1,0,0,1,.55.89.5.5,0,0,1-.23.46,5.59,5.59,0,0,1-1.35.31c-1.13.13-2.85.23-5.17.31q-4,.15-6.32.15-4.55,0-9.09-.31a28,28,0,0,1-5.65-.61,3.75,3.75,0,0,1-1.46-.7,2.32,2.32,0,0,1-.79-1.15,16.1,16.1,0,0,1-.12-2.43V479.34c-1.37.05-2.33.1-2.88.16l-.75-1.7a17.79,17.79,0,0,0,4.54.46h13.51a2.06,2.06,0,0,1-.35-.73,7.13,7.13,0,0,0-.83-1.77A15.44,15.44,0,0,0,257,474.1a11.71,11.71,0,0,0-1.85-1.66Zm9.52-9.41a10.19,10.19,0,0,1,3.08.69.41.41,0,0,1,.24.39c0,.21-.21.37-.63.5s-.77.18-1.11.23c-.11.95-.22,1.84-.36,2.66h6l1.9-2c.94.69,1.84,1.37,2.68,2a.57.57,0,0,1,.32.46c0,.39-.15.58-.44.58h-10.7c-.16,1.19-.4,2.43-.71,3.74-.08.41-.45.62-1.11.62-.5,0-.75-.15-.75-.46l0-.54a6.46,6.46,0,0,0,.35-1.31c.14-.72.27-1.4.4-2.05-1.61,0-2.73.08-3.36.16l-.75-1.7a16.58,16.58,0,0,0,4.27.5Q265.12,464.42,265.28,462.57Z" transform="translate(-238.09 -148.34)"/><path d="M320,418.23,305.85,403h28.3ZM308.15,404,320,416.77,331.85,404Z" transform="translate(-238.09 -148.34)"/><path d="M333.93,404H306.07l4.66-7h18.54Zm-26-1h24.14l-3.34-5H311.27Z" transform="translate(-238.09 -148.34)"/><polygon points="81.45 269.35 75.7 255.35 72.47 249.4 73.35 248.92 76.6 254.92 82.38 268.97 81.45 269.35"/><polygon points="87.89 255.96 81.2 249.87 76.29 255.49 75.54 254.83 81.12 248.44 87.61 254.35 90.47 248.92 91.36 249.39 87.89 255.96"/><rect x="315.38" y="410" width="15.23" height="1" transform="translate(-419.72 397.01) rotate(-66.76)"/></svg>