<svg id="圖層_1" data-name="圖層 1" xmlns="http://www.w3.org/2000/svg" viewBox="0 0 96.85 366.11"><defs><style>.cls-1{stroke:#000;stroke-miterlimit:10;stroke-width:2px;}</style></defs><title>好日子</title><path class="cls-1" d="M273.9,186.08a19.11,19.11,0,0,1,3.24.74.4.4,0,0,1,.32.39c0,.21-.23.38-.69.49a9.88,9.88,0,0,1-1,.15,28.35,28.35,0,0,0,3.49,3.81,45.82,45.82,0,0,0,4.82,3.7,52,52,0,0,0,5.43,2.93,29.64,29.64,0,0,0,5,1.59v.56c-1.38,0-2.29.33-2.72,1a24.5,24.5,0,0,1-4.9-2.36,23.77,23.77,0,0,1-4.22-3.15,41.44,41.44,0,0,1-3.93-3.42,33.59,33.59,0,0,1-3.69-4.34,26.51,26.51,0,0,1-2.11,3,47.11,47.11,0,0,1-3.48,3.42q-2.19,1.77-4,3a38.37,38.37,0,0,1-4.17,2.51,35.45,35.45,0,0,1-5,2.43l-.6-.74a37.89,37.89,0,0,0,5.67-2.82q2.31-1.49,4.62-3.21c1.51-1.25,2.84-2.43,4-3.56a19.67,19.67,0,0,0,2.52-3.11A11.85,11.85,0,0,0,273.9,186.08Zm-13.62,19a24.61,24.61,0,0,0,4.54.32h19.45l1.46-1.42a20.46,20.46,0,0,1,3,2.12.29.29,0,0,1,.16.25c0,.21-.32.36-1,.46l-1.46.28a64.17,64.17,0,0,1-5,6.21,55.29,55.29,0,0,1-6,6.17l-.6-.39a41.69,41.69,0,0,0,6.08-6.66,26.55,26.55,0,0,0,3.6-6.07H264.82a29,29,0,0,0-3.85.14Zm5-6.74a22.84,22.84,0,0,0,4.7.39h8.76l1.95-1.94c1,.66,2,1.3,2.91,1.94a.52.52,0,0,1,.33.46c0,.37-.21.56-.61.56H270c-1.89,0-3.17.06-3.85.11Z" transform="translate(-198.64 -184.97)"/><path class="cls-1" d="M259.34,233.92a20.33,20.33,0,0,0,4.71.43H284.8l2.11-2.16c1.1.71,2.16,1.42,3.16,2.12.27.12.4.26.4.42,0,.4-.21.6-.65.6H276a49.24,49.24,0,0,1-.48,6.74,21.88,21.88,0,0,1-.33,2.3h13l2.11-2.16c1.08.73,2.09,1.44,3,2.12.24.12.37.27.37.46,0,.35-.23.53-.69.53H276.25a35.22,35.22,0,0,0,2.51,5.19,30.31,30.31,0,0,0,3,4,25.67,25.67,0,0,0,3.89,3.35,18.19,18.19,0,0,0,4.62,2.58,15.28,15.28,0,0,0,4.18,1.41v.42c-1.71,0-2.73.47-3.08,1.41a19.14,19.14,0,0,1-5-2.89,21.49,21.49,0,0,1-4.66-3.95,23.3,23.3,0,0,1-3.85-5.15,32.82,32.82,0,0,1-2.88-6.25,16.12,16.12,0,0,1-.81,2.62,19.78,19.78,0,0,1-2.43,5.29,28.63,28.63,0,0,1-3.49,4.34,25.77,25.77,0,0,1-5.31,3.7,32.41,32.41,0,0,1-6.4,2.75l-.49-.74a33.14,33.14,0,0,0,8.11-4,25,25,0,0,0,4.5-4.23,19,19,0,0,0,3.12-5.4,19.7,19.7,0,0,0,1.42-4.41H261.13c-1.92,0-3.22.07-3.89.14l-.85-1.55a20,20,0,0,0,4.74.46h12.24c.05-.24.09-.46.12-.67a66.21,66.21,0,0,0,.41-8.37h-9.85c-1.92,0-3.23.07-3.94.15Z" transform="translate(-198.64 -184.97)"/><path class="cls-1" d="M255.29,292.31a18.78,18.78,0,0,0,4.66.46h29.19l1.94-2c1.08.68,2.09,1.35,3,2,.24.12.37.26.37.42,0,.36-.21.53-.61.53h-18.2v5.65h9.44l1.95-1.94c1,.66,2,1.3,2.88,1.94q.36.18.36.42,0,.6-.69.6H275.68V307l1.62.14a57.57,57.57,0,0,0,6.28.28q2.76,0,5.52-.21c1.94-.16,3.74-.36,5.39-.6v.67c-1.19.21-1.9.73-2.11,1.55q-3.45.15-6.69.15a67.61,67.61,0,0,1-8.63-.39,22.65,22.65,0,0,1-4.75-.81,16.6,16.6,0,0,1-3.2-1.52,12.91,12.91,0,0,1-2.88-2.61,10.79,10.79,0,0,1-1.7-2.37,12.38,12.38,0,0,1-.85,1.66,18.76,18.76,0,0,1-1.54,2.37,13.79,13.79,0,0,1-1.74,1.76,10.74,10.74,0,0,1-2,1.55,15.09,15.09,0,0,1-2.47,1.48l-.65-.52a16.88,16.88,0,0,0,2.72-2,11.49,11.49,0,0,0,2-1.87,17,17,0,0,0,1.3-1.76c.38-.64.77-1.36,1.18-2.16a18.1,18.1,0,0,0,1-2.43c.3-.87.51-1.59.65-2.15a6.24,6.24,0,0,0,.24-1.63,17.24,17.24,0,0,1,2.68.78c.37.12.56.27.56.46s-.13.35-.4.42-.81.23-1.22.32c-.32.89-.62,1.74-.89,2.54v0a18.75,18.75,0,0,0,2.35,3.38,10.84,10.84,0,0,0,2.76,1.91,14.29,14.29,0,0,0,2.92,1.13c.21,0,.41.08.6.1V293.72H260c-1.89,0-3.19.07-3.89.15Zm6.77-15.24,2.47,1.55h19l1.3-1.55a10,10,0,0,1,2.11,1.52.67.67,0,0,1,.28.49c0,.21-.49.58-1.46,1.1v4.37a30.44,30.44,0,0,0,.12,3.46c0,.68,0,1.23,0,1.66a.88.88,0,0,1-.4.77,2.81,2.81,0,0,1-.85.18c-.57,0-.85-.14-.85-.42v-1H264.21v1.27c0,.28-.29.42-.85.42a2.75,2.75,0,0,1-.85-.18.93.93,0,0,1-.45-.77,14.92,14.92,0,0,1,.12-1.66,15.1,15.1,0,0,0,.25-3.46v-5.32A7.58,7.58,0,0,0,262.06,277.07Zm2.15,6.39h19.58v-3.81H264.21Zm0,4.8h19.58v-3.85H264.21Z" transform="translate(-198.64 -184.97)"/><path class="cls-1" d="M263.68,321.56a29.94,29.94,0,0,1,3.49,1.24.57.57,0,0,1,.28.45q0,.28-.81.39a8.5,8.5,0,0,1-1.34.14,60.63,60.63,0,0,1-2.55,6.18c-.27.54-.53,1-.77,1.44,1,.45,1.54.78,1.54,1s-.42.53-1.26.88V351.2a5.15,5.15,0,0,0,.21,1.69,3.59,3.59,0,0,1,.12.81c0,.73-.49,1.12-1.46,1.17-.57,0-.85-.19-.85-.57v-20c-.17.28-.33.54-.49.78a46.59,46.59,0,0,1-3.85,4.58l-.65-.42a46.46,46.46,0,0,0,3.41-4.73q1.1-1.91,2.18-4.23t1.83-4.41A31.57,31.57,0,0,0,263.68,321.56Zm4.7,1.13,2.48,1.55h19l1.26-1.55a7.08,7.08,0,0,1,2.11,1.48c.24.19.36.35.36.5s-.48.58-1.46,1.12v22.44c0,1.74,0,2.88.09,3.43s.08,1.23.08,1.65a.93.93,0,0,1-.45.78,2.81,2.81,0,0,1-.89.21c-.51,0-.77-.15-.77-.46v-1.41H270.49v1.41c0,.31-.26.46-.77.46a2.84,2.84,0,0,1-.93-.21,1,1,0,0,1-.41-.78,14.77,14.77,0,0,1,.12-1.65,17.35,17.35,0,0,0,.21-3.43V325.05A7.51,7.51,0,0,0,268.38,322.69Zm2.11,28.79h19.66V325.2H270.49Zm1.3-20.08a19.49,19.49,0,0,0,4.74.46h2.72v-2.43a17.64,17.64,0,0,0-.17-2.82,24.61,24.61,0,0,1,3,.6c.27.11.41.25.41.42s-.1.21-.29.28a3.79,3.79,0,0,1-1,.39v3.56h3.57l1.62-1.41c.81.5,1.58,1,2.31,1.48a.42.42,0,0,1,.24.36c0,.35-.15.53-.44.53h-7.3v5.78h2.56l1.17-1.13c1.41.76,2.11,1.27,2.11,1.55s-.39.59-1.18,1v5.47c.38.24.69.45.94.64s.24.15.24.24q0,.6-.33.6H276.37v.67c0,.22-.18.39-.53.53a3.13,3.13,0,0,1-.93.21c-.33,0-.49-.15-.49-.45V337.47l2.39,1.13h2.44v-5.78h-2.72c-1.92,0-3.22.07-3.89.14Zm4.58,14.54H284v-6.32h-7.58Z" transform="translate(-198.64 -184.97)"/><path class="cls-1" d="M229.63,203.76c-2.76.33-5.68.62-8.76.85v3.81h12.69l1.95-2c1,.68,2,1.35,2.87,2,.25.12.37.26.37.42,0,.36-.23.53-.69.53H220.87v3h10.38l1.3-1.56a8.54,8.54,0,0,1,2.14,1.52.67.67,0,0,1,.33.5c0,.21-.49.57-1.46,1.09v4c0,1.74,0,2.88.08,3.42s.08,1.22.08,1.62a.92.92,0,0,1-.44.81,3.2,3.2,0,0,1-.9.18c-.51,0-.77-.13-.77-.39v-.28H220.87v4.06h10.06l1.78-1.7,2.75,1.73c.25.12.37.26.37.42,0,.38-.16.57-.49.57H220.87v3.77h13.18l1.9-2c1.06.68,2,1.34,2.92,2,.24.15.36.3.36.46,0,.36-.21.53-.64.53H205.84c-1.92,0-3.23.07-3.94.14l-.77-1.55a21,21,0,0,0,4.71.42h13.09v-3.77H208.71c-1.89,0-3.19.06-3.89.1l-.77-1.51a22.22,22.22,0,0,0,4.66.39h10.22v-4.06h-10.7v.42c0,.26-.26.39-.77.39a3.24,3.24,0,0,1-.94-.18,1,1,0,0,1-.36-.81c0-.4,0-.94.08-1.62a17.72,17.72,0,0,0,.2-3.46v-4.76a9.46,9.46,0,0,0-.28-2.44l2.39,1.56h10.38v-3H206.32c-1.92,0-3.21.07-3.89.14l-.85-1.55a19.49,19.49,0,0,0,4.74.46h12.61v-3.67l-2.15.14q-5,.39-10.94.57l-.37-.74q8.47-.5,15.85-1.59a34.37,34.37,0,0,0,7.21-1.66,28.54,28.54,0,0,1,3.25,1.73c.21.12.32.26.32.42s-.16.38-.49.43a3.72,3.72,0,0,1-.81-.15A3.87,3.87,0,0,0,229.63,203.76Zm-21.4,13.41h10.7v-3.81h-10.7Zm0,5.08h10.7v-4.13h-10.7Zm12.64-8.89v3.81h10.74v-3.81Zm0,4.76v4.13h10.74v-4.13Z" transform="translate(-198.64 -184.97)"/><path class="cls-1" d="M205.47,268.08a27.92,27.92,0,0,1,2.84,1.34.41.41,0,0,1,.24.35c0,.17-.13.29-.4.36a6.58,6.58,0,0,1-1.22.24c-.32.57-.66,1.13-1,1.7a13.84,13.84,0,0,1-1.3,1.66,15.6,15.6,0,0,1-1.46,1.51,16.31,16.31,0,0,1-1.74,1.45l-.45-.39c.65-.8,1.22-1.54,1.7-2.22A22.81,22.81,0,0,0,204,272a17.11,17.11,0,0,0,1-2.12A8,8,0,0,0,205.47,268.08Zm3.08-21.45a7.37,7.37,0,0,1,1.38,1.06,6.15,6.15,0,0,1,1.13.92,2.24,2.24,0,0,1,.57.81,1.17,1.17,0,0,1,.16.6,2.33,2.33,0,0,1-.2,1.09.76.76,0,0,1-.36.32h4.82l1.78-1.7c.9.62,1.75,1.19,2.56,1.73.21.12.32.26.32.43,0,.37-.15.56-.44.56h-4.14c.84.28,1.6.57,2.27.85a.59.59,0,0,1,.2.42c0,.19-.21.32-.64.39a7.69,7.69,0,0,1-1.14.14,16.16,16.16,0,0,1-1,2.22,14.51,14.51,0,0,1-1.22,1.8c-.38.43-.77.84-1.18,1.24h2.68l1.78-1.56c.84.55,1.65,1.09,2.44,1.63.18.09.28.21.28.35,0,.35-.15.53-.45.53h-8.31v4.8h4.91l1.78-1.55q1.31.84,2.43,1.65.33.15.33.36a.47.47,0,0,1-.53.53h-8.92v9.91a4.1,4.1,0,0,0,.09,1.06,9.22,9.22,0,0,1,.08,1c0,.78-.44,1.17-1.3,1.17q-.93,0-.93-.6c0-.5,0-1.13.08-1.91s.08-1.54.08-2.15v-8.5h-4c-1.92,0-3.23.07-3.94.14l-.77-1.55a21,21,0,0,0,4.71.42h4v-4.8h-3.28c-1.9,0-3.18.07-3.85.14l-.86-1.55a19.85,19.85,0,0,0,4.71.46h.93a3.51,3.51,0,0,1-.29-1,10.73,10.73,0,0,0-.52-2.08,16.92,16.92,0,0,0-.77-1.91c-.3-.58-.68-1.24-1.14-2l.12-.07c-.86,0-1.5,0-1.9.07l-.77-1.56a20,20,0,0,0,4.66.43h3.41c-.11-.07-.19-.27-.25-.6a6.1,6.1,0,0,0-.48-1.34,9.22,9.22,0,0,0-.69-1.2,14.42,14.42,0,0,0-1-1.24Zm0,12.88h3.81a15.19,15.19,0,0,0,1.1-1.87c.27-.54.54-1.16.81-1.84s.44-1.24.6-1.83.21-1,.29-1.52h-9.41a10.53,10.53,0,0,1,1.18,1.59,11.13,11.13,0,0,1,1.18,1.69,7.36,7.36,0,0,1,.6,1.45,4.24,4.24,0,0,1,.17,1.2,2.07,2.07,0,0,1-.21,1A1,1,0,0,1,208.55,259.51Zm5.51,9.17a19.72,19.72,0,0,1,2.19,1.69,18.51,18.51,0,0,1,1.5,1.38,5.39,5.39,0,0,1,.77.92c.11.26.21.5.29.74a1.53,1.53,0,0,1,.12.6c0,.75-.34,1.13-.93,1.13a.57.57,0,0,1-.37-.14,6.48,6.48,0,0,1-.77-1.42,11.22,11.22,0,0,0-1.3-2.18,17,17,0,0,0-2-2.33Zm21.45-19.62c-1,.38-2.09.72-3.17,1a35.07,35.07,0,0,1-3.93.84c-.94.12-2.08.23-3.4.32l0,.18v8.08h9.36l1.95-1.87c1,.63,1.89,1.26,2.75,1.87q.33.18.33.42c0,.35-.15.53-.45.53H233.2v15.42a3.11,3.11,0,0,0,.12,1.06,9.33,9.33,0,0,1,.08,1.05c0,.76-.43,1.13-1.3,1.13-.68,0-1-.2-1-.6s0-1.12.08-1.9.08-1.54.08-2.15v-14H225a35.37,35.37,0,0,1-.41,4.87,23.76,23.76,0,0,1-.85,4.8,15.57,15.57,0,0,1-1.46,3.63,13,13,0,0,1-2,2.89,15.09,15.09,0,0,1-3.09,2.47l-.44-.31a12.11,12.11,0,0,0,2.23-2.3,13.84,13.84,0,0,0,1.58-2.43,14.47,14.47,0,0,0,1.25-3.28,30.67,30.67,0,0,0,.82-4.45,46.88,46.88,0,0,0,.44-6.7q0-6.57-.2-10.44l2.31,1.27c.57-.08,1.13-.17,1.7-.29a22.53,22.53,0,0,0,2.72-.7,23,23,0,0,0,2.47-.88,7.81,7.81,0,0,0,1.66-.89,5.35,5.35,0,0,0,1-.81c1,.54,1.84,1.06,2.6,1.55a.41.41,0,0,1,.2.32c0,.28-.16.43-.49.43A8.48,8.48,0,0,1,235.51,249.06Z" transform="translate(-198.64 -184.97)"/><path class="cls-1" d="M202.59,291.79l2.39,1.55h9.77l1.1-1.13c1.43.76,2.15,1.27,2.15,1.56s-.4.58-1.18,1v7.62c0,.45-.43.74-1.3.89-.4,0-.61-.1-.61-.29v-.74H204.7v22c0,.29-.27.43-.81.43a2.65,2.65,0,0,1-.93-.22,1,1,0,0,1-.37-.81c0-.4,0-.94.08-1.62a14.28,14.28,0,0,0,.25-3.42V294.22A8.16,8.16,0,0,0,202.59,291.79Zm2.11,5.54h10.21v-3H204.7Zm0,3.91h10.21v-3H204.7Zm3.53,4.66a19.49,19.49,0,0,0,4.74.46h14.1l1.79-1.55q1.29.81,2.43,1.62c.22.09.32.2.32.32,0,.38-.17.56-.52.56H224.8v5.51H228l1.82-1.56,2.43,1.63c.19.12.29.23.29.35q0,.6-.45.6h-7.3v6.21a4.1,4.1,0,0,0,.09,1.06,9.22,9.22,0,0,1,.08,1c0,.75-.44,1.13-1.3,1.13-.68,0-1-.18-1-.53,0-.52,0-1.16.08-1.94s.08-1.54.08-2.15v-4.8h-6.49a10.07,10.07,0,0,1-.32,1.94,7.46,7.46,0,0,1-1.22,2.54,8.42,8.42,0,0,1-2.06,2.26,19.85,19.85,0,0,1-3.85,2.29l-.65-.74a17.43,17.43,0,0,0,3.2-2,13.84,13.84,0,0,0,1.58-1.76,8.39,8.39,0,0,0,1-2.12,8.29,8.29,0,0,0,.37-2.4h-2.27c-1.89,0-3.19.07-3.89.14l-.77-1.55a22.15,22.15,0,0,0,4.66.39h2.31v-5.51H213c-1.92,0-3.22.09-3.89.18Zm14.59,6.92v-5.51h-6.45v5.51Zm-.65-20.61,2.47,1.13h10.18l1.29-1.55a9.39,9.39,0,0,1,2.15,1.52c.22.16.33.31.33.46s-.54.61-1.63,1.12v26.57a2.44,2.44,0,0,1-.6,1.8,3.88,3.88,0,0,1-1.42.92,3.31,3.31,0,0,1-1.38.39,1.51,1.51,0,0,0-.41-1.2,3.27,3.27,0,0,0-1.37-.74,9.56,9.56,0,0,0-2.48-.5v-.81a23.09,23.09,0,0,0,4.58.53,1.69,1.69,0,0,0,1-.18c.21-.12.32-.43.32-.95V302.23H224.12v.29c0,.21-.15.38-.45.52a3,3,0,0,1-1,.22c-.33,0-.49-.16-.49-.46Zm2,5.12h11.06v-3H224.12Zm0,3.91h11.06v-3H224.12Z" transform="translate(-198.64 -184.97)"/><path class="cls-1" d="M208.55,337c1.43.47,2.69.92,3.77,1.34a.66.66,0,0,1,.33.49c0,.29-.27.47-.82.57a7.19,7.19,0,0,1-1.33.17q-.81,3.71-1.87,7.2c-.08.24-.15.45-.2.64.54,0,1.07,0,1.58,0,1.32-.05,2.58-.1,3.77-.18a20.2,20.2,0,0,0,.12-2.15v-1.37a25.54,25.54,0,0,1,3.28.63c.3.07.45.23.45.46s-.22.37-.65.6a6.63,6.63,0,0,1-1.13.42c0,.45-.07.89-.12,1.31,1-.05,1.89-.11,2.75-.18v.53c-1,.17-1.93.32-2.88.46a34,34,0,0,1-1,5.19,32,32,0,0,1-3,6.91c-.11.21-.22.4-.32.57a14.43,14.43,0,0,1,1.54,1.09,16.05,16.05,0,0,1,2.23,2,2.75,2.75,0,0,1,.64,1.1,3.26,3.26,0,0,1,.21,1.16.67.67,0,0,1-.77.74c-.22,0-.57-.32-1.06-.95a17.71,17.71,0,0,0-2.71-2.79,13.74,13.74,0,0,0-1.1-.92,24.28,24.28,0,0,1-2.59,3.25,29.7,29.7,0,0,1-5.88,4.52l-.61-.89a25.73,25.73,0,0,0,5.76-4.94,22.57,22.57,0,0,0,2.19-2.89c-.62-.42-1.23-.81-1.83-1.16a17.19,17.19,0,0,0-4.49-2.12l.2-.25c.89-1.93,1.63-3.72,2.23-5.4.32-1,.65-2,1-3l-2.8.28c-.43.84-.74,1.27-.93,1.27s-.2-.08-.36-.25a22.12,22.12,0,0,1-1.58-2.86q3.07,0,6.12-.1a2.13,2.13,0,0,1,.08-.32c.48-1.83.89-3.56,1.21-5.19S208.39,338.78,208.55,337Zm1.3,22.79q.28-.53.57-1a36.17,36.17,0,0,0,2.67-7.2c.27-1.18.47-2.3.61-3.39-.76.12-1.53.23-2.31.32l-3.45.42c-.46,1.37-.93,2.63-1.42,3.78a46,46,0,0,1-2.39,4.59,18.65,18.65,0,0,1,4.5,1.94A10.9,10.9,0,0,1,209.85,359.74Zm16.05-23a34.45,34.45,0,0,1,3.77,1.31c.21.19.32.35.32.49s-.27.46-.81.53a6.42,6.42,0,0,1-1.33.21,39.43,39.43,0,0,1-2.68,4.27,25.53,25.53,0,0,1-3.12,3.53,34,34,0,0,1-3.16,2.57c1.7-.09,3.25-.19,4.66-.31,1.81-.12,3.79-.28,6-.5,1.83-.18,3.91-.41,6.24-.67-.24-.4-.49-.76-.73-1.09a30.86,30.86,0,0,0-3.08-3.42l.44-.46a26.31,26.31,0,0,1,3.29,2.68,24.12,24.12,0,0,1,2.19,2.12,17.77,17.77,0,0,1,1.21,1.44,9.88,9.88,0,0,1,.45,1.1,3,3,0,0,1,.16,1c0,.75-.34,1.13-.93,1.13a.68.68,0,0,1-.57-.25,10.58,10.58,0,0,1-1.13-2.08c-.27-.52-.52-1-.73-1.34-2.09.38-3.94.69-5.56.95q-3,.46-5.59.81c-1.68.22-3.42.43-5.23.64-.38.94-.66,1.41-.85,1.41s-1-1-2.11-3.1h.33a37.47,37.47,0,0,0,3.4-3.39,32.74,32.74,0,0,0,2.31-3.18c.7-1.15,1.33-2.24,1.87-3.28A15.6,15.6,0,0,0,225.9,336.7Zm-7.13,16.9,2.47,1.55H235l1.09-1.13c1.41.76,2.11,1.27,2.11,1.56s-.36.59-1.09,1V366a8.86,8.86,0,0,0,.89.63.38.38,0,0,1,.2.28c0,.36-.11.53-.32.53h-17v1.7c0,.3-.25.45-.77.45a2.84,2.84,0,0,1-.93-.21,1,1,0,0,1-.4-.81,14.64,14.64,0,0,1,.12-1.62,18.29,18.29,0,0,0,.2-3.42V356A8.59,8.59,0,0,0,218.77,353.6Zm2.1,12.88h14.31v-10.3H220.87Z" transform="translate(-198.64 -184.97)"/><path class="cls-1" d="M208.88,382.11a20.81,20.81,0,0,1,3.48,1.2c.19.12.29.23.29.35s-.19.38-.57.49a6.58,6.58,0,0,1-1.74.25c-.22.5-.45,1-.69,1.45l-.94,1.48a9.84,9.84,0,0,1-.93,1.16,4.9,4.9,0,0,1-.73.71h6.53l1.33-1.55a7,7,0,0,1,2.11,1.48c.19.19.29.34.29.46s-.49.62-1.46,1.16v15a29.82,29.82,0,0,0,.12,3.42c.05.69.08,1.23.08,1.63a1,1,0,0,1-.45.81,2.41,2.41,0,0,1-.85.21c-.56,0-.85-.14-.85-.42v-2h-9.52v2.15c0,.28-.29.42-.85.42a2.51,2.51,0,0,1-.86-.21.93.93,0,0,1-.4-.81c0-.4,0-.94.08-1.62a15.22,15.22,0,0,0,.24-3.43V390a7.48,7.48,0,0,0-.32-2.36l2.43,1.55H206a10,10,0,0,0,1-1.66,20.92,20.92,0,0,0,1-2.08c.27-.7.52-1.43.73-2.19A7.68,7.68,0,0,0,208.88,382.11Zm-4.5,16.12h9.52v-8.08h-9.52Zm0,10.16h9.52v-9.21h-9.52Zm18-26.53a29.29,29.29,0,0,1,3.49,1.24.58.58,0,0,1,.24.42c0,.21-.26.35-.77.42a9.22,9.22,0,0,1-1.34.14,39.11,39.11,0,0,1-1.37,4h12.93l1.29-1.13a9.47,9.47,0,0,1,1.95,1.13.89.89,0,0,1,.32.56q0,.52-1.62,1,0,5.9-.61,12.56a41.44,41.44,0,0,1-1.58,9,5.31,5.31,0,0,1-1.21,2.08,5.73,5.73,0,0,1-1.38.85,6.27,6.27,0,0,1-2.84.63,2.28,2.28,0,0,0-.4-1,1.73,1.73,0,0,0-.69-.57,29.27,29.27,0,0,0-4.1-1.13l.16-.88a41.29,41.29,0,0,0,5.84,1.41,3.21,3.21,0,0,0,1.54-.35,2.54,2.54,0,0,0,.93-1.13,9.23,9.23,0,0,0,.9-2.36,60.09,60.09,0,0,0,1-7.55q.45-5.37.49-12.14h-13.3l0,.07a30.59,30.59,0,0,1-2,4.09,37.37,37.37,0,0,1-2.71,3.74l-.65-.42a39.15,39.15,0,0,0,2.23-3.92c.51-1.08,1-2.27,1.46-3.56s.86-2.52,1.21-3.67A35.32,35.32,0,0,0,222.33,381.86Zm.69,13.66a24.75,24.75,0,0,1,3.12,2.29,20.36,20.36,0,0,1,2.23,1.8,11.63,11.63,0,0,1,1.14,1.23l.44.92a1.76,1.76,0,0,1,.21.85c0,.73-.37,1.09-1,1.09a.68.68,0,0,1-.48-.18,9.29,9.29,0,0,1-1.18-1.83,14.73,14.73,0,0,0-2-2.82,25.62,25.62,0,0,0-3-2.93Z" transform="translate(-198.64 -184.97)"/><path class="cls-1" d="M208.23,427.27c1.46.47,2.71.92,3.77,1.34a.67.67,0,0,1,.28.49c0,.28-.26.47-.77.57a7.8,7.8,0,0,1-1.34.17c-.46,2.31-1,4.54-1.62,6.71-.08.28-.15.53-.2.74.57,0,1.12,0,1.66,0l3.77-.21c.08-.8.12-1.56.12-2.29a4.5,4.5,0,0,0-.16-1.27,20.6,20.6,0,0,1,3.12.6q.45.1.45.42c0,.14-.22.32-.65.53a9.67,9.67,0,0,1-1.14.46c0,.49-.06,1-.12,1.48l2.92-.25v.6c-1,.17-2,.32-3,.46a35.7,35.7,0,0,1-1,5.12,34.12,34.12,0,0,1-2.64,6.6,11.44,11.44,0,0,1,2,1.44,14.89,14.89,0,0,1,2.27,2,2.78,2.78,0,0,1,.77,1.17,4.5,4.5,0,0,1,.16,1.27c0,.44-.26.67-.77.67-.22,0-.57-.31-1.05-.92a18.77,18.77,0,0,0-2.84-3,15.71,15.71,0,0,0-1.34-1.24,29.66,29.66,0,0,1-3.24,4.38,27.38,27.38,0,0,1-5.68,4.58l-.64-.74a25.88,25.88,0,0,0,5.71-5,23.59,23.59,0,0,0,2.8-4A19.45,19.45,0,0,0,208,449a17.62,17.62,0,0,0-4.66-2.26l.08-.07-.08,0a52.49,52.49,0,0,0,2-5.15c.27-.8.51-1.63.73-2.47l-2.55.24c-.44.87-.75,1.31-.94,1.31s-.19-.08-.32-.25a16.19,16.19,0,0,1-1.62-2.86c1.94,0,3.89,0,5.83-.1a3.9,3.9,0,0,0,.13-.57q.6-2.57,1-4.83C207.9,430.55,208.09,429,208.23,427.27Zm2.23,21.52v0a35.65,35.65,0,0,0,2.63-7.3c.27-1.2.47-2.35.61-3.46-.78.12-1.55.23-2.31.32-1.16.19-2.34.35-3.53.5-.4,1.17-.81,2.25-1.21,3.24a40.24,40.24,0,0,1-2,4.2,19.64,19.64,0,0,1,4.82,2.05Zm5.75-19.09a27,27,0,0,0,4.5.29h13.34l1.62-1.31a20.9,20.9,0,0,1,2.39,2.12.8.8,0,0,1,.16.46c0,.14-.23.24-.69.31-.86.05-1.39.07-1.58.07a36.83,36.83,0,0,1-4.58,3.36,24.17,24.17,0,0,1-2.8,1.83l.37.18a.52.52,0,0,1,.36.45q0,.26-.48.39c-.46.14-.89.29-1.3.43v5h7l1.95-2c1.08.68,2.09,1.35,3,2q.36.18.36.42c0,.36-.2.53-.61.53H227.52v12.74a2.26,2.26,0,0,1-.69,1.8,4.51,4.51,0,0,1-1.66.92,4.79,4.79,0,0,1-1.66.38l-.08-.49a1.05,1.05,0,0,0-.37-.7,4.22,4.22,0,0,0-1.58-.75,13.07,13.07,0,0,0-2.88-.49v-.81a23.09,23.09,0,0,0,4.58.53,5.43,5.43,0,0,0,1.91-.21c.32-.15.49-.5.49-1.06V444.2H220.1c-1.92,0-3.21.07-3.89.14l-.85-1.55a19.49,19.49,0,0,0,4.74.46h5.48v-3.7a25.12,25.12,0,0,0-.29-3.78c1,.26,1.85.52,2.56.78,1.05-.83,2-1.57,2.79-2.23a33.89,33.89,0,0,0,3.24-3.35H220.71a30.24,30.24,0,0,0-3.89.14Z" transform="translate(-198.64 -184.97)"/><path class="cls-1" d="M207.46,473.59l2.43,1.56h20.43l1.29-1.56a8,8,0,0,1,2.11,1.48c.22.17.33.32.33.46s-.5.63-1.5,1.17v21a29.91,29.91,0,0,0,.12,3.43c0,.68,0,1.22,0,1.62a.94.94,0,0,1-.41.81,2.5,2.5,0,0,1-.89.21c-.51,0-.77-.14-.77-.42v-2.29H209.56v2.29c0,.28-.28.42-.85.42a2.46,2.46,0,0,1-.85-.21.93.93,0,0,1-.4-.81c0-.4,0-.94.08-1.62a15.1,15.1,0,0,0,.24-3.43V476A8,8,0,0,0,207.46,473.59Zm2.1,13.69h21.08V476.13H209.56Zm0,12.81h21.08V488.27H209.56Z" transform="translate(-198.64 -184.97)"/><path class="cls-1" d="M205.47,519.14a27.43,27.43,0,0,0,4.54.28h20.31l1.62-1.27a20,20,0,0,1,2.39,2.15.56.56,0,0,1,.16.39q0,.21-.69.36l-1.54.07a69.93,69.93,0,0,1-6.48,3.38,35,35,0,0,1-4.42,2c.24.09.45.17.61.25s.36.29.36.45-.16.35-.48.46l-1.3.39v4.41h13.33l2.23-2.29q1.71,1.13,3.21,2.22c.24.14.36.29.36.46a.53.53,0,0,1-.61.6H220.55V547a2.44,2.44,0,0,1-.65,1.8,4.55,4.55,0,0,1-1.62.91,4.25,4.25,0,0,1-1.58.39l0-.49a1,1,0,0,0-.49-.67,5.12,5.12,0,0,0-1.9-.81,19.28,19.28,0,0,0-3.41-.46v-.81a30.53,30.53,0,0,0,5.51.56,4,4,0,0,0,1.79-.25c.29-.14.44-.49.44-1V533.43H205.15c-1.89,0-3.19.07-3.89.14l-.77-1.55a20.62,20.62,0,0,0,4.66.42H218.6v-3.1a26.45,26.45,0,0,0-.28-3.85c.86.26,1.63.49,2.31.71q2.64-1.28,4.66-2.4c1.51-.94,3.14-2.06,4.87-3.35H210c-2.13,0-3.42,0-3.85.1Z" transform="translate(-198.64 -184.97)"/><path d="M276.68,388.63l-14.52-13.94h29Zm-12.17-13,12.17,11.68,12.16-11.68Z" transform="translate(-198.64 -184.97)"/><path d="M291,375.61H262.38l4.79-6.41h19Zm-26.67-.92h24.75l-3.42-4.57H267.72Z" transform="translate(-198.64 -184.97)"/><polygon points="77.56 203.16 71.67 190.35 68.36 184.91 69.26 184.47 72.59 189.96 78.51 202.82 77.56 203.16"/><polygon points="84.17 190.92 77.31 185.34 72.27 190.48 71.5 189.88 77.23 184.04 83.88 189.44 86.82 184.48 87.73 184.9 84.17 190.92"/><polygon points="78.51 203.17 77.57 202.81 83.72 190 84.67 190.36 78.51 203.17"/></svg>