<?xml version="1.0" encoding="utf-8"?>
<!-- Generator: Adobe Illustrator 22.0.1, SVG Export Plug-In . SVG Version: 6.00 Build 0)  -->
<svg version="1.1" id="圖層_1" xmlns="http://www.w3.org/2000/svg" xmlns:xlink="http://www.w3.org/1999/xlink" x="0px" y="0px"
	 viewBox="0 0 96.8 366.1" style="enable-background:new 0 0 96.8 366.1;" xml:space="preserve">
<style type="text/css">
	.st0{stroke:#000000;stroke-width:0.75;stroke-miterlimit:10;}
</style>
<title>好日子</title>
<g>
	<path class="st0" d="M72.4,0.9c0.3-0.1,0.6,0.1,0.9,0.6c0.3,0.5,0.5,1.1,0.6,1.6c0.2,0.9,0.1,1.4-0.1,1.6c-0.2,0.2,0,0.7,0.6,1.6
		c1.4,2,3.1,4.2,5,6.4c2.7,3.5,5,5.7,6.7,6.5c0.9,0.4,2.2,0.7,3.9,0.8c0.9,0.2,1,0.7,0.2,1.3l-4.5,0.6c-0.9,0.4-1.6,0.2-2.3-0.7
		c-2.5-3.7-5.9-8.2-10.1-13.7c-0.6-0.7-1-0.7-1.4-0.1c-2.6,5.1-6.8,10-12.7,14.9c-1,0.9-1.9,1.4-2.5,1.4c-0.7-0.5-0.4-1.2,0.9-2
		c3.6-2.9,6.8-6.3,9.8-10.3c2.8-3.9,4.3-7.1,4.6-9.6C72,1.5,72.1,1.2,72.4,0.9z M76.7,22.3c0.7-0.2,1.4-0.6,2-1.2
		c0.1,0,0.6,0.3,1.4,0.9c0.5,0.5,0.5,1-0.1,1.4c-0.7,0.6-1,1.3-1.1,2.1c-1.2,4.9-2.7,9.2-4.5,12.9c-0.3,0.5-0.5,0.8-0.5,0.9
		c-0.5,0.3-0.8,0.1-1.1-0.8c-0.4-1.2-0.4-2,0.1-2.4c2-3.2,3.4-6.9,4.3-11.1c0.1-0.7-0.2-1-1-0.9c-5,0.9-8.4,1.5-10.2,1.9
		c-0.9,0.6-1.8,0.2-2.8-1.2c0-0.2,0.4-0.5,1.3-0.7L76.7,22.3z M69.9,13.6c0-0.3,0.1-0.5,0.5-0.5c0.2,0,0.6,0.3,1.3,0.9
		c1.6,1.3,2.6,2.6,3.1,3.9c0,0.2-0.1,0.5-0.3,1c-0.5,0.9-0.9,1.4-1,1.3c-0.2-0.1-0.4-0.6-0.9-1.4L71,15.5C70.4,14.7,70,14,69.9,13.6
		z"/>
	<path class="st0" d="M80.9,49.5c0.6-0.1,1-0.2,1.2-0.1c0.9,0.5,1.4,1.1,1.4,1.8c-0.1,0.2-0.5,0.3-1.3,0.4c-2,0.2-4.4,0.5-7.1,1
		c-0.7,0.1-1,0.3-0.7,0.6c0.3,0.5,0.4,0.9,0.1,1.4l-0.7,5.2c-0.1,0.8,0.1,1.1,0.7,1c3.5-0.6,7.1-1.2,10.7-2c1-0.5,1.9-0.1,2.8,1.4
		c0,0.7-0.4,1-1.3,0.9c-3.4,0.4-7.1,0.9-10.9,1.4c-0.7,0.1-0.9,0.5-0.6,1c2.9,5.1,5.5,9.3,8,12.7c1.1,1.3,2.8,2.3,4.9,2.8
		c1,0.3,1.6,0.5,1.7,0.7c0.1,0.3-0.1,0.5-0.4,0.7l-5.7,0.4c-0.3,0.1-0.6-0.3-0.9-0.9c-1.4-2.5-2.7-4.7-3.9-6.4
		c-1.7-2.9-3.4-5.9-5-8.8c-0.4-0.8-0.6-0.8-0.7-0.1C72,70.2,68.7,75.3,63,79.7c-1.3,1-2.9,1.8-4.7,2.6c-0.3,0.3-0.7,0.2-1-0.2
		c-0.1-0.1,0.2-0.5,1-1.1c3.9-2.3,7.3-5.6,10.2-9.8c1.2-2.5,2-4.8,2.5-7c0.2-0.7-0.2-1-0.9-0.9c-2.7,0.3-5.2,0.7-7.5,1.1
		c-0.8,0.2-1.3,0.3-1.6,0.2c-0.3-0.1-0.5-0.3-0.8-0.4c-0.5-0.3-0.8-0.5-1-0.7c-0.2-0.3-0.2-0.5,0.2-0.8c3.8-0.4,7.5-0.9,11.3-1.4
		c0.6-0.1,0.9-0.5,1.1-1.4c0.3-2.2,0.4-4.1,0.4-5.7c-0.1-0.8-0.5-1.1-1.3-1c-1.5,0.2-3.1,0.4-4.6,0.7c-0.7,0.4-1.4,0.3-2.1-0.3
		c-0.8-0.6-1.1-1.1-0.9-1.2c0.2-0.1,0.6-0.2,1.2-0.2C69.5,51.8,74.9,50.9,80.9,49.5z"/>
	<path class="st0" d="M85.1,108.1c0.7-0.3,1.3-0.4,1.8-0.3c1,0.7,1.5,1.3,1.4,2c-0.2,0.2-0.6,0.3-1.4,0.4c-3.8,0.4-7.6,0.8-11.3,1.4
		c-0.7,0.1-1,0.5-1,1.1v2.7c0,0.6,0.4,0.9,1.2,0.8c2.8-0.5,4.7-0.9,5.9-1.3c0.5-0.1,1.1,0.3,1.7,1.1c-0.1,0.6-0.5,0.9-1.4,0.8
		c-2.1,0.3-4.2,0.7-6.4,1.2c-0.6,0.2-0.9,0.6-0.9,1.2c0,1,0,2.1,0,3.1c0,0.8,0.5,1.3,1.3,1.7c3.9,1.7,6.8,2.6,8.8,2.7l3.9-0.1
		c0.8,0,1.2,0.1,1.3,0.2c0.1,0.9-0.5,1.3-1.6,1.3c-3.2,0.9-5.3,1.4-6.4,1.4c-0.3,0-0.7-0.3-1.4-0.7c-4.1-2.4-8.8-4.9-14-7.4
		c-0.7-0.3-1.3-0.1-1.9,0.7c-2,2.8-4.2,5.1-6.7,7c-0.5,0.3-0.9,0.5-1.1,0.5c-0.6,0-0.7-0.3-0.4-0.9c5.9-5.3,9.2-10.1,10-14.3
		c0.1-0.5,0.3-0.7,0.7-0.7c0.4,0.2,0.7,0.7,1.1,1.6c0.2,0.9,0,1.7-0.7,2.3l-0.5,0.8c-0.4,0.7-0.3,1.2,0.2,1.6
		c1.5,0.8,2.9,1.5,4.4,2.2c0.7,0.3,1.1,0.2,1.1-0.4V113c0-0.6-0.4-0.9-1.2-0.8c-4.6,0.5-8.1,1-10.5,1.4c-0.7,0.2-1.3,0.2-1.6-0.1
		c-0.4-0.3-0.9-0.6-1.3-1c-0.2-0.1-0.1-0.4,0.2-0.8c1.1,0,2.2-0.1,3.3-0.3c7.7-0.9,14-1.8,18.8-2.5C82.4,108.7,84,108.4,85.1,108.1z
		 M79.8,92.7c0.5-0.6,1.1-0.5,1.9,0.5c0.3,0.5,0.3,0.9-0.1,1.2c-0.2,0.2-0.3,0.6-0.5,1.2c-0.4,2.3-0.7,4.7-1,7
		c-0.1,0.6,0.1,1.1,0.5,1.4c0.4,0.4,0.6,0.7,0.6,0.9c-0.1,0.2-0.5,0.4-1.3,0.6c-3.8,0.5-7.3,1.1-10.4,1.7c-0.7,0.2-1.1,0.5-1.1,1
		c-0.1,0.5-0.2,0.8-0.4,0.9c-0.5,0-0.8-0.4-1.1-1.1c-0.8-1.2-0.9-2.2-0.4-3.2c0.4-1.9,0.5-4.4,0.2-7.6c-0.2-1.4-0.3-2.5-0.3-3.1
		c0.1-0.3,0.3-0.5,0.5-0.5c0.2,0,0.5,0.3,0.7,0.9c0.3,0.6,0.7,0.9,1.3,0.8c3-0.6,6-1.1,9.1-1.6C78.8,93.4,79.4,93.1,79.8,92.7z
		 M78.2,95.4c-2.9,0.5-5.8,1-8.8,1.5c-0.6,0.2-0.9,0.6-0.9,1.2v1.5c0,0.8,0.4,1.1,1.2,1c2.3-0.3,4.2-0.7,5.9-1.2
		c0.8-0.6,1.6-0.3,2.2,0.9c0,0.2-0.1,0.3-0.2,0.4c-2.7,0.5-5.3,1-8,1.6c-0.7,0.2-1.1,0.6-1.1,1.1v1c0,0.8,0.5,1.1,1.3,0.9l7.4-1.2
		c0.7-0.1,1.1-0.6,1.1-1.4c0.3-2.2,0.6-4.4,0.9-6.6C79.4,95.5,79,95.3,78.2,95.4z"/>
	<path class="st0" d="M66,139c0-0.8,0.1-1.2,0.3-1.3c0.5-0.3,1,0.1,1.5,1.2c0.3,0.4,0.6,0.9,0.8,1.4c0.1,0.3-0.2,0.8-0.7,1.4
		c-1.6,2.5-2.3,4.2-2.2,5.3c0,11.9-0.1,20.7-0.4,26.5c-0.1,1-0.1,1.6-0.3,1.7c-0.4,0.3-0.8,0-1.2-0.9c-0.5-1.1-0.7-2.1-0.4-3.2
		c0.2-0.3,0.3-0.9,0.3-1.6c0.3-4.2,0.4-10.7,0.4-19.5c0-0.7-0.2-0.6-0.7,0.2c-1.2,2-3.1,4.6-5.8,7.6c-0.6,0.4-0.9,0.3-1-0.3
		c1.6-2.2,3.1-4.4,4.5-6.7C64,146.3,65.6,142.4,66,139z M86.1,141.2c0.6-0.5,1.4-0.1,2.2,1.3c0,0.2-0.1,0.4-0.3,0.7
		c-0.4,0.4-0.6,1-0.7,1.9c-0.3,7-0.4,14.2-0.3,21.7c0.1,2.6-0.1,4.7-0.5,6.4c-0.6,0.6-1,0.3-1.3-0.7c-0.5-0.8-1.1-1.1-1.9-1.1
		c-3.6,0.3-7.1,0.6-10.7,1.1c-0.6,0.1-0.9,0.5-0.9,1.2c-0.1,0.8-0.2,1.2-0.4,1.3c-0.2,0-0.4-0.1-0.8-0.5c-0.9-1.2-1.1-2.6-0.8-4.2
		c0.1-9.2,0-18.1-0.3-26.9c0.1-0.9,0.1-1.4,0.2-1.4c0.4-0.2,0.8,0.2,1.2,1c0.3,0.6,0.9,0.9,1.7,0.8c4-0.6,8.1-1.2,12.2-1.8
		C85.3,142,85.7,141.7,86.1,141.2z M83.9,143.9l-0.8,0.1c-1,0.1-2,0.3-3,0.4c-0.7,0.1-0.9,0.3-0.6,0.7c0.2,0.4,0.2,1,0,1.8
		c-0.2,1-0.3,1.9-0.3,2.9c0,0.6,0.4,0.8,1.3,0.6c0.7-0.1,1.4-0.2,2.1-0.4c0.8-0.1,1.4,0,1.8,0.3c0.5,0.4,0.7,0.8,0.4,1.1
		c-0.2,0.1-0.5,0.2-1,0.3c-1.2,0.2-2.4,0.4-3.7,0.6c-0.7,0.1-1,0.6-1.1,1.4l-0.2,2.5c0,0.8,0.3,1.1,1,0.9c0.4-0.1,0.8-0.3,0.9-0.5
		c0.8-0.7,1.5-0.3,2,1.2c-0.3,0.5-0.5,1-0.6,1.4l-0.5,2.4c-0.1,0.8,0,1.3,0.3,1.5c0.4,0.5,0.5,0.8,0.5,0.9c-0.1,0.2-0.5,0.3-1.3,0.4
		l-4.2,0.7c-0.6,0.2-0.9,0.4-0.9,0.8c0.1,0.6-0.1,1-0.7,1.4c-0.3-0.4-0.6-0.9-0.9-1.5c-0.1-0.5-0.1-1.2,0-1.8v-6.3
		c0-0.8,0.1-1.2,0.4-1.2c0.2,0,0.4,0.2,0.6,0.7c0.2,0.4,0.5,0.6,1,0.5c0.5-0.1,0.8-0.5,0.8-1.2l0.2-2.7c0-0.7-0.3-1-1.1-0.8
		c-1.6,0.6-2.8,0.5-3.8-0.2c-0.2-0.2-0.3-0.4-0.3-0.6c0.1-0.2,0.5-0.4,1.3-0.5c1-0.1,2-0.3,3-0.5c0.7-0.2,1-0.6,1.1-1.4
		c0-1.3,0-2.6-0.1-4c-0.1-0.6-0.5-0.9-1.3-0.8c-1.2,0.1-2.4,0.3-3.6,0.6c-0.7,0.1-1,0.5-1,1.1c0,7.7,0,15.4,0,23.1
		c0,0.6,0.4,0.9,1.2,0.9l5.9-0.7c1.6-0.2,3.1-0.4,4.7-0.7c0.4,0,0.8,0,1.1,0.2c0.3,0.2,0.4-0.2,0.5-1.1c0.3-5.3,0.4-13.2,0.4-23.5
		C85.4,144.1,84.9,143.8,83.9,143.9z M79.5,158.9l-0.4,0.1l-2.1,0.4c-0.6,0.2-0.9,0.6-0.9,1.2v2.3c0,0.6,0.4,0.9,1.1,0.7l1.8-0.2
		c0.6-0.1,0.9-0.6,1.1-1.4l0.4-2.1C80.5,159.1,80.2,158.8,79.5,158.9z"/>
	<path class="st0" d="M27.8,3.3c0.8-0.7,1.3-1,1.5-1c1.1,0.6,1.7,1.4,1.9,2.2c-0.1,0.2-0.5,0.4-1.3,0.6c-1.4,0.3-2.9,0.7-4.3,1.1
		c-0.8,0.3-1.3,0.8-1.3,1.4v1.9c0,0.6,0.4,0.9,1.2,0.8c4.9-0.6,8.3-1.2,10.3-1.8c0.8-0.2,1.7,0.2,2.6,1c0.5,0.7,0.3,1.1-0.6,1.2
		c-4.1,0.4-8.3,0.9-12.4,1.4c-0.7,0.1-1,0.5-1,1.1v1c0,0.6,0.4,0.9,1.2,0.8c2.3-0.3,4-0.6,5.1-0.9c0.4-0.1,0.7-0.4,1.1-1
		c0.5-0.5,1.1-0.2,1.8,0.8c0.4,0.6,0.4,1,0,1.4c-0.5,1.5-0.9,3.8-1.3,6.9c-0.1,0.6,0.1,1.1,0.4,1.3c0.3,0.3,0.5,0.6,0.6,0.8
		c0.2,0.6-0.2,0.9-1.1,0.8c-1.9,0.1-4.2,0.4-6.9,0.8c-0.7,0.1-1,0.5-1,1.2v1.4c0,0.6,0.4,0.9,1.2,0.8c1.7-0.2,3.2-0.5,4.3-0.8
		c1.3-0.5,2.2-0.1,2.8,1.4c0.1,0.2,0,0.4-0.2,0.5c-0.3,0.2-0.9,0.3-1.8,0.3c-1.8,0.1-3.6,0.4-5.4,0.7c-0.7,0.1-1,0.4-1,1.1v1.8
		c0,0.6,0.4,0.9,1.2,0.8c3.8-0.4,7.2-0.9,10.3-1.6c0.5,0.1,1,0.5,1.5,1.2c0.2,0.4,0.3,0.7,0.2,0.9c-0.2,0.2-0.7,0.3-1.7,0.4
		l-12.5,1.3c-4.7,0.4-8.3,0.9-10.9,1.3c-0.8,0.1-1.6-0.1-2.3-0.7c-0.6-0.3-0.8-0.6-0.4-1.1c0.2-0.1,0.6-0.2,1.1-0.2
		c2.3-0.1,5.9-0.5,10.8-1c0.7-0.1,1-0.4,1-1v-1.8c0-0.6-0.4-0.9-1.2-0.9c-1.4,0.2-2.9,0.4-4.3,0.6c-1.1,0.3-2.1-0.1-3.2-1.1
		c0.2-0.6,0.6-0.8,1.2-0.6c2-0.2,4.2-0.4,6.6-0.8c0.6-0.1,0.9-0.5,0.9-1.1v-1.4c0-0.6-0.4-0.9-1.2-0.9c-1.4,0.1-2.8,0.3-4.2,0.6
		c-0.7,0.1-1,0.3-1.1,0.8c0,0.6-0.2,0.9-0.5,1c-0.5-0.3-0.9-1-1.4-2.1c-0.3-0.5-0.3-1.2,0-1.9c0.3-2.4,0.3-5.2-0.2-8.5
		c-0.3-0.7-0.2-1.2,0.5-1.5c0.2,0,0.4,0.3,0.7,0.9c0.3,0.5,0.9,0.7,1.8,0.6c1.5-0.2,3.1-0.4,4.6-0.6c0.6-0.1,0.9-0.4,0.9-1.1v-1
		c0-0.6-0.4-0.9-1.2-0.9c-3.3,0.4-6.5,0.8-9.8,1.3c-1,0.2-1.8,0.2-2.5-0.2c-0.7-0.5-1-0.8-1.1-1c0.2-0.4,0.4-0.6,0.8-0.6
		c2.7-0.2,6.9-0.6,12.7-1.4c0.6-0.1,0.9-0.4,0.9-1.1V8.1c0-0.6-0.4-0.9-1.3-0.7c-3.4,0.9-5.8,1.4-7.3,1.6c-1,0.1-1.5,0.1-1.7-0.1
		c-0.1-0.2-0.1-0.3-0.1-0.5c0.1-0.2,0.6-0.4,1.6-0.7C19.7,6.5,24.4,5,27.8,3.3z M21.4,17.7L17,18.3c-0.7,0.1-1,0.6-0.9,1.4l0.2,4.7
		c0,0.8,0.3,1.1,0.9,1l4.6-0.6c0.6-0.1,0.9-0.6,0.9-1.5s-0.4-1.3-1.2-1.2c-1.2,0.2-2.1,0.3-2.7,0.2c-0.8-0.1-1.3-0.4-1.6-1.1
		c0-0.2,0-0.3,0.1-0.4c0.1-0.1,0.5-0.2,1.3-0.3l3.2-0.4c0.6-0.1,0.9-0.5,0.9-1.3C22.5,18,22.2,17.7,21.4,17.7z M31.1,17.3
		c0.1-0.7-0.2-1-1-0.8c-1.6,0.2-3.2,0.4-4.8,0.7c-0.6,0.1-0.9,0.5-0.9,1.3c0,0.8,0.4,1.1,1.3,0.9l1.1-0.2c0.7-0.1,1.1-0.2,1.4-0.1
		c0.6,0.2,1,0.7,1.3,1.2C29.3,20.8,29,21,28.6,21c-1,0.1-2,0.2-3.1,0.4c-0.7,0.1-1.1,0.5-1.1,1v1c0,0.6,0.4,0.9,1.3,0.7l3.8-0.7
		c0.6-0.1,1-0.6,1.1-1.4L31.1,17.3z"/>
	<path class="st0" d="M13.6,70.3c0.5-0.2,1,0.2,1.3,1.2c0.3,0.6,0.4,1.1,0.3,1.4l-1.4,1.4C12.6,76,11,77.7,9,79.4
		c-0.9,0.7-1.5,1.1-1.7,1.1C7.1,80.4,7,80.2,7,80c0.1-0.2,0.5-0.8,1.3-1.6C11.2,75.3,13,72.6,13.6,70.3z M34.6,49.1
		c0.7-1,1.5-1,2.5,0.3c0.6,0.6,0.5,1.1-0.3,1.4c-2.6,1.2-5.2,2.4-7.8,3.6c-0.7,0.4-1.1,0.9-1.1,1.6v4.4c0,0.8,0.4,1.1,1.2,1
		c3-0.5,6-1.1,9-1.8c0.6-0.4,1.4,0,2.3,1.2c-0.1,0.5-0.5,0.8-1.1,0.7c-1.5,0.2-3.1,0.4-4.6,0.6c-0.7,0.2-1,0.5-1,1.1l-0.1,19.6
		c0,0.7-0.1,1.1-0.5,1.3c-0.3,0.1-0.5-0.1-0.8-0.7c-0.9-1.3-1-2.4-0.5-3.2l0.2-1.4C32,73.7,32,68.6,32,63.6c0-0.6-0.4-0.9-1.2-0.8
		c-0.7,0.1-1.4,0.2-2.1,0.4c-0.6,0.2-1,0.7-1,1.5c-0.2,4.5-0.9,8.2-1.9,11.3c-0.9,2.5-2.5,5.2-4.8,8c-0.6,1-1.1,1.1-1.6,0.4
		c0-0.2,0.3-0.6,0.8-1.4c2.7-3.9,4.4-8.2,5.2-12.9c0.2-2.4,0.4-4.7,0.5-7.1c0-0.7-0.4-0.9-1.1-0.8c-1.8,0.3-3.7,0.6-5.5,1
		c-0.6,0.1-0.8,0.4-0.6,0.7c0.1,0.4,0,1-0.2,2c0,0.7,0.3,1,1.1,0.8c1.2-0.1,2.1-0.3,2.7-0.6c1-0.4,1.8,0.1,2.5,1.5
		c-0.2,0.3-0.5,0.5-0.9,0.6c-1.5,0.1-3,0.3-4.5,0.6c-0.7,0.1-1,0.5-1,1.2c0,3.4,0,6.7-0.1,10.1c0,1.2-0.3,2.2-0.9,3
		c-0.2,0.1-0.7-0.3-1.6-1.2c-0.6-0.8-1.3-1.5-2.1-2.3c-0.9-0.7-1.1-1.3-0.5-1.7c0.1,0,0.6,0.2,1.4,0.8c0.2,0.2,0.5,0.4,0.7,0.5
		c0.7,0.5,1.1,0.3,1.2-0.5c0.1-1.8,0.2-4.5,0.1-8.2c0-0.8-0.4-1.2-1.3-1.1c-0.9,0.1-1.8,0.3-2.8,0.6c-1.1,0.1-2-0.2-2.7-1
		c-0.2-0.3-0.1-0.6,0.2-0.8c1.8-0.3,3.6-0.6,5.5-0.8c0.6-0.1,0.9-0.6,0.9-1.4c0-0.4,0-0.8,0-1.2c-0.1-0.6-0.5-0.9-1.3-0.8
		c-1.5,0.2-3.1,0.5-4.8,0.9c-0.5,0-1.1-0.1-1.6-0.3c-0.5-0.4-0.8-0.7-0.9-0.9c0-0.2,0.4-0.4,1.3-0.6c3.3-0.5,6-1,8.1-1.4
		c0.6-0.1,1-0.5,1.3-1.4c0.6-2,1-3.6,1-4.7c0-0.7-0.3-1-0.8-1c-2.7,0.5-4.7,0.9-6,1.2c-0.8,0.4-1.6,0.4-2.3-0.1
		c-0.7-0.4-1-0.8-0.9-1.2c0.1-0.2,0.6-0.3,1.4-0.4c1.6-0.2,4.6-0.7,8.9-1.6l3.1-0.7c0.4-0.1,1,0.3,1.7,1.2c0.2,0.3,0.2,0.5,0,0.7
		c-0.3,0.3-0.8,0.4-1.4,0.4l-1.8,0.2c-0.6,0.1-0.6,0.6,0.1,1.4c0.2,0.2,0.3,0.4,0.4,0.6c0.1,0.2-0.1,0.7-0.6,1.5
		c-0.4,0.8-0.8,1.6-1.1,2.5c-0.3,0.6,0,0.9,0.9,0.6l2.9-0.7c0.4-0.2,0.9-0.1,1.6,0.6c0.3,0.4,0.4,0.3,0.4-0.4c0.1-3,0-5.6-0.4-7.8
		c-0.3-0.9,0-1.3,0.7-1.3c0.3,0.2,0.6,0.7,0.8,1.2c0.3,0.7,0.9,0.8,1.7,0.4C31.6,51.3,33.5,50.1,34.6,49.1z M12.9,56.1
		c0.4-0.6,0.9-0.4,1.6,0.5c1.7,1.3,2.1,2.6,1.4,3.8c-0.1,0.7-0.4,1-1.1,0.8c-0.1-0.1-0.2-0.4-0.4-0.9C14,59,13.6,58,13.1,57.1
		C12.9,56.7,12.8,56.4,12.9,56.1z M14.6,46.5c0.2-0.1,0.7,0.2,1.7,0.9c0.5,0.4,1,0.8,1.6,1.3c0.5,0.5,0.6,1.1,0.5,1.8
		c0,1.2-0.4,1.7-1,1.6c-0.2-0.1-0.4-0.4-0.6-1c-0.6-1.1-1.3-2.1-2-3.2c-0.2-0.5-0.4-0.9-0.4-1.1C14.3,46.8,14.4,46.6,14.6,46.5z
		 M19.6,70.4c0.2-0.2,0.6-0.1,1.4,0.3c1.4,0.7,2.3,1.3,2.7,1.8c0.4,1.2,0.4,2.2-0.1,3c-0.4,0.1-0.9-0.3-1.4-1.3
		c-0.6-0.8-1.3-1.6-2.1-2.4C19.5,71.4,19.3,70.9,19.6,70.4z"/>
	<path class="st0" d="M19.5,94.2c0.8-0.7,1.3-1,1.4-1c1.3,0.7,1.7,1.4,1.2,2c-0.2,0.2-0.3,0.6-0.4,1.2c-0.2,1.7-0.4,3.4-0.5,5.2
		c0,0.6,0.1,1.1,0.5,1.4l0.7,0.8c0.1,0.5-0.3,0.7-1.1,0.7c-2.5,0.4-4.9,0.8-7.4,1.3c-0.6,0.2-0.9,0.6-0.9,1.2c0,5.2,0,10.4,0,15.7
		c0,1.6,0,3.2,0.1,4.7c-0.1,1-0.3,1.5-0.5,1.6c-0.2-0.1-0.6-0.5-1.2-1.2c-0.4-0.8-0.6-2.2-0.4-4.1c0-7.4-0.1-16.8-0.2-28.1
		c0-0.8,0.1-1.3,0.2-1.4c0.3-0.3,0.6-0.2,0.9,0.4c0.4,0.9,1,1.3,1.8,1.2c1.7-0.4,3.3-0.8,5-1.1C19,94.5,19.2,94.4,19.5,94.2z
		 M18.6,96.4l-4.7,0.9C13.3,97.5,13,98,13,98.8c0,0.8,0.4,1.1,1.2,1l1.1-0.2c0.4-0.1,0.8-0.2,1.2-0.3c0.8-0.2,1.4-0.1,1.7,0.1
		c0.5,0.2,0.7,0.6,0.6,1.1c-0.1,0.1-0.5,0.2-1.3,0.4c-1.2,0.2-2.5,0.4-3.7,0.7c-0.6,0.1-0.9,0.6-0.9,1.4c0,0.8,0.4,1.1,1.2,1
		c1.4-0.2,2.8-0.4,4.2-0.7c0.7-0.1,1.1-0.6,1.2-1.3l0.4-4.8C19.9,96.5,19.5,96.3,18.6,96.4z M24.8,108.1l4.8-0.7
		c0.3,0,0.6,0.1,0.8,0.2c1,0.7,1.2,1.2,0.6,1.7l-2.7,0.4c-0.6,0.1-0.9,0.5-0.9,1.2v1.9c0,0.6,0.4,0.9,1.2,0.8c1-0.2,2.1-0.4,3.2-0.6
		c0.7,0.1,1.2,0.6,1.6,1.6c0,0.1-0.4,0.3-1.2,0.5c-1.3,0.1-2.5,0.2-3.8,0.4c-0.7,0.1-1,0.5-1,1.1v7.8c0,0.8,0,1.3-0.1,1.4
		c-0.5,0.5-1.1,0.1-1.6-1.2c-0.3-0.4-0.4-1.2,0-2.4c0.1-1.7,0.1-3.3,0.1-5c0-0.8-0.4-1.2-1.1-1.1c-0.6,0-1.2,0.1-1.8,0.2
		c-0.6,0.1-1,0.5-1.2,1.3c-0.3,2.1-1.1,4.1-2.3,6c-0.9,1.3-1.9,2.3-2.9,2.8c-0.3,0.3-0.6,0.3-1,0c-0.1-0.1,0.2-0.6,0.9-1.5
		c1.8-2.2,3-4.6,3.4-7.3c0.1-0.6-0.3-0.9-1.1-0.8l-0.8,0.1c-1.1,0.4-2.2,0.1-3.2-1c0-0.5,0.4-0.7,1.1-0.7l3.4-0.3
		c0.6-0.1,1-0.5,1.1-1.3l0.1-1.8c0-0.6-0.4-0.9-1.1-0.8c-1.1,0-1.9-0.4-2.2-1.3c0-0.3,0.5-0.5,1.6-0.6
		C20.1,108.9,22.2,108.6,24.8,108.1z M24.3,110.1l-0.8,0.1c-0.8,0.1-1.2,0.6-1.3,1.4l-0.2,1.8c-0.1,0.6,0.3,0.9,1.1,0.8
		c0.5-0.1,1-0.2,1.5-0.2c0.7-0.1,1-0.5,1-1.1v-2C25.7,110.3,25.2,110,24.3,110.1z M35.2,93.4c0.5-0.7,1.1-0.8,1.5-0.4
		c1,0.6,1.3,1.2,0.7,1.8C37.2,95,37.1,95.4,37,96c-0.1,9.1-0.1,18.3-0.1,27.5l-0.3,3.2c-0.1,1.2-0.4,2-0.9,2.6
		c-0.4,0.3-0.8,0.1-1.2-0.7c-0.8-1.3-2-2.8-3.7-4.6c-0.2-0.2-0.1-0.5,0.2-0.8c0.4-0.1,0.7,0.1,0.9,0.4l1.6,1.2
		c0.8,0.5,1.2,0.4,1.3-0.4c0.2-6.8,0.2-13.5,0.2-20.2c0-0.6-0.4-0.9-1.2-0.8c-1.8,0.3-3.7,0.7-5.5,1.1c-0.6,0.1-1,0.4-1,0.7
		c0.1,0.5-0.1,0.8-0.6,0.9c-0.9-0.6-1.3-1.3-1.3-2.3c0.5-2,0.6-5,0.3-9.2c0-0.8,0.1-1.3,0.2-1.4c0.5-0.2,0.9,0.2,1.1,1
		c0.3,0.6,0.8,0.9,1.6,0.7l5.1-1C34.2,94,34.7,93.8,35.2,93.4z M33.9,95.8c-1.5,0.3-3.3,0.6-5.4,1.1c-0.6,0.1-1,0.5-1,1.2
		c0,0.6,0.4,0.9,1.2,0.8c0.4-0.1,0.8-0.2,1.2-0.2c0.7-0.1,1.3-0.2,1.6-0.3c0.9-0.2,1.5-0.1,1.9,0.2c0.4,0.2,0.6,0.5,0.6,0.9
		c-0.1,0.3-0.4,0.4-0.9,0.5c-1.5,0.2-3,0.5-4.6,0.8c-0.7,0.1-1,0.5-1,1.2c0,0.7,0.4,0.9,1.1,0.8c1.8-0.4,3.6-0.7,5.5-1
		c0.6-0.2,0.9-0.6,0.9-1.2v-3.5C35.1,96.1,34.7,95.7,33.9,95.8z"/>
	<path class="st0" d="M14.8,137.1c0.4-0.1,0.7-0.1,0.9,0.2c1.4,1.4,1.9,2.5,1.5,3.2c-0.8,2.5-1.6,5.6-2.4,9.4c-0.2,0.7,0.2,1,1,0.8
		c0.6-0.1,1.2-0.2,1.9-0.3c0.6-0.1,1-0.6,1.1-1.4c0-0.9,0.1-1.4,0.4-1.6c0.4-0.1,1,0.4,1.7,1.3c0.3,0.5,0.4,0.9,0.4,1
		c-0.4,1.2-0.8,2.7-1,4.6c-0.4,2.8-1,5.4-2,7.9c-0.3,0.6,0,1.2,0.8,1.7c1.3,0.7,2.1,1.4,2.4,2.1c0.2,0.6,0.2,1.2,0.2,2
		c-0.2,0.9-0.6,1-1.2,0.3c-0.8-0.9-1.6-1.8-2.5-2.7c-0.6-0.5-1.1-0.3-1.6,0.5c-1.5,2.1-3.4,4.1-5.9,6.2c-1.2,1-2.1,1.6-2.7,1.7
		C7.3,174.2,7,174,7,173.5c0.1-0.2,0.5-0.6,1.3-1.2c3-2.6,5.3-5.1,6.8-7.4c0.4-0.6,0.1-1.3-0.7-1.9c-1.2-0.8-2.2-1.4-3.1-1.7
		c-0.8-0.5-0.9-1.2-0.3-2.2c0.5-1.6,0.9-3.2,1.2-4.8c0.2-0.7,0-1-0.6-0.9c-0.9,0.1-1.9,0.4-2.9,0.7c-0.7,0.3-1.5-0.1-2.2-1.3
		c0-0.2,0-0.3,0.1-0.4c0.1-0.2,0.6-0.3,1.4-0.4c1.3-0.1,2.6-0.3,3.9-0.5c0.7-0.1,1.1-0.6,1.3-1.4c1-4.7,1.5-8.5,1.4-11.5
		C14.7,137.6,14.7,137.2,14.8,137.1z M17.4,152.3l-2.2,0.4c-0.6,0.1-1,0.6-1.2,1.4l-1.3,5.9c0,0.2,0.5,0.5,1.3,1l1.6,0.9
		c0.6,0.3,1,0,1.3-0.8c0.8-2.4,1.3-5.1,1.6-8C18.5,152.4,18.2,152.1,17.4,152.3z M29.6,137.2c0.2-0.1,0.7,0.3,1.6,1.3
		c0.8,0.7,0.8,1.5,0,2.4c-1.7,3.8-3.6,7.7-5.7,11.7c-0.3,0.6-0.1,0.9,0.8,0.9c2.7-0.5,5.6-1.1,8.7-1.9c0.6-0.2,0.7-0.7,0.2-1.4
		l-1.6-2.4c-0.4-0.5-0.6-0.9-0.6-1c0.1-0.6,0.4-0.7,1-0.3c2.1,1.9,3.5,3.4,4.3,4.6c1.4,1.3,1.7,2.7,0.7,4.3
		c-0.2,0.2-0.4,0.3-0.6,0.3c-0.2-0.1-0.5-0.5-0.8-1.3l-0.2-0.5c-0.3-0.6-0.9-0.8-1.8-0.6c-4.9,1.1-8.7,2.1-11.4,3.1
		c-0.5,0.4-1,0.2-1.6-0.4c-0.7-0.6-0.9-1.1-0.7-1.4l1.2-0.8c3.2-5,5.3-9.9,6.3-14.9C29.4,137.8,29.5,137.3,29.6,137.2z M34.3,158
		c0.8-0.7,1.2-1,1.3-1c0.2,0.1,0.4,0.3,0.8,0.6c0.8,0.4,0.8,1.2,0.1,2.3c-0.3,1.5-0.7,4-1.1,7.5c-0.1,0.6,0,1,0.1,1.1
		c1,0.7,1.4,1.3,1.2,1.7c-0.1,0.1-0.5,0.2-1.3,0.3c-2.8,0.4-5.6,0.8-8.4,1.2c-0.6,0.1-1,0.6-1,1.4c-0.1,1.1-0.2,1.8-0.5,2.2l-0.3,0
		c-0.1,0-0.4-0.5-0.9-1.3c-0.7-1.1-0.8-2.2-0.4-3.2c0.6-3.1,0.7-6.9,0.2-11.2c-0.2-0.6-0.1-1,0.5-1.3c0.2,0,0.5,0.3,0.8,0.8
		c0.3,0.7,0.8,0.9,1.6,0.7c2.1-0.4,4.1-0.9,6.2-1.4C33.5,158.6,33.9,158.4,34.3,158z M33,160.7c-1.4,0.3-3.4,0.7-6,1.2
		c-0.6,0.2-0.9,0.6-0.9,1.2v5.8c0,0.6,0.4,0.9,1.2,0.8l5-0.6c0.7-0.1,1.1-0.4,1.2-1l0.9-6.8C34.4,160.7,33.9,160.5,33,160.7z"/>
	<path class="st0" d="M15.2,185.3c0.1-0.8,0.3-1.3,0.5-1.4c0.2,0,0.6,0.3,1.2,1c0.5,0.6,0.8,1,1,1.4c0,0.2-0.3,0.7-0.7,1.5
		c-0.9,1.7-1.7,3.6-2.4,5.8c-0.3,0.7,0,0.9,0.9,0.7c2.1-0.3,3.5-0.8,4.2-1.5c0.3-0.8,1-0.7,1.8,0.2c0.8,0.5,0.8,1,0.2,1.7
		c-0.4,0.5-0.6,1.2-0.6,2.2c-0.2,6.2-0.5,11.7-0.9,16.6c-0.1,0.7-0.2,1.1-0.6,1.3c-0.4-0.1-0.7-0.5-1-1.2c-0.3-0.5-0.8-0.8-1.7-0.7
		c-1.2,0.1-2.4,0.2-3.6,0.4c-0.7,0.1-1.1,0.6-1.1,1.3l-0.1,1.3c-0.3,0.5-0.6,0.4-0.9,0c-0.9-0.9-1.1-2-0.7-3.5
		c0.6-4.2,0.6-10.2,0-17.9c-0.1-1,0-1.6,0.3-1.6c0.5,0,0.8,0.4,0.9,1.1c0.4,0.8,0.6,1.2,0.7,1.2C14.2,191.7,15.1,188.5,15.2,185.3z
		 M18.2,195.5c-1.3,0.2-2.9,0.6-4.7,1c-0.7,0.1-1,0.5-1,1.2c-0.1,1.4-0.1,2.8,0,4.2c0,0.6,0.4,0.9,1.2,0.9c1.1-0.2,2-0.4,2.7-0.6
		c1-0.3,1.7,0.2,2,1.3c0,0.1-0.1,0.2-0.3,0.4l-4.7,0.8c-0.7,0.1-1,0.5-1,1.2c-0.1,1.5-0.1,3.1,0,4.7c0,0.6,0.4,0.9,1.2,0.9l1.2-0.1
		c0.7,0,1.3-0.1,1.7-0.2c0.8-0.3,1.4-0.4,1.8-0.2c0.2,0.2,0.3-0.2,0.5-1.1c0.4-3.8,0.7-8.2,0.7-13.1C19.4,195.8,19,195.4,18.2,195.5
		z M26.7,183.2c0.4-0.5,1-0.4,1.7,0.5c0.6,0.6,0.9,1.1,0.9,1.4c-0.2,0.6-0.4,1.2-0.6,1.8c-0.3,1.9-1,4.2-1.9,6.9
		c-0.2,0.6,0.1,0.8,1,0.6c2-0.4,4-0.8,6-1.1c0.3,0,0.5-0.1,0.8-0.3c0.8-0.7,1.2-1.1,1.3-1.2c0.3,0,0.6,0.1,1,0.4
		c0.9,0.7,1.1,1.3,0.5,1.9c-0.4,0.5-0.6,1.1-0.6,2l-1.6,12.9c-0.5,3.8-1.2,6.9-2.2,9.2c-0.4,1-0.8,1.4-1.4,1.2
		c-1.3-1.6-2.7-3.3-4.2-5c-0.6-0.5-0.8-1-0.5-1.4c0.3-0.1,0.6-0.1,0.9,0.2c0.9,0.7,1.9,1.4,2.8,2c0.6,0.3,1.1,0.1,1.4-0.8
		c1.3-5.6,2.2-11.7,2.6-18.5c0-0.6-0.4-0.9-1.1-0.8c-2.6,0.4-5.2,0.8-7.7,1.3c-0.2,0.1-0.5,0.6-0.9,1.4c-0.9,2-1.7,3.6-2.5,4.8
		c-0.6,0.6-1,0.5-1.1,0c0-0.2,0.1-0.5,0.3-1c2.9-5.8,4.5-11,5-15.7L26.7,183.2z M25.3,199.9c0.5-0.6,1-0.4,1.7,0.6c1,1,2,2,2.9,3.1
		c0.8,0.9,1,1.7,0.8,2.4c-0.1,1.2-0.5,1.7-1.2,1.6c-0.8-1.9-2-4-3.6-6.3C25.5,200.5,25.2,200,25.3,199.9z"/>
	<path class="st0" d="M14.8,227.7c0.6-0.4,1.1-0.2,1.6,0.7c0.9,1,1.3,1.8,1.1,2.4c-0.7,2.2-1.4,5.2-2.1,9.1c-0.1,0.6,0.2,0.9,1,0.8
		c0.7-0.2,1.5-0.3,2.3-0.4c0.7-0.1,1.1-0.5,1.1-1l0.1-1.2c0.1-0.8,0.2-1.3,0.4-1.4c0.2-0.1,0.7,0.3,1.5,1c0.4,0.3,0.5,0.8,0.4,1.4
		c-0.3,0.8-0.5,1.7-0.6,2.9c-0.1,1-0.3,2.1-0.5,3.2c-0.2,0.8,0.1,1.1,0.8,1c2.1-0.3,4.3-0.7,6.5-0.9c0.7-0.1,1-0.5,0.8-1.3
		c-0.2-1.3-0.7-2.7-1.6-4.3c-0.4-0.9-0.5-1.3-0.5-1.4c0.5-0.5,1-0.2,1.6,0.8c0.3,0.6,0.8,0.5,1.4-0.4l3-4.5c0-0.1-0.4-0.2-1.2-0.2
		l-7.9,1.3c-0.7,0-1.2-0.1-1.6-0.4c-0.5-0.2-0.7-0.5-0.7-0.8c0.2-0.5,0.6-0.7,1.2-0.6c2.1-0.2,4.2-0.4,6.3-0.8
		c2.1-0.2,4-0.7,5.7-1.8c0.3,0,0.8,0.3,1.4,0.9c0.4,0.3,0.6,0.6,0.5,1c-1.7,1.8-3.7,4.4-6.1,7.7c-0.5,0.7-0.6,1.4-0.3,2.2l0.4,1.4
		c0.2,0.6,0.6,0.9,1.4,0.7c2.9-0.4,5-0.8,6.3-1.3c0.7-0.4,1.5,0.1,2.3,1.4c0,0.5-0.4,0.8-1.1,0.7c-2.4,0.3-4.9,0.6-7.3,1.1
		c-0.6,0.1-0.9,0.6-0.8,1.4c0.8,6.7,0.7,12-0.4,15.8c-0.3,0.9-0.6,1.5-0.9,1.8c-0.4,0.3-0.8,0.2-1.3-0.5c-0.7-1-1.9-2.3-3.6-4.1
		c-1.3-0.9-1.5-1.6-0.8-2.1c0.2,0,0.4,0.1,0.5,0.2l3.1,2.2c0.7,0.4,1.1,0.3,1.3-0.3c0.7-3.1,0.7-7.4,0.2-12.9
		c-0.1-0.7-0.5-1-1.3-0.9c-1.9,0.3-3.9,0.6-5.8,0.9c-0.7-0.1-1.2-0.2-1.5-0.5c-0.3-0.2-0.5,0-0.8,0.8c-0.3,1.2-0.8,2.5-1.4,3.9
		c-0.3,0.7-0.1,1.2,0.7,1.6c1.6,0.6,2.7,1.5,3,2.6c0.3,0.7,0.3,1.3,0.2,1.9c-0.1,0.5-0.4,0.6-0.8,0.4c-1.4-1.4-2.6-2.5-3.7-3.4
		c-0.5-0.4-1.1-0.1-1.7,0.8c-2.5,3.3-5.5,5.9-9,7.8c-0.3,0.1-0.6-0.1-0.7-0.5c0-0.2,0.5-0.7,1.4-1.4c2.9-2.3,5.3-4.6,7.1-7.2
		c0.4-0.6,0.2-1.2-0.6-1.7c-0.9-0.5-1.9-0.9-2.8-1.2c-0.9-0.4-1-1.2-0.5-2.2c0.5-1.8,0.9-3.6,1.3-5.4c0.1-0.6-0.3-0.9-1.1-0.7
		c-0.9,0.2-1.9,0.4-2.8,0.7c-0.7,0.3-1.5-0.2-2.2-1.4c0.1-0.5,0.5-0.7,1.2-0.6c1.5-0.2,3-0.4,4.5-0.6c0.6-0.1,1-0.6,1.2-1.4
		c0.9-4.7,1.3-8.2,1.1-10.6C14.8,228.3,14.8,227.7,14.8,227.7z M18.6,242l-0.3,0l-2.5,0.5c-0.6,0.2-1,0.6-1.2,1.4
		c-0.4,1.8-0.7,3.6-1,5.4c-0.1,0.6,0.3,1.1,1.2,1.6l1.2,0.6c0.7,0.3,1.2,0.1,1.6-0.6c0.7-1.4,1.3-4.1,2-8
		C19.7,242.3,19.4,241.9,18.6,242z"/>
	<path class="st0" d="M28.6,278.8c0.6-0.2,1.2-0.6,1.8-1.4c0.4-0.2,0.9,0,1.5,0.5c0.7,0.4,0.9,0.9,0.6,1.5c-0.4,0.5-0.7,1.3-0.9,2.4
		c-0.2,1.4-0.4,3.6-0.5,6.4c-0.4,7.4-0.8,12.7-1.3,16.1c-0.1,0.5-0.2,0.9-0.3,1.1c-0.5,0.4-1,0.1-1.3-1.1c-0.3-0.7-0.8-1-1.5-0.9
		c-2.7,0.3-5.4,0.7-8,1.1c-0.7,0.1-1,0.3-1.1,0.7c0,0.4-0.1,0.8-0.2,1.1c-0.3,0.7-0.7,0.7-1.3,0c-0.7-0.8-1-1.8-0.9-2.8
		c0.5-0.9,0.7-1.9,0.7-2.8c0.4-9.1,0.4-16.1,0-20.8c-0.1-0.5-0.1-1,0-1.5c0.1-0.2,0.3-0.3,0.5-0.2c0.3,0.1,0.6,0.6,0.9,1.4
		c0.4,0.8,0.9,1.2,1.7,1L28.6,278.8z M28.2,280.8c-3,0.5-6.1,1-9.3,1.6c-0.7,0.1-1.1,0.6-1.1,1.3l0,6.3c0,0.6,0.4,0.9,1.2,0.8
		c3.4-0.5,5.9-0.9,7.4-1.4c0.2,0,0.5,0.1,0.8,0.3c0.8,0.6,1.1,1,0.8,1.4c-0.1,0.1-0.5,0.2-1.3,0.4c-2.7,0.4-5.3,0.8-8,1.2
		c-0.6,0.1-1,0.6-1,1.4l-0.1,7.4c0,0.6,0.4,0.9,1.2,0.8l5.9-0.8c1.4-0.5,2.3-0.6,3-0.2c0.2,0.2,0.4-0.1,0.6-1
		c0.7-4.8,1.1-11,1.2-18.6C29.4,281,29,280.6,28.2,280.8z"/>
	<path class="st0" d="M30.8,319.7c0.3-0.2,0.6-0.3,0.9-0.1c1.8,1.1,1.9,2.1,0.2,3.1c-1.5,1.4-3.8,3.8-6.9,7.1
		c-0.6,0.6-0.8,1.4-0.5,2.2l0.5,1.8c0.1,0.7,0.6,0.9,1.4,0.8c4.1-0.5,7.7-1.1,10.6-2c0.8-0.2,1.6,0.4,2.3,1.6c0.2,0.2,0,0.4-0.4,0.6
		c-4.8,0.4-8.9,0.9-12.3,1.4c-0.7,0.1-1.1,0.4-1,1c0.7,5.9,0.4,11-0.9,15.3c-0.2,0.5-0.4,1.1-0.8,1.6c-0.5,1.3-1.1,1.3-2,0
		c-0.3-0.4-0.7-0.9-1.1-1.3c-1.3-1.4-2.6-2.7-3.9-3.9c-0.9-0.9-1.4-1.4-1.4-1.7c0.1-0.4,0.3-0.6,0.6-0.5c0.3,0.1,0.7,0.3,1.3,0.8
		l3.8,2.9c0.7,0.5,1.2,0.3,1.5-0.4c1-3.3,1.3-7.4,0.9-12.3c0-0.7-0.4-1-1.2-0.9c-5.1,0.6-9.1,1.1-12,1.6c-0.7,0.1-1.5,0-2.3-0.5
		c-0.5-0.2-0.7-0.5-0.7-0.8c0.1-0.4,0.5-0.6,1.2-0.6c3.8-0.3,8.4-0.8,13.9-1.5c0.6-0.1,0.9-0.5,0.7-1.3c-0.3-1.5-0.8-3-1.6-4.4
		c-0.4-0.5-0.6-1-0.7-1.4c0.4-0.8,0.9-0.6,1.7,0.4c0.5,0.7,1.1,0.6,1.8-0.1c1.4-1.5,2.7-3,3.8-4.5c0.6-0.8,0.5-1.2-0.3-1.2
		c-4.8,0.6-9,1.3-12.5,2.1c-1,0.3-2,0-2.9-0.8l-0.2-0.5c0-0.2,0.4-0.4,1.3-0.6c6.4-0.7,11.7-1.5,16.1-2.5
		C30.1,320.3,30.5,320,30.8,319.7z"/>
</g>
<g>
	<g>
		<path d="M73.3,209.2l-12.7-13H86L73.3,209.2z M62.7,197l10.6,10.9L83.9,197H62.7z"/>
	</g>
	<g>
		<path d="M85.8,197h-25l4.2-6h16.6L85.8,197z M62.5,196.2h21.6l-3-4.3H65.5L62.5,196.2z"/>
	</g>
	<g>
		<polygon points="72.9,208.7 67.7,196.7 64.8,191.7 65.6,191.3 68.5,196.4 73.7,208.4 		"/>
	</g>
	<g>
		<polygon points="78.6,197.3 72.7,192.1 68.3,196.9 67.6,196.3 72.6,190.8 78.4,195.9 81,191.3 81.7,191.7 		"/>
	</g>
	<g>
		<polygon points="73.7,208.7 72.9,208.4 78.3,196.4 79.1,196.8 		"/>
	</g>
</g>
</svg>
