<svg id="圖層_1" data-name="圖層 1" xmlns="http://www.w3.org/2000/svg" viewBox="0 0 92.18 350.33"><defs><style>.cls-1{stroke:#000;stroke-miterlimit:10;stroke-width:2px;}</style></defs><title>暗處觀望</title><path class="cls-1" d="M434.35,176a12.26,12.26,0,0,1-2.74,1.28,8.62,8.62,0,0,1-1.7.48l0,.11L430,183h2.74l1.44-1.47c.73.54,1.41,1.07,2.06,1.58a.45.45,0,0,1,.22.37c0,.37-.14.55-.4.55h-6l.19,5.77h2.23l1.41-1.47c.74.51,1.44,1,2.09,1.54a.42.42,0,0,1,.25.37c0,.36-.14.55-.43.55h-5.52l.15,5.47h23.27l.32-5.47h-.9a23.3,23.3,0,0,0-3.46.14l-.62-1.43a20.93,20.93,0,0,0,4.08.3h1l.33-5.77h-1.3a21.3,21.3,0,0,0-3.46.15L449,182.7a21.93,21.93,0,0,0,4.08.29h1.37l.32-6h-2a22.32,22.32,0,0,0-3.5.15l-.58-1.47a20.93,20.93,0,0,0,4.08.3h1.3l1.59-1.62a15.21,15.21,0,0,1,1.94,1.83.92.92,0,0,1,.19.48c0,.22-.16.41-.47.55a6.8,6.8,0,0,1-1,.37l-1,18.66H456l1.58-1.62c.77.57,1.49,1.13,2.17,1.69.17.1.25.21.25.33,0,.4-.14.59-.43.59H429.12c-1.69,0-2.84.11-3.47.19l-.68-1.62a14.76,14.76,0,0,0,3.71.44l-.54-18.55a8.76,8.76,0,0,0-.14-1.87l1.91.88a8.6,8.6,0,0,0,2.06-1.32,4.91,4.91,0,0,0,1.33-1.8,23.45,23.45,0,0,1,2.92,1.8.54.54,0,0,1,.26.44.38.38,0,0,1-.4.4,4.19,4.19,0,0,1-.72-.11A2.75,2.75,0,0,0,434.35,176Zm3.17,25.38a19.72,19.72,0,0,1-3.42,2.46,24.9,24.9,0,0,1-3.47,1.91,24.26,24.26,0,0,1-4.07,1.54l-.47-.92a40.34,40.34,0,0,0,5.12-2.5,19,19,0,0,0,3.35-2.31,12.91,12.91,0,0,0,2.06-2.5c1,.57,1.89,1.1,2.64,1.62a.75.75,0,0,1,.1.44c0,.17-.23.26-.68.26Zm.83-15.83q2.49.51,2.49,1c0,.37-.39.6-1.19.7a19.6,19.6,0,0,1-.58,2.65,23.58,23.58,0,0,1-1,2.86,15.9,15.9,0,0,1-1.19,2.72l-.83-.55c.48-1.23.88-2.39,1.19-3.49a19.19,19.19,0,0,0,.76-3.2A16.41,16.41,0,0,0,438.35,185.53Zm1.3-12.53a9.19,9.19,0,0,1,2.82.7.44.44,0,0,1,.21.37c0,.19-.18.35-.54.47a8.56,8.56,0,0,1-1.05.22c-.07.93-.16,1.83-.28,2.68H444l1.48-1.46c.72.51,1.4,1,2,1.54.17.1.25.21.25.33,0,.39-.14.59-.43.59h-6.64c0,.17-.05.33-.07.47-.14,1.08-.32,2.21-.54,3.38h4.51l1-1.06a6.39,6.39,0,0,1,1.73,1.25.47.47,0,0,1,.14.36,1,1,0,0,1-.21.59,1.83,1.83,0,0,1-.62.48,44,44,0,0,1-.28,5.32,22.32,22.32,0,0,1-.62,3.72,4.06,4.06,0,0,1-1,1.87A3.92,3.92,0,0,1,443,196a2,2,0,0,0-.79-1.18,8.3,8.3,0,0,0-2.24-.77l.33-.85a7.4,7.4,0,0,0,2.41.41,1.73,1.73,0,0,0,1.08-.44,2.38,2.38,0,0,0,.65-1.54,54.33,54.33,0,0,0,.47-8.27h-5l-.07.3c-.08.36-.4.55-1,.55s-.76-.14-.76-.41l.08-.62a11,11,0,0,0,.36-1.51C439.1,178.1,439.48,175.23,439.65,173Zm6.5,26.34a34.23,34.23,0,0,1,5,1.61,38.17,38.17,0,0,1,3.72,1.8,7,7,0,0,1,1.69,1.32,6.16,6.16,0,0,1,.83,1.11,2.27,2.27,0,0,1,.18.88c0,.51-.2.77-.61.77a1.22,1.22,0,0,1-.69-.37,6.56,6.56,0,0,1-1-.84,19.19,19.19,0,0,0-1.91-1.55,28.6,28.6,0,0,0-2.71-1.61,47.57,47.57,0,0,0-4.76-2.57Z" transform="translate(-368.82 -171.91)"/><path class="cls-1" d="M426.23,225.45a14.64,14.64,0,0,0,4.19.48h4.22v-2.79a21.73,21.73,0,0,0-.15-3,13.61,13.61,0,0,1,3.39.81c.32.15.47.33.47.55s-.15.34-.47.44a4.56,4.56,0,0,1-1.55.44v3.53h12v-2.79a21.73,21.73,0,0,0-.15-3,13.61,13.61,0,0,1,3.39.81c.32.15.47.33.47.55s-.15.34-.47.44a4.46,4.46,0,0,1-1.51.44v3.53h3.86l1.77-2.09c.91.71,1.76,1.4,2.56,2.09a.52.52,0,0,1-.29,1h-7.9v16.6h5l1.88-2.16c1,.71,1.86,1.42,2.71,2.13a.59.59,0,0,1,.32.47c0,.42-.19.63-.58.63H429.26c-1.68,0-2.84.07-3.46.15l-.69-1.62a17.12,17.12,0,0,0,4.15.4h5.38v-16.6h-4.22a31.74,31.74,0,0,0-3.43.18Zm12.12,23.07a19.18,19.18,0,0,1-3.71,2.5,27.49,27.49,0,0,1-3.79,2,26.63,26.63,0,0,1-4.44,1.54l-.47-.88a42.49,42.49,0,0,0,5.63-2.57,24.74,24.74,0,0,0,3.68-2.35,13.67,13.67,0,0,0,2.27-2.54,25.29,25.29,0,0,1,2.56,1.62.5.5,0,0,1,.19.41c0,.19-.26.29-.76.29Zm-2-16.9h12v-4.7h-12Zm0,6h12v-5h-12Zm0,5.87h12v-4.81h-12Zm9.82,3a32.46,32.46,0,0,1,4.61,1.73,30.09,30.09,0,0,1,3.47,2,8.11,8.11,0,0,1,1.55,1.43,6.3,6.3,0,0,1,.72,1.21,2.64,2.64,0,0,1,.18,1c0,.4-.18.59-.54.59a1.26,1.26,0,0,1-.69-.36,7.13,7.13,0,0,1-.93-.92c-.65-.64-1.24-1.2-1.77-1.69-.7-.52-1.53-1.08-2.49-1.69a39.7,39.7,0,0,0-4.4-2.72Z" transform="translate(-368.82 -171.91)"/><path class="cls-1" d="M425.65,273.09a17.68,17.68,0,0,0,4.22.41h6.28c.15-.44.28-.89.4-1.33a38.56,38.56,0,0,0,1.12-5.25,10.36,10.36,0,0,1,2.78.7c.33.1.5.26.5.48s-.2.36-.61.51a6.74,6.74,0,0,1-1.23.33q-.64,2.61-1.23,4.56h16.38l1.88-2.17c1,.71,1.86,1.42,2.71,2.13a.62.62,0,0,1,.32.48.54.54,0,0,1-.61.62h-21c-.19.57-.39,1.09-.58,1.58a34.49,34.49,0,0,1-3.06,6.25c-.15.26-.28.5-.4.69,1.1.52,1.66.91,1.66,1.18s-.38.51-1.12.88v12.31a6.57,6.57,0,0,0,.18,1.79,4.59,4.59,0,0,1,.11.85c0,.76-.43,1.16-1.3,1.21-.51,0-.76-.21-.76-.62V284.92a20.39,20.39,0,0,1-1.91,2.46q-1.87,2-4.73,4.52l-.54-.77a42.08,42.08,0,0,0,4-4.15,24.76,24.76,0,0,0,2.81-4,38,38,0,0,0,2.64-4.92c.46-1.1.9-2.26,1.33-3.49h-6c-1.7,0-2.86.07-3.46.15Zm11.44,11.57a14.48,14.48,0,0,0,4.15.48h4.62v-5.73a21.56,21.56,0,0,0-.15-3,14.23,14.23,0,0,1,3.43.8c.34.15.51.33.51.55s-.17.35-.51.44a4.15,4.15,0,0,1-1.55.41v6.5h5.23l1.73-1.95c.87.69,1.67,1.34,2.42,1.95a.51.51,0,0,1,.32.44c0,.37-.15.55-.46.55h-9.24v12.49h7.11l1.69-2c.94.69,1.81,1.36,2.6,2a.51.51,0,0,1,.32.44q0,.63-.57.63H439.65c-1.68,0-2.82.07-3.43.14l-.75-1.61a17.22,17.22,0,0,0,4.18.4h6.21V286.13h-4.62c-1.68,0-2.83.07-3.43.15Z" transform="translate(-368.82 -171.91)"/><path class="cls-1" d="M425.26,316.88l2.12,1.61h5.52l1.16-1.61a7,7,0,0,1,1.88,1.54.77.77,0,0,1,.28.48c0,.24-.44.65-1.33,1.21v16.12c0,1.84,0,3,.11,3.6,0,.71,0,1.29,0,1.73a1,1,0,0,1-.36.81,2.25,2.25,0,0,1-.79.18c-.46,0-.69-.13-.69-.4v-1.36H427.1v1.36c0,.27-.23.4-.69.4a2.59,2.59,0,0,1-.83-.18,1,1,0,0,1-.32-.81c0-.44,0-1,.07-1.73a22,22,0,0,0,.18-3.6V319.34A10.84,10.84,0,0,0,425.26,316.88Zm1.84,12.34h6.09v-9.74H427.1Zm0,10.54h6.09v-9.55H427.1Zm17.17-25.71a9.72,9.72,0,0,1,1.73,1.1,6.86,6.86,0,0,1,1.37,1,2.77,2.77,0,0,1,.76.85,1.07,1.07,0,0,1,.22.62,2.51,2.51,0,0,1-.22,1.14.71.71,0,0,1-.36.33h5.88l1.73-2c.92.69,1.78,1.36,2.6,2a.54.54,0,0,1,.29.44q0,.63-.54.63h-4.48a12,12,0,0,1,2.2.88.72.72,0,0,1,.26.44q0,.33-.51.48a6.36,6.36,0,0,1-1.55.22c-.24.68-.49,1.32-.76,1.91s-.67,1.27-1,1.91a11.71,11.71,0,0,1-1,1.54,9.22,9.22,0,0,1-.65.81h5.16l1.77-2c.89.68,1.74,1.36,2.56,2a.53.53,0,0,1,.29.44c0,.42-.19.62-.58.62H439.94c-1.68,0-2.84.08-3.46.15l-.69-1.61a17.12,17.12,0,0,0,4.15.4h3.46a4.3,4.3,0,0,1-.28-1.14,12.46,12.46,0,0,0-.62-2.42,17,17,0,0,0-.86-2.24,13.8,13.8,0,0,0-1.23-2.24l.14-.15c-1.25.05-2.12.1-2.63.15l-.69-1.62a17.12,17.12,0,0,0,4.15.4h5.52c-.14-.07-.26-.28-.36-.62a4.06,4.06,0,0,0-.61-1.36,14.61,14.61,0,0,0-.9-1.29c-.34-.36-.77-.79-1.3-1.28Zm-4.62,17.48,2.2,1.62h11l1.12-1.62a8.72,8.72,0,0,1,1.91,1.58.7.7,0,0,1,.29.48c0,.24-.45.64-1.34,1.17v7.39c0,1.81,0,3,.11,3.56,0,.71,0,1.27,0,1.69a1,1,0,0,1-.36.84,1.9,1.9,0,0,1-.8.22c-.45,0-.68-.14-.68-.44v-1.47H441.53V348c0,.3-.23.44-.69.44a2.18,2.18,0,0,1-.83-.22,1,1,0,0,1-.36-.84c0-.42,0-1,.11-1.69a21.61,21.61,0,0,0,.18-3.56v-8.08A10.2,10.2,0,0,0,439.65,331.53Zm4.76-3.23h4.73a8.74,8.74,0,0,0,1.12-1.87c.38-.81.74-1.66,1.08-2.54a24.94,24.94,0,0,0,.79-2.68,6.87,6.87,0,0,0,.19-1.1H441.17a13.65,13.65,0,0,1,1.4,1.91,13.49,13.49,0,0,1,1.27,2,7.71,7.71,0,0,1,.68,1.72,5.47,5.47,0,0,1,.18,1.36,2.38,2.38,0,0,1-.18,1A.82.82,0,0,1,444.41,328.3Zm-2.88,10.76h11.58v-4.85H441.53Zm0,6.43h11.58v-5.4H441.53Z" transform="translate(-368.82 -171.91)"/><path class="cls-1" d="M440.55,360.66c1.06.2,1.93.39,2.6.59.29.1.43.23.43.4s-.09.26-.28.33a5.07,5.07,0,0,1-.87.44v1.33h7.76l1.58-1.77q1.34.88,2.46,1.8c.21.12.32.26.32.41,0,.36-.14.55-.43.55H442.43v2.53H454.8l1.05-1.21A28,28,0,0,1,458,367.9a.35.35,0,0,1,.1.25c0,.2-.22.35-.68.44s-.82.2-1.16.3c-.33.46-.74,1-1.22,1.54a12.22,12.22,0,0,1-1.41,1.54l-.54-.44a18.05,18.05,0,0,0,1.08-1.72,6.73,6.73,0,0,0,.61-1.51H440.37a14,14,0,0,1,2.06.59.4.4,0,0,1,.25.4.58.58,0,0,1-.36.52c-.24.12-.55.25-.94.4v1.47l6.57-.29,1.08-1.81,2.67,1.73a.43.43,0,0,1,.22.37c0,.22-.13.35-.4.4l-10.14.59v.63a4.5,4.5,0,0,0,.22,1.61,2,2,0,0,0,.76.63,4.52,4.52,0,0,0,1.77.33,19.7,19.7,0,0,0,3,.22,26.33,26.33,0,0,0,3.28-.19,9.08,9.08,0,0,0,2.17-.36,4.44,4.44,0,0,1,1.22-.22,1.48,1.48,0,0,1,.94.29,1.38,1.38,0,0,1,.36.92.25.25,0,0,1-.18.25.93.93,0,0,1-.47.3,17.09,17.09,0,0,1-2.2.26c-1.51.14-3,.22-4.4.22a36.2,36.2,0,0,1-4.29-.22,6.78,6.78,0,0,1-1.81-.3,2.86,2.86,0,0,1-1.11-.55,2.28,2.28,0,0,1-.8-1.06,5.39,5.39,0,0,1-.18-1.58v-1.07l-6.49.4-1.55.26-1.05-1.36,2.6-.07,6.49-.26V368.3H429.44v9.4c0,1.81-.07,3.53-.21,5.15a41.17,41.17,0,0,1-.47,4.33,25.67,25.67,0,0,1-.76,3.31,17.4,17.4,0,0,1-1.12,2.6,11,11,0,0,1-1.62,2.24l-.44-.29a13,13,0,0,0,1-2.13,19.66,19.66,0,0,0,.73-2.17,18.43,18.43,0,0,0,.54-3c.19-1.3.32-2.65.39-4,.12-1.77.18-3.77.18-6,0-4.9,0-8.82-.14-11.79l2.06,1.36H440.7V363.6A20.87,20.87,0,0,0,440.55,360.66Zm-4.9,15.24c2.31.49,3.46.93,3.46,1.33s-.67.57-2,.62q-.61,1.65-1.23,2.94h4.41l1.44-1.32c.79.61,1.47,1.16,2,1.65a.73.73,0,0,1,.25.51c0,.15-.18.32-.54.52a4,4,0,0,1-1.3.55,28.24,28.24,0,0,1-2.49,5,11.23,11.23,0,0,1-.86,1.32l0,0a10.25,10.25,0,0,0,2.71,1.91,12.17,12.17,0,0,0,3.43,1.18,33.69,33.69,0,0,0,5.19.33,46.16,46.16,0,0,0,5.3-.3c1.69-.22,3.11-.46,4.26-.73v.92a2.46,2.46,0,0,0-1.87,1.87c-1.74.1-3.53.15-5.38.15a55.14,55.14,0,0,1-6.1-.3,11.85,11.85,0,0,1-4.51-1.32,8,8,0,0,1-3.14-2.2,3.34,3.34,0,0,1-.61-.67,6.2,6.2,0,0,1-.54.63,22.4,22.4,0,0,1-2.53,2,17.61,17.61,0,0,1-3,1.69,16,16,0,0,1-3.61,1.32l-.14-.55a24.4,24.4,0,0,0,3.57-1.65c.74-.44,1.66-1,2.74-1.8a19.11,19.11,0,0,0,2.49-2.46,1.64,1.64,0,0,1,.18-.22A15.7,15.7,0,0,1,436,386.7a15.91,15.91,0,0,1-1.37-3.74,18.47,18.47,0,0,1-1.87,2.71,16.38,16.38,0,0,1-2.67,2.57l-.4-.69a30.92,30.92,0,0,0,2.09-2.5,14.2,14.2,0,0,0,1.59-2.68,18.52,18.52,0,0,0,1.37-3.2A27.84,27.84,0,0,0,435.65,375.9Zm-.47,6.1a15.1,15.1,0,0,0,1.51,4.15,11.79,11.79,0,0,0,1.16,1.84c.36-.61.71-1.26,1-1.95a21.65,21.65,0,0,0,1.66-4.26h-5.23A.84.84,0,0,1,435.18,382Zm10.14-3.45,2.27,1.61h3.5l.83-1.47c1.47,1.06,2.2,1.76,2.2,2.1s-.48.84-1.44,1.28v5.33a.77.77,0,0,0,.21.55,3.38,3.38,0,0,0,1.23.15c.26,0,.55,0,.87,0a.94.94,0,0,0,.75-.29,13,13,0,0,0,1.09-3.46l.75.15a21,21,0,0,0-.14,2.65c0,.46.17.74.5.84a1,1,0,0,1,.62.92.36.36,0,0,1-.22.33,3.27,3.27,0,0,1-.87.26,7.92,7.92,0,0,1-1.29.14,19,19,0,0,1-2,.11,19.4,19.4,0,0,1-2-.07,2,2,0,0,1-.86-.51,1.13,1.13,0,0,1-.33-.89v-7h-3.78a19.77,19.77,0,0,1-.22,3.08,9.83,9.83,0,0,1-.79,2.47,7,7,0,0,1-1.09,1.8,12.45,12.45,0,0,1-2.38,2.05l-.54-.62a6.9,6.9,0,0,0,1.55-1.8,7.23,7.23,0,0,0,.9-1.95,13.3,13.3,0,0,0,.62-2.68,24.42,24.42,0,0,0,.25-2.79C445.44,380,445.39,379.21,445.32,378.55Z" transform="translate(-368.82 -171.91)"/><path class="cls-1" d="M424.64,410.76a20.83,20.83,0,0,0,4,.29h1.74v-.77a14.72,14.72,0,0,0-.15-2.46q1.62.23,2.67.48c.24.1.36.22.36.37s-.09.25-.29.33a3.32,3.32,0,0,1-1,.44v1.87a4.65,4.65,0,0,0,.08,1.07c0,.39.07.72.07,1,0,.68-.33,1-1,1s-.9-.19-.9-.55a9.42,9.42,0,0,1,.07-1.11,5.29,5.29,0,0,0,0-.66h-1.7a20.92,20.92,0,0,0-3.42.15ZM429,421.49a16.9,16.9,0,0,1,2.82,1.06.62.62,0,0,1,.21.37.52.52,0,0,1-.39.51,4.31,4.31,0,0,1-1.34.26,12.65,12.65,0,0,1-.79,1.73h5.7A1.49,1.49,0,0,1,435,425a5,5,0,0,0-.32-1,5.06,5.06,0,0,0-.51-.88,8.55,8.55,0,0,0-.75-1l.61-.4a6.71,6.71,0,0,1,1,.7,4,4,0,0,1,.8.66,1.76,1.76,0,0,1,.43.55,1.05,1.05,0,0,1,.07.4,3.42,3.42,0,0,1-.14,1.07.68.68,0,0,1-.25.26h3.17l1.59-1.62c.77.59,1.49,1.15,2.16,1.69a.5.5,0,0,1,.26.37c0,.41-.15.62-.44.62h-6.89v3.38h2.42l1.44-1.47c.75.52,1.44,1,2.09,1.54.17.1.26.21.26.34,0,.41-.16.62-.47.62h-5.74v3.53h2.42l1.44-1.47c.75.51,1.44,1,2.09,1.54.17.1.26.21.26.33,0,.39-.16.59-.47.59h-5.74v3.71h3.32l1.59-1.62c.77.56,1.49,1.13,2.16,1.69.17.1.26.21.26.33,0,.39-.15.59-.44.59H429.44c0,.24.05.42.07.51a5.3,5.3,0,0,1,.08,1c0,.39-.44.65-1.3.77-.41,0-.62-.15-.62-.44V428.46c-.26.37-.51.7-.75,1A13.58,13.58,0,0,1,425.4,431l-.58-.48a12.7,12.7,0,0,0,1.52-2.13,26.54,26.54,0,0,0,2.38-5.51A9.72,9.72,0,0,0,429,421.49Zm-3.46-7.09,2.16,1.21h3.18l1-1.21c1.25.78,1.87,1.32,1.87,1.61s-.32.63-1,1.07v2.57c.24.22.46.4.65.55a.31.31,0,0,1,.18.26c0,.36-.1.55-.29.55h-6.06v.15a.6.6,0,0,1-.4.55,2.64,2.64,0,0,1-.9.22.38.38,0,0,1-.43-.44Zm1.73,5.62H431V416.6h-3.79Zm6.82,9.84v-3.38h-4.62v3.38Zm0,4.56v-3.53h-4.62v3.53Zm-4.62,4.7h4.62v-3.71h-4.62Zm5.74-24.72,2.2,1.21h3.17l1-1.21c1.27.78,1.91,1.32,1.91,1.61s-.34.63-1,1.07v2.57c.24.22.46.4.65.55s.22.16.22.26c0,.36-.11.55-.33.55h-6.06v.15a.6.6,0,0,1-.43.55,2.38,2.38,0,0,1-.83.22c-.32,0-.47-.15-.47-.44Zm.14-6.43q1.62.22,2.67.48c.24.09.36.22.36.36s-.09.26-.29.33a2.86,2.86,0,0,1-1,.44v1.62h3l1.63-1.62c.74.54,1.47,1.1,2.16,1.66.17.12.26.24.26.37,0,.41-.14.62-.4.62h-6.6a.64.64,0,0,1,0,.15,7.87,7.87,0,0,1,.07,1,.9.9,0,0,1-1,1c-.6,0-.9-.19-.9-.55s0-.69.07-1.11a12.69,12.69,0,0,0,.08-1.28v-1A15,15,0,0,0,435.32,408Zm1.59,12h3.79V416.6h-3.79Zm7.36-11.5,2.2,1.62h8.62l1.19-1.62a7.8,7.8,0,0,1,1.88,1.58.73.73,0,0,1,.25.51q0,.33-1.26,1.14v13c0,1.81,0,3,.07,3.56,0,.71.07,1.29.07,1.73a1,1,0,0,1-.39.81,2.32,2.32,0,0,1-.76.22c-.51,0-.76-.16-.76-.48V430h-2.16v8.48a2.35,2.35,0,0,0,.14.88.77.77,0,0,0,.47.48,7.15,7.15,0,0,0,1.59.11,8.4,8.4,0,0,0,1.51-.11.53.53,0,0,0,.44-.33,2.65,2.65,0,0,0,.21-.84c.1-.57.18-1.89.26-4l.57.11v3.09a1.73,1.73,0,0,0,.26,1,1.66,1.66,0,0,0,.75.69.52.52,0,0,1,.29.52,1,1,0,0,1-.11.4,1.1,1.1,0,0,1-.54.55,3.2,3.2,0,0,1-1.37.37,13,13,0,0,1-1.8.15,13.41,13.41,0,0,1-2.38-.15,2.05,2.05,0,0,1-1.16-.33,1.18,1.18,0,0,1-.68-.7,3.17,3.17,0,0,1-.15-.88V430H450c-.12,1.12-.28,2.14-.47,3.05a10.34,10.34,0,0,1-.94,2.86,11.24,11.24,0,0,1-1.3,2.57,10,10,0,0,1-1.84,2,14.57,14.57,0,0,1-2.78,1.84l-.54-.77a11.27,11.27,0,0,0,2.42-2.06,10.11,10.11,0,0,0,1.51-2,11.83,11.83,0,0,0,1-2.13,13.08,13.08,0,0,0,.69-2.64,22.5,22.5,0,0,0,.4-2.72h-2v.55q0,.48-.69.48a2.33,2.33,0,0,1-.83-.22,1.06,1.06,0,0,1-.36-.81c0-.44,0-1,.11-1.73a21.61,21.61,0,0,0,.18-3.56V411.05A10.12,10.12,0,0,0,444.27,408.52Zm1.88,7.79h9.23V411.2h-9.23Zm0,6.31h9.23v-5.25h-9.23Zm0,6.32h9.23v-5.25h-9.23Z" transform="translate(-368.82 -171.91)"/><path class="cls-1" d="M431.32,455.1a13.38,13.38,0,0,1,1.58,1.1,6.34,6.34,0,0,1,1.27.95,2.34,2.34,0,0,1,.68.85,1.15,1.15,0,0,1,.18.62,2.52,2.52,0,0,1-.21,1.14.89.89,0,0,1-.29.33h3.68l1.59-1.76,2.45,1.8c.19.12.29.25.29.4,0,.42-.13.63-.4.63H430v6a8.85,8.85,0,0,0,.11,1.91.86.86,0,0,0,.57.62,7.26,7.26,0,0,0,1.92.48,20.82,20.82,0,0,0,3.14.22,17.61,17.61,0,0,0,2.3-.18,3.11,3.11,0,0,0,1.3-.41,1,1,0,0,1,.44-.18,1.86,1.86,0,0,1,1.11.29,1.08,1.08,0,0,1,.47.89.77.77,0,0,1-.07.4,1.08,1.08,0,0,1-.58.29,10.4,10.4,0,0,1-2.2.33,22.7,22.7,0,0,1-2.59.19,25.23,25.23,0,0,1-4.08-.33,7.62,7.62,0,0,1-2.56-.59,1.53,1.53,0,0,1-.62-.66,3.3,3.3,0,0,1-.36-1.1c0-.42,0-1.19,0-2.32v-5.84c-1.16,0-2,.06-2.49.11l-.69-1.61a17.12,17.12,0,0,0,4.15.4h4.37c-.12-.07-.22-.28-.29-.62a4.33,4.33,0,0,0-.58-1.36,8.55,8.55,0,0,0-2.06-2.57Zm20.35,20.16q-3,.74-6,1.36c-.82.15-1.6.27-2.34.37v4.59h7.79l1.73-2.06c.91.69,1.77,1.37,2.56,2.06.22.1.33.23.33.4a.55.55,0,0,1-.62.63H443.3v4.85h11.11l1.73-2.1c1,.71,1.86,1.41,2.71,2.1a.52.52,0,0,1,.32.44c0,.36-.2.55-.61.55H430.13c-1.69,0-2.83.07-3.43.14l-.76-1.61a14.93,14.93,0,0,0,4.19.48h11.4v-4.85h-7.65c-1.68,0-2.84.07-3.46.14l-.69-1.61a15.87,15.87,0,0,0,4.15.44h7.65v-4.34c-1.21.15-2.41.29-3.61.41-2.16.24-4.89.43-8.19.55l-.14-.77c1.75-.1,3.63-.26,5.62-.48s3.74-.48,5.52-.84,3.52-.69,4.84-1a22.68,22.68,0,0,0,3.35-1.1,12.14,12.14,0,0,0,2-1c.85.56,1.59,1.1,2.24,1.62a.5.5,0,0,1,.18.33c0,.29-.13.44-.4.44A7.18,7.18,0,0,1,451.67,475.26ZM447.05,455c2.28.45,3.43.89,3.43,1.33s-.67.5-2,.55a16.19,16.19,0,0,1-.79,1.61H455l1.59-1.46c.86.68,1.58,1.28,2.16,1.79a.76.76,0,0,1,.33.59c0,.17-.21.36-.62.55a4.24,4.24,0,0,1-1.44.59,32.14,32.14,0,0,1-2.85,5.36,15.27,15.27,0,0,1-2.45,3,26.7,26.7,0,0,1-3,2.13,25.24,25.24,0,0,1-3.5,1.8,20.09,20.09,0,0,1-4.26,1.4l-.25-.56a28.11,28.11,0,0,0,4.26-1.76c.86-.46,1.94-1.09,3.24-1.87l.11-.11a1,1,0,0,1-.25,0,1.17,1.17,0,0,1-.62-.18,2,2,0,0,1-.5-.84,11.91,11.91,0,0,0-1.52-2.61,15.45,15.45,0,0,0-1.94-1.95,20.18,20.18,0,0,1-2.78,2.21l-.43-.7c1-.93,1.81-1.7,2.41-2.32a13.76,13.76,0,0,0,1.81-2.53,18.41,18.41,0,0,0,1.58-3A20.35,20.35,0,0,0,447.05,455Zm-3.14,8.93a14.35,14.35,0,0,1,2.85,1.95,6.71,6.71,0,0,1,1.62,1.8,2.51,2.51,0,0,1,.36,1.28,1.18,1.18,0,0,1-.18.74,19.78,19.78,0,0,0,2.6-2.32,13.88,13.88,0,0,0,.83-1.14.67.67,0,0,1-.47.19,2.21,2.21,0,0,1-.79-.15,1.93,1.93,0,0,1-.65-.77,11.94,11.94,0,0,0-1.95-2.28,15,15,0,0,0-2.34-1.58A14.83,14.83,0,0,1,443.91,463.91Zm2.24-2.79a19.37,19.37,0,0,1,3.53,1.65,7.36,7.36,0,0,1,2.06,1.54,1.66,1.66,0,0,1,.47,1.11,1.19,1.19,0,0,1-.15.66,17.75,17.75,0,0,0,1.23-2,19.14,19.14,0,0,0,1.95-4.52h-8.08c-.32.54-.64,1-1,1.51A.11.11,0,0,0,446.15,461.12Z" transform="translate(-368.82 -171.91)"/><path class="cls-1" d="M371.32,194.53a16,16,0,0,0,4.22.45h24.25l1.87-2.25c1,.74,1.93,1.47,2.82,2.21.24.12.36.27.36.44a.55.55,0,0,1-.62.62H390.91a25,25,0,0,1-2,4.08,3.54,3.54,0,0,0-.29.4v3.35a40.69,40.69,0,0,1,5.73,2.86,32.42,32.42,0,0,1,4.37,3.05A10.91,10.91,0,0,1,401,211.8a3.46,3.46,0,0,1,.9,1.32,4,4,0,0,1,.18,1.07c0,.41-.13.62-.4.62a1.73,1.73,0,0,1-.9-.29,6.48,6.48,0,0,1-1.62-1.44,22,22,0,0,0-3.14-3.19,35.87,35.87,0,0,0-3.65-3.09c-1.13-.76-2.37-1.52-3.71-2.27v18.21a5.5,5.5,0,0,0,.07,1.11,9.59,9.59,0,0,1,.07,1.06c0,.81-.37,1.21-1.12,1.21s-.9-.21-.9-.62,0-1.18.07-2,.08-1.61.08-2.25V203.09c-.27.37-.52.72-.76,1.07a45.23,45.23,0,0,1-4.08,4.18c-1.44,1.25-2.95,2.45-4.51,3.61a65.28,65.28,0,0,1-6.38,3.45l-.4-.77a40.94,40.94,0,0,0,6.42-3.75,37.69,37.69,0,0,0,9.45-10.06,31.44,31.44,0,0,0,2.24-4.82H375.54c-1.71,0-2.86.08-3.46.15Z" transform="translate(-368.82 -171.91)"/><path class="cls-1" d="M378.72,239.16c1.27.49,2.38,1,3.32,1.4a.77.77,0,0,1,.25.51c0,.3-.23.49-.69.59a6.42,6.42,0,0,1-1.19.18c-.48,2.45-1,4.82-1.62,7.09a5.1,5.1,0,0,1-.15.55l1.74-.07c1.61-.07,3.12-.16,4.54-.26.07-.76.11-1.49.11-2.2v-1.47a16.91,16.91,0,0,1,2.92.7.48.48,0,0,1,.4.51c0,.15-.19.33-.58.55s-.77.38-1,.48c0,.47-.06.91-.11,1.32l2.46-.18v.62l-2.57.37a27.4,27.4,0,0,1-1.19,5.58,33.33,33.33,0,0,1-3.06,7.24,15.1,15.1,0,0,1,1.91,1.47,15.7,15.7,0,0,1,2.34,2.24,2.67,2.67,0,0,1,.73,1.25,4,4,0,0,1,.25,1.36c0,.61-.25.92-.76.92-.19,0-.55-.36-1.08-1.07a19.13,19.13,0,0,0-2.89-3.19l-1.51-1.4a26,26,0,0,1-3.21,4.11,27.63,27.63,0,0,1-6.17,4.78l-.58-.92a26.87,26.87,0,0,0,6.21-5.22,23.42,23.42,0,0,0,2.67-3.59,15.33,15.33,0,0,0-1.74-1.22,17.9,17.9,0,0,0-4.07-2.2l0,0-.14-.11a3.13,3.13,0,0,0-.54-.19l.07-.11-.07,0q1.18-2.86,2-5.4c.26-1,.54-2,.83-3l-3.47.37c-.38.88-.66,1.32-.83,1.32s-.18-.08-.32-.25a25,25,0,0,1-1.41-3c2.16,0,4.32,0,6.46-.11a2.49,2.49,0,0,1,.07-.29c.41-1.81.76-3.52,1.05-5.11S378.55,241,378.72,239.16Zm2.3,22.78a2.55,2.55,0,0,0,.29-.48,36.55,36.55,0,0,0,2.82-7.6,29,29,0,0,0,.72-3.75c-1.11.15-2.2.28-3.28.4l-3.36.48c-.46,1.37-.9,2.63-1.33,3.78-.58,1.4-1.26,2.83-2,4.3a21.52,21.52,0,0,1,5.05,2.24Q380.48,261.61,381,261.94Zm8.92-19.1,2.2,1.61h8.76l1.05-1.14c1.23.76,1.84,1.3,1.84,1.62s-.32.58-1,1v22a6.83,6.83,0,0,0,.65.55c.12.08.18.16.18.26,0,.37-.09.55-.26.55H391.81v2.1c0,.29-.23.44-.68.44a2.28,2.28,0,0,1-.83-.22,1,1,0,0,1-.36-.85c0-.42,0-1,.1-1.69a21.21,21.21,0,0,0,.19-3.56V245.33A9.68,9.68,0,0,0,389.94,242.84Zm1.87,25.45h9.24V245.48h-9.24Z" transform="translate(-368.82 -171.91)"/><path class="cls-1" d="M374.1,307.67a13.25,13.25,0,0,1,2.52,1.39.43.43,0,0,1,.22.37c0,.12-.13.23-.4.33a4.52,4.52,0,0,1-1,.22,19.63,19.63,0,0,1-.94,1.76,10.24,10.24,0,0,1-1.12,1.66,10.9,10.9,0,0,1-1.23,1.58c-.48.51-1,1-1.48,1.47l-.46-.45a17.53,17.53,0,0,0,1.47-2.2,15.4,15.4,0,0,0,1.12-2.17c.36-.78.66-1.5.91-2.16S374,308.21,374.1,307.67Zm2.74-21.75a10.63,10.63,0,0,1,1.15,1,5.94,5.94,0,0,1,.91.88,2.3,2.3,0,0,1,.5.77,1.35,1.35,0,0,1,.15.62,2.63,2.63,0,0,1-.22,1.14,1.89,1.89,0,0,1-.14.19h3.39L384,289c.74.51,1.44,1,2.09,1.54.17.1.25.21.25.33,0,.39-.14.59-.43.59h-3.14c.72.39,1.36.76,1.92,1.1a.44.44,0,0,1,.21.37q0,.26-.36.36a7.53,7.53,0,0,1-1.08.26c-.22.52-.43,1-.65,1.54a14.26,14.26,0,0,1-.83,1.47,9.79,9.79,0,0,1-.94,1.4c-.19.24-.38.48-.58.7h1.95l1.45-1.47c.74.54,1.44,1.06,2.09,1.58.17.1.25.21.25.33,0,.41-.16.62-.47.62H379.4v5.11h3.79l1.44-1.47c.72.54,1.4,1.06,2,1.58.17.1.26.21.26.33,0,.42-.14.62-.4.62H379.4v11.32a5.45,5.45,0,0,0,.07,1.1,9.16,9.16,0,0,1,.08,1.06c0,.79-.38,1.18-1.12,1.18s-.9-.18-.9-.55c0-.54,0-1.21.07-2s.07-1.61.07-2.24V305.9h-2.89c-1.68,0-2.83.08-3.46.15l-.69-1.62a17,17,0,0,0,4.15.41h2.89v-5.11h-2.42c-1.71,0-2.87.08-3.5.15l-.68-1.62a17.15,17.15,0,0,0,4.18.41h.22a2.34,2.34,0,0,1-.25-1,13.69,13.69,0,0,0-.47-2.13q-.33-1-.69-1.95a13.28,13.28,0,0,0-1-2l.11-.07-1.26.07-.72-1.61a16.41,16.41,0,0,0,4.22.44h2.81c0-.15-.1-.31-.14-.48a8.37,8.37,0,0,0-.4-1.29c-.19-.41-.39-.81-.58-1.17a6.4,6.4,0,0,0-.86-1.21Zm-.47,12.75h3.28a18.74,18.74,0,0,0,.91-1.88c.26-.63.51-1.28.75-1.94s.41-1.4.58-2,.17-1,.22-1.39H375.4c-.58,0-1.07.07-1.48.07.36.52.69,1,1,1.58a8.7,8.7,0,0,1,1,1.73,5.94,5.94,0,0,1,.58,1.47,4,4,0,0,1,.18,1.17,2.33,2.33,0,0,1-.22,1.07C376.43,298.63,376.39,298.67,376.37,298.67Zm4.94,9.55q1,.76,1.77,1.5c.53.49.95.91,1.26,1.25a5.31,5.31,0,0,1,.65.77,5.64,5.64,0,0,1,.22.66,1.43,1.43,0,0,1,.11.52c0,.81-.3,1.21-.83,1.21a.46.46,0,0,1-.33-.15,9.29,9.29,0,0,1-.61-1.28,9.77,9.77,0,0,0-1.08-1.95,14.17,14.17,0,0,0-1.63-2.09ZM388,286.77l2.13,1.65h10.68l1.19-1.65a6.81,6.81,0,0,1,1.88,1.58.86.86,0,0,1,.25.51c0,.22-.42.61-1.26,1.18v12.15c0,1.84,0,3,.07,3.6s.07,1.29.07,1.73a1,1,0,0,1-.4.81,2.5,2.5,0,0,1-.75.18c-.51,0-.76-.15-.76-.44v-.4h-2.56v9a2,2,0,0,0,.14.81.91.91,0,0,0,.51.51,10,10,0,0,0,1.84.11,13.27,13.27,0,0,0,1.76-.11.77.77,0,0,0,.51-.37,2,2,0,0,0,.22-.84,36.67,36.67,0,0,0,.32-4.08l.61.11V316a1.88,1.88,0,0,0,.22,1,2.1,2.1,0,0,0,.76.69.56.56,0,0,1,.29.55,1.12,1.12,0,0,1-.72.92,3.62,3.62,0,0,1-1.52.37,15.72,15.72,0,0,1-2,.15,15.93,15.93,0,0,1-2.57-.15,2.37,2.37,0,0,1-1.26-.33,1.54,1.54,0,0,1-.68-.7,2.7,2.7,0,0,1-.18-.88v-9.95h-3a18.39,18.39,0,0,1-.72,3.12,8,8,0,0,1-1.37,2.94,12,12,0,0,1-2,2.6,14.27,14.27,0,0,1-2.77,2.1,25.21,25.21,0,0,1-4.15,1.87l-.47-.62a19.25,19.25,0,0,0,4-2.13,17.7,17.7,0,0,0,2.46-2.1,16.22,16.22,0,0,0,1.58-2.2,10.13,10.13,0,0,0,1.16-2.72c.21-.81.41-1.76.58-2.86h-2.28v.4c0,.29-.23.44-.68.44a2.54,2.54,0,0,1-.83-.18,1.1,1.1,0,0,1-.33-.81c0-.44,0-1,.07-1.73a22,22,0,0,0,.18-3.6V289.26A10.8,10.8,0,0,0,388,286.77Zm1.84,7.49h11.26v-4.85H389.79Zm0,5.88h11.26v-4.82H389.79Zm0,6.46h11.26v-5.4H389.79Z" transform="translate(-368.82 -171.91)"/><path class="cls-1" d="M384.16,332.94q3.36.69,3.36,1.32c0,.27-.64.45-1.91.55a17.69,17.69,0,0,1-2.64,2.94h12.34l1.12-1.58a8,8,0,0,1,1.91,1.54.67.67,0,0,1,.29.48c0,.24-.48.64-1.44,1.17v13a22,22,0,0,0,1.73-1.8,23,23,0,0,0,3.72-4.7c1.05.51,1.94,1,2.67,1.43q.36.3.36.48c0,.15-.2.28-.58.4a5.32,5.32,0,0,1-1.44.22,67.79,67.79,0,0,1-6.46,6.25v9.77a2.33,2.33,0,0,1-.72,1.87,3.69,3.69,0,0,1-1.59,1,4.42,4.42,0,0,1-1.62.36,1.46,1.46,0,0,0-.51-1.21,4.72,4.72,0,0,0-1.88-.77,16.06,16.06,0,0,0-3.35-.51v-.85a37.48,37.48,0,0,0,6.06.55,4.57,4.57,0,0,0,1.59-.18,1,1,0,0,0,.43-1v-7.78a52.58,52.58,0,0,1-6.13,3.82,59.29,59.29,0,0,1-18.29,6.72l-.26-.55q6.18-1.65,9.28-2.83a54.29,54.29,0,0,0,6.34-3,53.59,53.59,0,0,0,6.68-4.38c.87-.66,1.66-1.29,2.38-1.91v0a86.06,86.06,0,0,1-8.8,1.69c-3.47.68-6.5,1.2-9.09,1.54-1.57.29-2.91.51-4,.66-.39,1-.69,1.47-.91,1.47s-.57-1.08-1.3-3.23q1.38,0,5.16-.3c.58,0,1.18-.07,1.81-.14V338.67a9.7,9.7,0,0,0-.29-2.5l2.16,1.58H382a7.92,7.92,0,0,0,1.51-2.17A12.6,12.6,0,0,0,384.16,332.94ZM380,343.19H395.6v-4.38H380Zm0,5.58H395.6v-4.56H380Zm0,6.5q2.82-.25,6.07-.81c3.17-.39,6.35-.93,9.52-1.61v-3H380Z" transform="translate(-368.82 -171.91)"/><path class="cls-1" d="M374.1,380.65l2.13,1.18h5.52l1-1.18c1.25.79,1.87,1.32,1.87,1.62s-.35.61-1,1V391h.14l1-1.06a18.11,18.11,0,0,1,1.58,1.32v-8.78l2.13,1.14h2.64v-1A16.83,16.83,0,0,0,391,380a22.41,22.41,0,0,1,2.38.48c.24.1.36.22.36.37a.36.36,0,0,1-.28.33,3.54,3.54,0,0,1-.73.44v2H396v-1a16.83,16.83,0,0,0-.15-2.65,21.9,21.9,0,0,1,2.42.48c.24.1.36.22.36.37a.35.35,0,0,1-.25.33,4.33,4.33,0,0,1-.79.44v2h3l1-1.14c1.23.76,1.84,1.3,1.84,1.62s-.33.57-1,1V393c0,.47-.37.77-1.12.92-.41,0-.61-.1-.61-.29V393H388.1v.48c0,.22-.15.39-.44.51a3,3,0,0,1-.9.19.36.36,0,0,1-.4-.41v-1.58a.19.19,0,0,1-.1,0l-1.09.22a8,8,0,0,1-.75,1,13,13,0,0,1-.94,1l-.43-.29a7,7,0,0,0,.5-1.14,7.58,7.58,0,0,0,.33-1H373.09a5,5,0,0,1-.11.66,6.47,6.47,0,0,1-.36,1.58,2.52,2.52,0,0,1-.47,1,1.17,1.17,0,0,1-.36.4.51.51,0,0,1-.33.11c-.55,0-.83-.23-.83-.69a.52.52,0,0,1,.11-.33,6.64,6.64,0,0,0,.9-1.36,4.64,4.64,0,0,0,.65-1.51,15.66,15.66,0,0,0,.36-2.28h.55c0,.52,0,1,0,1.36h.94ZM374,394.06l2,1.32h5.66l.83-1.21c1.37.86,2.06,1.44,2.06,1.76s-.34.55-1,.77v14.81a1.59,1.59,0,0,1-.4,1.13,2.47,2.47,0,0,1-1,.92,4.57,4.57,0,0,1-1.41.63,3.46,3.46,0,0,0-.22-1.36,1.06,1.06,0,0,0-.5-.48,5.59,5.59,0,0,0-1.7-.7V411a5.44,5.44,0,0,0,2.42.7c.43,0,.71-.08.83-.25a1.07,1.07,0,0,0,.22-.74v-6.1c-.36.2-.7.37-1,.52-.58.27-1.13.51-1.66.73a12.81,12.81,0,0,1-1.55.59c-.25.78-.43,1.18-.55,1.18s-.6-.69-1.29-2.06c0,.19,0,.39,0,.59a23.33,23.33,0,0,1-.4,2.82,18.51,18.51,0,0,1-.68,2.21,9.36,9.36,0,0,1-.94,1.72,10.53,10.53,0,0,1-1.41,1.47l-.47-.29a8.16,8.16,0,0,0,.87-1.4c.19-.44.37-.9.54-1.39a13.94,13.94,0,0,0,.47-1.95c.14-.86.25-1.72.32-2.61.1-1.17.15-2.51.15-4Q374.1,397.29,374,394.06Zm1.77,10.83q1.08-.13,1.95-.33a22.06,22.06,0,0,0,2.16-.51c.58-.15,1.22-.32,1.92-.52v-1.72a.7.7,0,0,1-.44.18,1.38,1.38,0,0,1-.54-.18,21.06,21.06,0,0,0-3-1.32,8.86,8.86,0,0,0-2-.59v2.79C375.79,403.5,375.77,404.23,375.72,404.89Zm.07-13.92H378v-6.46l2.2,1.17h1.73v-2.79h-6.1Zm0,8.08a28.29,28.29,0,0,1,2.85.33,6.61,6.61,0,0,1,2.06.59,2,2,0,0,1,1,.7c.05.05.08.09.08.11v-4.41h-6Zm3.94-8.08h2.16v-4.3h-2.16Zm7.64,7.64,2.17,1.18h10.39l1-1.18q1.92,1.14,1.92,1.62c0,.24-.34.59-1,1v3.49l.65.51c.12.05.18.12.18.22,0,.42-.1.63-.29.63H399a15.19,15.19,0,0,1,1.87,1.06.46.46,0,0,1,.22.41q0,.21-.36.33a6,6,0,0,1-1.08.25c-.17.4-.37.79-.58,1.18a6,6,0,0,1-.69,1.14,11.92,11.92,0,0,1-.83,1.06c-.12.15-.23.28-.32.41h4.62l1.44-1.47c.72.54,1.39,1.06,2,1.58a.41.41,0,0,1,.25.36c0,.37-.14.55-.43.55h-16.6c-1.68,0-2.84.08-3.46.15l-.69-1.61a15.92,15.92,0,0,0,4.15.44h2.75a4.51,4.51,0,0,1-.26-.74,13.74,13.74,0,0,0-.94-2.53,11.28,11.28,0,0,0-1.22-1.88.42.42,0,0,1-.18.11,2.66,2.66,0,0,1-.83.19c-.29,0-.44-.14-.44-.41Zm-2.45-3.23a17.31,17.31,0,0,0,4.19.4h12.41l1.44-1.46c.72.53,1.41,1.06,2.06,1.57a.42.42,0,0,1,.21.34c0,.41-.13.62-.39.62H389.11c-1.71,0-2.88.07-3.5.15Zm3.18-7.64h3v-3.08h-3Zm0,4.26h3v-3.23h-3Zm1,13.08h11v-4.3h-11Zm3.24,6.87h3.86a13.62,13.62,0,0,0,.76-1.55,11.93,11.93,0,0,0,.62-1.61c.19-.59.34-1.13.46-1.62a8.09,8.09,0,0,0,.26-1.06h-9a9,9,0,0,1,1.95,2,8.45,8.45,0,0,1,1.08,1.72,3.28,3.28,0,0,1,.25,1.25A1.31,1.31,0,0,1,392.35,412Zm.36-27.29v3.08H396v-3.08Zm0,7.34H396v-3.23h-3.29Zm4.88-7.34v3.08h3.17v-3.08Zm0,7.34h3.17v-3.23h-3.17Z" transform="translate(-368.82 -171.91)"/><path class="cls-1" d="M372.51,450.33h.4v1.51a19.36,19.36,0,0,1-.11,2.05,7.17,7.17,0,0,1-.33,1.62,3.37,3.37,0,0,1-.43.95,1.34,1.34,0,0,1-.47.48.77.77,0,0,1-.39.11c-.58,0-.87-.18-.87-.55a1.25,1.25,0,0,1,.32-.7,7,7,0,0,0,1.05-1.76,6,6,0,0,0,.58-1.54A13.42,13.42,0,0,0,372.51,450.33Zm10.25-23c.72.54,1.4,1.07,2.05,1.58a.41.41,0,0,1,.22.33c0,.42-.13.63-.4.63h-5.37v4.85H381l1.3-1.36c.7.51,1.33,1,1.91,1.47.19.07.29.17.29.29,0,.42-.16.63-.47.63h-4.76v4.51H381l1.3-1.28a19.79,19.79,0,0,1,1.91,1.43c.19.1.29.21.29.33,0,.37-.16.55-.47.55h-4.76v5h2.49l1.3-1.14a12.77,12.77,0,0,1,1.87,1.28,1,1,0,0,1,.25.48c0,.29-.48.63-1.44,1a59.88,59.88,0,0,1-.65,6.43,24.05,24.05,0,0,1-.94,4,4.14,4.14,0,0,1-1,1.69,7.62,7.62,0,0,1-1.3,1.07,2.24,2.24,0,0,1-1,.33,1.74,1.74,0,0,0-.25-1,10.17,10.17,0,0,0-3.07-1.54l.15-.7a14.32,14.32,0,0,0,3.42.85,1.77,1.77,0,0,0,.8-.18,1,1,0,0,0,.47-.52,8.43,8.43,0,0,0,.64-1.65,24.67,24.67,0,0,0,.58-3.49c.19-1.49.33-3.45.4-5.88h-7.65v.41c0,.31-.23.47-.68.47a2.09,2.09,0,0,1-.83-.22,1.1,1.1,0,0,1-.33-.81c0-.44,0-1,.07-1.72a22,22,0,0,0,.18-3.6V429.76a11.29,11.29,0,0,0-.25-2.53l2.13,1.61h6.67Zm-8,22.67a5.7,5.7,0,0,1,.65,1.43,6,6,0,0,1,.4,1.58,9.67,9.67,0,0,1,.11,1.36,3.7,3.7,0,0,1-.15,1.1.89.89,0,0,1-.43.51.75.75,0,0,1-.43.19c-.39,0-.58-.21-.58-.63a3.37,3.37,0,0,1,.11-.66,6.15,6.15,0,0,0,.07-1.65,16.07,16.07,0,0,0-.29-3.09Zm2.75-15.28v-4.85h-3.18v4.85Zm0,5.54v-4.51h-3.18v4.51Zm-3.18,6h3.18v-5h-3.18Zm2.63,3.08a9.77,9.77,0,0,1,.76,1.18,3.61,3.61,0,0,1,.65,1.06,2.73,2.73,0,0,1,.36.88,2.45,2.45,0,0,1,.11.74,2.24,2.24,0,0,1-.18,1,.83.83,0,0,1-.72.48c-.07,0-.13-.06-.18-.19a1.41,1.41,0,0,1-.15-.69,13.87,13.87,0,0,0-.28-1.4,10.51,10.51,0,0,0-.37-1.28,7.38,7.38,0,0,0-.61-1.29Zm2.13-.29a6.52,6.52,0,0,1,1.37,1.25,3.76,3.76,0,0,1,.65,1,1.42,1.42,0,0,1,.18.69c0,.79-.25,1.18-.75,1.18a.31.31,0,0,1-.22-.11,2.09,2.09,0,0,1-.18-.55,9.36,9.36,0,0,0-.61-1.58,11.27,11.27,0,0,0-.83-1.32Zm10.14.44a12.22,12.22,0,0,1,2.53.66c.33.1.5.22.5.37s-.19.33-.58.47a6.56,6.56,0,0,1-1,.26c-.33,1-.65,1.87-.93,2.54a10.23,10.23,0,0,1,1.26.88,11,11,0,0,1,1.26.92,2.73,2.73,0,0,1,.61.66,1.73,1.73,0,0,1,.26.47.84.84,0,0,1,.11.41c0,.71-.26,1.06-.69,1.06a.46.46,0,0,1-.32-.11,6.27,6.27,0,0,1-.65-1,9.15,9.15,0,0,0-1.09-1.55,12,12,0,0,0-1.08-1,21,21,0,0,1-1.62,2.47,14.43,14.43,0,0,1-2,2.09c-.72.56-1.6,1.21-2.63,1.95l-.43-.78a25.43,25.43,0,0,0,2.05-1.83,10.56,10.56,0,0,0,1.45-1.77,19.89,19.89,0,0,0,1.37-2.16,21.18,21.18,0,0,0,1-2.61A16,16,0,0,0,389.25,449.56Zm4.33-22.48a15,15,0,0,1,2.85.81.41.41,0,0,1,.33.4c0,.22-.23.39-.69.52a4,4,0,0,1-.94.14,13.84,13.84,0,0,0,2,2.54,27.91,27.91,0,0,0,2.71,2.31,25.81,25.81,0,0,0,3,1.84,14,14,0,0,0,2.78,1v.59a2.52,2.52,0,0,0-2.42,1,11.14,11.14,0,0,1-2.6-1.58,12.9,12.9,0,0,1-2.16-2.06,29.46,29.46,0,0,1-2.1-2.31,23.69,23.69,0,0,1-1.91-2.83,13.41,13.41,0,0,1-1,1.83,24.22,24.22,0,0,1-1.95,2.32c-.8.83-1.53,1.54-2.2,2.13a5.47,5.47,0,0,1-.65.48,15.25,15.25,0,0,1-1.66,1.24,20,20,0,0,1-2.82,1.69l-.57-.77a18.47,18.47,0,0,0,3.1-2c.84-.71,1.68-1.48,2.53-2.31a29.84,29.84,0,0,0,2.16-2.54,11.52,11.52,0,0,0,1.33-2.24A11.21,11.21,0,0,0,393.58,427.08ZM385.93,440l2.17,1.17h3.42l1.05-1.17c1.23.78,1.84,1.32,1.84,1.61s-.34.63-1,1.07v5.36l.72.55a.33.33,0,0,1,.15.26c0,.37-.09.55-.26.55h-6.35V450c0,.22-.15.39-.47.51a2.83,2.83,0,0,1-.83.18c-.28,0-.43-.13-.43-.4Zm1.73,8.41h4v-6.17h-4Zm1-12.16a18.86,18.86,0,0,0,4.18.37h3l1.48-1.47c.72.54,1.4,1.07,2,1.58.17.1.26.21.26.33,0,.42-.15.63-.44.63h-6.35c-1.68,0-2.82.07-3.42.14Zm10.14,13.3a14,14,0,0,1,2.56.66c.31.1.47.22.47.37s-.18.33-.54.47a7.93,7.93,0,0,1-1,.26,17.18,17.18,0,0,1-1.3,3.12,1.29,1.29,0,0,1-.18.33,20.47,20.47,0,0,1,1.91,1.25,17.32,17.32,0,0,1,1.88,1.47,11.14,11.14,0,0,1,1,1,4.75,4.75,0,0,1,.4.77,1.53,1.53,0,0,1,.14.66c0,.78-.3,1.18-.83,1.18a.72.72,0,0,1-.47-.19,6.2,6.2,0,0,1-1-1.47,15.33,15.33,0,0,0-1.74-2.31c-.48-.49-1.05-1-1.73-1.62a14.63,14.63,0,0,1-1.22,1.69,13.83,13.83,0,0,1-2.17,2.21c-.74.56-1.68,1.22-2.81,2l-.47-.77a23.72,23.72,0,0,0,2.27-1.91,11,11,0,0,0,1.59-1.8c.48-.64,1-1.37,1.48-2.21a24.23,24.23,0,0,0,1.15-2.68A16.29,16.29,0,0,0,398.78,449.56ZM395.85,440l2.17,1.17h3.64l1-1.17c1.27.78,1.91,1.32,1.91,1.61s-.35.63-1.05,1.07v5.36l.69.55c.14.08.21.16.21.26,0,.37-.1.55-.32.55h-6.49v.48a.57.57,0,0,1-.4.51,2.74,2.74,0,0,1-.9.19c-.29,0-.44-.14-.44-.41Zm1.74,8.41h4.22v-6.17h-4.22Z" transform="translate(-368.82 -171.91)"/><path d="M442.11,522.23,429.2,507.72H455Zm-10.82-13.56,10.82,12.17,10.83-12.17Z" transform="translate(-368.82 -171.91)"/><path d="M454.84,508.67H429.39l4.26-6.67h16.93Zm-23.74-.95h22l-3-4.76H434.14Z" transform="translate(-368.82 -171.91)"/><polygon points="72.87 349.81 67.62 336.47 64.67 330.8 65.47 330.35 68.44 336.06 73.71 349.44 72.87 349.81"/><polygon points="78.75 337.06 72.64 331.25 68.16 336.6 67.47 335.98 72.57 329.89 78.49 335.52 81.11 330.35 81.92 330.8 78.75 337.06"/><polygon points="73.71 349.81 72.87 349.44 78.35 336.1 79.19 336.48 73.71 349.81"/></svg>