<?xml version="1.0" encoding="utf-8"?>
<!-- Generator: Adobe Illustrator 22.0.1, SVG Export Plug-In . SVG Version: 6.00 Build 0)  -->
<svg version="1.1" id="圖層_1" xmlns="http://www.w3.org/2000/svg" xmlns:xlink="http://www.w3.org/1999/xlink" x="0px" y="0px"
	 viewBox="0 0 92.2 350.3" style="enable-background:new 0 0 92.2 350.3;" xml:space="preserve">
<style type="text/css">
	.st0{stroke:#000000;stroke-width:0.75;stroke-miterlimit:10;}
</style>
<title>暗處觀望</title>
<g>
	<path class="st0" d="M64.1,2.3c0-0.8,0.1-1.2,0.4-1.3c1.9,0.6,2.5,1.5,1.9,2.6C66.1,4.3,66,5,66,5.9c0,0.6,0.4,0.9,1.3,0.7l2.5-0.5
		c0.8-0.5,1.6-0.2,2.4,0.9c0.1,0.6-0.3,0.8-1.2,0.8c-1.4,0.2-2.8,0.4-4.1,0.6c-0.7,0.2-1.1,0.6-1.1,1.4c-0.1,0.8-0.1,1.5,0,2.3
		c0.1,0.7,0.6,1,1.5,0.9c0.9-0.1,1.9-0.5,2.9-1.2c0.7,0.1,1.2,0.5,1.6,1.3c0,0.3-0.1,0.6-0.3,0.9c-0.2,0.3-0.4,0.7-0.5,1.4
		c-0.3,2.1-0.4,5-0.5,8.8c0,0.6,0.4,0.9,1.2,0.8c1.2-0.2,2.5-0.3,3.7-0.4c0.8,0,1.2-0.3,1.2-0.9l0.3-3.3c0.1-0.6-0.4-0.8-1.3-0.7
		l-1.1,0.2c-1,0.1-1.6,0.1-1.9-0.2c-0.6-0.4-0.8-0.7-0.7-1.1c0.1-0.1,0.6-0.2,1.4-0.4c0.8-0.1,1.7-0.3,2.5-0.5
		c0.8-0.1,1.2-0.6,1.2-1.3c0-0.8,0.1-1.6,0.2-2.3c0-0.6-0.4-0.8-1.4-0.6l-0.6,0.1c-1,0.2-1.8,0.1-2.2-0.1c-0.7-0.4-0.8-0.8-0.3-1.2
		c1.2-0.3,2.5-0.5,3.8-0.7c0.6-0.1,1-0.6,1-1.5l0-1.6c0.3-1-0.2-1.2-1.7-0.7c-1.4,0.5-2.5,0.5-3.1,0c-0.6-0.8-0.3-1.2,1.1-1.3
		c1.6-0.2,2.9-0.6,3.9-1.1c0.8-1,1.6-0.9,2.5,0.4c0.5,0.6,0.5,1.1,0,1.6c-0.8,3.7-1.3,9-1.7,16.1c0,0.6,0.4,0.8,1.3,0.7
		c0.9-0.2,1.8-0.4,2.7-0.5c0.9-0.1,1.8,0.2,2.7,1c0.2,0.2,0.3,0.4,0.3,0.6c0,0.2-0.5,0.4-1.4,0.6L78,26.2
		c-8.5,0.9-16.9,1.7-25.4,2.5c-1,0.2-1.7,0.3-2.1,0.2c-0.9-0.4-1.5-0.8-1.9-1.2c-0.2-0.3,0.2-0.5,1.2-0.7l5.4-0.4c0.7,0,1-0.5,1-1.4
		l-0.9-13c0-1.2-0.2-2.7-0.6-4.6c0-0.8,0-1.2,0.1-1.3c0.6-0.2,1,0,1.4,0.7c0.6,0.7,1.3,0.8,2.2,0.3c0.8-0.5,1.7-1.2,2.5-1.9
		c0.7-0.8,1.1-1.2,1.3-1.2c0.2,0,0.5,0.2,0.9,0.7c0.3,0.7,0.5,1.1,0.5,1.2C63.5,6.3,63,6.6,62.2,7l-3.9,2c-0.7,0.4-1,0.9-1,1.7
		c0,0.7,0,1.4,0,2c0,0.7,0.3,1,1,0.9l1.8-0.4c0.8-0.1,1.4,0,1.7,0.2c0.4,0.2,0.6,0.5,0.6,0.9c-0.1,0.2-0.6,0.4-1.4,0.5
		c-0.8,0.1-1.7,0.2-2.6,0.4c-0.6,0.2-0.9,0.7-0.8,1.5l0.1,1.8c0.1,0.6,0.5,0.9,1.4,0.7c0.6,0,1.4-0.2,2.2-0.5
		c0.5-0.2,1.1,0.1,1.9,0.8c0.2,0.3,0.2,0.5,0,0.7c-0.1,0.1-0.6,0.2-1.5,0.3c-0.9,0.1-1.8,0.2-2.7,0.4c-0.7,0.2-1,0.7-0.9,1.4
		l0.3,2.9c0,0.6,0.5,0.9,1.4,0.7c1-0.1,2-0.2,3-0.3c0.8,0,1.1-0.3,1.1-0.9c0-2.7-0.1-5.1-0.3-7.4c0-0.8,0-1.2,0.2-1.4
		c0.2-0.1,0.7,0.2,1.5,0.7c0.8,0.5,1,1.1,0.6,1.8c-0.3,1.8-0.4,3.8-0.3,6c0,0.6,0.4,0.9,1.3,0.9h0.4c0.8-0.1,1.2-0.4,1.3-0.9
		c0.3-3.1,0.5-6.2,0.6-9.3c0-0.6,0-1-0.1-1c-1,0.1-1.9,0.3-2.9,0.5c-0.9,0.5-1.5,0.7-1.7,0.6c-1.2-0.6-1.4-1.3-0.7-2.1
		c0.2-0.3,0.3-0.8,0.3-1.6C64.1,8.1,64.2,4.9,64.1,2.3z M62.1,28.9c0.3-0.8,0.7-0.8,1.3-0.2c0.2,0.3,0.3,0.5,0.4,0.8
		c0.2,1-0.1,1.7-0.9,2.3c-0.5,0.2-0.9,0.6-1.4,1c-3,2.5-6.4,4.5-9.9,6c-0.2,0.1-0.4-0.1-0.6-0.5c0.2-0.6,0.5-0.9,1.1-0.9
		c2.8-1.8,5-3.2,6.4-4.3C60.3,31.7,61.5,30.3,62.1,28.9z M69.5,28c0.2-0.2,0.7-0.1,1.5,0.2c3.2,1.6,5.9,3.1,8,4.4c2,1,2.9,2,2.7,3.2
		c-0.1,0.7-0.2,1.1-0.3,1.2c-0.2,0.1-0.7-0.3-1.5-0.9c-1.8-1.5-5-3.8-9.6-6.9C69.6,29,69.3,28.6,69.5,28z"/>
	<path class="st0" d="M72.4,44.8c0.2-0.2,0.9,0.2,1.9,1c1,0.8,1.3,1.6,0.7,2.3c-0.3,0.9-0.4,1.9-0.5,3c-0.1,0.7,0.3,0.9,1.1,0.8
		c1.1-0.2,2.2-0.4,3.4-0.7c1.2-0.6,2.2-0.1,3.1,1.4c-0.1,0.3-0.3,0.5-0.8,0.6c-1.9,0.2-3.9,0.4-5.8,0.7c-0.8,0.1-1.2,0.5-1.2,1.3
		c-0.3,4.1-0.6,8.2-0.7,12.2c0,0.6,0.4,0.9,1.2,0.9c2.6-0.3,5-0.7,7.2-1.2c1-0.5,1.8-0.4,2.5,0.4c0.6,0.6,0.9,1.1,0.8,1.4
		c-0.2,0.3-0.5,0.5-1,0.4l-27.1,3c-1.7,0.2-3.4,0.4-5.1,0.7c-1.1,0.5-2.3,0.1-3.6-1.2c0-0.2,0.1-0.3,0.2-0.5
		c0.1-0.1,0.7-0.2,1.8-0.3c2.6-0.2,5.3-0.5,8-0.8c0.7-0.1,1-0.5,1-1.1v-12c0-0.6-0.4-0.9-1.3-0.9c-1,0.1-2,0.3-3,0.5
		c-0.5,0.3-1.1,0.2-1.7-0.3c-0.8-0.5-1.2-0.9-1.2-1.1c0.1-0.2,0.5-0.4,1.4-0.5l1.6-0.1l3.1-0.4c0.7-0.1,1-0.5,1.1-1.3
		c0.1-2.4,0-4.2-0.3-5.3c-0.5-1.1-0.5-1.8,0.1-1.9c0.2,0,0.7,0.3,1.5,0.9c0.1,0.2,0.3,0.3,0.4,0.4c0.4,0.5,0.6,0.9,0.6,1.1
		c-0.4,1.5-0.5,3.2-0.5,4.9c0,0.6,0.4,0.8,1.1,0.7l8.7-1.2c0.6-0.1,1-0.5,1.1-1.4c0.2-1.5,0.1-3.1-0.2-4.8
		C72.2,45.5,72.3,44.9,72.4,44.8z M61.6,73.5c0.5-0.9,0.8-1.3,1.1-1.3c0.7,0.4,1.1,1.2,1.2,2.3c0,0.3-0.2,0.6-0.7,0.7
		c-1.2,0.7-2.3,1.5-3.4,2.4c-2,1.5-4.3,2.9-6.8,4c-0.9,0.5-1.5,0.7-1.9,0.5c-0.3-0.3-0.3-0.6,0.2-0.9c2.1-1.2,4.2-2.6,6.4-4
		C58.8,76.4,60.1,75.2,61.6,73.5z M72.3,55.3c0-0.6-0.4-0.8-1.3-0.7l-8.4,1.2c-0.7,0.2-1,0.5-1,1.2v1.5c0,0.6,0.4,0.9,1.3,0.7
		c1-0.2,2-0.3,3-0.4c0.7,0,1.2-0.1,1.7-0.4c1.1-0.6,2-0.2,2.7,1.2c-0.1,0.2-0.5,0.3-1.4,0.5l-6.2,1c-0.7,0.2-1,0.5-1,1.2v1.5
		c0,0.6,0.4,0.9,1.3,0.8l3-0.4c0.8-0.1,1.4-0.2,1.7-0.3c1.1-0.5,1.9-0.4,2.5,0.4c0.5,0.4,0.6,0.7,0.5,0.9c-0.1,0.1-0.6,0.2-1.4,0.3
		c-2.1,0.2-4.3,0.5-6.5,0.9c-0.7,0.2-1,0.5-1,1.2v1.5c0,0.6,0.4,0.9,1.3,0.8l7.5-0.9c0.7-0.1,1.1-0.5,1.1-1.3
		C71.7,63.5,72,59.4,72.3,55.3z M69.6,72.5c0.1-0.2,0.6-0.2,1.4,0c2.1,1,4.2,2,6.3,3.2c0.7,0.3,1.4,0.8,2.2,1.4
		c0.3,0.6,0.5,1.5,0.4,2.6c0,0.5-0.3,0.7-0.7,0.7c-0.2-0.1-0.7-0.5-1.4-1.2c-2.3-2-4.8-3.9-7.6-5.7C69.7,73.2,69.5,72.9,69.6,72.5z"
		/>
	<path class="st0" d="M67.8,88.9c0.4-0.5,1-0.2,1.9,0.7c1.1,0.8,1.3,1.5,0.5,2c-0.4,0.3-0.7,0.9-1.1,1.8l-2.2,4.4
		c-0.3,0.6,0,0.8,0.9,0.7l6.5-1.2c1.9-0.3,3.6-0.6,5.1-1c1-0.4,1.8-0.4,2.5,0c0.8,0.9,1.1,1.4,1,1.6c-0.1,0.2-0.6,0.3-1.5,0.4
		c-4.3,0.5-9.3,1.3-15.1,2.3c-0.7,0.1-1.3,0.6-1.8,1.4l-3.7,5.1c-0.3,0.4-0.5,0.9-0.5,1.6l0.1,13.1c0,0.6,0.1,0.9,0.3,0.7
		c0.1-0.1,0.6-0.2,1.4-0.2l7.3-0.8c0.7-0.1,1-0.5,1-1.1v-6.9c0-0.6-0.4-0.9-1.3-0.8l-3,0.5c-1.1,0.2-2.1,0.1-3-0.4
		c-0.2-0.2-0.4-0.4-0.5-0.6c-0.1-0.2,0.4-0.5,1.3-0.7c1.8-0.2,3.7-0.5,5.5-0.8c0.7-0.1,1.1-0.5,1.1-1.1c0-2.9-0.1-5.2-0.4-6.8
		c-0.5-0.9-0.3-1.3,0.5-1.4c0.2,0.1,0.6,0.4,1.3,0.9c0.3,0.3,0.5,0.5,0.7,0.8c0.2,0.4,0.2,1,0,1.8c-0.2,1.2-0.3,2.7-0.3,4.4
		c0,0.6,0.4,0.9,1.3,0.7l3-0.5c0.7-0.1,1.2-0.3,1.7-0.5c1.4-0.6,2.4-0.2,3.2,1.3c0,0.1-0.4,0.2-1.2,0.4c-2.3,0.3-4.5,0.7-6.8,1.1
		c-0.7,0.1-1.1,0.5-1.1,1.1v7c0,0.6,0.4,0.9,1.3,0.8c3.7-0.4,6.9-1,9.7-1.7c0.3,0,0.6,0.1,0.8,0.3c0.8,0.9,1.2,1.4,1.1,1.6
		c-0.2,0.2-0.7,0.3-1.5,0.4c-3.7,0.4-10.5,1.3-20.3,2.7c-0.7,0.2-1.6-0.1-2.7-1c-0.1-0.2-0.2,0.1-0.2,0.7v1.6c0.1,0.3,0,0.6-0.5,0.9
		c-0.4,0-0.8-0.3-1.3-1c-0.7-0.8-0.9-1.6-0.6-2.3c0.5-1,0.6-2.3,0.5-3.7l-0.1-8.5c0-0.6-0.4-0.6-1.2,0.2c-1.2,1.2-3.1,2.7-5.7,4.6
		c-0.6,0.5-1.1,0.8-1.5,0.8c-0.7-0.4-0.5-0.9,0.5-1.6c4.3-3.6,7.2-6.2,8.5-7.9l3.4-4.6c0.5-0.7,0.4-1-0.3-0.9
		c-2.1,0.3-4.2,0.6-6.5,1.1c-1.1,0.1-2.1-0.3-3-1.2c0.1-0.5,0.6-0.7,1.6-0.7l9-1.3c0.6-0.1,1.2-0.5,1.7-1.3
		C66.8,94.4,67.8,91.5,67.8,88.9z"/>
	<path class="st0" d="M79.3,137.8c0.5-0.3,1.2,0,2.1,1c0.5,0.7,0.1,1.1-1.1,1.1c-0.9,0.1-1.8,0.2-2.7,0.4c-0.7,0.2-0.8,0.4-0.4,0.9
		c0.3,0.4,0.3,1,0,1.8l-1.7,4c-0.3,0.6,0,0.9,0.9,0.7c2-0.2,4.1-0.6,6.4-1.2c0.9-0.4,1.8,0.1,2.6,1.3c0,0.6-0.5,0.8-1.6,0.8
		c-5.1,0.5-11.7,1.6-19.8,3c-0.5,0-0.9-0.1-1.4-0.3c-0.7-0.3-1-0.2-1,0.5c0,3.7-0.1,6.3-0.3,8c0.1,0.9-0.2,1.4-0.8,1.5
		c-0.2,0-0.5-0.3-0.9-0.9c-0.3-0.6-0.9-0.8-1.8-0.6c-0.7,0.1-1.4,0.2-2.1,0.4c-0.7,0.2-1.1,0.6-1.2,1.3c-0.1,0.8-0.3,1.2-0.5,1.2
		c-0.5,0-0.9-0.3-1.3-1c-0.5-0.7-0.6-1.8-0.1-3.1c0.6-5.8,0.5-11.8-0.1-17.9c0-0.8,0.1-1.2,0.4-1.2c0.3,0.1,0.6,0.4,1,1.1
		c0.3,0.7,0.8,0.9,1.7,0.7c1.3-0.3,2.4-0.6,3.3-1c0.4-0.2,0.8-0.4,1.1-0.8c0.3-0.3,0.9-0.2,1.8,0.2c1,0.4,1,1,0,1.9
		c-0.2,0.5-0.3,1.1-0.3,1.6c-0.1,1.8-0.1,3.7,0,5.5c0,0.8,0.4,1.1,1.2,1c3.9-0.5,7.1-0.9,9.6-1.4c0.7-0.1,1.2-0.5,1.4-1.3
		c0.7-1.9,1.1-3.7,1.3-5.3c0.1-0.7-0.3-1-1.1-0.9c-2.1,0.3-4.2,0.7-6.3,1.1c-1.1,0.5-2.1,0.4-3.1-0.4c-0.3-0.3-0.5-0.6-0.5-0.7
		c0.2-0.2,0.7-0.3,1.5-0.4C71.5,139.6,76.1,138.7,79.3,137.8z M59.6,150.8c0-0.7-0.1-0.9-0.3-0.7c-0.3,0.1-0.7,0.2-1.3,0.4
		c-0.8,0.1-1.6,0.3-2.4,0.5c-0.7,0.2-1.1,0.6-1.1,1.2c-0.1,1.8-0.1,3.6,0,5.5c0,0.6,0.5,0.8,1.4,0.6c0.6-0.2,1.3-0.3,2-0.4
		c0.8,0,1.2-0.3,1.4-1C59.5,155,59.6,153,59.6,150.8z M58.1,142.3l-0.8,0.2c-0.5,0.1-1,0.2-1.6,0.4c-0.7,0.2-1.1,0.6-1.1,1.2v4.3
		c0,0.6,0.4,0.9,1.3,0.7l1.2-0.3c0.9-0.3,1.5-0.2,1.9,0.2c0.4,0.3,0.5,0.1,0.5-0.5v-5.3C59.6,142.3,59.1,142.1,58.1,142.3z M77,152
		c0.4-0.6,1-0.6,1.9,0.2c0.3,0.2,0.5,0.4,0.6,0.5c0,0.2-0.2,0.7-0.8,1.7c-0.3,0.7-0.4,1.8-0.3,3.3c0,3.6-0.3,6.8-0.7,9.7l-0.5,1
		c-0.4,0.2-0.8-0.1-1.1-0.9c-0.3-0.5-0.9-0.7-1.7-0.6l-5.3,0.8c-0.7,0.1-1,0.4-1.1,0.9c0.1,0.6-0.2,1-0.7,1.2
		c-0.2-0.1-0.5-0.5-1.1-1.2c-0.5-0.6-0.5-1.3-0.2-2.1c0.6-3,0.6-7.1,0.1-12.2c0-0.8,0-1.2,0.1-1.3c0.6-0.3,1.1,0,1.3,0.7
		c0.2,0.4,0.8,0.5,1.6,0.4l3.4-0.6C74.5,153,76,152.6,77,152z M67.6,143.7c-0.2-0.9-0.3-1.4-0.1-1.5c0.5-0.1,1,0.3,1.5,0.9
		c2.2,1.7,2.5,3.3,0.8,4.8c-0.2,0-0.3,0-0.5-0.1c-0.3-0.6-0.6-1.2-0.8-1.8L67.6,143.7z M76.5,154.2c-2.4,0.4-4.9,0.8-7.3,1.4
		c-0.7,0.2-1,0.5-1,1.2v2.3c0,0.6,0.5,0.8,1.4,0.7c1-0.2,1.9-0.4,2.9-0.6c1.2-0.4,1.9-0.4,2.3,0.1c0.7,0.4,0.8,0.8,0.4,1.1l-5.9,1.1
		c-0.7,0.2-1,0.6-1.1,1.4v2c0,0.8,0.4,1.1,1.2,1c1-0.2,2-0.3,3-0.4c0.6,0,1.1-0.1,1.7-0.3c0.8-0.1,1.3-0.1,1.5,0
		c0.2,0.2,0.4-0.1,0.6-0.9c0.4-2,0.6-5,0.5-8.9C76.7,154.7,76.6,154.3,76.5,154.2z M69.5,132.7c0.2-0.1,0.9,0.2,1.9,0.8
		c2.1,1.1,2.8,2.3,2.3,3.5c-0.2,0.5-0.4,0.8-0.6,0.9c-0.4,0.1-0.8-0.2-1.2-1c-0.7-1-1.4-2.1-2.2-3.1C69.3,133.4,69.2,133,69.5,132.7
		z"/>
	<path class="st0" d="M65.3,177.5c-0.1-0.8,0-1.2,0.3-1.3c0.2,0,0.7,0.2,1.4,0.6c0.7,0.5,1,1.1,0.9,1.9c-0.1,0.5-0.2,1.1-0.2,1.7
		c0,0.7,0.4,0.9,1.1,0.8c2.5-0.4,5-0.8,7.6-1.2c0.9-0.1,1.5-0.1,1.9,0.2c0.6,0.3,0.9,0.7,0.8,1c-0.1,0.1-0.5,0.2-1.4,0.4
		c-4.2,0.5-7.2,0.9-9.1,1.2c-0.7,0.2-1,0.5-1.1,1.2c0,0.7,0.4,1,1.1,0.9c2.3-0.3,4.7-0.6,7-0.9c1.4-0.1,2.5-0.4,3.4-0.7
		c0.3-0.1,0.5-0.3,0.8-0.5c0.5-0.6,1-0.5,1.6,0.4c0.3,0.3,0.5,0.5,0.7,0.8c0.1,0.2-0.3,0.7-1.1,1.4c-0.5,0.5-1,1.3-1.6,2.3
		c-0.6,1.2-1.3,1.6-2,1.3c-0.1-0.1,0-0.6,0.3-1.4l0.6-1.4c0.2-0.6-0.1-0.9-0.9-0.8c-2.9,0.3-5.8,0.7-8.7,1.2c-0.7,0.2-1,0.6-1,1.2
		c0,0.7,0.4,1,1.3,0.9c0.7-0.2,1.4-0.3,2.1-0.4c1-0.3,2-0.2,2.8,0.2c0.7,0.4,0.8,0.8,0.5,1.2c-0.2,0.1-0.7,0.2-1.5,0.3
		c-1.4,0.1-2.8,0.4-4.2,0.7c-0.6,0.1-0.9,0.4-0.9,0.8c0,0.5,0.2,0.8,0.8,0.9c1.5,0.2,3.3,0.2,5.2-0.1c0.8-0.2,1.2-0.6,1.3-1.2
		l0.2-2.7c0.2-0.8,0.4-1.2,0.6-1.2c0.3,0,0.5,0.4,0.6,1.2c0.2,1.4,0.5,2.8,0.8,4.2c-0.1,1-0.7,1.5-1.9,1.4c-2.6,0.4-4.9,0.4-7.1,0.2
		c-1.2,0-2.1-0.7-2.5-2.1c-0.1-0.5-0.5-0.8-1.4-0.6c-1.5,0.3-2.5,0.5-3.1,0.7c-0.6,0-1.2-0.1-1.7-0.3c-0.7-0.2-1.1-0.6-1-1.1
		c0.1-0.2,0.6-0.4,1.4-0.5c1.6-0.3,3.2-0.5,4.7-0.7c0.7-0.1,1-0.5,1-1.2c0-0.7-0.4-1.1-1.3-1c-1.8,0.2-3.6,0.5-5.5,0.7
		c-0.8,0.1-1.2,0.5-1.2,1c-0.1,4.9-0.6,9.1-1.6,12.7c-1.1,3.7-3.1,7.1-6,10.1c-0.7,1-1.3,1.3-1.8,0.9c-0.2-0.2,0-0.8,0.8-1.7
		c3.3-4.3,5.3-8.4,5.8-12.5c0.9-4.7,1.1-9.3,0.5-13.9c0-0.6,0.3-0.9,0.9-0.8c0.1,0.1,0.4,0.5,0.6,1l0.3,0.6c0.2,0.6,0.8,0.9,1.6,0.8
		c1.9-0.3,3.8-0.5,5.7-0.7c0.7-0.1,1-0.5,1-1.1C65.6,181.6,65.5,179.3,65.3,177.5z M60.8,194.2c-0.2-0.8,0-1.2,0.5-1.3
		c0.2,0,0.6,0.3,1.2,0.8c0.5,0.5,0.5,1.2,0.3,2l-0.3,0.7c-0.2,0.6,0.1,0.9,0.9,0.8c1.2,0,2-0.2,2.5-0.8c0.8-0.8,1.5-0.5,2.3,0.7
		c0.1,0.3-0.2,0.8-0.8,1.6c-0.4,1-0.9,2.1-1.4,3.1c-0.4,0.8-0.3,1.4,0.4,1.8c0.8,0.4,1.4,0.3,2-0.4c1.9-2.4,2.3-4.8,1.4-7.1
		c0.3-0.6,0.7-0.7,1.3-0.1c0.5,0.3,1.1,0.5,1.8,0.4l1.2-0.1c0.3,0,0.5-0.1,0.8-0.4c0.8-0.8,1.5-0.6,2.3,0.5c0,0.2-0.1,0.4-0.4,0.9
		c-0.3,0.4-0.4,1.1-0.3,2.3l0.2,2.5c-0.1,1.2,0.5,1.7,1.8,1.3c0.8-0.2,1.2-0.7,1.4-1.4l0.3-3.3c0.2-0.3,0.5-0.4,0.8-0.2
		c0.1,0.1,0.3,0.5,0.5,1.3c0.2,1.1,0.5,2.1,0.8,3.2c0.2,0.9,0.2,1.5,0.1,1.6c-1.6,0.7-3.6,0.8-6,0.3c-0.8-0.3-1.2-0.8-1.3-1.3
		c-0.2-0.9-0.3-2.4-0.3-4.6c0-0.8-0.4-1.2-1.3-1.1c-0.9,0.1-1.4,0.6-1.4,1.3c-0.3,1.5-1.1,3-2.4,4.6c-0.6,0.7-0.6,1.2,0.1,1.6
		c4.2,2.4,7.4,3.9,9.7,4.3c1,0.2,2.6,0.3,4.7,0.3c0.8,0.1,1.3,0.2,1.5,0.3c0,0.8-0.4,1.2-1.3,1.1c-1.1,0.1-2.3,0.3-3.4,0.5
		c-1.5,0.4-2.7,0.5-3.6,0.3c-2.5-1.7-6.4-4-11.5-7.1c-0.8-0.5-1.4-0.4-2,0.4c-2.9,3.4-6.4,6-10.3,7.8c-0.3,0-0.5-0.1-0.6-0.4
		c0-0.3,0.4-0.7,1.3-1.2c2.9-1.7,5.6-4,8.1-7.1c0.5-0.7,0.3-1.4-0.6-1.9l-0.5-0.3c-0.6-0.4-1.2-0.2-1.7,0.7l-2,2.9
		c-0.4,0.6-0.8,1.1-1.1,1.2c-0.3,0.1-0.6-0.1-0.8-0.4c0-0.3,0.4-0.9,1-1.8C59.1,201,60.6,197.4,60.8,194.2z M63.8,198.8l-1.4,0.2
		c-0.6,0.1-1.1,0.4-1.3,0.7c-0.2,0.3,0.2,0.7,1.1,1.3l0.3,0.2c0.9,0.5,1.5,0.4,1.9-0.4l0.5-1.3C65.1,199.1,64.7,198.8,63.8,198.8z"
		/>
	<path class="st0" d="M62.4,220.8c0.1-0.2,0.6-0.1,1.4,0.5c1,0.8,1.3,1.4,0.8,1.9c-0.3,0.3-0.4,0.6-0.5,0.9
		c-0.1,0.6,0.2,0.8,1.1,0.6c0.7-0.2,1.4-0.3,1.9-0.2c0.5,0.2,1,0.6,1.4,1.3c-0.1,0.5-0.5,0.7-1.2,0.7c-1,0.1-2.1,0.2-3.2,0.4
		c-0.6,0.1-1.2,0.6-1.5,1.4l-0.3,0.7c-0.3,0.6-0.4,1-0.3,1.2c0.1,0.2,0.5,0.3,1.2,0.1c1-0.2,1.8-0.5,2.4-1c0.5-0.5,1.2-0.3,1.9,0.7
		c0,0.3,0,0.5-0.2,0.6c-0.2,0.4-0.4,1-0.6,1.8c-0.2,0.7-0.1,1.2,0.2,1.4c0.6,0.4,0.7,0.7,0.3,1L66,235c-0.7,0.1-1.5,0.2-2.2,0.4
		c-0.6,0.1-1,0.4-1,0.8c-0.1,0.4-0.2,0.6-0.5,0.6c-0.5-0.2-0.8-0.5-0.9-1c-0.2-0.5-0.3-1-0.3-1.4c0.2-0.4,0.2-1.2,0.2-2.4l-0.2-1.6
		c-0.2-0.6-0.1-1.4,0.3-2.3c0.2-0.7-0.1-1-0.9-0.9l-1.1,0.2c-0.8,0.1-1.1,0.5-1.1,1.2c0,0.8,0.1,1.1,0.2,1.1
		c0.3-0.2,0.7-0.1,1.1,0.4c0.4,0.3,0.6,0.6,0.5,1c-0.4,0.5-0.7,1.2-0.8,2.2c-0.1,0.5,0.1,0.9,0.5,1.2c0.3,0.3,0.4,0.5,0.5,0.6
		c-0.1,0.1-0.5,0.3-1.3,0.6c-0.8,0.2-1,0.7-0.4,1.5c0.2,0.2,0.2,0.5,0.2,0.9c-0.5,0.5-0.9,0.9-1.3,1.4c-0.6,0.8-0.4,1.1,0.4,1
		l2.5-0.4c0.8-0.1,1.1-0.4,1-1c-0.2-0.7-0.5-1.6-1.1-2.6c0-0.3,0.2-0.5,0.4-0.6c0.2,0,0.7,0.4,1.5,1.1c0.9,0.9,1.2,1.6,1,1.9
		c-0.1,0.4,0.2,0.6,0.8,0.5c0.7-0.2,1.5-0.3,2.2-0.4c0.3,0,0.7,0.2,1.1,0.4c0.6,0.4,0.7,0.8,0.4,1.1c-1.2,0.1-2.4,0.3-3.6,0.5
		c-0.8,0.1-1.2,0.5-1.2,1.1c0,0.7,0.4,1,1.3,0.8c0.6-0.1,1.2-0.2,1.9-0.3c0.8,0.3,1.2,0.8,1.3,1.4c-0.3,0.3-0.6,0.4-1,0.4
		c-0.8,0.1-1.6,0.2-2.4,0.3c-0.7,0.1-1.1,0.5-1.1,1.1c0,0.6,0.4,0.9,1.3,0.7l1.3-0.3c0.9-0.5,1.7-0.2,2.5,1.1c0,0.1-0.1,0.2-0.2,0.3
		c-1.3,0.1-2.6,0.3-3.8,0.5c-0.7,0.2-1,0.6-1,1.3c0,0.8,0.4,1.1,1.3,0.9l1.3-0.2c0.8-0.3,1.5-0.4,1.9-0.3c0.1,0.1,0.4,0.3,0.8,0.7
		c0.3,0.4,0.7,0.2,1.4-0.6c1.7-2.5,2.6-5,2.7-7.6c0-0.6-0.2-0.9-0.6-0.9c-0.4,0.1-0.7,0.4-0.7,0.9c-0.1,0.5-0.2,0.9-0.3,1
		c-0.3,0.2-0.7,0.1-1-0.3c-0.6-0.8-0.7-1.8-0.4-2.9c0.7-5.1,0.8-10.2,0.3-15.3c-0.3-0.8-0.1-1.2,0.5-1.4c0.2,0.1,0.5,0.4,0.8,1.1
		c0.3,0.6,0.9,0.8,1.7,0.7l4.7-0.9c0.3-0.1,0.5-0.2,0.8-0.5c0.5-0.7,1-0.9,1.5-0.6c1.4,0.6,1.6,1.3,0.8,2.1c-0.3,0.5-0.5,1-0.4,1.5
		c-0.1,4.7-0.4,9.4-0.8,14.2c-0.2,0.8-0.3,1.2-0.4,1.3c-0.5,0-0.8-0.2-1-0.8c-0.2-0.5-0.4-0.7-0.6-0.7c-0.2,0.1-0.2,0.3-0.1,0.5
		c0.1,0.3,0.2,0.6,0.2,1.1c-0.1,0.3-0.2,0.6-0.3,1.1c0,1.9,0,4,0,6.2l0.3,3.1c0,0.6,0.4,0.9,1.2,0.9c1.2,0.2,2.6,0.2,4.1,0
		c0.7-0.2,1.1-0.3,1.2-0.4c0.2-1.2,0.2-2.9,0-5.1c-0.1-1,0.1-1.4,0.8-1.4c0.2,0.1,0.3,0.6,0.5,1.4c0.4,2.2,0.8,4.2,1.2,6
		c0,0.8-0.7,1.2-2.2,1.2c-2.6,0.3-4.9,0.3-7,0c-1.2-0.6-1.7-1.4-1.6-2.5c-0.1-1.3-0.2-2.5-0.2-3.8c-0.1-2.2-0.2-4.5-0.3-6.7
		c-0.1-0.7-0.3-1.1-0.7-1c-0.5,0.1-0.5,0.3-0.1,0.7c0.5,0.4,0.5,0.9,0,1.4c-0.2,0.3-0.5,1-0.7,1.9c-0.6,2-1.6,4.1-3.1,6.2
		c-2.2,2.7-4.7,4.7-7.7,6c-0.3,0-0.5-0.1-0.4-0.4c0.3-0.6,0.9-1.1,1.9-1.6c1.4-1.2,2.4-2.2,3.2-3.1c0.5-0.5,0.3-0.8-0.7-0.6
		l-9.1,1.3c-0.7-0.1-1,0.3-1.1,1.1l-0.1,1.8c-0.5,0.4-0.9,0.3-1.4-0.3c-0.5-0.5-0.7-1.1-0.8-1.8c0.7-2.1,1-5.6,0.9-10.4
		c0-0.7-0.4-0.6-1.1,0.2l-2.7,2.7c-1.1,1.3-1.8,1.5-2.2,0.7c0-0.2,0.5-0.7,1.5-1.7c3.1-3.1,5.2-6,6.2-8.5c0.2-0.7,0-1-0.7-0.8
		c-0.7,0.1-1.1,0.3-1.2,0.6c0,0.5-0.2,0.7-0.5,0.7c-0.6-0.3-1-1-1.2-2.1c0.3-0.6,0.3-1.8,0.2-3.5c-0.1-0.6-0.2-1.2-0.2-1.8
		c0.5-0.5,0.9-0.4,1.1,0.3c0.1,0.3,0.3,0.5,0.4,0.5l2.1-0.5c0.7-0.3,0.9-0.4,0.8-0.5c-0.7-0.6-1-1.2-0.8-1.9
		c0.1-0.3-0.4-0.4-1.3-0.3c-1,0.1-2.1,0.3-3.1,0.5c-1-0.1-1.6-0.5-1.9-1.2c0.1-0.2,0.6-0.3,1.4-0.4l3.8-0.5c0.8-0.1,1.2-0.5,1.1-1
		c-0.1-1.2-0.3-2.5-0.6-3.8c0.4-0.3,0.9-0.2,1.5,0.3c0.8,0.5,1.1,0.9,0.9,1.4c-0.1,0.5-0.2,1-0.1,1.6c0,0.7,0.3,1,0.9,0.9l1.9-0.3
		c0.7-0.1,1.2-0.5,1.3-1.3C62.4,223.2,62.4,222.1,62.4,220.8z M57.5,233.5c0.1-0.8-0.3-1.1-1.2-1c-0.3,0.1-0.5,0.1-0.8,0.1
		c-0.7,0.2-1,0.6-1,1.4c0,0.8,0.5,1.1,1.4,0.9C56.9,234.7,57.4,234.3,57.5,233.5z M59.6,245.8c-0.8,0.1-1.5,0.1-2.3,0.3
		c-0.7,0-1,0.4-1,1.1s0.4,1.1,1.3,1l2.1-0.3c0.8-0.1,1.1-0.5,1.1-1.2C60.8,245.9,60.4,245.6,59.6,245.8z M59.5,249.3l-2.2,0.4
		c-0.7,0-1,0.4-1,1.2c0,0.8,0.4,1.2,1.3,1.1l2.1-0.4c0.8-0.1,1.1-0.5,1.1-1.2C60.8,249.6,60.3,249.2,59.5,249.3z M59.5,242.1
		l-2.1,0.3c-0.7,0.1-1,0.5-1,1.2c0,0.6,0.4,0.9,1.3,0.9l2-0.3c0.7-0.1,1.1-0.5,1.1-1.2C60.8,242.3,60.3,242,59.5,242.1z M64.2,231.6
		l-0.4,0.1c-0.7,0.1-1.1,0.5-1.1,1.2c0.1,0.7,0.4,1,1.1,0.9c0.8-0.2,1.2-0.6,1.3-1.2C65.3,231.8,65,231.5,64.2,231.6z M77.8,227.2
		c0-0.6-0.5-0.8-1.4-0.7l-4.4,0.8c-0.5,0.1-0.8,0.2-0.9,0.4l-0.1,2.3c0,0.6,0.4,0.9,1.3,0.7c0.9-0.1,2-0.3,3.2-0.7
		c0.5,0.1,1,0.4,1.6,1l-0.2,0.4c-0.2,0.1-0.7,0.3-1.5,0.4c-1.2,0.2-2.3,0.4-3.5,0.6c-0.6,0.1-1,0.5-1,1.2l0,1.1
		c0,0.6,0.4,0.9,1.3,0.7l2.1-0.3c1-0.6,1.9-0.4,2.7,0.7c0,0.5-0.4,0.7-1.1,0.7l-3.9,0.6c-0.7,0.2-1.1,0.6-1.1,1.4v1
		c0,0.6,0.5,0.9,1.4,0.7c1.7-0.1,3-0.3,4-0.6c0.7-0.1,1.1-0.5,1.3-1.3C77.8,234.9,77.9,231.2,77.8,227.2z"/>
	<path class="st0" d="M63.1,271.8c1.6-0.7,2.8-0.6,3.4,0.2c0.7,0.4,0.8,0.8,0.4,1.1l-1.9,0.4c-1.9,0.2-3.8,0.5-5.8,0.9
		c-0.7,0.1-1.1,0.6-1.1,1.3c-0.1,1.5-0.1,3,0,4.5c0.1,0.7,0.5,0.8,1.5,0.3l3.1-1.8c0.6-0.4,1.1-0.6,1.4-0.6c0.4,0.1,0.6,0.3,0.5,0.6
		c0,0.2-0.5,0.6-1.3,1.2c-1.7,1.1-3.4,2.2-5.1,3.5c-1.1,1.4-2.1,1.3-3-0.4c0-0.3,0.1-0.4,0.3-0.5c0.2-0.1,0.4-0.5,0.5-1.3
		c0.1-1.7,0.2-3.5,0.1-5.2c0-0.8-0.5-1.1-1.3-1.1c-1.9,0.7-3.4,0.6-4.3-0.1c-0.5-0.4-0.6-0.7-0.3-1
		C52.5,273.6,56.8,272.9,63.1,271.8z M75.4,285.2c1.2-0.4,2.1,0.1,2.8,1.4c-0.1,0.3-0.4,0.5-0.9,0.5c-2.8,0.3-5.5,0.6-8.2,1.1
		c-0.7,0.1-1.1,0.5-1.1,1.1v1.8c0,0.6,0.4,0.8,1.1,0.7c2.5-0.4,4.6-0.8,6.5-1.2c0.6-0.1,1.3,0.2,1.8,0.9c0.3,0.4,0.3,0.6,0.3,0.8
		c-0.3,0.3-0.8,0.4-1.5,0.4c-2.4,0.3-4.8,0.6-7.2,1c-0.7,0.2-1,0.5-1,1.2l0,1.7c0,0.6,0.5,0.9,1.3,0.8c3.8-0.5,7.6-1.1,11.5-1.8
		c1.2-0.2,2,0.4,2.7,1.8c-0.2,0.4-0.5,0.5-1,0.5c-4.8,0.3-13.8,1.2-27.1,2.8c-1,0.2-1.7,0.2-2.1,0.1c-1.3-0.6-1.9-1.1-1.9-1.5
		c0.1-0.1,0.2-0.2,0.3-0.4l13.2-1.1c0.7-0.1,1-0.4,1-1.1l0-1.6c0-0.6-0.4-0.9-1.3-0.8c-1.5,0.2-3.1,0.4-4.7,0.7
		c-0.9,0.2-1.7-0.2-2.6-1.2c0.2-0.4,0.6-0.6,1.3-0.5c0.7,0,1.8-0.2,3.4-0.4l2.8-0.4c0.7-0.1,1-0.5,1-1.1v-1.7c0-0.6-0.4-0.9-1.3-0.8
		c-1.8,0.2-3.7,0.5-5.5,0.8c-0.9,0.2-1.7-0.1-2.6-1c0-0.6,0.5-0.8,1.6-0.7c4.1-0.5,8.5-1.1,13.1-1.8
		C72.9,285.9,74.3,285.5,75.4,285.2z M57.6,265.7c0.1-0.3,0.4-0.4,1-0.1c0.7,0.5,1.5,1.2,2.2,1.9c1,0.7,1.1,1.7,0.3,3
		c-0.2,0.3-0.4,0.4-0.6,0.3c-0.3-0.1-0.6-0.5-0.9-1.3c-0.5-0.9-1-1.8-1.5-2.7C57.6,266.5,57.5,266.1,57.6,265.7z M71.1,265.9
		c0.5-0.3,1.1,0,1.8,1.1c0.3,0.6,0.2,1.3-0.3,2l-0.5,1c-0.3,0.6,0,0.9,0.9,0.7l4.6-1.2c0.3-0.1,0.6-0.2,1-0.5
		c0.4-0.6,0.9-0.8,1.5-0.4c1.4,0.8,1.6,1.6,0.7,2.2c-0.6,0.7-1.3,1.7-1.9,3.1c-1.1,2.4-3.4,5.1-6.8,8.3c-3.1,2.2-5.8,3.8-8.2,4.6
		c-1,0.5-1.6,0.3-1.8-0.4c0-0.1,0.5-0.4,1.4-0.9c1.9-0.9,3.7-2,5.6-3.3c0.8-0.5,1-0.8,0.7-0.7c-0.3-0.1-0.6-0.5-1.1-1.3
		c-0.3-0.6-0.7-1.2-1.2-1.9c-0.4-0.6-0.9-0.6-1.4-0.2c-0.5,0.4-0.8,0.4-1.2,0c0-0.1,0.4-0.6,1.1-1.4c3-3.6,4.6-6.6,5-9.2
		C70.9,266.5,71,266,71.1,265.9z M77.5,272c0.2-0.6-0.1-0.7-1.1-0.5c-1,0.3-2,0.6-3,1.1c-0.6,0.4-1.3,0.4-2.1,0
		c-0.4-0.1-0.7,0-0.8,0.2c-0.1,0.2,0.3,0.6,1.2,1.1c1.6,0.6,2.2,1.6,1.8,3c-0.1,0.8-0.3,1.2-0.5,1.2c-0.2,0-0.7-0.4-1.5-1.4
		l-1.1-1.4c-0.6-0.7-1.2-0.7-1.8,0c-0.6,0.6-0.4,1.3,0.5,1.9c1.4,0.8,1.8,1.8,1.4,3c-0.2,0.7,0.2,0.7,1,0.1
		C74.5,277.7,76.5,274.9,77.5,272z"/>
	<path class="st0" d="M34.5,3.6c0.5-0.2,1.1,0.1,1.7,0.8c0.6,0.5,0.7,0.9,0.3,1.3c-0.3,0.2-1,0.3-2,0.3c-2.5,0.2-5,0.5-7.6,0.9
		c-0.8,0.1-1.1,0.3-0.9,0.6c0.3,0.3,0.3,0.7,0.2,1.1c-1,1-2.4,2.7-4.2,5.3c-0.6,0.8-0.5,1.6,0,2.3c0.1,0.3,0.2,0.5,0.3,0.8
		c-0.3,1.1-0.4,3.1-0.5,6c-0.1,2.8-0.2,7.1-0.2,12.9c0,0.8,0,1.2-0.1,1.4c-0.4,0.4-0.8,0.3-1.3-0.4c-1.1-1.5-1.4-2.8-0.8-3.9
		l0.5-2.3l-0.1-13.1c0-0.7-0.4-0.7-1,0C13.2,22.6,8.3,26,4.1,27.8c-0.3,0-0.5-0.1-0.6-0.4c0-0.1,0.4-0.5,1.2-1.2
		C5.9,25.4,7,24.7,8.1,24c7.4-5.2,12.5-10.5,15.2-15.9c0.1-0.6-0.3-0.9-1.1-0.8c-4.2,0.4-8.5,1-12.7,1.6C8.8,9.2,8,9.1,7,8.6
		C6.2,8.1,5.8,7.7,5.8,7.6C6,7.4,6.5,7.2,7.3,7.1c7.1-0.7,15.1-1.6,23.8-2.8L34.5,3.6z M25.4,16.3c0.4-0.2,0.7-0.2,1,0.1
		c2,0.9,4.8,2.5,8.5,4.9c1.7,0.8,2.1,2.1,1.3,4c-0.5,0.3-1,0-1.4-0.8c-2.3-2.2-5.2-4.5-8.5-6.7C25.3,17.2,25,16.7,25.4,16.3z"/>
	<path class="st0" d="M13.6,46.4c0.8-0.4,1.5,0.1,2.3,1.6c0.4,0.5,0.6,1,0.4,1.6c-0.8,1.9-1.6,4.5-2.5,7.9c-0.1,0.6,0.2,0.9,1.1,0.8
		c1.1-0.2,2.3-0.3,3.4-0.4c0.7-0.1,1.1-0.3,1.1-0.5l0.2-3.5c0.2-0.2,0.3-0.2,0.5-0.3c0.2,0,0.7,0.5,1.7,1.4c0.5,0.5,0.6,1,0.3,1.6
		c-0.4,1-0.7,2-0.8,3.1c-0.6,4.2-1.7,7.7-3.4,10.6c-0.4,0.6-0.1,1.1,0.8,1.6c1,0.5,2,1.1,3.1,1.8c0.6,0.7,0.8,1.7,0.7,2.9
		c-0.4,0.8-1,0.7-1.9-0.4c-0.9-0.9-2-1.8-3.1-2.6c-0.8-0.6-1.6-0.5-2.3,0.4c-2.6,2.7-5.5,4.9-8.5,6.7c-0.8,0.6-1.4,0.8-1.8,0.7
		c-0.4-0.1-0.6-0.3-0.5-0.7c0.2-0.4,0.6-0.7,1.4-1.1c2.8-1.7,5.5-4,8.2-7c0.5-0.6,0.3-1.2-0.5-1.7c-1.1-0.6-2.2-1.1-3.3-1.4
		c-0.6-0.1-1-0.4-1.3-0.9c0-0.3,0.2-0.9,0.5-1.8c0.6-1.7,1.2-3.4,1.6-5.2c0.2-0.6-0.2-0.8-1.2-0.7L7,61.3c-0.8,0.2-1.6,0.1-2.2-0.4
		c-0.8-0.5-1-1-0.6-1.4c0.3-0.2,0.8-0.2,1.5-0.2l5-0.5c0.7-0.1,1.2-0.6,1.4-1.3c1.3-4.3,1.8-7.6,1.6-9.7
		C13.5,46.9,13.5,46.5,13.6,46.4z M17.9,59.7l-3.8,0.6c-0.7,0.1-1.1,0.5-1.4,1.3l-1.4,5.6c-0.1,0.6,0.2,1.1,1.1,1.6
		c0.7,0.3,1.4,0.6,2.1,1c0.7,0.4,1.3,0.2,1.7-0.6c1.4-2.9,2.3-5.8,2.7-8.6C19.2,59.8,18.8,59.6,17.9,59.7z M35.6,56.2
		c0.4-0.7,0.9-0.8,1.5-0.2c1,0.7,1.2,1.3,0.6,1.9c-0.2,0.3-0.4,0.6-0.5,1.2c-0.5,2.5-1,5.8-1.6,9.9c-0.1,0.6,0.1,1,0.5,1.2
		c0.4,0.3,0.6,0.6,0.7,0.8c0,0.3-0.5,0.5-1.4,0.7L28,72.8c-0.7,0.2-1,0.6-1.1,1.4c0,0.8-0.1,1.5-0.2,2.3c-0.1,0.5-0.3,0.7-0.6,0.7
		c-1.4-1.1-1.9-2.3-1.3-3.5c0.7-3.5,0.7-8.8,0-16.1c0-0.8,0.1-1.2,0.2-1.3c0.6-0.2,1,0.2,1.2,0.9c0.3,0.7,0.8,0.9,1.6,0.8
		c3.2-0.5,5.4-0.9,6.5-1.2C34.8,56.7,35.2,56.5,35.6,56.2z M33.6,58.8l-0.8,0.1c-1.6,0.2-3.1,0.5-4.7,0.8c-0.7,0.1-1.1,0.5-1.1,1.1
		v9.3c0,0.6,0.4,0.9,1.3,0.8c1.4-0.2,2.9-0.4,4.3-0.6c0.6-0.1,1-0.6,1.1-1.4l1.4-9.3C35.1,58.9,34.6,58.7,33.6,58.8z"/>
	<path class="st0" d="M10.1,110.6c0.2-0.2,0.4-0.2,0.5-0.2c1.2,1.2,1.5,2.1,0.8,2.6c-2.1,2.9-4.3,5.3-6.8,7.2
		c-0.3,0-0.5-0.1-0.5-0.4c0-0.2,0.3-0.6,1-1.4C7.8,115.9,9.4,113.2,10.1,110.6z M17.8,94.5c1.4-0.8,2.4-0.4,3,1.2
		c-0.1,0.1-0.6,0.3-1.4,0.4c-0.9,0.1-1.2,0.3-1,0.6c0.3,0.4,0.2,0.9-0.1,1.7c-0.5,0.9-0.8,1.7-1.2,2.6c-0.2,0.6,0.1,0.9,0.9,0.7
		l1.7-0.4c0.8-0.1,1.5,0.4,2.1,1.4c0,0.2-0.5,0.4-1.6,0.6c-1.4,0.2-2.8,0.4-4.2,0.6c-0.8,0.2-1.1,0.4-0.9,0.7c0.1,0.3,0,0.9-0.2,1.8
		c0,0.6,0.4,0.9,1.3,0.7c0.9-0.2,1.9-0.4,2.9-0.7c1-0.2,1.7,0.3,2.2,1.6c-0.1,0.1-0.6,0.3-1.5,0.4c-1.3,0.1-2.5,0.3-3.8,0.5
		c-0.7,0.1-1.1,0.5-1.1,1.1l-0.1,9.6c0.1,2-0.2,3.5-1,4.5c-0.2,0.1-0.3,0.1-0.4,0c-0.9-1-1.9-2.1-3-3.3c-1.3-1-1.6-1.7-1-2.1
		c0.2-0.1,0.8,0.2,1.9,1c0.2,0.2,0.3,0.3,0.5,0.4c0.8,0.5,1.2,0.5,1.2-0.1c0.2-3.2,0.2-6.4,0.2-9.7c0-0.6-0.4-0.9-1.3-0.9
		c-1.9,0.4-3.3,0.6-4.2,0.5C6.8,110,6.2,109.6,6,109c0.1-0.2,0.2-0.3,0.5-0.4c0.9,0,2.2-0.2,3.9-0.5l1.6-0.2c0.8-0.1,1.2-0.5,1.2-1
		l-0.1-1.2c-0.1-0.7-0.4-1-1-0.9c-1.6,0.2-3.2,0.5-4.8,0.8c-0.5,0.3-1.1,0.2-1.6-0.4c-0.6-0.4-0.8-0.7-0.7-0.8
		c0.1-0.2,0.6-0.4,1.4-0.5c2.6-0.3,5.3-0.7,7.8-1.2c0.7-0.1,1.2-0.6,1.4-1.4c0.4-1.6,0.7-2.8,0.8-3.6c0.1-0.6-0.4-0.8-1.3-0.6
		l-2.5,0.5c-0.7,0.1-0.7,0.6-0.2,1.4c1.1,1.2,1.1,2.5,0.1,3.7c-0.2,0.2-0.5,0.2-0.8-0.1c-0.3-1.4-0.8-2.7-1.3-3.8
		c-0.3-0.5-0.9-0.8-1.8-0.7c-0.6-0.1-1.2-0.3-1.6-0.6c-0.2-0.3-0.2-0.6,0.1-0.7C11,95.9,14.6,95.2,17.8,94.5z M12.9,91.1
		c-0.2-1-0.2-1.6,0-1.6c0.5,0.1,1.1,0.6,2,1.6c0.8,0.6,1,1.4,0.5,2.3c-0.1,0.9-0.5,1.4-1.1,1.2c-0.1-0.1-0.3-0.5-0.5-1.3L12.9,91.1z
		 M32,93c1-1.3,1.9-1.3,2.9,0.1c0.3,0.3,0.1,0.7-0.4,1.3c-0.3,0.5-0.4,1-0.3,1.6l-0.8,12.5c0,0.8-0.1,1.6-0.3,2.5
		c-0.5,0.5-0.9,0.3-1.2-0.5c-0.3-0.5-0.5-0.8-0.8-0.8c-0.4,0-0.4,0.2-0.1,0.7c0.2,0.4,0.2,0.8,0.1,1c-0.2,0.5-0.3,1.4-0.3,2.8
		c-0.1,1.7-0.1,3.5,0,5.3c0.1,1.4,0.3,2.4,0.7,3c1.4,0.5,3,0.6,4.9,0.4c0.8-0.2,1.2-0.5,1.3-1.1c0.1-2,0.1-3.6-0.1-4.6
		c-0.1-0.4,0.2-0.7,0.7-0.8c0.3,0,0.5,0.4,0.7,1.2c0.3,2.2,0.7,4.2,1.2,6c0,0.8-0.7,1.2-2,1.1c-2.8,0.4-5.1,0.3-6.8-0.1
		c-1-0.2-1.6-0.8-2-1.8c-0.4-1.7-0.5-4.1-0.4-7.2c0.1-1.4,0.1-2.9,0-4.3c-0.1-0.7-0.3-1.1-0.7-1c-0.5,0.1-0.6,0.2-0.4,0.5
		c0.5,0.4,0.6,0.8,0.3,1.2c-0.4,0.5-0.6,1-0.7,1.6c-1.1,5-4.2,9.1-9.1,12.4c-0.9,0.7-1.5,0.7-1.7,0.2c0-0.1,0.4-0.5,1.1-1.2
		c3.8-2.9,6.3-6.1,7.4-9.5c0.4-1.3,0.6-2.5,0.7-3.8c0-0.7-0.2-1-0.5-1c-0.4,0.1-0.6,0.5-0.6,1.3c0.1,0.5-0.1,0.8-0.5,1.1
		c-1.5-0.8-2-1.9-1.4-3.1c0.3-0.8,0.4-2,0.4-3.5c0.1-4.4,0-8.4-0.3-12c-0.3-0.9-0.1-1.3,0.5-1.4c0.2,0,0.5,0.4,0.8,1
		c0.3,0.6,0.9,0.9,1.7,0.7l5.8-1L32,93z M16.7,111.5c0-0.3,0.2-0.4,0.5-0.4c0.3,0.1,0.7,0.3,1.2,0.7c2.3,1.5,3.3,2.8,3,3.7
		c-0.2,0.6-0.4,1-0.6,1.1c-0.3,0.1-0.7-0.3-1.2-1.1c-0.5-0.9-1.1-1.8-1.9-2.6C17,112.2,16.7,111.7,16.7,111.5z M30.9,95l-5.3,0.9
		c-0.7,0.2-1,0.5-1,1.2v1.6c0,0.6,0.4,0.9,1.3,0.8c1-0.1,2-0.3,3-0.6c0.6-0.3,1.1-0.1,1.7,0.5c0.4,0.3,0.6,0.6,0.4,0.9
		c-0.1,0.1-0.6,0.2-1.5,0.4l-3.8,0.6c-0.7,0.2-1,0.5-1,1.2v1c0,0.6,0.4,0.9,1.3,0.7c1.2,0,2.3-0.2,3.4-0.6c1.2,0.3,1.6,0.8,1.4,1.5
		c-0.1,0.1-0.6,0.2-1.6,0.4c-1.2,0.2-2.4,0.4-3.6,0.6c-0.7,0.2-1,0.5-1,1.2l0,0.9c0,0.6,0.4,0.9,1.3,0.8l3-0.4
		c1.2-0.3,2-0.5,2.4-0.4c0.2,0.1,0.4-0.2,0.5-1c0.3-2,0.5-5.7,0.5-11.1C32.1,95.2,31.7,94.9,30.9,95z"/>
	<path class="st0" d="M20.7,132.6c0.2-0.1,0.7,0.3,1.4,1.1c0.5,0.9,0.7,1.4,0.7,1.5c-0.8,0.9-1.8,2.4-3,4.6
		c-0.4,0.7-0.2,0.9,0.7,0.8l5.6-0.9c0.3-0.1,0.8-0.3,1.3-0.8c0.7-0.8,1.4-0.8,2,0.1c0.4,0.4,0.5,0.9,0.1,1.4
		c-0.1,0.9-0.2,1.8-0.2,2.7l-0.1,7.7c0,0.6,0.3,0.6,1-0.2c1.9-1.9,3.1-3.5,3.6-4.8c0.2-0.9,0.5-1.3,1.1-1.4c0.2,0.1,0.5,0.5,0.8,1.3
		c0.5,0.8,0.6,1.4,0.5,1.7c-0.1,0.1-0.4,0.3-0.9,0.6c-1.2,1-2.9,2.6-5.2,5.1c-0.6,0.6-1,1.2-1,1.9c0.1,4.5,0,8.6-0.4,12.3
		c0,0.6-0.2,1.2-0.5,1.9c-0.3,0.5-0.8,0.4-1.3-0.3c-1.4-1.5-2.9-2.7-4.7-3.7c-0.4-0.3-0.4-0.6-0.2-0.9c0.4-0.3,0.7-0.2,1.1,0
		c0.9,0.5,1.8,1,2.7,1.4c0.7,0.3,1.1,0,1.1-0.7c0.2-2.1,0.2-4.9,0.2-8.4c0-0.6-0.4-0.6-1.3,0c-6.2,4.5-13,8-20.4,10.6
		c-1.1,0.4-1.6,0.2-1.7-0.5c5-2.1,9.5-4.3,13.4-6.6c2.9-1.7,5.4-3.3,7.6-5c0.7-0.5,0.6-0.7-0.3-0.5l-13,2.6
		c-0.7,0.2-1.6-0.3-2.5-1.4c0.1-0.5,0.5-0.7,1.2-0.7c1-0.2,2.1-0.3,3.3-0.4c0.7-0.1,1.1-0.4,1.1-1c0.1-5.7,0-10-0.3-12.9
		c-0.1-0.5-0.1-0.8,0-0.9c0.6-0.3,1.1,0,1.5,0.9c0.3,0.4,0.6,0.6,0.9,0.5c0.4-0.1,0.8-0.4,1.1-0.9c1.2-2,2-4.1,2.5-6.4
		C20.5,133.1,20.6,132.7,20.7,132.6z M25.8,141.5c-2.1,0.3-4.9,0.8-8.2,1.4c-0.6,0.1-0.9,0.6-1,1.6v0.4c0,0.6,0.4,0.8,1.1,0.7
		l4.8-0.7c0.6-0.2,1.1-0.3,1.7-0.4c0.5-0.3,1-0.1,1.6,0.6c0.4,0.2,0.6,0.5,0.4,0.9c-0.1,0.1-0.6,0.2-1.5,0.4l-7.1,1.1
		c-0.7,0.1-1,0.5-1.1,1.3c0,0.8,0.4,1.1,1.3,1.1l5.5-0.8c1.3-0.8,2.4-0.5,3.2,1.1c-0.2,0.2-0.7,0.4-1.5,0.5
		c-2.5,0.3-4.9,0.7-7.4,1.1c-0.7,0.1-1,0.5-1,1.1v0.9c0,0.6,0.4,0.8,1.1,0.7l8.6-1.4c0.7-0.2,1-0.5,1-1.2l0.1-9.6
		C27.4,141.5,26.9,141.3,25.8,141.5z"/>
	<path class="st0" d="M29.7,177.1c0.1-0.2,0.7,0.1,1.8,0.7c0.8,0.5,1,1,0.6,1.6c-0.2,0.5-0.3,1.2-0.4,2.1c0,0.6,0.4,0.8,1.3,0.6
		c0.9,0,1.9-0.5,2.9-1.4c0.7,0,1.3,0.5,1.7,1.5l-0.6,1.2c-0.4,1.9-0.8,4.1-1.1,6.4c-0.1,0.6,0.1,1.1,0.5,1.4
		c0.4,0.4,0.5,0.6,0.5,0.8c-0.1,0.2-0.6,0.3-1.4,0.4c-2.3,0.2-4.5,0.5-6.8,0.8c-2.1,0.2-3.8,0.5-5.2,0.8c-0.7,0.2-1,0.4-1.1,0.5
		c0,0.4-0.2,0.5-0.6,0.5c-1.2-1-1.5-2-1-3.2l0.1-1c0-0.6-0.4-0.6-1.2,0.2c-0.6,1-1.1,1.5-1.6,1.6c-0.7-0.1-0.8-0.5-0.3-1.3
		c0.2-0.5-0.1-0.8-1-0.7l-9,1.5c-0.7,0.1-1.1,0.6-1.3,1.4c-0.1,0.4-0.2,0.8-0.4,1.2c-0.5,0.8-0.8,1.2-0.9,1.2
		c-0.4-0.2-0.7-0.7-1-1.6c-0.1-0.3,0.1-0.8,0.7-1.6c0.4-1,0.7-2.1,1-3.1c0.1-0.7,0.4-1.1,0.8-1.1c0.3,0.1,0.3,0.5,0.3,1.1
		c-0.1,0.6,0.1,0.9,0.6,0.9c0.6-0.1,0.8-0.4,0.8-1c0-3.8-0.1-6.9-0.3-9.3c0-0.8,0-1.2,0.2-1.4c0.4-0.1,0.8,0.1,1.1,0.7
		c0.4,0.5,0.9,0.8,1.5,0.7c1-0.2,2-0.4,3.1-0.5c1-0.1,2-0.5,3-1.4c0.5,0,1,0.4,1.5,1.2c-0.6,1.9-1.1,4.8-1.2,8.5
		c0,0.6,0.2,0.8,0.7,0.7c0.5-0.1,0.9-0.4,1.4-0.9c0.1,0,0.4,0.1,0.9,0.4c0.5,0.4,0.7,0.2,0.6-0.5c0-1.3-0.1-2.7-0.3-4
		c-0.3-0.9-0.2-1.3,0.4-1.4c0.2,0,0.3,0.1,0.5,0.2c0.2,0.2,0.3,0.4,0.4,0.6c0.1,0.3,0.6,0.4,1.4,0.2l0.7-0.1c0.7-0.1,1-0.5,1-1.3
		c0-1.2-0.1-2.2-0.3-3.1c-0.3-0.7-0.3-1.2-0.3-1.7c0.3-0.3,0.8-0.1,1.5,0.5c0.8,0.8,1.1,1.7,0.9,2.5l-0.1,1.8c0,0.6,0.4,0.9,1.3,0.7
		c0.2-0.1,0.5-0.1,0.8-0.1c0.7-0.1,1-0.6,1.1-1.4c0-1-0.1-2-0.2-3C29.6,177.7,29.6,177.2,29.7,177.1z M15.5,192.9
		c0.3-0.4,0.5-0.5,0.8-0.5c1.4,0.5,1.9,1.1,1.5,1.9c-0.2,0.2-0.4,0.6-0.4,1c-0.1,4.9-0.1,9.9-0.1,14.8c-0.1,1.3-0.4,2.3-0.9,2.9
		c-0.5,0.4-1.1,0-1.9-1.1l-1.2-1.1c-1-0.9-1.6-1.3-1.6-1.5c0.3-0.6,0.9-0.6,1.9,0l0.6,0.2c0.7,0.2,1.1-0.1,1.3-0.9
		c-0.1-4.2-0.1-8.3,0-12.5c-0.1-0.8-0.5-1.1-1.4-1l-3.3,0.5c-0.7,0.1-1.1,0.6-1.1,1.4s0.4,1.2,1.3,1.1c1.3-0.6,2.2-0.7,2.8-0.3
		c0.5,0.3,0.8,0.6,0.9,1.1c0,0.2-0.4,0.4-1.4,0.5l-2.7,0.5c-0.7,0.1-1,0.5-1,1.1s0.4,0.8,1.3,0.7c0.4,0,0.8-0.1,1.3-0.3
		c0.8-0.5,1.5-0.4,2.1,0.2c0.5,0.3,0.7,0.6,0.6,1c-0.1,0.2-0.5,0.4-1.4,0.5c-0.9,0.1-1.9,0.3-2.8,0.5c-0.7,0.1-1.1,0.5-1.1,1.3
		c0,2.4-0.1,4.9-0.2,7.4c0,0.5-0.2,0.7-0.5,0.8c-0.4,0-0.8-0.4-1.3-1.2c-0.4-0.8-0.5-1.6-0.2-2.3c0.8-4,0.8-9.1,0-15.4
		c-0.3-1-0.1-1.5,0.6-1.6c0.1,0,0.3,0.3,0.7,0.9c0.3,0.6,0.8,0.8,1.7,0.6c2.1-0.3,3.5-0.6,4.2-0.9C15.1,193.2,15.3,193.1,15.5,192.9
		z M14.9,181.5c-0.9,0.1-2,0.3-3.4,0.6c-0.7,0.1-1.1,0.5-1.1,1.3c-0.1,1.9-0.1,3.9-0.1,5.9c0,0.6,0.3,0.9,0.8,0.9
		c0.5-0.1,0.7-0.5,0.7-1.3c-0.1-1.9-0.1-3.9,0-5.9c0.5-0.3,0.8-0.1,1.2,0.6c0.2,0.6,0.9,0.6,2.2,0.2c0.6-0.1,0.9-0.6,1-1.3
		C16.1,181.7,15.7,181.4,14.9,181.5z M15.8,186.3c0-0.6-0.4-0.8-1.2-0.7c-0.8,0.2-1.2,0.7-1.2,1.5v1.8c0,0.6,0.4,0.9,1.1,0.8
		c0.7-0.1,1.1-0.5,1.2-1.3C15.7,187.6,15.7,187,15.8,186.3z M32.3,198.1c0.8-1,1.7-0.8,2.6,0.5c0,0.1-0.2,0.6-0.5,1.4
		c-0.2,0.5-0.3,1-0.4,1.5c-0.1,0.7-0.1,1.1,0.3,1.4c0.6,0.4,0.8,0.8,0.5,1.1c-0.1,0.1-0.4,0.1-0.7,0.2l-1.4,0.2
		c-0.7,0.1-0.7,0.5-0.1,1.1c0.3,0.3,0.4,0.5,0.4,0.7c0.1,0.2-0.3,0.7-1,1.7c-0.2,0.2-0.3,0.5-0.4,0.7c-0.4,0.7-0.2,1,0.7,0.9
		c2.4-0.2,4.5-0.5,6.3-1c0.3,0,0.6,0.1,0.8,0.3c0.6,0.7,1,1.1,1,1.3c-0.1,0.2-0.7,0.4-1.8,0.5c-5.6,0.6-11.3,1.2-16.9,1.8
		c-1.7,0.5-3,0.2-4.1-1c0.3-0.5,0.8-0.7,1.4-0.5c1.7-0.1,3.5-0.3,5.4-0.5c0.7-0.1,0.9-0.5,0.6-1.3c-0.1-0.5-0.2-1-0.4-1.5
		c-0.2-0.7-0.4-1.1-0.5-1c-0.3,0.2-0.7-0.1-1-0.7c-0.6-0.9-0.7-1.7-0.4-2.3c0.2-1.4,0.1-2.6-0.2-3.8c-0.2-0.5,0-0.9,0.5-1.1
		c0.2-0.1,0.4,0.1,0.6,0.6c0.2,0.4,0.7,0.6,1.6,0.4c1.8-0.3,3.7-0.6,5.6-0.9C31.2,198.6,31.8,198.4,32.3,198.1z M35.8,194
		c0.7-0.1,1.3,0.4,1.9,1.3c0.1,0.3-0.3,0.5-1.2,0.7l-13,1.8c-1.2,0.4-2.3,0.3-3.3-0.2c-0.5-0.4-0.7-0.6-0.7-0.8
		c0.1-0.2,0.6-0.3,1.5-0.4c3.9-0.6,7.9-1.2,11.9-1.8C33.6,194.6,34.5,194.4,35.8,194z M23.9,185.2l-0.4,0c-0.7,0.1-1,0.5-1,1.1v0.7
		c0,0.6,0.5,0.8,1.4,0.7c0.8-0.1,1.3-0.5,1.3-1.1v-0.7C25.2,185.4,24.8,185.2,23.9,185.2z M25.2,190.2c0-0.6-0.5-0.8-1.4-0.7
		c-0.8,0-1.2,0.3-1.2,1v0.9c0,0.7,0.4,1,1.4,0.9c0.8-0.1,1.2-0.5,1.2-1.1V190.2z M32.2,201.1c0.1-0.6-0.3-0.9-1.1-0.8
		c-2,0.3-4,0.6-6,0.9c-0.7,0.1-1,0.5-1,1.3v0.5c0,0.6,0.5,0.9,1.4,0.7l5.3-0.8c0.7-0.2,1.2-0.6,1.3-1.4L32.2,201.1z M29.6,204.8
		l-0.9,0.2l-3,0.5c-0.7,0.1-0.7,0.5-0.1,1.2c1.1,1,1.5,1.9,1.2,2.5c-0.2,0.6,0.1,0.8,0.9,0.7l0.6-0.1c0.6-0.1,1.1-0.5,1.6-1.4
		c0.5-1.1,0.7-2.1,0.7-2.8C30.7,204.9,30.3,204.7,29.6,204.8z M29.7,184.4c-0.6,0.1-1.1,0.1-1.7,0.3c-0.7,0.1-1.1,0.5-1.1,1.1v0.9
		c0,0.6,0.5,0.8,1.4,0.7c1-0.1,1.5-0.4,1.5-1c0-0.3,0-0.7,0-1C29.9,184.6,29.8,184.3,29.7,184.4z M29.6,189.6c0-0.6-0.4-0.8-1.4-0.7
		c-0.9,0.2-1.3,0.6-1.3,1.2v1c0,0.6,0.4,0.8,1.3,0.7c0.8-0.1,1.3-0.6,1.3-1.4L29.6,189.6z M34.3,189c0.1-0.6-0.3-0.9-1.2-0.7
		l-0.8,0.1c-0.7,0.1-1,0.6-1.1,1.4l0,0.7c-0.1,0.7,0.3,0.9,1.1,0.8l0.8-0.1c0.6-0.1,0.9-0.6,1.1-1.5L34.3,189z M33.7,183.8l-0.9,0.1
		c-0.8,0.2-1.3,0.7-1.3,1.5c0,0.1,0,0.3,0,0.4c0,0.7,0.2,1,0.7,0.8c0.7-0.1,1.2,0,1.6,0.2c0.5,0.4,0.8,0.2,0.9-0.6l0.3-1.8
		C35,183.8,34.6,183.6,33.7,183.8z"/>
	<path class="st0" d="M4.6,245.2c-0.1-1,0.2-1.5,0.9-1.4c0.2,0.2,0.3,0.6,0.3,1.4c0.1,1.6-0.2,3-0.6,4.4c-0.3,1-0.7,1.4-1.3,1.2
		c-0.5-0.7-0.8-1.2-0.9-1.7c0-0.3,0.1-0.5,0.3-0.8C4.1,247.5,4.5,246.4,4.6,245.2z M5.6,224.6c0-0.8,0.1-1.2,0.3-1.2
		c0.3,0,0.5,0.3,0.9,0.9c0.3,0.5,0.8,0.8,1.7,0.6c2.4-0.3,5.1-0.7,8-1.3c0.5-0.3,1.1-0.1,1.6,0.5c0.4,0.5,0.5,0.8,0.3,1
		c-0.2,0.1-0.5,0.2-1.1,0.2c-1,0.1-2.1,0.2-3.2,0.4c-0.7,0.2-1,0.5-1,1.2v1.5c0,0.6,0.4,0.8,1.3,0.7c0.3-0.1,0.6-0.2,0.8-0.2
		c0.8-0.1,1.5,0.1,1.8,0.3c0.4,0.3,0.6,0.6,0.6,0.8c-0.1,0.2-0.6,0.4-1.5,0.6c-0.6,0.1-1.3,0.2-1.9,0.4c-0.7,0.2-1.1,0.5-1.1,1.1
		v1.2c0,0.6,0.4,0.9,1.3,0.7c0.4-0.1,0.8-0.2,1.2-0.2c0.8-0.4,1.5-0.1,2.2,1c0,0.2-0.6,0.4-1.7,0.7c-0.6,0.1-1.3,0.2-2,0.3
		c-0.7,0.2-1,0.5-1,1.2v1.3c0,0.6,0.4,0.9,1.3,0.7c0.6-0.2,1.4-0.6,2.3-1.1c0.6,0.1,1.1,0.5,1.6,1.2c0.2,0.3,0.1,0.6-0.2,0.9
		c-0.6,0.5-0.8,1.1-0.6,1.8c-0.3,4.7-1,8.9-2.1,12.5c-0.5,1.2-1,2.1-1.5,2.7c-0.8,0.8-1.4,0.6-1.6-0.6c-0.5-0.9-1.1-1.9-2-3.1
		c-0.7-0.8-0.7-1.3-0.1-1.6c0.1,0,0.6,0.3,1.4,1.1l0.7,0.7c0.6,0.5,1.1,0.3,1.4-0.5c1.2-3.7,1.9-7.5,2-11.4c0-0.6-0.4-0.9-1.3-0.7
		l-5.8,1c-0.7,0.2-1,0.4-1.1,0.7c0,0.5-0.2,0.8-0.6,0.7c-1.6-1.1-2-2.3-1.2-3.5C6.2,233.8,6.2,228.9,5.6,224.6z M6.8,243.9
		c0-0.3,0.2-0.5,0.6-0.6c0.3,0.2,0.6,0.6,0.8,1.3c0.5,0.9,0.9,1.9,1.1,2.9c0,0.2-0.2,0.5-0.5,1c-0.6,0.7-1,1-1.3,0.7
		c-0.1-0.3-0.2-0.5-0.2-0.9C7.3,246.9,7.1,245.4,6.8,243.9z M9.9,226.3L9,226.4l-0.4,0.1c-0.7,0.1-1,0.5-1,1.1v1.9
		c0,0.6,0,0.9,0.1,0.9c0.1-0.1,0.3-0.1,0.7-0.2l1.6-0.3c0.8-0.2,1.2-0.6,1.3-1.3l0-1.5C11.4,226.4,10.9,226.1,9.9,226.3z M8,231.2
		c-0.2-0.2-0.3,0-0.3,0.6v2.3c0,0.6,0.1,0.9,0.2,0.9c0.1-0.1,0.3-0.1,0.7-0.2l1.6-0.3c0.8-0.1,1.2-0.4,1.2-1v-1.3
		c0-0.6-0.4-0.9-1.3-0.7C9.4,231.7,8.7,231.6,8,231.2z M8.1,235.9c-0.3-0.2-0.5,0-0.5,0.6v2.2c0,0.7,0.4,1,1.1,0.9l1.5-0.2
		c0.7-0.1,1-0.5,1-1.1V237c0-0.6-0.5-0.9-1.4-0.7C9.4,236.4,8.7,236.2,8.1,235.9z M9.5,244.6c-0.2-0.9-0.2-1.4,0-1.4
		c0.2-0.1,0.6,0.3,1.2,1.1l0.5,0.8c0.6,0.9,0.8,1.6,0.8,2c-0.2,0.9-0.6,1.4-1.1,1.5c-0.3,0-0.5-0.5-0.7-1.6
		C9.9,246.2,9.7,245.4,9.5,244.6z M11.8,243.6c-0.1-0.8-0.1-1.3,0.1-1.4c0.2,0,0.7,0.3,1.4,1.1c1.7,1.4,2,2.8,0.8,4
		c-0.1,0.1-0.3,0.1-0.4,0c-0.2-0.1-0.4-0.6-0.7-1.4C12.8,245.3,12.4,244.5,11.8,243.6z M22.3,237.3c1-0.2,2-0.6,2.8-1.2
		c0.4-0.1,0.7,0.2,1.1,0.6c0.4,0.3,0.5,0.7,0.2,1.2c-0.3,0.7-0.6,2-0.8,3.7c-0.1,0.6,0,1,0.2,1.2c0.4,0.2,0.6,0.5,0.6,0.9
		c-0.4,0.3-1.2,0.5-2.5,0.6c-0.6,0.1-0.6,0.5,0,1.3c0.1,0.2,0.2,0.3,0.3,0.5c0.1,0.3-0.1,0.9-0.5,1.6c-0.3,0.7-0.2,1.2,0.4,1.6
		c1.6,0.9,2.4,1.7,2.3,2.5c-0.3,1-0.5,1.4-0.7,1.4c-0.4-0.2-0.8-0.6-1.3-1.3l-0.6-0.8c-0.7-0.8-1.3-0.7-1.8,0.1
		c-1.5,2.4-3,4.5-4.7,6.1c-0.5,0.3-0.8,0.3-1.1-0.2c0-0.2,0.3-0.6,0.8-1.3c2.9-3.7,4.5-7,4.9-10c0.1-0.7,0-1-0.2-1
		c-0.3,0.1-0.5,0.3-0.5,0.7c-0.1,0.4-0.2,0.6-0.4,0.8c-0.2,0.1-0.6-0.3-1.1-1.3c-0.3-0.5-0.4-0.8-0.4-1c0.7-1.9,0.9-4,0.4-6.4
		c-0.3-0.4-0.1-0.8,0.4-1.2c0.2,0,0.4,0.2,0.7,0.6C20.9,237.3,21.4,237.5,22.3,237.3z M26.3,221.2c0.6-0.8,1.2-0.6,1.8,0.6
		c0.3,0.8,0.3,1.4,0.1,1.8c-0.3,0.4-0.2,0.9,0.3,1.7c2.3,3.5,4.6,6.5,7,9c1.4,1.4,3.1,2.1,5.1,2.3c0.5,0.1,0.7,0.3,0.7,0.7
		c-0.1,0.4-0.5,0.6-1.3,0.7c-1.1,0.1-2.3,0.2-3.4,0.4c-0.7,0.1-1.2-0.2-1.6-0.8c-2.3-3.6-4.8-7.1-7.4-10.7c-0.5-0.7-0.9-0.6-1.4,0.2
		c-1.1,2-2.2,3.6-3.2,4.9c-0.5,0.7-0.4,0.9,0.5,0.8l5.8-1.1c0.7-0.2,1.3,0.2,1.9,1.1c0,0.2-0.5,0.4-1.4,0.6c-1,0.1-1.9,0.2-2.9,0.4
		c-1.5,0.4-2.6,0.5-3.4,0.5c-0.5,0-1-0.2-1.5-0.7c-0.1-0.2-0.5,0.1-1,0.7l-2.1,2.3c-0.7,0.9-1.4,1.2-1.9,0.9c-0.2-0.2-0.2-0.6,0.1-1
		C22.7,230.8,25.7,225.7,26.3,221.2z M23.2,238.7l-0.8,0.2c-0.7,0.1-1.1,0.6-1.1,1.4v1.7c0,0.8,0.4,1.1,1.2,1.1
		c0.8-0.2,1.3-0.7,1.4-1.5c0.1-0.6,0.2-1.3,0.3-1.9C24.3,238.9,24,238.6,23.2,238.7z M27.3,237.4c-0.3-0.7-0.1-1.2,0.5-1.4
		c0.2,0.1,0.4,0.3,0.5,0.7c0.3,0.5,0.7,0.7,1.3,0.6c0.7-0.1,1.5-0.3,2.2-0.5c0.8-0.5,1.3-0.7,1.5-0.7c0.6,0.2,1,0.6,1.2,1.3
		c-0.3,0.5-0.5,1.1-0.6,1.8c-0.2,0.7-0.4,1.5-0.5,2.3c-0.1,0.7,0,1.2,0.3,1.3c0.9,0.8,0.8,1.2-0.2,1.3l-1.9,0.3
		c-0.7,0.1-0.9,0.3-0.7,0.4c0.6,0.6,1,1.2,1.2,1.9c0,0.2-0.3,0.6-0.8,1.3c-0.3,0.7,0,1.4,0.9,2.1c1.7,1.3,3.2,2.6,4.2,3.9
		c0.3,1.3,0.1,2.1-0.5,2.5c-0.3,0.1-0.5-0.2-0.9-0.8c-1.1-1.7-2.3-3.2-3.7-4.5c-0.7-0.5-1.3-0.4-1.7,0.3c-1.2,2.1-2.7,4.2-4.7,6.2
		c-0.5,0.6-0.9,0.6-1.3,0c0-0.1,0.2-0.5,0.5-1c3.4-4.2,5.4-7.9,5.8-11.1c0.1-0.6,0-0.9-0.5-0.9c-0.4,0.1-0.6,0.3-0.6,0.5
		c0.1,0.6-0.2,0.9-0.7,0.9c-0.2-0.1-0.4-0.3-0.5-0.6c-0.6-0.8-0.8-1.5-0.6-1.9C27.6,241.9,27.7,239.9,27.3,237.4z M30.8,238.7
		l-0.8,0.1c-0.8,0.1-1.2,0.6-1.2,1.3v2c0,0.6,0.4,0.9,1.3,0.8c1.2,0.1,1.7-0.3,1.7-1.1l0.3-2.3C32.3,238.8,31.8,238.6,30.8,238.7z"
		/>
</g>
<g>
	<g>
		<path d="M68.1,339.3l-12.7-13h25.3L68.1,339.3z M57.5,327.1l10.6,10.9l10.6-10.9H57.5z"/>
	</g>
	<g>
		<path d="M80.6,327.1h-25l4.2-6h16.6L80.6,327.1z M57.3,326.3h21.6l-3-4.3H60.3L57.3,326.3z"/>
	</g>
	<g>
		<polygon points="67.7,338.8 62.5,326.9 59.6,321.8 60.4,321.4 63.3,326.5 68.5,338.5 		"/>
	</g>
	<g>
		<polygon points="73.5,327.4 67.5,322.2 63.1,327 62.4,326.4 67.4,321 73.2,326 75.8,321.4 76.6,321.8 		"/>
	</g>
	<g>
		<polygon points="68.5,338.9 67.7,338.5 73.1,326.6 73.9,326.9 		"/>
	</g>
</g>
</svg>
