<svg id="圖層_1" data-name="圖層 1" xmlns="http://www.w3.org/2000/svg" viewBox="0 0 270.1 66.31"><defs><style>.cls-1{stroke:#000;stroke-miterlimit:10;stroke-width:2px;}</style></defs><title>橫式-天生麗質</title><path class="cls-1" d="M180.82,297.91a14.9,14.9,0,0,1,2,.9.5.5,0,0,1,.14.31c0,.16-.15.26-.44.31a4.88,4.88,0,0,1-.77.11,41.69,41.69,0,0,1-1.71,4.24c-.18.41-.38.8-.58,1.16.61.31.91.55.91.72s-.26.36-.77.62v13.23a4.74,4.74,0,0,0,.12,1.24,4.1,4.1,0,0,1,.07.6.78.78,0,0,1-.84.85c-.3,0-.45-.14-.45-.41V306.62c-.14.22-.28.44-.42.64a29.43,29.43,0,0,1-2.56,3.13l-.37-.28a33.89,33.89,0,0,0,2.3-3.26,31.65,31.65,0,0,0,1.47-3c.47-1.07.88-2.08,1.24-3A18.61,18.61,0,0,0,180.82,297.91Zm1,9a9.89,9.89,0,0,0,2.71.31h4.38v-7a17.82,17.82,0,0,0-.09-2.09,7.94,7.94,0,0,1,2.21.57q.33.15.33.39c0,.13-.11.24-.33.31a3,3,0,0,1-1,.31v7.52h4.65l1.21-1.53c.62.52,1.2,1,1.75,1.5a.44.44,0,0,1,.21.36c0,.26-.13.39-.37.39h-7.45v11.91a4.27,4.27,0,0,0,0,.78c0,.31.05.56.05.75,0,.57-.25.85-.75.85s-.58-.14-.58-.41,0-.86,0-1.42.05-1.13.05-1.58V307.91h-4.38c-1.09,0-1.83,0-2.22.1Z" transform="translate(-155.61 -296.08)"/><path class="cls-1" d="M220.28,297.6c.35.17.68.34,1,.52a3.59,3.59,0,0,1,.79.49,1.25,1.25,0,0,1,.42.41.51.51,0,0,1,.12.31,2.1,2.1,0,0,1-.14.83.61.61,0,0,1-.19.2h7.07l1.09-1.42c.61.49,1.17,1,1.68,1.42a.37.37,0,0,1,.21.31c0,.3-.12.44-.37.44H212.79v7.32c0,1.36,0,2.63-.12,3.82s-.13,2.12-.25,3.21a22.18,22.18,0,0,1-.49,2.43,13.67,13.67,0,0,1-.66,2,8.62,8.62,0,0,1-1,1.6l-.28-.2a12.74,12.74,0,0,0,.59-1.56c.15-.5.29-1,.42-1.6a18.75,18.75,0,0,0,.32-2.19c.11-1,.19-1.95.24-2.95.06-1.34.09-2.85.09-4.52q0-5.61-.09-9l1.3.93h8.8a.68.68,0,0,1-.19-.33,2,2,0,0,0-.33-.75,3.81,3.81,0,0,0-.53-.67,3.44,3.44,0,0,0-.75-.7ZM215,305.66c1,.24,1.47.48,1.47.73s-.22.36-.66.41a9.88,9.88,0,0,1-.37,1.47,12.78,12.78,0,0,1-.63,1.63,10.32,10.32,0,0,1-.74,1.52l-.59-.38a13.84,13.84,0,0,0,.8-2,13.09,13.09,0,0,0,.48-1.83A9.25,9.25,0,0,0,215,305.66Zm-1.24-1.78a9.13,9.13,0,0,0,2.71.33h.77v-.43a15.14,15.14,0,0,0-.1-2.07,7.54,7.54,0,0,1,1.87.57.38.38,0,0,1,.28.36.34.34,0,0,1-.23.33,1.44,1.44,0,0,1-.7.32v.92h1.56l.93-1c.45.36.87.73,1.26,1.09a.3.3,0,0,1,.17.26c0,.25-.1.38-.28.38h-3.64v6.31c0,.34-.23.52-.68.52s-.54-.2-.54-.6c0-.22,0-.51.05-.85s0-.66,0-.93v-4.45h-.77a20.87,20.87,0,0,0-2.22.11Zm7.09,7.26a10.07,10.07,0,0,1,1.57.9.29.29,0,0,1,.11.24c0,.08-.07.16-.21.23a2.84,2.84,0,0,1-.72.16,6.88,6.88,0,0,1-.84.95,5.37,5.37,0,0,1-1.05.91,10.59,10.59,0,0,1-1.19.87,5.24,5.24,0,0,1-.61.34h.19q1.19,0,2.82-.18,1.29-.07,2.55-.21a13.14,13.14,0,0,0,1-1.24,6.27,6.27,0,0,0,.91-1.75,10,10,0,0,1,1.66,1,.27.27,0,0,1,.14.24c0,.1-.08.19-.23.25a5.83,5.83,0,0,1-.7.19c-.53.6-1.09,1.19-1.68,1.78a20.29,20.29,0,0,1-2.08,1.73,28,28,0,0,1-2.35,1.58c-.55.34-1.12.67-1.71,1,.72,0,1.38-.08,2-.13,1.13-.09,2.38-.2,3.73-.34l4-.49c-.23-.33-.46-.62-.68-.88a9.23,9.23,0,0,0-1.33-1.26l.26-.29a19.14,19.14,0,0,1,2.4,1.71,6.45,6.45,0,0,1,1.26,1.24,2.84,2.84,0,0,1,.47.85,2.11,2.11,0,0,1,.07.54c0,.49-.18.73-.54.73a.75.75,0,0,1-.3-.08,1.71,1.71,0,0,1-.44-.59,8.75,8.75,0,0,0-.82-1.43c-1.4.28-2.63.5-3.71.68-1.26.22-2.46.41-3.61.56s-2.18.3-3.36.42c-.16.62-.28.93-.38.93a7.49,7.49,0,0,1-1.09-2.07l1,0a32.65,32.65,0,0,0,2.92-2,25,25,0,0,0,2.35-2.05.23.23,0,0,1,.1-.07,11.69,11.69,0,0,1-1.36.23c-1,.19-1.8.33-2.52.41a9.51,9.51,0,0,1-1.12.18c-.18.62-.33.93-.44.93a7.35,7.35,0,0,1-.77-2.06H217a14.47,14.47,0,0,0,1.38-1.17,10,10,0,0,0,1.14-1.21,10.62,10.62,0,0,0,.91-1.22A4.66,4.66,0,0,0,220.81,311.14Zm-1.3-5.4,1.44.39c.24.05.35.17.35.36s-.12.27-.37.36-.4.2-.4.34v1.57q0,.39.63.39a4.27,4.27,0,0,0,.8-.1.61.61,0,0,1,.63.64.49.49,0,0,1-.35.47,4.1,4.1,0,0,1-1.08.13,2,2,0,0,1-1.28-.31,1.5,1.5,0,0,1-.37-1Zm3.26-1.86a9.13,9.13,0,0,0,2.71.33h.86v-.43a17.43,17.43,0,0,0-.09-2.07,7.45,7.45,0,0,1,1.86.57.38.38,0,0,1,.26.36.34.34,0,0,1-.21.33,1.46,1.46,0,0,1-.72.32v.92h2.24l.93-1c.48.36.93.73,1.35,1.09a.3.3,0,0,1,.17.26c0,.25-.11.38-.31.38h-4.38v6.23c0,.33-.22.49-.66.49s-.53-.2-.53-.59c0-.23,0-.51,0-.86a7.86,7.86,0,0,0,.05-.93v-4.34h-.86a20.87,20.87,0,0,0-2.22.11Zm1.43,2c1,.26,1.47.51,1.47.75s-.21.34-.63.39a9.73,9.73,0,0,1-.38,1.42,13.7,13.7,0,0,1-.61,1.55,11.63,11.63,0,0,1-.69,1.47l-.59-.38a18.12,18.12,0,0,0,.75-1.94,13.8,13.8,0,0,0,.47-1.78A8.11,8.11,0,0,0,224.2,305.84Zm4.64,0c.6.18,1.08.3,1.44.39s.33.19.33.36-.12.28-.35.36-.37.2-.37.34v2c0,.3.29.44.88.44a6.51,6.51,0,0,0,1-.1c.42,0,.64.22.66.59a.56.56,0,0,1-.4.5,5.47,5.47,0,0,1-1.31.15,2.33,2.33,0,0,1-1.47-.33,1.33,1.33,0,0,1-.46-1Z" transform="translate(-155.61 -296.08)"/><path class="cls-1" d="M249.2,299.77a9.37,9.37,0,0,0,2.71.31h11.94l1.21-1.58c.64.52,1.25,1,1.82,1.55.16.09.24.19.24.31,0,.3-.13.44-.38.44h-7.93a44.62,44.62,0,0,1-.28,4.94c0,.62-.11,1.18-.18,1.68h7.46l1.21-1.58c.62.54,1.21,1.05,1.75,1.55a.39.39,0,0,1,.21.34.34.34,0,0,1-.39.39h-9.66a29.37,29.37,0,0,0,1.45,3.8,21.46,21.46,0,0,0,1.75,2.92,16.55,16.55,0,0,0,2.23,2.45,10.57,10.57,0,0,0,2.66,1.89,7.57,7.57,0,0,0,2.41,1v.31c-1,0-1.58.35-1.78,1a11,11,0,0,1-2.89-2.11,13.63,13.63,0,0,1-2.68-2.9,17.69,17.69,0,0,1-2.22-3.77,27.12,27.12,0,0,1-1.65-4.58,15,15,0,0,1-.47,1.92,16.13,16.13,0,0,1-1.4,3.87,20.29,20.29,0,0,1-2,3.18,15.65,15.65,0,0,1-3.05,2.72,17.44,17.44,0,0,1-3.69,2l-.28-.54a17.81,17.81,0,0,0,4.67-3,16.57,16.57,0,0,0,2.59-3.1,15.23,15.23,0,0,0,1.79-3.95,16.5,16.5,0,0,0,.82-3.23h-7a21.93,21.93,0,0,0-2.24.1l-.49-1.14a8.78,8.78,0,0,0,2.73.34h7a4.81,4.81,0,0,0,.07-.49,60.08,60.08,0,0,0,.24-6.13h-5.67c-1.11,0-1.86.06-2.26.11Z" transform="translate(-155.61 -296.08)"/><path class="cls-1" d="M286.58,299.33a19.8,19.8,0,0,1,2,.91.51.51,0,0,1,.16.33c0,.17-.15.29-.47.34a4,4,0,0,1-.77.1,37.57,37.57,0,0,1-1.58,4h5.6v-4.66a15.07,15.07,0,0,0-.1-2.06,8.11,8.11,0,0,1,2.22.57q.33.15.33.36c0,.15-.11.27-.33.33a2.22,2.22,0,0,1-1,.31V305H298l1.19-1.53c.65.52,1.27,1,1.84,1.5a.41.41,0,0,1,.21.36c0,.26-.12.39-.35.39h-8.21v6.12h4.64l1.21-1.57c.63.53,1.21,1,1.75,1.55a.38.38,0,0,1,.21.33c0,.26-.12.39-.37.39h-7.44v7.75H300l1.28-1.62c.65.55,1.27,1.08,1.84,1.6a.44.44,0,0,1,.21.36c0,.28-.11.41-.35.41H283.6c-1.09,0-1.84.05-2.24.08l-.45-1.11a10.25,10.25,0,0,0,2.69.28h7.93v-7.75h-5.32a20.87,20.87,0,0,0-2.22.11l-.49-1.14a9.13,9.13,0,0,0,2.71.33h5.32v-6.12h-6a20.52,20.52,0,0,1-3.92,5.58l-.38-.28a35.36,35.36,0,0,0,2.17-3.13c.47-.84.94-1.79,1.4-2.84s.82-2,1.15-2.9A21.34,21.34,0,0,0,286.58,299.33Z" transform="translate(-155.61 -296.08)"/><path class="cls-1" d="M327.85,304.42a6.67,6.67,0,0,1,.67.52,3.12,3.12,0,0,1,.52.49,1.45,1.45,0,0,1,.3.39.85.85,0,0,1,.07.33,1.79,1.79,0,0,1-.12.73.6.6,0,0,1-.16.2H337l1-1.13c.52.41,1,.81,1.4,1.19a.35.35,0,0,1,.21.28c0,.28-.1.41-.3.41H332v1.76h4.18l.67-.83c.8.52,1.19.9,1.19,1.14s-.21.41-.65.7v3.1c0,.33-.24.54-.72.64-.27,0-.4-.06-.4-.2v-.34h-13a12.89,12.89,0,0,0-2.24.11l-.25-.75a20.75,20.75,0,0,1-.14,2.45,13.56,13.56,0,0,1-.33,2.17,7.9,7.9,0,0,1-.51,1.6,6.75,6.75,0,0,1-.75,1.32,6,6,0,0,1-1.07,1.09l-.28-.24a5,5,0,0,0,.67-1,5.49,5.49,0,0,0,.52-1.06,11.24,11.24,0,0,0,.37-1.45c.11-.63.19-1.29.26-2a29.06,29.06,0,0,0,.14-2.95q0-4.34-.1-7l1.31.93h7.81a1.74,1.74,0,0,1-.09-.31,2.61,2.61,0,0,0-.26-.72,3.63,3.63,0,0,0-.35-.65,2.65,2.65,0,0,0-.51-.69ZM318,298.94a10.47,10.47,0,0,0,2.73.29h5.29l.93-1.14c.52.41,1,.81,1.43,1.19.12.09.18.17.18.26,0,.29-.1.44-.3.44h-7.53c-1.11,0-1.86,0-2.27.1Zm1.61,1.73,1.37.83h4.69l.63-.83c.83.56,1.24.94,1.24,1.14s-.22.43-.65.73v2.92c0,.31-.26.5-.78.59-.23,0-.35-.07-.35-.21v-3.59h-5v3.31c0,.14-.1.26-.31.36a1.58,1.58,0,0,1-.53.13c-.19,0-.28-.1-.28-.31Zm5.66,8.92v-1.76h-4.54v1.55a11.51,11.51,0,0,0,2.49.21Zm-4.54,3.33a13.37,13.37,0,0,0,2.49.18h2.05v-2.81h-2.05a13.37,13.37,0,0,0-2.24.1l-.25-.75Zm1.47,1c.7.15,1.27.3,1.72.43.16.09.24.19.24.29a.25.25,0,0,1-.17.23,2.46,2.46,0,0,1-.58.31v1.14h3.29l.93-1c.47.36.9.72,1.31,1.08a.3.3,0,0,1,.16.26c0,.26-.09.39-.26.39h-5.43v3.05l1-.16a18,18,0,0,0,2.16-.44c.78-.17,1.67-.39,2.66-.67l.1.49a16.5,16.5,0,0,1-2.13.91c-.66.27-1.29.49-1.89.67a17.67,17.67,0,0,1-1.74.49c-.18.62-.31.93-.4.93a7.63,7.63,0,0,1-1.12-2.07,1.32,1.32,0,0,1,.28,0V316A17.35,17.35,0,0,0,322.23,313.91Zm.3-11.27a9.11,9.11,0,0,1,.82.83,3.35,3.35,0,0,1,.65.74,2,2,0,0,1,.37.62,1.46,1.46,0,0,1,.1.52,1.54,1.54,0,0,1-.12.65.53.53,0,0,1-.42.28.23.23,0,0,1-.21-.13.84.84,0,0,1-.16-.46,5.62,5.62,0,0,0-.31-1c-.12-.29-.25-.58-.39-.88a9.57,9.57,0,0,0-.63-.88Zm8.3,6.95v-1.76h-4.41v1.76Zm-4.41,3.51h4.41v-2.81h-4.41Zm2.8-14.16a10.58,10.58,0,0,0,2.73.29h5l1-1.14c.52.41,1,.81,1.4,1.19.14.09.21.17.21.26,0,.29-.1.44-.3.44H332a22.1,22.1,0,0,0-2.24.1ZM336,315.28c.51.39,1,.79,1.42,1.18a.31.31,0,0,1,.18.26q0,.39-.3.39h-6.06v2.27a.86.86,0,0,0,.09.39.55.55,0,0,0,.28.26,1.67,1.67,0,0,0,.54.18,11.08,11.08,0,0,0,1.72.1h1c.81,0,1.4,0,1.77-.05l.75-.13a1,1,0,0,0,.46-.23,1,1,0,0,0,.26-.46,14.55,14.55,0,0,0,.49-2.64l.44.21a12.78,12.78,0,0,0-.18,1.78c0,.48.05.78.16.88.47.17.7.42.7.75a.45.45,0,0,1-.12.33,1.26,1.26,0,0,1-.51.34,5.17,5.17,0,0,1-1.21.28c-.58.06-1.58.08-3,.08h-1a10.66,10.66,0,0,1-2.14-.15,2.48,2.48,0,0,1-.94-.29,1.51,1.51,0,0,1-.46-.59,1.82,1.82,0,0,1-.12-.6v-4.44a4,4,0,0,0-.28-1.47,15.67,15.67,0,0,1,2.08.43c.17.06.25.15.25.29s-.08.29-.3.41a2.42,2.42,0,0,1-.72.34v1h3.82Zm-5.79-14.61,1.42.83h4.64l.66-.83c.81.56,1.21.94,1.21,1.14s-.21.43-.63.73v2.81q0,.47-.75.6-.39,0-.39-.21v-3.49h-5v3.49a.46.46,0,0,1-.28.39,1.38,1.38,0,0,1-.54.15q-.3,0-.3-.33ZM332,313.1h4.27v-2.81H332Zm1.19-10.36a8.52,8.52,0,0,1,.8.75,5.8,5.8,0,0,1,.65.7,2.37,2.37,0,0,1,.35.57,1.57,1.57,0,0,1,.07.49,2.25,2.25,0,0,1-.09.7.55.55,0,0,1-.45.33.23.23,0,0,1-.21-.13.87.87,0,0,1-.16-.44,5.48,5.48,0,0,0-.28-.93,7.62,7.62,0,0,0-.44-.85,4.52,4.52,0,0,0-.59-.85Z" transform="translate(-155.61 -296.08)"/><path class="cls-1" d="M362.58,299.23c-.54.15-1.1.28-1.67.39s-1.41.24-2.13.31q-.79.07-1.86.12l-.05.13c0,.66,0,1.24-.07,1.76h5.39l1-1.14c.5.4,1,.8,1.43,1.19a.31.31,0,0,1,.18.26c0,.26-.09.39-.28.39h-3.07v3.2c0,.31-.28.49-.84.55-.21,0-.31-.15-.31-.44v-3.31h-3.57c0,.12,0,.21,0,.28a11.27,11.27,0,0,1-.54,2.28,6,6,0,0,1-.72,1.6,10.56,10.56,0,0,1-1.64,1.86l-.37-.44a6,6,0,0,0,1.1-1.55,9.13,9.13,0,0,0,.63-1.71,13.15,13.15,0,0,0,.42-2.29,22.11,22.11,0,0,0,.18-2.43c0-.73,0-1.37-.09-1.94l1.47,1.13v0c.27,0,.52-.08.77-.13a13.16,13.16,0,0,0,1.47-.33,13.31,13.31,0,0,0,1.31-.44,7.8,7.8,0,0,0,.88-.47,4.15,4.15,0,0,0,.52-.39,11.22,11.22,0,0,1,1.49,1.14.29.29,0,0,1,.12.21c0,.19-.1.28-.29.28A4.11,4.11,0,0,1,362.58,299.23Zm-4.68,7,1.4.8h11.57l.67-.8c.81.54,1.22.92,1.22,1.14s-.23.4-.68.7v9c0,.33-.24.54-.72.65-.27,0-.4-.07-.4-.21v-.44h-9.1c.45.31.85.6,1.19.85a.5.5,0,0,1,.07.29c0,.15-.15.23-.44.23H362a12.12,12.12,0,0,1-2.35,1.47,14.92,14.92,0,0,1-2.36,1.19,20.42,20.42,0,0,1-2.82,1l-.3-.55a23.71,23.71,0,0,0,3.59-1.57,15.42,15.42,0,0,0,2.33-1.47,7.81,7.81,0,0,0,1.31-1.4H359v.1a.41.41,0,0,1-.26.39,1.41,1.41,0,0,1-.58.16c-.19,0-.28-.11-.28-.31ZM359,310H371v-2.17H359Zm0,3.31H371v-2.58H359Zm0,3.1H371V314H359Zm14-17.18c-.59.15-1.2.28-1.82.39s-1.51.24-2.31.31c-.57.05-1.26.09-2.05.12l-.05.13a10.54,10.54,0,0,1-.16,2h7l1-1.14c.5.4,1,.79,1.4,1.19a.29.29,0,0,1,.16.23c0,.28-.09.42-.28.42h-4.75v2.81c0,.28-.28.44-.82.49-.2,0-.3-.13-.3-.41v-2.89h-3.57a5.29,5.29,0,0,1-.4,1.11,4,4,0,0,1-.72,1.21,8.92,8.92,0,0,1-1.63,1.42l-.4-.44a4.62,4.62,0,0,0,1.12-1.24,5.34,5.34,0,0,0,.63-1.34,8.67,8.67,0,0,0,.42-1.81,14.16,14.16,0,0,0,.18-1.91c0-.57,0-1.09-.09-1.55l1.47,1.13,0,0c.32,0,.64-.08.93-.13.56-.08,1.1-.2,1.63-.33a12.42,12.42,0,0,0,1.4-.44,5.65,5.65,0,0,0,1-.47c.2-.12.41-.25.61-.39a8.61,8.61,0,0,1,1.44,1.14.29.29,0,0,1,.12.21.24.24,0,0,1-.28.28A4.62,4.62,0,0,1,373,299.23Zm-6.72,18.71a33.7,33.7,0,0,1,3.32.85,18.36,18.36,0,0,1,2.47,1,3.84,3.84,0,0,1,1.66,1.24,1,1,0,0,1,.11.46c0,.43-.15.65-.44.65a1,1,0,0,1-.49-.18,6.12,6.12,0,0,1-.68-.47c-.45-.31-.88-.58-1.28-.8s-1.09-.56-1.77-.85-1.84-.82-3.18-1.32Z" transform="translate(-155.61 -296.08)"/><path class="cls-1" d="M163.88,351.06a12.29,12.29,0,0,1,1.82,1,.43.43,0,0,1,.14.31c0,.1-.08.18-.24.23a3.46,3.46,0,0,1-.79.16c-.42.67-.88,1.33-1.38,2a19.57,19.57,0,0,1-1.77,1.86,18,18,0,0,1-2,1.76c-.72.56-1.49,1.12-2.31,1.65l-.3-.34a29.09,29.09,0,0,0,2.61-2.3,25.15,25.15,0,0,0,1.93-2.24,22.23,22.23,0,0,0,1.54-2.23A8.89,8.89,0,0,0,163.88,351.06Zm-3.71-13.67,1.4,1.13h12.1l.77-1.13a5,5,0,0,1,1.22,1.11.56.56,0,0,1,.16.33c0,.18-.31.45-.93.83v8.63l.72.6a.26.26,0,0,1,.12.2c0,.26-.07.39-.19.39H161.38v1c0,.21-.16.31-.49.31a1.27,1.27,0,0,1-.49-.13.77.77,0,0,1-.23-.56c0-.31,0-.72,0-1.22a13.34,13.34,0,0,0,.14-2.53v-7.21A7.87,7.87,0,0,0,160.17,337.39Zm1.21,11.37h12.48v-9.49H161.38Zm9.31,2.71a21.44,21.44,0,0,1,3,2.33,20.53,20.53,0,0,1,2.06,1.91,7.75,7.75,0,0,1,1.09,1.26,5.86,5.86,0,0,1,.45,1,2.42,2.42,0,0,1,.16.88c0,.46-.18.7-.49.7a.72.72,0,0,1-.49-.18,10.44,10.44,0,0,1-1.12-1.81,17.57,17.57,0,0,0-2-2.82,29.89,29.89,0,0,0-2.94-2.95Z" transform="translate(-155.61 -296.08)"/><path class="cls-1" d="M191,347.79a8.89,8.89,0,0,0,2.69.33h16.79l1.12-1.47c.62.5,1.2,1,1.75,1.47a.37.37,0,0,1,.21.31c0,.26-.12.39-.35.39H202.75V353h5.43l1.12-1.43c.59.49,1.14,1,1.66,1.43a.36.36,0,0,1,.21.31c0,.29-.14.44-.4.44h-8v4.83l.93.1a25.78,25.78,0,0,0,3.61.21,30.78,30.78,0,0,0,3.18-.16c1.12-.12,2.15-.27,3.1-.44v.49a1.43,1.43,0,0,0-1.21,1.14c-1.33.07-2.61.1-3.85.1a30.88,30.88,0,0,1-5-.28,10.89,10.89,0,0,1-2.73-.59A9.08,9.08,0,0,1,199,358a8.18,8.18,0,0,1-1.66-1.92,7.85,7.85,0,0,1-1-1.73,11.5,11.5,0,0,1-.49,1.22,15.34,15.34,0,0,1-.88,1.73,9.62,9.62,0,0,1-1,1.29,6.83,6.83,0,0,1-1.14,1.14,9.3,9.3,0,0,1-1.42,1.08l-.38-.39a9.85,9.85,0,0,0,1.57-1.44,7.61,7.61,0,0,0,1.14-1.37,13.2,13.2,0,0,0,.74-1.29c.22-.47.45-1,.68-1.58a13.19,13.19,0,0,0,.58-1.78c.18-.64.3-1.17.38-1.58a5.89,5.89,0,0,0,.14-1.19,8.23,8.23,0,0,1,1.54.57c.22.09.32.2.32.33a.31.31,0,0,1-.23.32l-.7.23q-.28,1-.51,1.86v0A13.87,13.87,0,0,0,198,356a6.26,6.26,0,0,0,1.59,1.4,6.92,6.92,0,0,0,1.68.83,2.41,2.41,0,0,0,.35.07v-9.48H193.7c-1.09,0-1.84.05-2.24.1Zm3.9-11.17,1.42,1.14h10.92l.74-1.14a6.24,6.24,0,0,1,1.22,1.11.57.57,0,0,1,.16.37c0,.15-.28.42-.84.8v3.2c0,1.29,0,2.14.07,2.53s0,.91,0,1.22a.71.71,0,0,1-.23.57,1.43,1.43,0,0,1-.49.13c-.33,0-.49-.11-.49-.31v-.73H196.14v.93c0,.21-.16.31-.48.31a1.23,1.23,0,0,1-.49-.13.7.7,0,0,1-.26-.56c0-.31,0-.72.07-1.22a14.29,14.29,0,0,0,.14-2.53v-3.9A6.87,6.87,0,0,0,194.91,336.62Zm1.23,4.68h11.27v-2.79H196.14Zm0,3.52h11.27V342H196.14Z" transform="translate(-155.61 -296.08)"/><path class="cls-1" d="M237.36,338.29a19.18,19.18,0,0,1-2.35,1.19l-.45.15v4.45h6.26c-.13-1.47-.19-2.68-.19-3.64a28.44,28.44,0,0,0-.19-3.73c1.25.37,1.87.65,1.87.86s-.22.3-.65.49c0,2.24.07,4.25.23,6h5.36l1.12-1.47q.88.75,1.68,1.47a.35.35,0,0,1,.19.28c0,.28-.12.42-.35.42h-8c0,.5.1,1,.15,1.39a26.72,26.72,0,0,0,.79,4.63,14.24,14.24,0,0,0,.49,1.81,22.59,22.59,0,0,0,1.93-3.1,14.66,14.66,0,0,0,1.31-2.87,16,16,0,0,1,1.73,1c.15.13.23.25.23.33s-.13.2-.37.29a3.44,3.44,0,0,1-.94.15,31.6,31.6,0,0,1-2.54,4.06c-.31.41-.61.78-.91,1.11,0,.09.09.16.12.23a9.73,9.73,0,0,0,1.68,2.38,8.92,8.92,0,0,0,1.86,1.83,1.34,1.34,0,0,0,.82.42.45.45,0,0,0,.3-.18,44.56,44.56,0,0,0,1.31-4.37l.35.31a21.16,21.16,0,0,0-.84,4.24.89.89,0,0,0,.4.77,1.12,1.12,0,0,1,.28.75c0,.36-.23.54-.68.54a1.54,1.54,0,0,1-.72-.18,5,5,0,0,1-1.66-1.08,9.43,9.43,0,0,1-2.43-2.28,12.59,12.59,0,0,1-1.58-2.53l-.8.8a22.87,22.87,0,0,1-3.07,2.41,18,18,0,0,1-3.46,1.62l-.18-.44a29.38,29.38,0,0,0,3.24-1.7,14.85,14.85,0,0,0,2.24-1.81,20.56,20.56,0,0,0,1.61-1.78,23.76,23.76,0,0,1-.89-2.9,31.2,31.2,0,0,1-.74-5c0-.31-.06-.61-.08-.9h-6.32v5.81a5.69,5.69,0,0,0,.66-.28c1.18-.5,2.55-1.17,4.1-2l.1.49a35.69,35.69,0,0,1-3.55,2.12c-.45.22-.89.45-1.31.67v6.85a2.22,2.22,0,0,1-.32,1.32,2.14,2.14,0,0,1-.82.67,1.52,1.52,0,0,1-.82.28l0-.36a.86.86,0,0,0-.21-.52,2.14,2.14,0,0,0-1-.54,6.45,6.45,0,0,0-1.75-.36v-.6a11.65,11.65,0,0,0,2.8.39,1.42,1.42,0,0,0,.81-.15q.21-.16.21-.78v-5.71c-.24.12-.5.23-.77.34a16.93,16.93,0,0,1-3,1.13c-.15.62-.28.93-.37.93a7.34,7.34,0,0,1-1.1-2.06,28.23,28.23,0,0,0,3.64-.88c.5-.16,1-.33,1.56-.52v-6.25h-2.89a16.06,16.06,0,0,0-2.24.13l-.44-1.17a8.48,8.48,0,0,0,2.68.34h2.89V340c-.51.16-1,.29-1.49.39a27.7,27.7,0,0,1-3.26.46l-.1-.54a16.23,16.23,0,0,0,2.22-.39,13.68,13.68,0,0,0,2.14-.69,13.1,13.1,0,0,0,1.89-.86,7.25,7.25,0,0,0,1.29-.87c.28-.26.54-.53.79-.81.54.4,1,.78,1.45,1.14a.31.31,0,0,1,.11.21c0,.22-.08.33-.25.33A4.71,4.71,0,0,1,237.36,338.29Zm6.84-.54a10.4,10.4,0,0,1,2.19,1.39,4.41,4.41,0,0,1,1.07,1.14,1.4,1.4,0,0,1,.28.78c0,.56-.16.85-.49.85a.62.62,0,0,1-.37-.13,1.21,1.21,0,0,1-.4-.57,7,7,0,0,0-1-1.63,9.24,9.24,0,0,0-1.56-1.42Z" transform="translate(-155.61 -296.08)"/><path class="cls-1" d="M266.46,336.53a19.43,19.43,0,0,1,2,.91.46.46,0,0,1,.14.31c0,.15-.15.26-.44.31a4.2,4.2,0,0,1-.78.1,44.57,44.57,0,0,1-1.44,4.45l-.23.62c.63.31.95.56.95.75s-.25.35-.74.59v13.67a4.83,4.83,0,0,0,.11,1.24,2.7,2.7,0,0,1,.07.6c0,.51-.29.79-.86.82-.3,0-.44-.13-.44-.39V345.24c-.19.35-.37.68-.54,1a33.9,33.9,0,0,1-2.17,3.31l-.37-.34a32.65,32.65,0,0,0,1.91-3.38c.42-.92.84-1.93,1.26-3s.73-2.2,1-3.18S266.32,337.64,266.46,336.53Zm2.26.39,1.4,1.14h3.43l.66-.8c.8.53,1.21.91,1.21,1.13s-.21.41-.63.7v6.62c0,.32-.25.54-.75.64-.25,0-.37-.07-.37-.2v-.55h-3.73v14.81c0,.21-.17.31-.49.31a1.16,1.16,0,0,1-.49-.15.75.75,0,0,1-.24-.6c0-.29,0-.69,0-1.19a14,14,0,0,0,.14-2.5V338.7A7.36,7.36,0,0,0,268.72,336.92Zm1.22,4.45h3.73v-2.56h-3.73Zm0,3.54h3.73v-2.8h-3.73Zm6.9-7.65,1.38.8h3.57l.72-1.14a6.15,6.15,0,0,1,1.24,1.11.52.52,0,0,1,.18.36c0,.16-.31.43-.93.8v19.26a2.14,2.14,0,0,1-.35,1.32,2.3,2.3,0,0,1-.82.67,1.57,1.57,0,0,1-.79.28,1.2,1.2,0,0,0-.26-.88,2.25,2.25,0,0,0-.91-.54,6,6,0,0,0-1.65-.36v-.6a13.34,13.34,0,0,0,3,.39.94.94,0,0,0,.61-.13c.11-.08.16-.32.16-.7V345.6h-4v.21a.42.42,0,0,1-.28.39,1.69,1.69,0,0,1-.58.15c-.17,0-.26-.1-.26-.31Zm1.12,4.11h4v-2.56h-4Zm0,3.54h4v-2.8h-4Z" transform="translate(-155.61 -296.08)"/><path class="cls-1" d="M304.07,336.22a13.66,13.66,0,0,1,2,.83.44.44,0,0,1,.14.31c0,.16-.1.27-.3.34a3.71,3.71,0,0,1-1,.15c-.22.55-.45,1.07-.7,1.55H317.8l1.19-1.55,1.78,1.53a.45.45,0,0,1,.18.36c0,.26-.11.39-.35.39H303.88a1,1,0,0,1-.12.23c-.45.83-.94,1.66-1.47,2.5a12.92,12.92,0,0,1-1.47,2,14.2,14.2,0,0,1-1.86,1.88l-.38-.28a12.8,12.8,0,0,0,2-2.41,27.24,27.24,0,0,0,1.75-3,29.61,29.61,0,0,0,1.4-3.2A7.75,7.75,0,0,0,304.07,336.22Zm-.45,6.28,1.38.93h10.94l.84-.93a10.85,10.85,0,0,1,1.16.88.69.69,0,0,1,.21.36c0,.19-.27.5-.84.93,0,1.88-.1,3.54-.18,5h1.33l1.12-1.34c.54.45,1.06.89,1.56,1.34a.38.38,0,0,1,.19.29c0,.27-.1.41-.28.41h-4c-.06,1.26-.14,2.36-.23,3.31-.11,1.25-.22,2.29-.33,3.1h1.54l1.12-1.32c.56.46,1.09.91,1.59,1.34a.36.36,0,0,1,.18.29c0,.29-.08.44-.25.44h-4.32c-.05.29-.09.54-.14.75a4.4,4.4,0,0,1-.67,1.6,2.32,2.32,0,0,1-.89.72,4.91,4.91,0,0,1-1.73.62,1.56,1.56,0,0,0-.32-.72,1.45,1.45,0,0,0-.73-.41,9.88,9.88,0,0,0-1.93-.39L310,359a17.48,17.48,0,0,0,2.91.54,2.25,2.25,0,0,0,.89-.18,2,2,0,0,0,.72-.67,6,6,0,0,0,.54-1.21H301.94c-.39,0-.58-.07-.58-.21a1,1,0,0,1,.12-.49c.06-.16.19-.61.39-1.37a46.85,46.85,0,0,0,.89-4.63c0-.15,0-.31.05-.46h-1.15c-1.1,0-1.86.05-2.26.1l-.44-1.14a8.58,8.58,0,0,0,2.7.34h1.24c.12-1.08.26-2.21.42-3.38Q303.58,344.14,303.62,342.5Zm11.69,14.27c.17-.83.34-2.18.51-4.06.06-.79.12-1.58.17-2.35H304c0,.12,0,.21,0,.28-.24,1.61-.55,3.28-.94,5a9.74,9.74,0,0,1-.21,1.11Zm-11.24-7.11h12c.11-1.84.17-3.67.17-5.48H304.65C304.45,346.44,304.25,348.27,304.07,349.66Zm3.26,2a13.79,13.79,0,0,1,2.12.69c.72.33,1.25.6,1.59.8a3.74,3.74,0,0,1,.75.6,5.81,5.81,0,0,1,.32.49,1,1,0,0,1,.07.39c0,.36-.11.54-.35.54a.49.49,0,0,1-.3-.16,2.56,2.56,0,0,1-.44-.41,7.8,7.8,0,0,0-.82-.67,7.26,7.26,0,0,0-1.12-.72,13,13,0,0,0-2-1.14Zm.4-6.31a15.66,15.66,0,0,1,2,.67,11.79,11.79,0,0,1,1.44.78,2.36,2.36,0,0,1,.68.57,3.93,3.93,0,0,1,.3.46,1,1,0,0,1,.07.39c0,.36-.11.54-.35.54a.46.46,0,0,1-.28-.15,1.78,1.78,0,0,1-.42-.39,8.56,8.56,0,0,0-.72-.67c-.29-.21-.65-.44-1.05-.7a20,20,0,0,0-1.82-1.11Z" transform="translate(-155.61 -296.08)"/><path class="cls-1" d="M336.77,338.29a9.37,9.37,0,0,0,2.71.31h11.94l1.22-1.58c.63.52,1.24,1,1.82,1.56a.36.36,0,0,1,.23.3c0,.3-.13.44-.37.44h-7.94a42.31,42.31,0,0,1-.28,4.94q-.06.93-.18,1.68h7.46l1.22-1.58c.62.54,1.2,1.06,1.74,1.55a.39.39,0,0,1,.21.34.34.34,0,0,1-.39.39H346.5a29.37,29.37,0,0,0,1.45,3.8,22.53,22.53,0,0,0,1.75,2.92,16.67,16.67,0,0,0,2.24,2.45,10,10,0,0,0,2.66,1.89,7.42,7.42,0,0,0,2.4,1V359c-1,0-1.57.35-1.78,1a11,11,0,0,1-2.89-2.12,13.9,13.9,0,0,1-2.68-2.9,17.69,17.69,0,0,1-2.22-3.77,27.68,27.68,0,0,1-1.65-4.58,15,15,0,0,1-.47,1.92,16.13,16.13,0,0,1-1.4,3.87,20.28,20.28,0,0,1-2,3.18,15.43,15.43,0,0,1-3.06,2.72,17.6,17.6,0,0,1-3.68,2l-.29-.54a17.55,17.55,0,0,0,4.67-2.95,16.57,16.57,0,0,0,2.59-3.1,14.93,14.93,0,0,0,1.8-3.95,17.08,17.08,0,0,0,.81-3.23H337.8c-1.1,0-1.85.05-2.24.1l-.49-1.14a8.87,8.87,0,0,0,2.73.34h7c0-.17.06-.34.08-.49.15-1.46.23-3.51.23-6.13h-5.67c-1.1,0-1.86.06-2.26.11Z" transform="translate(-155.61 -296.08)"/><path class="cls-1" d="M369.38,354.45a9.2,9.2,0,0,0,2.68.32h5v-.94a14.64,14.64,0,0,0-.1-2,8.34,8.34,0,0,1,2.22.55q.33.12.33.36t-.33.33a2.07,2.07,0,0,1-1,.29v1.45h4.29l1.12-1.45c.59.5,1.15,1,1.66,1.45a.37.37,0,0,1,.21.33c0,.28-.13.41-.4.41h-6.88v3.93h7.28l1.19-1.57c.62.53,1.21,1.05,1.77,1.55a.37.37,0,0,1,.19.33c0,.26-.12.39-.35.39H369.17c-1.09,0-1.84.05-2.24.1l-.45-1.13a8.89,8.89,0,0,0,2.69.33h7.93v-3.93h-5a21.28,21.28,0,0,0-2.24.08Zm6.6-17.26,1.51,1.29a.37.37,0,0,1,.19.29c0,.26-.09.39-.28.39h-4.22v3.12h2.52l.68-.85c.8.55,1.21.93,1.21,1.14s-.23.44-.68.75v2.92l.47.41a.17.17,0,0,1,.11.16c0,.27-.06.41-.18.41h-4.13v3.31H375l1-1.24c.53.44,1,.87,1.52,1.29a.35.35,0,0,1,.16.28c0,.26-.08.39-.26.39h-8.67a1.52,1.52,0,0,1-.47.1c-.2,0-.3-.09-.3-.28V337.63l1.42.83H375Zm-6.81,5.09h2.89v-3.12h-2.89Zm0,4.24h6.62V343h-6.62Zm0,4h2.89v-3.31h-2.89Zm8.95-12.3a11.56,11.56,0,0,0,2.62.23h4.94l.77-1a8.19,8.19,0,0,1,1.22,1.13.49.49,0,0,1,.16.31,1,1,0,0,1-.26.39,2.11,2.11,0,0,1-.58.44,30.19,30.19,0,0,1-.77,3.75,17.36,17.36,0,0,1-1.05,2.58,7.8,7.8,0,0,1-1.07,1.5,14.51,14.51,0,0,0,2,1.7,15.63,15.63,0,0,0,2.82,1.3V351a1.58,1.58,0,0,0-1.31.82,16.11,16.11,0,0,1-2.56-1.73,7.88,7.88,0,0,1-1.73-1.78,12,12,0,0,1-1.8,1.45,11.72,11.72,0,0,1-2.94,1.42l-.28-.39a10.79,10.79,0,0,0,2.55-1.37,9,9,0,0,0,1.89-1.81,14.61,14.61,0,0,1-1.08-1.91,17.11,17.11,0,0,1-1.26-3.46,13.6,13.6,0,0,1-.6-3,6.81,6.81,0,0,0-1.31.1Zm2.15.93a16.9,16.9,0,0,0,.79,3.17,14.93,14.93,0,0,0,1.36,3.05,12.67,12.67,0,0,0,1,1.37,13.3,13.3,0,0,0,1-1.75,15.77,15.77,0,0,0,.88-2.67,18.41,18.41,0,0,0,.45-3.17Z" transform="translate(-155.61 -296.08)"/><path class="cls-1" d="M402.16,342a10.06,10.06,0,0,0,2.68.29h1v-3.59a16.43,16.43,0,0,0-.09-2.1,7.13,7.13,0,0,1,2.26.68c.19.07.28.16.28.28s-.11.28-.32.36a8.73,8.73,0,0,1-1,.26v4.11h.94l1-1.24,1.59,1.27a.36.36,0,0,1,.19.3c0,.28-.09.42-.26.42H407v6l.26-.1a30.3,30.3,0,0,0,3-1.58l.1.49a25.55,25.55,0,0,1-2.5,1.76l-.89.52v8.39a2.18,2.18,0,0,1-.32,1.32,1.77,1.77,0,0,1-.82.67,1.57,1.57,0,0,1-.82.26l0-.44a.91.91,0,0,0-.17-.41,1.74,1.74,0,0,0-.84-.54,4.75,4.75,0,0,0-1.44-.37v-.59a7.87,7.87,0,0,0,2.31.39,1.32,1.32,0,0,0,.81-.16c.14-.1.21-.36.21-.77v-7.13a1.19,1.19,0,0,1-.18.1,12.27,12.27,0,0,1-2.05.95c-.16.62-.28.94-.35.94s-.52-.69-1.12-2.07a14.89,14.89,0,0,0,2.63-.75c.36-.11.72-.23,1.07-.36v-6.54h-1c-1.09,0-1.84,0-2.24.08Zm7.09,7.65a10.11,10.11,0,0,0,2.68.29h7.21v-1.53a13.49,13.49,0,0,0-.1-2.06,7,7,0,0,1,2.27.64.33.33,0,0,1,.23.29q0,.22-.3.36a7.29,7.29,0,0,1-1,.23V350h1.56l1.12-1.32,1.59,1.34a.38.38,0,0,1,.18.29c0,.29-.08.44-.25.44h-4.2v7.85a1.93,1.93,0,0,1-.4,1.32,1.87,1.87,0,0,1-.89.67,1.78,1.78,0,0,1-.86.26l-.05-.44a1,1,0,0,0-.18-.41,1.81,1.81,0,0,0-.8-.54,4.4,4.4,0,0,0-1.42-.37v-.59a7.54,7.54,0,0,0,2.24.39,1.79,1.79,0,0,0,1-.16c.18-.1.28-.36.28-.77v-7.21h-7.21c-1.09,0-1.84.05-2.24.1Zm.93-9.74a9.24,9.24,0,0,0,2.68.31h3.08v-1.52a18,18,0,0,0-.09-2.1,7.94,7.94,0,0,1,2.21.57c.22.11.33.23.33.39s-.11.24-.33.31a3,3,0,0,1-1,.31v2h4.11l1.12-1.34c.56.48,1.08.94,1.56,1.37a.36.36,0,0,1,.21.31c0,.26-.1.38-.3.38h-6.7v4.27h3l1.12-1.34c.56.44,1.08.89,1.56,1.34a.35.35,0,0,1,.19.28c0,.3-.09.44-.28.44h-8.77a21.53,21.53,0,0,0-2.24.11l-.44-1.14a9.2,9.2,0,0,0,2.68.31h2.05V341h-3.08c-1.09,0-1.83.06-2.24.11Zm2,11.71a11.6,11.6,0,0,1,1.31,1.19,7,7,0,0,1,1.05,1.06,3.12,3.12,0,0,1,.55.93,1.72,1.72,0,0,1,.17.72,1.49,1.49,0,0,1-.12.67.6.6,0,0,1-.47.26.44.44,0,0,1-.32-.13c-.1-.07-.18-.28-.26-.64a6,6,0,0,0-.49-1.32,9.34,9.34,0,0,0-.7-1.22,7.52,7.52,0,0,0-1-1.21Z" transform="translate(-155.61 -296.08)"/><path d="M407,319.23,392.85,304h28.3ZM395.15,305,407,317.77,418.85,305Z" transform="translate(-155.61 -296.08)"/><path d="M420.93,305H393.07l4.66-7h18.54Zm-26-1h24.14l-3.34-5H398.27Z" transform="translate(-155.61 -296.08)"/><polygon points="250.93 22.61 245.18 8.61 241.95 2.65 242.83 2.18 246.08 8.18 251.85 22.23 250.93 22.61"/><polygon points="257.37 9.22 250.68 3.13 245.77 8.74 245.02 8.09 250.6 1.7 257.08 7.61 259.95 2.18 260.83 2.65 257.37 9.22"/><rect x="402.38" y="311" width="15.23" height="1" transform="translate(-193.59 269.27) rotate(-66.76)"/></svg>