<?xml version="1.0" encoding="utf-8"?>
<!-- Generator: Adobe Illustrator 22.0.1, SVG Export Plug-In . SVG Version: 6.00 Build 0)  -->
<svg version="1.1" id="圖層_1" xmlns="http://www.w3.org/2000/svg" xmlns:xlink="http://www.w3.org/1999/xlink" x="0px" y="0px"
	 viewBox="0 0 276.9 65.8" style="enable-background:new 0 0 276.9 65.8;" xml:space="preserve">
<style type="text/css">
	.st0{stroke:#000000;stroke-width:0.75;stroke-miterlimit:10;}
</style>
<title>橫式-光芒</title>
<path class="st0" d="M45.4,1.9c0.3-0.4,0.8-0.2,1.5,0.5C47.9,3.1,48,3.6,47.4,4c-0.3,0.3-0.6,0.7-0.9,1.4l-1.8,3.4
	c-0.3,0.5,0,0.6,0.8,0.5l5.4-0.9c1.6-0.2,3-0.5,4.2-0.8c0.8-0.3,1.5-0.3,2.1,0c0.7,0.7,0.9,1.1,0.8,1.2c-0.1,0.1-0.5,0.2-1.2,0.3
	c-3.5,0.4-7.7,1-12.6,1.8c-0.6,0.1-1.1,0.5-1.5,1.1l-3.1,4c-0.3,0.3-0.4,0.7-0.4,1.2l0.1,10.3c0,0.5,0.1,0.7,0.2,0.6
	c0.1-0.1,0.5-0.1,1.1-0.2l6-0.6c0.6-0.1,0.8-0.4,0.8-0.9v-5.4c0-0.5-0.4-0.7-1.1-0.6L44,21c-0.9,0.2-1.7,0.1-2.5-0.3
	c-0.2-0.1-0.3-0.3-0.5-0.5c0-0.2,0.3-0.4,1.1-0.6c1.5-0.2,3-0.4,4.6-0.6c0.6-0.1,0.9-0.4,0.9-0.9c0-2.3-0.1-4.1-0.3-5.3
	c-0.4-0.7-0.2-1.1,0.5-1.1c0.2,0,0.5,0.3,1.1,0.7c0.2,0.2,0.4,0.4,0.6,0.6c0.2,0.3,0.2,0.8,0,1.4c-0.2,1-0.2,2.1-0.2,3.5
	c0,0.5,0.4,0.7,1.1,0.6l2.5-0.4c0.6-0.1,1-0.2,1.4-0.4c1.1-0.5,2-0.2,2.6,1c0,0.1-0.3,0.2-1,0.3c-1.9,0.3-3.7,0.6-5.6,0.9
	c-0.6,0.1-0.9,0.4-0.9,0.9v5.5c0,0.5,0.4,0.7,1.1,0.6c3.1-0.3,5.8-0.8,8.1-1.3c0.3,0,0.5,0.1,0.7,0.2c0.7,0.7,1,1.1,0.9,1.2
	c-0.1,0.1-0.6,0.2-1.3,0.3c-3.1,0.3-8.7,1-16.9,2.1c-0.6,0.2-1.3-0.1-2.2-0.8c-0.1-0.1-0.1,0.1-0.1,0.6v1.2c0.1,0.3,0,0.5-0.5,0.7
	c-0.4,0-0.7-0.2-1.1-0.8c-0.6-0.6-0.7-1.2-0.5-1.8c0.4-0.8,0.5-1.8,0.4-2.9L37.6,19c0-0.5-0.3-0.4-1,0.1c-1,0.9-2.6,2.1-4.7,3.7
	c-0.5,0.4-0.9,0.6-1.2,0.6c-0.6-0.3-0.5-0.7,0.4-1.3c3.6-2.8,5.9-4.9,7-6.2l2.8-3.7c0.4-0.6,0.3-0.8-0.2-0.7
	c-1.7,0.2-3.5,0.5-5.4,0.9c-0.9,0.1-1.8-0.2-2.5-1c0.1-0.4,0.5-0.6,1.3-0.6l7.5-1c0.5-0.1,1-0.4,1.4-1C44.5,6.3,45.3,4,45.4,1.9z"/>
<path class="st0" d="M78.3,11.6c0.1-0.8,0.2-1.2,0.4-1.3c0.3-0.1,0.7,0.1,1.1,0.7c0.5,0.8,0.7,1.2,0.7,1.3c-0.7,0.8-1.2,1.6-1.7,2.4
	c-2.3,3.8-5.1,7.1-8.3,9.9c-0.2,0.1-0.4,0-0.6-0.3c0-0.1,0.3-0.5,0.8-1.1C74.9,18.8,77.4,14.9,78.3,11.6z M83.7,3.1
	C84,2.8,84.5,3,85.2,3.6c0.9,0.7,1.2,1.3,1.1,1.9c-0.1,0.9-0.2,1.7-0.2,2.7c0,5.4,0,10.8-0.1,16.3c0,2.4-0.2,4.1-0.8,5.2
	c-0.5,0.5-1.1,0.2-1.8-0.8c-0.9-0.9-1.9-1.8-3-2.6c-0.7-0.6-1-0.9-1-1.1c0-0.2,0.2-0.3,0.4-0.3c0.2,0,0.6,0.2,1.1,0.5
	c0.7,0.5,1.5,1,2.2,1.4c0.6,0.2,0.9,0.1,1-0.6c0.3-3,0.4-8.8,0.4-17.4c-0.1-1.8-0.4-3.3-0.7-4.6C83.7,3.5,83.6,3.2,83.7,3.1z
	 M88.1,10.7c0.4-0.4,0.9-0.2,1.7,0.7c2.3,2,4.4,4.1,6.3,6.1c1.2,0.9,1.7,2,1.4,3.1c0.1,0.4-0.1,0.7-0.5,1c-0.1,0-0.5-0.3-1-0.9
	c-2.1-3-4.8-6.2-7.9-9.4C87.9,10.9,87.9,10.8,88.1,10.7z"/>
<path class="st0" d="M116.6,4.3c0.1-0.6,0.2-1,0.4-1c0.2,0,0.5,0.3,1.1,0.8c0.5,0.4,0.8,0.8,0.9,1.1c0,0.2-0.2,0.5-0.7,1.1
	c-0.8,1.3-1.5,2.8-2.1,4.4c-0.2,0.5,0,0.7,0.8,0.5c1.8-0.2,3.1-0.6,3.8-1.1c0.3-0.6,0.9-0.6,1.7,0.1c0.7,0.3,0.7,0.8,0.2,1.3
	c-0.3,0.4-0.5,0.9-0.5,1.7c-0.2,4.7-0.5,9-0.8,12.6c0,0.5-0.2,0.9-0.5,1c-0.4,0-0.7-0.4-0.9-1c-0.2-0.4-0.7-0.6-1.5-0.6
	c-1.1,0.1-2.2,0.2-3.2,0.3c-0.6,0.1-1,0.4-1,1l-0.1,1c-0.3,0.3-0.6,0.3-0.8,0c-0.8-0.7-1-1.6-0.6-2.7c0.5-3.2,0.5-7.8,0-13.7
	c-0.1-0.8,0-1.2,0.2-1.3c0.4,0,0.7,0.3,0.8,0.8c0.3,0.6,0.5,0.9,0.7,0.9C115.7,9.2,116.5,6.7,116.6,4.3z M119.3,12.1
	c-1.2,0.2-2.6,0.4-4.3,0.8c-0.6,0.1-0.9,0.4-0.9,0.9c0,1-0.1,2.1,0,3.2c0,0.5,0.4,0.7,1.1,0.7c1-0.1,1.8-0.3,2.5-0.5
	c0.9-0.2,1.5,0.1,1.8,1c0,0.1-0.1,0.2-0.2,0.3l-4.2,0.6c-0.6,0.1-0.9,0.4-0.9,0.9c0,1.2-0.1,2.4,0,3.6c0,0.5,0.4,0.7,1.1,0.7
	l1.1-0.1c0.6,0,1.1-0.1,1.5-0.2c0.7-0.2,1.2-0.3,1.6-0.2c0.1,0.1,0.3-0.2,0.4-0.9c0.4-2.9,0.6-6.3,0.7-10
	C120.4,12.3,120,12,119.3,12.1z M127,2.7c0.4-0.4,0.9-0.3,1.5,0.4c0.5,0.5,0.8,0.8,0.8,1c-0.2,0.5-0.4,0.9-0.5,1.4
	c-0.3,1.5-0.9,3.2-1.7,5.3c-0.2,0.5,0.1,0.6,0.9,0.5c1.8-0.3,3.6-0.6,5.4-0.8c0.2,0,0.5-0.1,0.7-0.2c0.7-0.6,1.1-0.9,1.2-0.9
	c0.2,0,0.5,0.1,0.9,0.3c0.8,0.5,1,1,0.5,1.5c-0.3,0.3-0.5,0.9-0.5,1.5l-1.4,9.8c-0.4,2.9-1.1,5.3-2,7.1c-0.3,0.8-0.7,1.1-1.2,0.9
	c-1.1-1.2-2.4-2.5-3.8-3.8c-0.6-0.4-0.7-0.8-0.4-1.1c0.2-0.1,0.5,0,0.8,0.2c0.8,0.6,1.7,1.1,2.5,1.5c0.5,0.3,1,0.1,1.3-0.6
	c1.2-4.3,2-9,2.3-14.1c0-0.5-0.3-0.7-1-0.6c-2.3,0.3-4.6,0.6-7,1c-0.2,0.1-0.5,0.5-0.8,1.1c-0.8,1.6-1.5,2.8-2.2,3.7
	c-0.5,0.4-0.9,0.4-1,0c0-0.1,0.1-0.4,0.2-0.8c2.6-4.4,4.1-8.4,4.5-12L127,2.7z M125.7,15.5c0.4-0.4,0.9-0.3,1.5,0.5
	c0.9,0.8,1.8,1.5,2.6,2.4c0.7,0.7,0.9,1.3,0.7,1.8c-0.1,0.9-0.5,1.3-1.1,1.2c-0.7-1.5-1.8-3.1-3.2-4.8
	C125.8,15.9,125.6,15.5,125.7,15.5z"/>
<path class="st0" d="M156.7,2.1c0.5-0.3,0.9-0.1,1.4,0.6c0.7,0.6,0.7,1.2-0.1,1.8c-0.3,0.5-0.1,1,0.6,1.4c1.8,0.9,3,1.7,3.8,2.4
	c0.5,0.4,0.6,1,0.3,1.9c-0.4,0.5-1,0.2-1.8-0.8c-0.7-0.7-1.4-1.3-2.2-2l-0.6-0.4c-0.6-0.4-1.1-0.4-1.4,0.2c-0.6,1.1-1.4,2.3-2.3,3.7
	c-0.3,0.4-0.4,0.9-0.2,1.4c0.3,0.5,0.8,0.6,1.5,0.5c0.8-0.2,1.6-0.4,2.5-0.5c0.8,0,1.7-0.4,2.6-1.1c0.3-0.1,0.6,0,0.9,0.3
	c0.7,0.4,0.8,0.8,0.3,1.2c-0.3,0.3-0.5,0.7-0.5,1.2c-0.2,1.2-0.4,2.4-0.5,3.6c0,0.5,0.1,0.9,0.5,1.1c0.3,0.3,0.4,0.5,0.4,0.6
	c-0.1,0.1-0.5,0.2-1.3,0.3l-4.8,0.7c-0.6,0.1-0.8,0.5-0.8,1l0.1,3.8c0.1,0.6,0.4,0.7,0.9,0.3l2.5-1.7c0.6-0.4,0.7-0.9,0.2-1.5
	c-0.2-0.2-0.4-0.5-0.5-0.7c0-0.3,0.1-0.4,0.4-0.4c1,0.5,2.1,1.3,3.5,2.6c0.7,0.6,0.9,1.2,0.6,1.8c-0.4,0.7-0.6,1.1-0.8,1
	c-0.1-0.1-0.3-0.2-0.4-0.5l-0.8-1.2c-0.4-0.6-1-0.5-1.8,0c-1.1,0.9-2.3,1.8-3.4,2.8c-0.7,0.6-1.1,0.9-1.2,0.9
	c-0.8-0.2-1.3-0.6-1.4-1.1c0-0.1,0.1-0.3,0.3-0.5c0.1-0.2,0.2-0.4,0.2-0.6c0.3-4.2,0.3-8.5-0.1-12.9c-0.1-0.5-0.4-0.4-0.9,0.2
	c-1.5,1.7-2.7,2.8-3.6,3.3c-0.3,0.1-0.5,0-0.5-0.3c0-0.3,0.2-0.6,0.5-0.7c1.4-1.4,2.9-3,4.4-4.9c2.1-2.7,3.3-5.3,3.7-7.7
	C156.6,2.4,156.7,2.1,156.7,2.1z M159.9,13.8c0.1-0.4-0.3-0.6-1-0.4c-1.1,0.2-2.1,0.4-3.2,0.6c-0.6,0.1-0.9,0.5-0.9,1
	c0,0.6,0.3,0.9,0.9,0.8c1.2-0.1,2.1-0.3,2.5-0.4c0.4-0.2,0.8-0.3,1.1-0.2c0.3,0.1,0.4-0.1,0.5-0.7C159.8,14.2,159.9,14,159.9,13.8z
	 M158.5,16.7c-1,0.1-1.9,0.3-2.9,0.5c-0.6,0.1-0.8,0.5-0.8,1c0,0.6,0.4,0.9,1.1,0.8c0.9-0.2,1.7-0.3,2.6-0.4c0.6-0.1,0.9-0.5,0.9-1
	C159.4,16.9,159.2,16.6,158.5,16.7z M156.5,8c0.1-0.3,0.3-0.3,0.8,0.1c1.4,1.4,1.9,2.4,1.6,3.1c-0.3,0.6-0.6,0.9-0.9,0.8
	c-0.2-0.1-0.4-0.4-0.5-1c-0.1-0.5-0.3-1-0.5-1.5C156.6,8.7,156.4,8.2,156.5,8z M167.7,2c0.1-0.2,0.3-0.3,0.5-0.2
	c0.2,0.1,0.5,0.4,0.9,0.8c0.8,0.6,0.9,1.2,0.1,1.8L167.3,8c-0.3,0.5,0,0.8,0.6,0.7c3.8-0.4,6.5-0.8,8-1.1c0.9-0.3,1.6-0.2,1.9,0.2
	c0.3,0.3,0.5,0.5,0.5,0.6c-0.1,0.2-0.5,0.3-1.2,0.4c-1.9,0.2-3.8,0.4-5.7,0.7c-0.6,0.1-0.8,0.3-0.6,0.5c0.2,0.2,0.2,0.7,0,1.3
	c-0.2,0.7-0.2,1.5-0.2,2.5c0,0.5,0.4,0.7,1.1,0.6l1-0.2c0.7-0.1,1.2-0.3,1.5-0.5c0.7-0.8,1.4-0.7,2,0.1c0.3,0.3,0.4,0.5,0.2,0.8
	c-0.2,0.2-0.3,0.6-0.4,1.1l-0.4,4.9c-0.1,2.2-0.5,3.8-1,4.9c-0.1,0.5-0.4,0.7-0.7,0.6c-0.1,0-0.5-0.4-0.9-1.1
	c-0.6-0.7-1.1-1.4-1.7-2.1c-0.1-0.2,0-0.4,0.1-0.6c0.4,0,0.9,0.3,1.3,0.8c0.6,0.5,0.9,0.3,1.1-0.3c0.4-1.8,0.6-4,0.5-6.6
	c0-0.5-0.3-0.7-0.9-0.6l-1.8,0.2c-0.7,0.1-1,0.3-1,0.8l-0.1,12.7c0.1,1-0.1,1.7-0.6,2c-0.2,0-0.6-0.3-1.2-1.1
	c-0.2-0.5-0.3-0.9-0.3-1.2c0.4-0.8,0.6-1.6,0.5-2.3l0.1-9.7c0-0.5-0.4-0.7-1.1-0.6c-0.3,0-0.6,0.1-0.9,0.2c-0.6,0.1-0.9,0.4-0.9,0.9
	l-0.1,7.3l-0.1,1.4c-0.5,0.3-0.9,0.1-1.4-0.8c-0.3-0.3-0.3-0.8,0-1.5c0.3-2.5,0.3-5.5,0-8.8c0-0.6,0-1,0.2-1.1
	c0.2,0,0.4,0.2,0.8,0.7c0.3,0.5,0.7,0.7,1.5,0.6l1.2-0.2c0.6-0.1,0.8-0.3,0.8-0.8c0-1.9-0.1-3.3-0.3-4c0-0.1-0.4-0.1-1.1,0l-1,0.1
	c-0.6,0.1-1.1,0.5-1.5,1l-2,2.7c-0.6,0.6-0.9,0.9-1,0.9c-0.5-0.3-0.5-0.7,0.1-1.3c2.6-3.8,4.3-7.1,4.9-9.8
	C167.6,3.2,167.6,2.6,167.7,2z"/>
<path class="st0" d="M201.2,17.3l0.9-0.7c0.2,0,0.5,0.1,0.9,0.4c0.4,0.4,0.5,0.9,0.1,1.5c-0.4,1.1-0.7,2.9-1.1,5.5
	c-0.1,0.5,0,0.9,0.3,1.1c0.4,0.3,0.6,0.6,0.5,0.9c-0.1,0.1-0.5,0.2-1.2,0.2c-1.8,0.2-3.6,0.4-5.4,0.6c-0.6,0.1-0.9,0.4-0.9,1.1
	c0,0.4-0.1,0.7-0.2,1.1c-0.5,0.3-1,0-1.4-1c-0.4-0.6-0.5-1.2-0.2-1.8c0.5-1.9,0.6-4.3,0.2-7.2c-0.4-1-0.2-1.6,0.5-1.7
	c0.1,0,0.3,0.2,0.5,0.6c0.2,0.4,0.6,0.6,1.1,0.5C198.4,18.1,200.1,17.8,201.2,17.3z M200.1,19.2l-3.9,0.6c-0.6,0.1-0.9,0.4-0.9,0.9
	v4.1c0,0.5,0.4,0.7,1.1,0.7l3-0.3c0.6-0.1,0.9-0.4,1-1l0.7-4.4C201.2,19.2,200.9,19,200.1,19.2z M209.9,4.3c0.7-0.7,1.4-0.4,2,0.8
	c0,0.2-0.2,0.7-0.6,1.4c-0.3,0.9-0.7,2.5-1.1,4.5c-0.1,0.5,0,0.8,0.2,1c0.3,0.2,0.5,0.4,0.6,0.7c0,0.3-0.3,0.5-1.1,0.6
	c-4.1,0.5-7,0.8-8.6,1.1c-0.5,0.1-0.8,0.4-0.9,0.8c-0.1,0.3-0.2,0.6-0.4,0.6c-0.1,0-0.5-0.3-1.1-1.1c-0.4-0.6-0.5-1.2-0.2-1.8
	c0.5-1.2,0.5-3.5,0.2-7.1c-0.1-0.4,0.1-0.7,0.6-0.8c0.1,0.1,0.3,0.3,0.6,0.7c0.2,0.4,0.7,0.6,1.4,0.5l6.6-1
	C208.8,4.9,209.4,4.6,209.9,4.3z M209.3,6.9c0.1-0.4-0.2-0.6-1-0.5c-2.2,0.3-4.5,0.6-6.7,1c-0.6,0.1-0.9,0.4-0.9,0.9
	c0,1.4-0.1,2.8,0,4.2c0,0.5,0.3,0.7,0.9,0.6c1.9-0.3,3.9-0.5,5.9-0.8c0.6-0.1,0.9-0.4,1.1-1L209.3,6.9z M213.8,16.7
	c0.8-0.9,1.6-0.8,2.3,0.5c-0.6,1.1-1.1,3.3-1.5,6.6c-0.1,0.5,0,0.8,0.3,1c0.5,0.3,0.7,0.6,0.4,0.9c-2.3,0.2-4.6,0.5-7,0.9
	c-0.5,0.1-0.8,0.4-0.9,1.1c0,0.8-0.2,1.3-0.7,1.4c-0.3-0.1-0.6-0.5-0.9-1.1c-0.5-0.6-0.5-1.2-0.2-1.8c0.7-2.3,0.8-5,0.3-8.3
	c-0.2-0.6,0-1,0.5-1.1c0.1,0,0.3,0.3,0.6,0.7c0.2,0.4,0.3,0.6,0.4,0.6c1-0.2,2-0.3,3-0.4C211.8,17.4,213,17.2,213.8,16.7z
	 M212.7,18.6l-0.7,0.1l-3.5,0.5c-0.7,0.1-1,0.4-1,0.8l-0.1,4.5c0,0.5,0.4,0.7,1.1,0.7l3.4-0.4c0.6-0.1,0.9-0.4,1-1l0.7-4.5
	C213.7,18.8,213.4,18.6,212.7,18.6z"/>
<path class="st0" d="M16.5,34.9c0.2-0.1,0.7,0.1,1.5,0.6c0.4,0.3,0.7,0.7,0.8,1.1c0,0.2-0.1,0.6-0.4,1.4l-0.1,0.6v6.8
	c0,0.6,0.3,0.8,1.1,0.5l3.8-1.6c0.9-0.2,1.7-0.8,2.5-1.7c0.4-0.1,0.7-0.1,0.9,0.1c1.1,0.4,1.3,0.9,0.5,1.6c-0.2,0.3-0.4,0.7-0.5,1.2
	c-0.7,4.3-1.4,7.5-2.3,9.8c-0.3,1-0.8,1.6-1.5,1.5c-0.2-0.1-0.6-0.4-1-1l-1.2-1.2c-0.6-0.4-0.9-0.8-1.1-1.3c0-0.2,0.1-0.4,0.4-0.4
	c0.2,0,0.6,0.2,1.2,0.6l0.7,0.4c0.6,0.4,1.1,0.4,1.3-0.1c0.7-2.3,1.3-4.9,1.8-7.7c0.1-0.6-0.1-0.8-0.6-0.6c-1.7,0.6-3.4,1.3-5.1,2
	c-0.6,0.2-0.8,0.6-0.8,1c0,4.5,0,7.6-0.1,9.1c-0.2,0.8-0.4,1.2-0.6,1.2c-0.2,0-0.4-0.4-0.8-1c-0.6-1-0.7-1.7-0.4-2.2
	c0.4-1.4,0.6-3.6,0.5-6.6c0-0.5-0.4-0.6-1.1-0.4C14.5,49,13.3,49.5,12,50c-0.6,0.2-0.9,0.6-0.9,1.1c0,3.8,0.2,6.6,0.7,8.1
	c0.2,0.4,0.5,0.6,0.9,0.6c1.4,0.6,3.1,0.8,4.9,0.8l2.9,0.1c3.8,0.1,6.6,0,8.5-0.5c0.2-1,0.3-2.5,0.3-4.5c0-0.6,0-1,0.1-1.1
	c0.1-0.2,0.3-0.2,0.6,0c0.3,0.2,0.4,0.6,0.4,1.1c0.2,1.5,0.5,3.1,0.8,4.6c0.5,0.9,0.1,1.4-1.2,1.5c-0.8,0.1-1.6,0.2-2.4,0.3
	c-6,0.1-10.2,0-12.5-0.3c-1.5-0.1-2.9-0.5-4.2-1.2c-0.6-0.3-1-1.1-1.1-2.4c-0.2-1.9-0.3-4.1-0.4-6.6c0-0.5-0.4-0.6-1.1-0.4l-2.5,1
	c-0.6,0.3-1.3,0.3-2.1-0.1c-0.4-0.1-0.6-0.3-0.5-0.6c1.1-0.5,2.8-1.1,5.2-1.9c0.6-0.2,0.8-0.6,0.8-1c0.1-3.1,0-5.5-0.4-7.2
	c-0.3-0.7-0.2-1.1,0.3-1.2c0.1,0,0.5,0.2,1.2,0.7c0.6,0.3,0.8,0.7,0.8,1.1c-0.3,1.5-0.5,3.5-0.4,6c0,0.5,0.4,0.6,1.1,0.4l3.8-1.4
	c0.6-0.2,0.9-0.6,0.9-1l0-7.8c0-0.7-0.2-1.5-0.3-2.2C16.4,35.3,16.4,35,16.5,34.9z"/>
<path class="st0" d="M56.4,34.1c0.3-0.4,0.8-0.2,1.4,0.5c0.5,0.6,0.8,0.9,0.8,1L56.1,40c-0.3,0.5-0.1,0.8,0.6,0.7
	c5.6-0.7,9.6-1.4,12-2c0.7-0.1,1.5,0.1,2.3,0.6c0.3,0.2,0.4,0.5,0.3,0.7c-0.1,0.2-0.6,0.3-1.3,0.4c-4.2,0.5-9,1.1-14.5,1.9
	c-0.5,0.1-1,0.4-1.4,1.1l-0.7,1c-0.5,0.6-0.7,1.1-0.5,1.3c0.2,0.2,0.6,0.3,1.3,0.2l7.7-1.1c0.6-0.1,1-0.3,1.3-0.6
	c0.3-0.5,0.8-0.5,1.4-0.1c0.9,0.5,1,1,0.5,1.4c-0.2,0.2-0.3,0.5-0.3,1c-0.1,2.1-0.1,5.5-0.1,10c0,2.2-0.1,3.9-0.4,5.2
	c0,0.3-0.2,0.7-0.6,1c-0.3,0.2-0.6,0.2-0.9-0.2c-0.7-0.8-1.5-1.6-2.5-2.3c-0.9-0.6-1.2-1-0.8-1.3c0.1-0.1,0.5,0.1,1.2,0.4
	c0.4,0.2,0.7,0.4,1.1,0.6c0.5,0.3,0.9,0.1,1-0.6l0.1-1.2l0.1-11.2c0-0.6-0.3-0.8-1-0.7c-2.6,0.4-5.3,0.8-7.9,1.2c-0.6,0.1-1,0.4-1,1
	v1.1c0,0.5,0.4,0.7,1.1,0.6c1.7-0.2,3.5-0.5,5.3-0.9c0.7-0.2,1.2-0.2,1.4,0c0.6,0.3,0.9,0.7,0.7,1c-0.1,0.1-0.4,0.2-0.9,0.2
	c-2.2,0.3-4.4,0.7-6.6,1c-0.6,0.1-0.8,0.5-0.8,1v1c0,0.5,0.4,0.7,1.1,0.6l5.3-0.7c0.7-0.6,1.5-0.5,2.2,0.3c0.3,0.3,0.4,0.5,0.3,0.6
	c-0.1,0.1-0.6,0.2-1.3,0.3l-6.7,1c-0.6,0.1-0.8,0.4-0.8,0.9c0,1.8,0,3.5-0.1,5.4c0,0.6-0.2,1-0.7,1c-1.2-0.9-1.6-1.9-1.1-2.9
	c0.7-3.4,0.8-7.6,0.3-12.5c-0.1-0.5-0.4-0.4-0.9,0.2c-2.3,2.4-4.5,4.3-6.5,5.6c-1,1-1.7,1.1-2.1,0.6c0-0.1,0.4-0.5,1-1
	c1.9-1.5,3.6-2.9,5.2-4.3c1.3-1.4,2.6-3.1,4-4.9c0.4-0.6,0.3-0.9-0.4-0.8c-2.5,0.3-4.4,0.7-5.6,0.9c-0.6,0.2-1.3,0-2.1-0.5
	c-0.3-0.1-0.5-0.4-0.4-0.7c0.1-0.1,0.6-0.2,1.3-0.3l8.1-1c0.5-0.1,1-0.4,1.4-1.1C55.7,38,56.4,36,56.4,34.1z"/>
<path class="st0" d="M95.1,34.8c0.3-0.5,0.8-0.4,1.6,0.5c0.5,0.6,0.8,0.9,0.8,1c-0.8,1.5-1.5,3.1-2.1,4.7c-0.2,0.6-0.1,0.8,0.5,0.7
	l5.4-0.9c0.8,0,1.5-0.3,2.1-1c0.6-0.6,1.4-0.4,2.3,0.7c0,0.2-0.2,0.5-0.5,0.9c-0.3,0.7-0.5,1.5-0.6,2.5c-0.4,8-0.8,13.5-1.2,16.3
	c0,0.7-0.2,1.1-0.7,1.2c-0.1-0.1-0.4-0.3-0.7-0.9c-0.3-0.6-0.8-0.9-1.4-0.8c-3.1,0.3-6.2,0.6-9.3,0.9c-0.6,0.1-0.9,0.4-0.9,1
	c-0.1,0.7-0.4,0.8-1,0.5c-0.3-0.3-0.6-0.6-0.7-1c-0.4-0.3-0.4-0.9,0-1.8c0.3-1.4,0.5-2.9,0.6-4.8c0.1-4,0-8.3-0.4-12.8
	c0-0.6,0-1,0.2-1c0.2-0.1,0.4-0.1,0.6,0.1c0.3,0.5,0.5,1,0.7,1.5c0.1,0.1,0.5,0.1,1.2-0.1c0.4-0.1,0.8-0.1,1.3-0.2
	c0.6,0,1-0.4,1.2-1C94.9,38.9,95.3,36.7,95.1,34.8z M102.8,42.8c0-0.5-0.4-0.7-1.1-0.6c-4.9,0.6-8.3,1.1-10.2,1.5
	c-0.7,0.1-1,0.4-1,0.9c0,0.8-0.1,1.5,0,2.4c0,0.5,0.4,0.7,1.1,0.6l5.3-0.7c0.7,0,1.3-0.2,1.8-0.4c0.7-0.1,1.4,0,2,0.5
	c0.3,0.3,0.4,0.5,0.1,0.8l-9.5,1.3c-0.6,0.1-0.8,0.4-0.8,0.9c0,0.8-0.1,1.6,0,2.5c0,0.5,0.4,0.7,1.1,0.6c2.3-0.2,4.5-0.4,6.7-0.8
	c1.2-0.6,2.2-0.4,2.8,0.5c0,0.1,0.1,0.2,0.1,0.3c-0.1,0.2-0.5,0.3-1.2,0.4c-3.8,0.4-6.7,0.7-8.6,1c-0.6,0.1-0.9,0.5-0.9,1.1v2.9
	c0,0.5,0.4,0.7,1.1,0.6c3.3-0.3,6.1-0.7,8.4-1.1c0.7,0,1.2,0,1.4,0.2c0.2,0.2,0.5,0,0.7-0.7C102.5,53.9,102.8,49,102.8,42.8z"/>
<path class="st0" d="M140.5,35.9c0.3-0.6,0.9-0.7,1.7-0.1c0.6,0.4,0.8,0.8,0.5,1.2c-0.6,0.7-1,1.3-1,1.8c-0.4,1.4-0.7,2.8-1,4.3
	c-0.1,0.6,0,0.9,0.3,1.1c0.6,0.3,0.9,0.7,0.8,1c0,0.1-0.4,0.3-1.1,0.4l-11.3,1.8c-0.6,0.1-0.8,0.4-0.8,0.9c0,2.6,0,5.2,0,7.9
	c0.1,1,0.3,1.8,0.6,2.5c0.3,0.7,0.9,1,1.9,1.1c2,0.4,4.7,0.5,7.9,0.4c1.9-0.1,3.6-0.2,5-0.4c0.7-0.3,1.2-0.7,1.3-1.3
	c0.2-0.9,0.3-2.5,0.4-5c0-0.5,0-0.9,0.3-1.1c0.3-0.1,0.5-0.1,0.7,0.1c0.3,3.5,0.6,6,1,7.6c0.2,0.4,0,0.8-0.6,1
	c-2.6,0.4-5.5,0.7-8.6,0.7c-3.1,0.1-5.9-0.1-8.6-0.7c-1.8-0.5-2.6-1.5-2.6-3.1c-0.2-2.5-0.4-6.1-0.4-10.9l-0.2-1.2
	c-0.2-0.5-0.2-0.9,0.1-1c0.5-0.1,0.8,0.1,1.1,0.7c0.4,0.4,0.9,0.6,1.7,0.5c2.7-0.4,5.5-0.9,8.4-1.6c0.6-0.1,0.9-0.5,1.1-1.1l1.1-4.8
	c0.1-0.5-0.3-0.7-1-0.6l-9.6,1.7l-1.4,0.3c-0.7,0.2-1.3-0.1-1.9-0.9c-0.1-0.2,0.2-0.4,0.9-0.5l11.3-1.9
	C139.4,36.6,140.1,36.4,140.5,35.9z"/>
<path class="st0" d="M168.7,36.4c0.1-0.6,0.2-1,0.4-1c0.2,0,0.5,0.3,1.1,0.8c0.5,0.4,0.8,0.8,0.9,1.1c0,0.2-0.2,0.5-0.7,1.1
	c-0.8,1.3-1.5,2.8-2.1,4.4c-0.2,0.5,0,0.7,0.8,0.5c1.8-0.2,3.1-0.6,3.8-1.1c0.3-0.6,0.9-0.6,1.7,0.1c0.7,0.3,0.7,0.8,0.2,1.3
	c-0.3,0.4-0.5,0.9-0.5,1.7c-0.2,4.7-0.5,9-0.8,12.6c0,0.5-0.2,0.9-0.5,1c-0.4,0-0.7-0.4-0.9-1c-0.2-0.4-0.7-0.6-1.5-0.6
	c-1.1,0.1-2.2,0.2-3.2,0.3c-0.6,0.1-1,0.4-1,1l-0.1,1c-0.3,0.3-0.6,0.3-0.8,0c-0.8-0.7-1-1.6-0.6-2.7c0.5-3.2,0.5-7.8,0-13.7
	c-0.1-0.8,0-1.2,0.2-1.3c0.4,0,0.7,0.3,0.8,0.8c0.3,0.6,0.5,0.9,0.7,0.9C167.8,41.4,168.6,38.9,168.7,36.4z M171.4,44.3
	c-1.2,0.2-2.6,0.4-4.3,0.8c-0.6,0.1-0.9,0.4-0.9,0.9c0,1-0.1,2.1,0,3.2c0,0.5,0.4,0.7,1.1,0.7c1-0.1,1.8-0.3,2.5-0.5
	c0.9-0.2,1.5,0.1,1.8,1c0,0.1-0.1,0.2-0.2,0.3l-4.2,0.6c-0.6,0.1-0.9,0.4-0.9,0.9c0,1.2-0.1,2.4,0,3.6c0,0.5,0.4,0.7,1.1,0.7
	l1.1-0.1c0.6,0,1.1-0.1,1.5-0.2c0.7-0.2,1.2-0.3,1.6-0.2c0.1,0.1,0.3-0.2,0.4-0.9c0.4-2.9,0.6-6.3,0.7-10
	C172.5,44.4,172.1,44.2,171.4,44.3z M179.1,34.9c0.4-0.4,0.9-0.3,1.5,0.4c0.5,0.5,0.8,0.8,0.8,1c-0.2,0.5-0.4,0.9-0.5,1.4
	c-0.3,1.5-0.9,3.2-1.7,5.3c-0.2,0.5,0.1,0.6,0.9,0.5c1.8-0.3,3.6-0.6,5.4-0.8c0.2,0,0.5-0.1,0.7-0.2c0.7-0.6,1.1-0.9,1.2-0.9
	c0.2,0,0.5,0.1,0.9,0.3c0.8,0.5,1,1,0.5,1.5c-0.3,0.3-0.5,0.9-0.5,1.5l-1.4,9.8c-0.4,2.9-1.1,5.3-2,7.1c-0.3,0.8-0.7,1.1-1.2,0.9
	c-1.1-1.2-2.4-2.5-3.8-3.8c-0.6-0.4-0.7-0.8-0.4-1.1c0.2-0.1,0.5,0,0.8,0.2c0.8,0.6,1.7,1.1,2.5,1.5c0.5,0.3,1,0.1,1.3-0.6
	c1.2-4.3,2-9,2.3-14.1c0-0.5-0.3-0.7-1-0.6c-2.3,0.3-4.6,0.6-7,1c-0.2,0.1-0.5,0.5-0.8,1.1c-0.8,1.6-1.5,2.8-2.2,3.7
	c-0.5,0.4-0.9,0.4-1,0c0-0.1,0.1-0.4,0.2-0.8c2.6-4.4,4.1-8.4,4.5-12L179.1,34.9z M177.8,47.6c0.4-0.4,0.9-0.3,1.5,0.5
	c0.9,0.8,1.8,1.5,2.6,2.4c0.7,0.7,0.9,1.3,0.7,1.8c-0.1,0.9-0.5,1.3-1.1,1.2c-0.8-1.5-1.8-3.1-3.2-4.8
	C177.9,48.1,177.7,47.7,177.8,47.6z"/>
<path class="st0" d="M214.3,34.3c0.2-0.2,0.5-0.2,0.9,0c0.5,0.3,1,0.6,1.5,1c0.2,0.2,0.2,0.5,0,1.1c-0.2,2.4-0.3,5.5-0.3,9.2
	c0,0.5,0.4,0.7,1.1,0.6c4-0.3,7.2-0.7,9.5-1.2c0.9-0.1,1.6,0.5,2.1,1.5c-0.1,0.3-0.4,0.4-0.8,0.3c-2.9,0.1-5.8,0.4-8.6,0.6
	c-0.6,0.1-0.8,0.2-0.7,0.3c0.2,0.3,0.1,0.5-0.1,0.8c-0.3,1.7-0.3,4.6-0.2,8.8c0.1,1.8,0.9,2.8,2.4,2.9c2.8,0.3,4.9,0.2,6.4-0.2
	c0.3-0.2,0.4-0.6,0.4-1.1c0-1.3,0-2.5,0-3.8c0.1-0.3,0.3-0.4,0.6-0.4c0.5,0.1,0.7,0.5,0.6,1.1c0.2,1.4,0.4,2.9,0.8,4.6
	c0.4,0.8,0,1.2-1.1,1.3c-2.2,0.2-4.5,0.3-7,0c-1,0-1.9-0.2-2.8-0.6c-1-0.6-1.6-1.4-1.7-2.3c-0.2-1.2-0.3-2.2-0.3-3.1l-0.1-6.9
	c0-0.7-0.4-1-1.1-1l-1.5,0.1c-0.6,0-0.8,0.2-0.5,0.4c0.4,0.3,0.5,0.5,0.3,0.8c-0.4,0.4-0.7,1.1-0.9,1.9c-1.2,3.7-3.9,7.1-8.1,10.3
	c-0.7,0.3-1.4,0.7-2.1,1.2c-0.8,0.6-1.3,0.7-1.5,0.6c-0.3-0.4,0.1-0.8,0.9-1.2c1.9-1.2,3.5-2.5,5-4.1c2.8-3.3,4.4-6.2,4.6-8.9
	c0-0.5-0.4-0.7-1.1-0.7c-1.9,0.1-3.7,0.3-5.6,0.6c-0.8,0.2-1.6-0.1-2.5-1.1c-0.1-0.2,0-0.4,0.4-0.5c2.9-0.1,6.6-0.4,11-0.8
	c0.6,0,0.9-0.4,0.9-1c0.1-4.3-0.1-7.7-0.5-10.2C214.3,34.7,214.2,34.4,214.3,34.3z M207.3,38.8c-0.3-0.6-0.3-0.9,0.1-0.9
	c0.3,0.1,0.8,0.4,1.4,0.9c0.9,0.8,1.7,1.6,2.5,2.5c1.1,1,1.2,2,0.2,3.2c-0.1,0-0.2,0-0.4,0c-0.1-0.1-0.4-0.4-0.7-1
	C209.4,41.8,208.4,40.3,207.3,38.8z M222.6,37.9c0.2-0.7,0.4-1,0.6-1c0.5,0.3,1,0.8,1.3,1.6c0.4,0.5,0.1,1-0.7,1.6
	c-1.2,1.7-2.5,3.3-3.9,4.9c-0.6,0.6-1,0.5-1.2-0.2C221,41.6,222.3,39.3,222.6,37.9z"/>
<path class="st0" d="M253.3,44.7c0.1-0.3,0.4-0.4,0.9-0.1c0.5,0.4,0.9,0.8,1.3,1.2c0.9,0.7,1.1,1.5,0.6,2.2c-0.3,0.5,0,0.7,0.7,0.6
	c4.1-0.4,7.7-0.8,10.8-1.4c0.8,0.4,1.3,0.9,1.5,1.4c0,0.4-0.3,0.6-0.9,0.6c-5,0.4-11.1,0.9-18.2,1.5c-0.6,0-0.9,0.3-0.9,0.8v7.9
	c0,0.5,0.4,0.8,1.1,0.8c4.2-0.1,8.6-0.6,13.3-1.4c0.5-0.1,1,0.2,1.7,0.9c0.5,0.8,0.2,1.1-1,1c-4.7,0.3-9.4,0.7-14,1
	c-0.6,0-1,0.1-1.4,0.3c-0.2,0.4-0.5,0.5-0.8,0.4c-1.3-0.6-1.5-1.4-0.6-2.1c0.1-0.3,0.2-0.6,0.2-1.1l0-7.4c0-0.5-0.4-0.7-1.1-0.7
	c-0.8,0.1-1.6,0.2-2.5,0.3c-1.3,0.3-2.3-0.1-3.2-1c0-0.2,0.2-0.4,0.4-0.5c0.9,0,1.9,0,2.8-0.1c3.4-0.2,6.7-0.5,10.1-0.7
	c0.6-0.1,0.7-0.4,0.4-1l-1-2.4C253.4,45,253.3,44.8,253.3,44.7z M259.2,35.3c0.4-0.3,0.9-0.1,1.5,0.7c0.9,0.6,1,1.2,0.4,1.8
	c-0.2,0.5-0.4,0.9-0.6,1.4c-0.2,0.5,0.1,0.7,0.8,0.6c1.6-0.2,3.2-0.5,4.9-0.8c0.8,0.1,1.4,0.5,1.9,1.4c0,0.4-0.4,0.5-1,0.5
	c-2.4,0.1-4.5,0.3-6.5,0.5c-0.6,0.1-1,0.4-1.3,1.1l-1.2,2.5c-0.2,0.6-0.5,0.7-1,0.4c-0.1-0.3-0.1-0.5,0-0.8l0.8-2.2
	c0.1-0.5-0.2-0.7-0.9-0.6c-1.5,0.1-3.1,0.3-4.6,0.5c-0.6,0.1-0.9,0.4-0.9,1c0,0.4,0,0.9,0,1.4c0,0.6,0,1-0.1,1.2
	c-0.3,0.3-0.7,0.2-1.1-0.2c-0.4-0.4-0.6-0.9-0.4-1.2c0.1-0.3,0.1-0.7,0.1-1c0-0.5-0.3-0.7-1-0.7c-1.5,0.1-3,0.3-4.6,0.5
	c-0.7,0.2-1.4,0.1-2.1-0.3c-0.6-0.3-0.9-0.6-0.9-0.9c0.1-0.2,0.3-0.4,0.8-0.3l6.9-0.5c0.6,0,0.8-0.4,0.8-1c-0.1-1-0.3-2-0.5-3.1
	c-0.3-0.7-0.2-1.1,0.2-1.2c0.1,0,0.4,0.2,0.9,0.4c0.9,0.3,1.3,0.9,1,1.7c-0.1,0.7-0.2,1.4-0.1,2.1c0,0.6,0.3,0.8,0.8,0.8l5.6-0.6
	c0.6-0.1,0.9-0.4,1.1-1C259.1,38,259.3,36.7,259.2,35.3z"/>
<g>
	<g>
		<g>
			<path d="M249.4,26.8l-14.1-15.2h28.3L249.4,26.8z M237.6,12.6l11.9,12.8l11.9-12.8H237.6z"/>
		</g>
	</g>
</g>
<g>
	<g>
		<g>
			<path d="M263.3,12.6h-27.9l4.7-7h18.5L263.3,12.6z M237.3,11.6h24.1l-3.3-5h-17.5L237.3,11.6z"/>
		</g>
	</g>
</g>
<g>
	<g>
		<g>
			<polygon points="248.9,26.3 243.2,12.3 240,6.3 240.9,5.8 244.1,11.8 249.9,25.9 			"/>
		</g>
	</g>
</g>
<g>
	<g>
		<g>
			<polygon points="255.4,12.9 248.7,6.8 243.8,12.4 243,11.7 248.6,5.4 255.1,11.3 258,5.8 258.9,6.3 			"/>
		</g>
	</g>
</g>
<g>
	<g>
		<g>
			<rect x="244.8" y="18.6" transform="matrix(0.3945 -0.9189 0.9189 0.3945 135.3033 243.4902)" width="15.2" height="1"/>
		</g>
	</g>
</g>
</svg>
