<svg id="圖層_1" data-name="圖層 1" xmlns="http://www.w3.org/2000/svg" viewBox="0 0 293.09 61.41"><defs><style>.cls-1{stroke:#000;stroke-miterlimit:10;stroke-width:2px;}</style></defs><title>橫式-暗處觀望</title><path class="cls-1" d="M146.8,306.17a7,7,0,0,1-1.77.9,4.83,4.83,0,0,1-1.1.34l0,.08.09,3.61h1.78l.93-1,1.33,1.11a.33.33,0,0,1,.14.26c0,.26-.09.39-.26.39H144l.11,4.05h1.45l.91-1c.48.36.93.72,1.35,1.09a.29.29,0,0,1,.16.25q0,.39-.27.39h-3.57l.09,3.85h15l.21-3.85h-.58a12.64,12.64,0,0,0-2.24.11l-.39-1a12.53,12.53,0,0,0,2.63.2h.63l.21-4.05h-.84a13.12,13.12,0,0,0-2.24.1l-.39-1a12.53,12.53,0,0,0,2.63.2h.89l.21-4.21h-1.28a13.18,13.18,0,0,0-2.27.11l-.37-1a12.5,12.5,0,0,0,2.64.21h.83l1-1.14a10.73,10.73,0,0,1,1.26,1.29.64.64,0,0,1,.12.34c0,.15-.1.28-.31.39a4.39,4.39,0,0,1-.63.26l-.63,13.12h.38l1-1.13c.5.39,1,.79,1.4,1.18a.3.3,0,0,1,.17.24c0,.27-.1.41-.28.41H143.42c-1.09,0-1.84.08-2.24.13l-.44-1.14a8.64,8.64,0,0,0,2.4.31l-.35-13.05a6.65,6.65,0,0,0-.09-1.32l1.23.63a5.62,5.62,0,0,0,1.33-.94,3.4,3.4,0,0,0,.87-1.26,15.51,15.51,0,0,1,1.88,1.26.4.4,0,0,1,.17.31.26.26,0,0,1-.26.29,2.43,2.43,0,0,1-.46-.08A1.7,1.7,0,0,0,146.8,306.17Zm2,17.85a13,13,0,0,1-2.21,1.74,15.58,15.58,0,0,1-2.24,1.34,14.61,14.61,0,0,1-2.64,1.09l-.3-.65a24,24,0,0,0,3.31-1.76,12.56,12.56,0,0,0,2.17-1.63,9.09,9.09,0,0,0,1.33-1.75,20,20,0,0,1,1.7,1.13.55.55,0,0,1,.07.31c0,.12-.14.18-.44.18Zm.54-11.13c1.07.24,1.61.48,1.61.72s-.26.42-.77.49a15.66,15.66,0,0,1-.37,1.86,20,20,0,0,1-.63,2,12.74,12.74,0,0,1-.77,1.91l-.54-.39c.31-.86.57-1.68.77-2.45a14.26,14.26,0,0,0,.49-2.25A11.47,11.47,0,0,0,149.39,312.89Zm.84-8.81a5.26,5.26,0,0,1,1.82.49.31.31,0,0,1,.14.25c0,.14-.12.25-.35.34a6,6,0,0,1-.68.16c0,.65-.11,1.28-.18,1.88H153l1-1c.46.36.9.72,1.3,1.08a.3.3,0,0,1,.17.24c0,.27-.1.41-.28.41h-4.3c0,.12,0,.23,0,.34-.1.75-.21,1.55-.35,2.37h2.91l.66-.75a4.79,4.79,0,0,1,1.12.88.39.39,0,0,1,.09.26.72.72,0,0,1-.14.41,1.23,1.23,0,0,1-.4.34,34.64,34.64,0,0,1-.18,3.75,17.72,17.72,0,0,1-.4,2.61,3,3,0,0,1-.65,1.32,2.63,2.63,0,0,1-1.12.8,1.44,1.44,0,0,0-.52-.83,4.73,4.73,0,0,0-1.44-.54l.21-.6a4.44,4.44,0,0,0,1.56.29,1.1,1.1,0,0,0,.7-.31,1.76,1.76,0,0,0,.42-1.09,42.67,42.67,0,0,0,.3-5.81h-3.24a.83.83,0,0,1-.05.2q-.06.39-.63.39c-.32,0-.49-.09-.49-.28l.05-.44a6.81,6.81,0,0,0,.23-1.06C149.87,307.67,150.12,305.64,150.23,304.08Zm4.2,18.52a20.74,20.74,0,0,1,5.64,2.41,4.32,4.32,0,0,1,1.1.93,4.51,4.51,0,0,1,.54.77,1.73,1.73,0,0,1,.11.62c0,.36-.13.55-.39.55a.82.82,0,0,1-.45-.26,4,4,0,0,1-.67-.6,12.36,12.36,0,0,0-1.24-1.08,17.85,17.85,0,0,0-1.75-1.14,29.5,29.5,0,0,0-3.08-1.81Z" transform="translate(-139.06 -301.78)"/><path class="cls-1" d="M179.41,307.9a8.91,8.91,0,0,0,2.71.34h2.73v-2a17.23,17.23,0,0,0-.1-2.09,8.46,8.46,0,0,1,2.2.57c.2.1.3.23.3.38s-.1.25-.3.31a2.73,2.73,0,0,1-1,.31v2.49h7.77v-2a17.7,17.7,0,0,0-.09-2.09,8.27,8.27,0,0,1,2.19.57c.2.1.3.23.3.38s-.1.25-.3.31a2.69,2.69,0,0,1-1,.31v2.49h2.5l1.14-1.48c.59.5,1.14,1,1.65,1.48a.34.34,0,0,1,.19.28c0,.28-.12.41-.37.41h-5.11v11.68h3.24l1.21-1.52c.63.5,1.21,1,1.75,1.5a.42.42,0,0,1,.21.33c0,.3-.12.44-.37.44h-19.5c-1.09,0-1.83.06-2.24.11l-.44-1.14a10.17,10.17,0,0,0,2.68.28h3.48V308.93h-2.73a17.17,17.17,0,0,0-2.22.13Zm7.84,16.23a12.72,12.72,0,0,1-2.4,1.76,17.33,17.33,0,0,1-2.45,1.39,16.63,16.63,0,0,1-2.87,1.09l-.31-.62a27.37,27.37,0,0,0,3.64-1.81,15.73,15.73,0,0,0,2.38-1.66,9.35,9.35,0,0,0,1.47-1.78,15.67,15.67,0,0,1,1.66,1.14.34.34,0,0,1,.11.28q0,.21-.48.21Zm-1.31-11.89h7.77v-3.31h-7.77Zm0,4.24h7.77V313h-7.77Zm0,4.13h7.77v-3.38h-7.77Zm6.35,2.1a19.61,19.61,0,0,1,3,1.21,18.86,18.86,0,0,1,2.24,1.4,5.08,5.08,0,0,1,1,1,3.81,3.81,0,0,1,.47.85,1.9,1.9,0,0,1,.12.7c0,.27-.12.41-.35.41a.82.82,0,0,1-.45-.26,4,4,0,0,1-.6-.65c-.42-.44-.8-.84-1.14-1.18s-1-.76-1.61-1.19a27.52,27.52,0,0,0-2.85-1.92Z" transform="translate(-139.06 -301.78)"/><path class="cls-1" d="M215.89,307.34a10.64,10.64,0,0,0,2.73.28h4.06c.1-.31.18-.62.26-.93a29.43,29.43,0,0,0,.72-3.69,6,6,0,0,1,1.8.49c.22.07.32.18.32.33s-.13.26-.39.37a4.41,4.41,0,0,1-.8.23c-.28,1.22-.54,2.29-.79,3.2h10.59l1.21-1.52c.63.5,1.21,1,1.75,1.5a.42.42,0,0,1,.21.33c0,.3-.13.44-.39.44H223.59c-.12.4-.25.77-.37,1.11a25.34,25.34,0,0,1-2,4.4c-.1.19-.18.35-.26.49.71.36,1.07.64,1.07.82s-.24.37-.72.63v8.65a5,5,0,0,0,.12,1.27,4,4,0,0,1,.07.59.78.78,0,0,1-.84.86c-.33,0-.49-.15-.49-.44V315.66a15.8,15.8,0,0,1-1.24,1.73q-1.22,1.39-3.06,3.18l-.35-.54a28,28,0,0,0,2.57-2.92,18.08,18.08,0,0,0,1.82-2.82,28,28,0,0,0,1.7-3.46q.45-1.17.87-2.46h-3.88a21.18,21.18,0,0,0-2.24.11Zm7.4,8.14a8.78,8.78,0,0,0,2.68.34h3v-4a15.47,15.47,0,0,0-.1-2.09,8.31,8.31,0,0,1,2.22.57q.33.15.33.39c0,.14-.11.24-.33.31a2.54,2.54,0,0,1-1,.28v4.58h3.38l1.12-1.37c.56.48,1.08.93,1.56,1.37a.35.35,0,0,1,.21.31c0,.25-.1.38-.3.38h-6v8.79h4.59l1.1-1.42c.6.48,1.16.95,1.68,1.42a.37.37,0,0,1,.21.31c0,.29-.13.44-.38.44H224.94c-1.08,0-1.82.05-2.21.1l-.49-1.13a10.73,10.73,0,0,0,2.7.28h4v-8.79h-3a20.87,20.87,0,0,0-2.22.11Z" transform="translate(-139.06 -301.78)"/><path class="cls-1" d="M254.5,306.06l1.37,1.14h3.57l.75-1.14a5.09,5.09,0,0,1,1.21,1.09.62.62,0,0,1,.19.34c0,.17-.29.45-.87.85v11.34c0,1.3,0,2.14.07,2.54s0,.9,0,1.21a.72.72,0,0,1-.24.57,1.27,1.27,0,0,1-.51.13c-.3,0-.44-.1-.44-.29v-.95h-3.95v.95c0,.19-.14.29-.44.29a1.4,1.4,0,0,1-.53-.13.77.77,0,0,1-.21-.57c0-.31,0-.71,0-1.21a16.41,16.41,0,0,0,.12-2.54V307.8A8.67,8.67,0,0,0,254.5,306.06Zm1.18,8.69h3.95V307.9h-3.95Zm0,7.41h3.95v-6.71h-3.95Zm11.11-18.08a6.65,6.65,0,0,1,1.12.77,4.19,4.19,0,0,1,.88.67,1.84,1.84,0,0,1,.49.6.7.7,0,0,1,.14.44,1.77,1.77,0,0,1-.14.8.43.43,0,0,1-.23.23h3.8l1.12-1.42c.59.48,1.15.95,1.68,1.42a.37.37,0,0,1,.19.31c0,.29-.12.44-.35.44H272.6A7.69,7.69,0,0,1,274,309a.49.49,0,0,1,.16.31c0,.15-.11.27-.32.34a3.8,3.8,0,0,1-1,.15c-.15.48-.32.93-.49,1.34l-.65,1.35a8.58,8.58,0,0,1-.65,1.08q-.19.29-.42.57H274l1.15-1.42c.57.48,1.12,1,1.65,1.42a.37.37,0,0,1,.19.31c0,.3-.13.44-.38.44H264c-1.09,0-1.84,0-2.24.1l-.44-1.13a10.12,10.12,0,0,0,2.68.28h2.24a3.15,3.15,0,0,1-.19-.8,8.94,8.94,0,0,0-.4-1.7,10.9,10.9,0,0,0-.56-1.58,10.09,10.09,0,0,0-.79-1.58l.09-.1c-.8,0-1.37.07-1.7.1l-.44-1.13a10.17,10.17,0,0,0,2.68.28h3.57a.7.7,0,0,1-.23-.44,3.11,3.11,0,0,0-.4-1c-.19-.32-.38-.62-.58-.9s-.5-.56-.84-.9Zm-3,12.3,1.42,1.13h7.1l.72-1.13a5.61,5.61,0,0,1,1.24,1.11.5.5,0,0,1,.18.33c0,.18-.29.45-.86.83v5.19c0,1.28,0,2.11.07,2.51s0,.9,0,1.19a.75.75,0,0,1-.23.59,1.09,1.09,0,0,1-.51.16c-.3,0-.45-.1-.45-.31v-1H265v1c0,.21-.14.31-.44.31a1.2,1.2,0,0,1-.53-.16.72.72,0,0,1-.24-.59c0-.29,0-.69.07-1.19a16.11,16.11,0,0,0,.12-2.51v-5.68A7.3,7.3,0,0,0,263.8,316.38Zm3.08-2.28h3.06a6.49,6.49,0,0,0,.72-1.32c.25-.56.48-1.16.7-1.78s.37-1.25.51-1.89a5.8,5.8,0,0,0,.12-.77h-7.21a9.62,9.62,0,0,1,.91,1.34,9.81,9.81,0,0,1,.82,1.42,5.53,5.53,0,0,1,.44,1.22,4,4,0,0,1,.12.95,1.79,1.79,0,0,1-.12.73ZM265,321.67h7.49v-3.41H265Zm0,4.53h7.49v-3.8H265Z" transform="translate(-139.06 -301.78)"/><path class="cls-1" d="M302.24,303.79c.69.14,1.25.28,1.68.41.19.07.28.17.28.29a.25.25,0,0,1-.18.23,3.06,3.06,0,0,1-.56.31V306h5l1-1.24a19,19,0,0,1,1.58,1.27.35.35,0,0,1,.21.28c0,.26-.09.39-.28.39h-7.55v1.78h8l.67-.85a15.73,15.73,0,0,1,1.4,1.29.24.24,0,0,1,.07.18c0,.14-.15.24-.44.31l-.75.21c-.22.33-.48.69-.79,1.09a8.66,8.66,0,0,1-.91,1.08l-.35-.31a13.58,13.58,0,0,0,.7-1.21,5.23,5.23,0,0,0,.4-1.06h-9.33a8.42,8.42,0,0,1,1.33.41.3.3,0,0,1,.16.28.42.42,0,0,1-.23.37c-.16.08-.36.18-.61.28v1l4.24-.2.7-1.27,1.73,1.22a.3.3,0,0,1,.14.25c0,.16-.09.25-.26.29l-6.55.41v.44a3.48,3.48,0,0,0,.14,1.14,1.32,1.32,0,0,0,.49.44,2.65,2.65,0,0,0,1.14.23,11.67,11.67,0,0,0,1.94.15,17.93,17.93,0,0,0,2.12-.12,5.38,5.38,0,0,0,1.4-.26,2.61,2.61,0,0,1,.79-.16.92.92,0,0,1,.61.21,1,1,0,0,1,.23.64.2.2,0,0,1-.11.19.72.72,0,0,1-.31.2,8.83,8.83,0,0,1-1.42.18,25.52,25.52,0,0,1-2.85.16,19.5,19.5,0,0,1-2.77-.16,4.23,4.23,0,0,1-1.17-.2,1.92,1.92,0,0,1-.72-.39,1.58,1.58,0,0,1-.51-.75,4,4,0,0,1-.12-1.11v-.75l-4.2.28-1,.18-.68-.95,1.68-.05,4.2-.18v-2.43h-6.6v6.61c0,1.28-.05,2.48-.14,3.62s-.15,2-.3,3.05a19.23,19.23,0,0,1-.49,2.32,13.31,13.31,0,0,1-.73,1.84,7.72,7.72,0,0,1-1,1.58l-.28-.21a11.33,11.33,0,0,0,.66-1.5,15.34,15.34,0,0,0,.46-1.52,13.9,13.9,0,0,0,.35-2.1c.13-.91.21-1.86.26-2.84.08-1.24.12-2.65.12-4.24,0-3.44,0-6.21-.1-8.29l1.33.95h7.19v-2.58A16.73,16.73,0,0,0,302.24,303.79Zm-3.17,10.73c1.49.34,2.24.65,2.24.93s-.44.4-1.31.43c-.26.78-.53,1.47-.79,2.07h2.85L303,317c.51.43.95.82,1.3,1.17a.55.55,0,0,1,.17.36c0,.1-.12.22-.35.36a2.51,2.51,0,0,1-.84.39,21.86,21.86,0,0,1-1.61,3.54,7.6,7.6,0,0,1-.56.93l0,0a6.87,6.87,0,0,0,1.75,1.35,7.34,7.34,0,0,0,2.22.82,19.34,19.34,0,0,0,3.36.24,27.71,27.71,0,0,0,3.43-.21c1.08-.16,2-.33,2.75-.52v.65c-.56.1-1,.54-1.21,1.32-1.12.06-2.28.1-3.48.1a32.88,32.88,0,0,1-3.94-.21,7.34,7.34,0,0,1-2.92-.93,5.07,5.07,0,0,1-2-1.55,2,2,0,0,1-.39-.46c-.13.17-.24.32-.35.44a15.74,15.74,0,0,1-1.64,1.42,11.06,11.06,0,0,1-1.93,1.19,10.31,10.31,0,0,1-2.33.93l-.1-.39a15.05,15.05,0,0,0,2.31-1.16c.48-.31,1.07-.74,1.77-1.27a13,13,0,0,0,1.61-1.73l.12-.16a10.73,10.73,0,0,1-.79-1.55,11.26,11.26,0,0,1-.89-2.63,14.18,14.18,0,0,1-1.21,1.91,11.16,11.16,0,0,1-1.73,1.81l-.25-.49c.57-.69,1-1.28,1.35-1.76a10.52,10.52,0,0,0,1-1.89,12.9,12.9,0,0,0,.89-2.24A21.05,21.05,0,0,0,299.07,314.52Zm-.3,4.29a11.06,11.06,0,0,0,1,2.92,9.23,9.23,0,0,0,.74,1.29c.24-.43.46-.89.68-1.37a17,17,0,0,0,1.07-3h-3.38A.76.76,0,0,1,298.77,318.81Zm6.55-2.43,1.47,1.13h2.26l.54-1c1,.74,1.42,1.23,1.42,1.47s-.31.6-.93.91v3.74a.56.56,0,0,0,.14.39,2,2,0,0,0,.79.1,5.53,5.53,0,0,0,.56,0,.61.61,0,0,0,.49-.21,9.32,9.32,0,0,0,.7-2.43l.49.11a15.55,15.55,0,0,0-.09,1.86c0,.32.11.52.33.59a.68.68,0,0,1,.39.65.24.24,0,0,1-.14.23,1.75,1.75,0,0,1-.56.18,4.39,4.39,0,0,1-.84.1,10.49,10.49,0,0,1-1.3.08,12.7,12.7,0,0,1-1.31-.05,1.27,1.27,0,0,1-.56-.36.85.85,0,0,1-.21-.62v-4.94h-2.45a15.2,15.2,0,0,1-.14,2.17,6.72,6.72,0,0,1-.51,1.73,4.86,4.86,0,0,1-.7,1.27,8.53,8.53,0,0,1-1.54,1.45l-.35-.44a4.66,4.66,0,0,0,1-1.27,5.84,5.84,0,0,0,.59-1.37,9.78,9.78,0,0,0,.39-1.88c.09-.71.15-1.36.17-2S305.37,316.84,305.32,316.38Z" transform="translate(-139.06 -301.78)"/><path class="cls-1" d="M330.81,306a12.42,12.42,0,0,0,2.62.21h1.12v-.54a11.88,11.88,0,0,0-.1-1.74c.7.11,1.28.22,1.73.34.15.07.23.16.23.26a.25.25,0,0,1-.19.23,1.87,1.87,0,0,1-.65.31v1.32a3.73,3.73,0,0,0,.05.75,6.73,6.73,0,0,1,.05.7q0,.72-.63.72c-.39,0-.59-.13-.59-.39s0-.48.05-.77,0-.33,0-.47h-1.09a12.43,12.43,0,0,0-2.22.11Zm2.8,7.55a9.11,9.11,0,0,1,1.82.75.39.39,0,0,1,.14.26.36.36,0,0,1-.25.36,2.6,2.6,0,0,1-.87.18,8,8,0,0,1-.51,1.21h3.68a1,1,0,0,1-.09-.28,3.87,3.87,0,0,0-.53-1.32,5,5,0,0,0-.5-.67l.4-.29a5.33,5.33,0,0,1,.63.5,2.34,2.34,0,0,1,.51.46,1.1,1.1,0,0,1,.28.39.64.64,0,0,1,.05.28,2.56,2.56,0,0,1-.09.75c-.07.1-.12.17-.17.18h2.06l1-1.13c.5.41,1,.81,1.4,1.18a.38.38,0,0,1,.17.26c0,.3-.1.44-.28.44H338v2.38h1.56l.94-1q.72.54,1.35,1.08a.29.29,0,0,1,.16.23c0,.3-.1.44-.3.44H338v2.48h1.56l.94-1c.48.36.93.72,1.35,1.09a.26.26,0,0,1,.16.23c0,.27-.1.41-.3.41H338v2.61h2.15l1-1.14c.5.4,1,.8,1.4,1.19a.3.3,0,0,1,.17.24c0,.27-.1.41-.28.41h-8.56c0,.17,0,.29,0,.36a4.27,4.27,0,0,1,.05.67c0,.28-.28.46-.84.55-.27,0-.4-.11-.4-.31v-9.46c-.17.26-.33.49-.49.7a9.07,9.07,0,0,1-1,1.11l-.37-.34a9,9,0,0,0,1-1.5,17.74,17.74,0,0,0,.86-1.86,19.82,19.82,0,0,0,.68-2A6.85,6.85,0,0,0,333.61,313.51Zm-2.24-5,1.4.85h2.06l.65-.85c.81.55,1.21.93,1.21,1.14s-.21.44-.63.75v1.81l.42.38a.23.23,0,0,1,.12.18c0,.26-.06.39-.19.39h-3.92v.1a.4.4,0,0,1-.25.39,1.45,1.45,0,0,1-.59.16c-.18,0-.28-.11-.28-.31Zm1.12,4h2.45v-2.4h-2.45Zm4.41,6.93V317h-3v2.38Zm0,3.2v-2.48h-3v2.48Zm-3,3.31h3V323.3h-3Zm3.7-17.39,1.43.85h2.05l.63-.85c.82.55,1.24.93,1.24,1.14s-.22.44-.66.75v1.81l.42.38a.21.21,0,0,1,.14.18q0,.39-.21.39h-3.92v.1a.4.4,0,0,1-.28.39,1.2,1.2,0,0,1-.53.16.28.28,0,0,1-.31-.31Zm.1-4.52a15.17,15.17,0,0,1,1.72.33c.16.07.24.16.24.26s-.06.18-.19.23a1.85,1.85,0,0,1-.63.31v1.14h1.94l1.05-1.14c.48.38.94.77,1.4,1.17a.36.36,0,0,1,.16.26c0,.29-.09.44-.26.44h-4.27a.33.33,0,0,1,0,.1,6.41,6.41,0,0,1,0,.7c0,.48-.21.72-.65.72s-.58-.13-.58-.39a7.5,7.5,0,0,1,0-.77c0-.35.05-.65.05-.91v-.7A12.27,12.27,0,0,0,337.72,304Zm1,8.47h2.45v-2.4h-2.45Zm4.76-8.08,1.43,1.13h5.57l.77-1.13a5,5,0,0,1,1.21,1.11.55.55,0,0,1,.17.36c0,.15-.28.42-.82.8v9.12c0,1.28,0,2.11.05,2.51s0,.9,0,1.21a.72.72,0,0,1-.25.57,1.41,1.41,0,0,1-.49.16c-.33,0-.49-.12-.49-.34v-.39h-1.4v6a1.73,1.73,0,0,0,.09.62.53.53,0,0,0,.3.34,4.6,4.6,0,0,0,1,.08,5.63,5.63,0,0,0,1-.08.38.38,0,0,0,.28-.23,1.88,1.88,0,0,0,.14-.6c.06-.39.12-1.33.16-2.79l.38.08v2.17a1.32,1.32,0,0,0,.16.7,1.22,1.22,0,0,0,.49.49.39.39,0,0,1,.19.36,1,1,0,0,1-.07.28.82.82,0,0,1-.35.39,2.08,2.08,0,0,1-.89.26,7.68,7.68,0,0,1-1.17.1,8.21,8.21,0,0,1-1.54-.1,1.35,1.35,0,0,1-.74-.23.87.87,0,0,1-.45-.49,2.71,2.71,0,0,1-.09-.62v-6.7h-1c-.08.8-.18,1.51-.3,2.15a7.53,7.53,0,0,1-.61,2,8,8,0,0,1-.84,1.81,6.65,6.65,0,0,1-1.19,1.42,9.38,9.38,0,0,1-1.79,1.3l-.35-.55a7.63,7.63,0,0,0,1.56-1.44,7.44,7.44,0,0,0,1-1.43,9.34,9.34,0,0,0,.65-1.49,9.76,9.76,0,0,0,.45-1.86,19,19,0,0,0,.25-1.92h-1.3v.39c0,.22-.15.34-.45.34a1.34,1.34,0,0,1-.53-.16.75.75,0,0,1-.24-.57c0-.31,0-.71.07-1.21a16.11,16.11,0,0,0,.12-2.51v-9.61A7.3,7.3,0,0,0,343.5,304.39Zm1.22,5.47h6v-3.59h-6Zm0,4.45h6v-3.7h-6Zm0,4.44h6v-3.69h-6Z" transform="translate(-139.06 -301.78)"/><path class="cls-1" d="M375,304.08a9.07,9.07,0,0,1,1,.77,4.21,4.21,0,0,1,.82.67,1.7,1.7,0,0,1,.44.6.83.83,0,0,1,.12.44,1.91,1.91,0,0,1-.14.8.51.51,0,0,1-.19.23h2.38l1-1.24,1.58,1.27a.34.34,0,0,1,.19.28c0,.29-.09.44-.26.44h-7.83v4.24a8.43,8.43,0,0,0,.06,1.34.62.62,0,0,0,.38.44,4.18,4.18,0,0,0,1.24.34,13,13,0,0,0,2,.15,9.91,9.91,0,0,0,1.5-.13,2,2,0,0,0,.84-.28.52.52,0,0,1,.28-.13,1.1,1.1,0,0,1,.72.21.78.78,0,0,1,.3.62.63.63,0,0,1,0,.28.74.74,0,0,1-.38.21,6.59,6.59,0,0,1-1.42.23A13.68,13.68,0,0,1,378,316a15.6,15.6,0,0,1-2.64-.23,4.84,4.84,0,0,1-1.65-.42,1.07,1.07,0,0,1-.4-.46,2.26,2.26,0,0,1-.23-.78c0-.29,0-.83,0-1.63v-4.11c-.75,0-1.29.05-1.61.08l-.45-1.13a10.25,10.25,0,0,0,2.69.28h2.82c-.08,0-.14-.2-.19-.44a3.61,3.61,0,0,0-.37-1,9.74,9.74,0,0,0-.54-.9,7,7,0,0,0-.79-.9Zm13.15,14.18c-1.27.35-2.57.67-3.89,1-.53.1-1,.19-1.52.26v3.23h5l1.12-1.45c.59.48,1.14,1,1.65,1.45a.31.31,0,0,1,.21.28c0,.29-.13.44-.39.44h-7.63v3.41h7.18l1.12-1.47c.63.5,1.21,1,1.75,1.47a.37.37,0,0,1,.21.31.34.34,0,0,1-.39.39H374.21c-1.08,0-1.82,0-2.21.1l-.49-1.13a9.06,9.06,0,0,0,2.7.33h7.38v-3.41h-4.95c-1.09,0-1.83.05-2.24.1L374,322.4a9.6,9.6,0,0,0,2.68.31h4.95v-3c-.78.1-1.56.2-2.34.28-1.4.17-3.16.3-5.29.39l-.09-.54c1.13-.07,2.34-.18,3.63-.34a33.22,33.22,0,0,0,3.57-.59c1.23-.24,2.27-.49,3.13-.73a14,14,0,0,0,2.17-.77,8.84,8.84,0,0,0,1.3-.67c.55.39,1,.77,1.45,1.13a.39.39,0,0,1,.12.24c0,.2-.09.31-.26.31A4.4,4.4,0,0,1,388.14,318.26Zm-3-14.26c1.47.31,2.21.62,2.21.93s-.43.35-1.28.39a11.29,11.29,0,0,1-.51,1.13h4.68l1-1c.56.48,1,.9,1.4,1.27a.52.52,0,0,1,.21.41c0,.12-.13.25-.4.39a2.63,2.63,0,0,1-.93.41,23.31,23.31,0,0,1-1.84,3.77,11,11,0,0,1-1.59,2.1,15.84,15.84,0,0,1-1.91,1.49,15.54,15.54,0,0,1-2.26,1.27,12.25,12.25,0,0,1-2.76,1l-.16-.38a17.76,17.76,0,0,0,2.75-1.25c.56-.32,1.26-.76,2.1-1.31l.07-.08a.41.41,0,0,1-.16,0,.76.76,0,0,1-.4-.13,1.43,1.43,0,0,1-.33-.6,8.52,8.52,0,0,0-1-1.83,12,12,0,0,0-1.26-1.37,13.58,13.58,0,0,1-1.8,1.55l-.28-.49c.65-.66,1.17-1.2,1.56-1.63a10,10,0,0,0,1.17-1.78,14.18,14.18,0,0,0,1-2.1A16.45,16.45,0,0,0,385.16,304Zm-2,6.28a9.26,9.26,0,0,1,1.84,1.37,4.8,4.8,0,0,1,1,1.26,2,2,0,0,1,.23.91.83.83,0,0,1-.12.51,12.72,12.72,0,0,0,1.68-1.62c.19-.26.37-.53.54-.8a.44.44,0,0,1-.3.12,1.41,1.41,0,0,1-.52-.1,1.32,1.32,0,0,1-.42-.54,7.43,7.43,0,0,0-1.26-1.6,8.7,8.7,0,0,0-1.51-1.12A10.25,10.25,0,0,1,383.13,310.28Zm1.44-2a11.77,11.77,0,0,1,2.29,1.17,4.83,4.83,0,0,1,1.33,1.08,1.19,1.19,0,0,1,.3.78.94.94,0,0,1-.09.46,12.58,12.58,0,0,0,.79-1.42,13.86,13.86,0,0,0,1.26-3.18h-5.22c-.21.38-.42.73-.63,1.06A.09.09,0,0,0,384.57,308.31Z" transform="translate(-139.06 -301.78)"/><path class="cls-1" d="M179.18,339.4a10,10,0,0,0,2.73.31h15.67l1.22-1.58c.63.52,1.24,1,1.82,1.55.15.09.23.19.23.31,0,.29-.13.44-.4.44h-8.6a18.37,18.37,0,0,1-1.29,2.87,2.55,2.55,0,0,0-.18.28v2.35a26.69,26.69,0,0,1,3.71,2,22,22,0,0,1,2.82,2.14,7.35,7.35,0,0,1,1.44,1.45,2.41,2.41,0,0,1,.59.93,3.47,3.47,0,0,1,.11.75c0,.29-.08.44-.25.44a1.06,1.06,0,0,1-.59-.21,4.27,4.27,0,0,1-1-1,14.6,14.6,0,0,0-2-2.25,22.53,22.53,0,0,0-2.35-2.17c-.73-.54-1.53-1.07-2.4-1.6v12.81a4.57,4.57,0,0,0,0,.78c0,.31.05.56.05.75,0,.57-.24.85-.72.85s-.59-.15-.59-.44,0-.83.05-1.39,0-1.13,0-1.58V345.42c-.17.26-.34.51-.49.75a31.2,31.2,0,0,1-2.64,2.94c-.93.88-1.9,1.73-2.91,2.54a39.65,39.65,0,0,1-4.13,2.42l-.26-.54A25.88,25.88,0,0,0,183,350.9a22.51,22.51,0,0,0,3.31-3.18,19.47,19.47,0,0,0,4.25-7.29h-8.63c-1.11,0-1.85.05-2.24.1Z" transform="translate(-139.06 -301.78)"/><path class="cls-1" d="M221.82,337.72c.82.34,1.54.67,2.15,1a.58.58,0,0,1,.16.36c0,.21-.15.35-.44.41a3.62,3.62,0,0,1-.77.13q-.48,2.59-1,5c0,.16-.07.29-.1.39l1.12-.05c1-.05,2-.12,2.94-.18,0-.54.07-1.06.07-1.55v-1a11.29,11.29,0,0,1,1.89.49.34.34,0,0,1,.26.36c0,.11-.13.24-.38.39a7.27,7.27,0,0,1-.65.34c0,.33,0,.64-.07.93.56-.05,1.09-.1,1.59-.13V345l-1.66.26a20.62,20.62,0,0,1-.77,3.92,25.1,25.1,0,0,1-2,5.1,9.54,9.54,0,0,1,1.24,1,10.38,10.38,0,0,1,1.51,1.58,2,2,0,0,1,.47.87,2.85,2.85,0,0,1,.16,1c0,.43-.16.65-.49.65-.12,0-.36-.25-.7-.75a13.25,13.25,0,0,0-1.86-2.25l-1-1a18.34,18.34,0,0,1-2.08,2.89,17.8,17.8,0,0,1-4,3.36L217,361a17.66,17.66,0,0,0,4-3.67,16.26,16.26,0,0,0,1.73-2.53,18.9,18.9,0,0,0-3.76-2.4l0,0-.1-.08a1.81,1.81,0,0,0-.35-.13l0-.08,0,0c.52-1.34.95-2.61,1.31-3.79.17-.68.35-1.38.54-2.12l-2.24.26q-.37.93-.54.93c-.05,0-.12-.06-.21-.19a17.72,17.72,0,0,1-.91-2.09c1.4,0,2.79,0,4.18-.08,0-.08,0-.15,0-.2.27-1.28.49-2.47.68-3.59S221.71,339,221.82,337.72Zm1.49,16a2.37,2.37,0,0,0,.19-.34,26.55,26.55,0,0,0,1.82-5.35,22.49,22.49,0,0,0,.47-2.63c-.72.1-1.43.2-2.13.28l-2.17.34c-.29,1-.58,1.85-.86,2.66-.37,1-.81,2-1.31,3a13.08,13.08,0,0,1,3.27,1.58C222.84,353.44,223.08,353.58,223.31,353.74Zm5.76-13.44,1.43,1.14h5.67l.67-.8c.79.53,1.19.91,1.19,1.13s-.21.41-.63.7V358c.16.16.3.28.42.39a.21.21,0,0,1,.12.18c0,.26-.06.39-.17.39h-7.48v1.47c0,.21-.15.31-.45.31a1.3,1.3,0,0,1-.53-.15.75.75,0,0,1-.24-.6c0-.29,0-.69.07-1.19a16,16,0,0,0,.12-2.5V342.06A7.08,7.08,0,0,0,229.07,340.3Zm1.22,17.91h6v-16h-6Z" transform="translate(-139.06 -301.78)"/><path class="cls-1" d="M255.69,351.83a8.16,8.16,0,0,1,1.63,1,.29.29,0,0,1,.14.25c0,.09-.08.17-.25.24a2.8,2.8,0,0,1-.68.15c-.19.43-.39.85-.61,1.24a7.46,7.46,0,0,1-.72,1.17,8.45,8.45,0,0,1-.79,1.11c-.31.36-.63.7-1,1l-.3-.31a12,12,0,0,0,.95-1.55,12.41,12.41,0,0,0,.73-1.52c.23-.56.42-1.06.58-1.53S255.63,352.21,255.69,351.83Zm1.77-15.29a6,6,0,0,1,.75.67,4,4,0,0,1,.58.62,1.74,1.74,0,0,1,.33.54,1.08,1.08,0,0,1,.09.44,1.85,1.85,0,0,1-.14.8.73.73,0,0,1-.09.13h2.19l.93-1c.49.36.94.72,1.36,1.08a.29.29,0,0,1,.16.23c0,.28-.09.42-.28.42h-2c.47.27.88.53,1.24.77a.33.33,0,0,1,.14.26c0,.12-.08.21-.23.26a4.1,4.1,0,0,1-.71.18c-.13.36-.28.72-.42,1.09a9,9,0,0,1-.53,1,7.33,7.33,0,0,1-.61,1c-.12.17-.25.34-.37.49h1.26l.93-1q.72.57,1.35,1.11a.3.3,0,0,1,.17.23c0,.3-.1.44-.31.44h-4.1v3.59h2.45l.93-1c.47.38.9.75,1.31,1.11a.29.29,0,0,1,.16.23c0,.3-.08.44-.26.44h-4.59v8a3.51,3.51,0,0,0,.05.78,7.27,7.27,0,0,1,0,.75c0,.55-.24.82-.72.82s-.58-.12-.58-.38,0-.86,0-1.42.05-1.13.05-1.58v-6.93h-1.87c-1.09,0-1.83.06-2.24.11l-.44-1.14a10.17,10.17,0,0,0,2.68.28H258v-3.59h-1.56a22.1,22.1,0,0,0-2.27.11l-.44-1.14a10.31,10.31,0,0,0,2.71.28h.14a1.68,1.68,0,0,1-.17-.67,9.05,9.05,0,0,0-.3-1.5c-.14-.48-.29-.94-.44-1.37a10.05,10.05,0,0,0-.66-1.39l.07-.05c-.34,0-.61,0-.81.05l-.47-1.14a9.62,9.62,0,0,0,2.73.31h1.82c0-.1-.06-.22-.09-.34a6.66,6.66,0,0,0-.26-.9c-.12-.29-.25-.57-.37-.83a4.73,4.73,0,0,0-.56-.85Zm-.3,9h2.12a13.12,13.12,0,0,0,.59-1.31c.17-.45.33-.91.49-1.37l.37-1.4c.06-.36.11-.69.14-1h-4.34c-.37,0-.69.05-1,.05.24.36.45.73.66,1.11a6.31,6.31,0,0,1,.65,1.22,3.91,3.91,0,0,1,.37,1,3,3,0,0,1,.12.83,1.76,1.76,0,0,1-.14.75C257.2,345.48,257.17,345.5,257.16,345.5Zm3.2,6.72c.42.36.8.72,1.14,1.06s.61.64.81.88a3.66,3.66,0,0,1,.42.54,4.92,4.92,0,0,1,.15.47,1.13,1.13,0,0,1,.06.36c0,.57-.19.85-.53.85a.26.26,0,0,1-.21-.1,6.51,6.51,0,0,1-.4-.91,7,7,0,0,0-.7-1.37,10.35,10.35,0,0,0-1.05-1.47Zm4.29-15.09,1.37,1.16h6.91l.77-1.16a4.59,4.59,0,0,1,1.21,1.11.62.62,0,0,1,.16.36c0,.16-.27.43-.81.83V348c0,1.3,0,2.14,0,2.54s.05.9.05,1.21a.71.71,0,0,1-.26.57,1.36,1.36,0,0,1-.49.13c-.32,0-.49-.1-.49-.31v-.29h-1.65v6.31a1.48,1.48,0,0,0,.09.57.59.59,0,0,0,.33.36,5.88,5.88,0,0,0,1.19.08,7.84,7.84,0,0,0,1.14-.08.5.5,0,0,0,.33-.26,1.61,1.61,0,0,0,.14-.59,28.66,28.66,0,0,0,.21-2.87l.39.08v2.27a1.44,1.44,0,0,0,.14.7,1.53,1.53,0,0,0,.49.49.4.4,0,0,1,.19.39.83.83,0,0,1-.07.26.75.75,0,0,1-.4.38,2.06,2.06,0,0,1-1,.26,9.16,9.16,0,0,1-1.28.1,9.68,9.68,0,0,1-1.66-.1,1.47,1.47,0,0,1-.81-.23,1,1,0,0,1-.44-.49,2,2,0,0,1-.12-.62v-7H268.4a13.93,13.93,0,0,1-.46,2.2,5.86,5.86,0,0,1-.89,2.07,8.38,8.38,0,0,1-1.28,1.83,9.24,9.24,0,0,1-1.8,1.48,15.21,15.21,0,0,1-2.68,1.31l-.3-.44a12.24,12.24,0,0,0,2.58-1.49,11.5,11.5,0,0,0,1.59-1.48,11.91,11.91,0,0,0,1-1.55,7.11,7.11,0,0,0,.74-1.91,20.52,20.52,0,0,0,.38-2h-1.47v.29c0,.21-.15.31-.45.31a1.44,1.44,0,0,1-.53-.13.82.82,0,0,1-.21-.57c0-.31,0-.71,0-1.21a16.41,16.41,0,0,0,.12-2.54v-9.09A8.32,8.32,0,0,0,264.65,337.13Zm1.19,5.27h7.27V339h-7.27Zm0,4.14h7.27v-3.39h-7.27Zm0,4.54h7.27v-3.79h-7.27Z" transform="translate(-139.06 -301.78)"/><path class="cls-1" d="M301.06,337.54q2.16.48,2.16.93c0,.19-.41.32-1.23.38a11.8,11.8,0,0,1-1.7,2.07h8l.73-1.11a5.07,5.07,0,0,1,1.23,1.09.48.48,0,0,1,.19.33c0,.17-.31.45-.93.83v9.12a15.7,15.7,0,0,0,1.12-1.27,16.08,16.08,0,0,0,2.4-3.3,19.47,19.47,0,0,1,1.72,1c.16.14.24.25.24.34s-.13.2-.38.28a3,3,0,0,1-.93.16,46.17,46.17,0,0,1-4.17,4.39v6.88A1.72,1.72,0,0,1,309,361a2.33,2.33,0,0,1-1,.68,2.62,2.62,0,0,1-1.05.25,1.07,1.07,0,0,0-.32-.85,2.91,2.91,0,0,0-1.22-.54,9.63,9.63,0,0,0-2.17-.36v-.6a22.45,22.45,0,0,0,3.92.39,2.57,2.57,0,0,0,1-.13c.19-.1.28-.33.28-.67v-5.48a33.48,33.48,0,0,1-4,2.69,36.45,36.45,0,0,1-11.82,4.73l-.16-.39q4-1.17,6-2a33.16,33.16,0,0,0,4.1-2.09,33.53,33.53,0,0,0,4.32-3.08c.56-.46,1.07-.91,1.54-1.34v0a50.33,50.33,0,0,1-5.69,1.19c-2.24.48-4.2.85-5.88,1.09-1,.2-1.88.36-2.61.46-.25.69-.45,1-.59,1a9,9,0,0,1-.84-2.28c.6,0,1.71-.07,3.34-.21.37,0,.76-.05,1.17-.1V341.57a7.59,7.59,0,0,0-.19-1.76l1.4,1.11h1.12a5.49,5.49,0,0,0,1-1.52A10.09,10.09,0,0,0,301.06,337.54Zm-2.69,7.21h10.08v-3.08H298.37Zm0,3.92h10.08v-3.2H298.37Zm0,4.58c1.22-.12,2.52-.31,3.92-.57,2-.28,4.11-.66,6.16-1.14v-2.12H298.37Z" transform="translate(-139.06 -301.78)"/><path class="cls-1" d="M332.41,338l1.37.82h3.57L338,338c.81.55,1.22.93,1.22,1.13s-.23.43-.68.73v5.4h.09l.68-.75a12.9,12.9,0,0,1,1,.93v-6.18l1.37.8h1.71v-.69a13.23,13.23,0,0,0-.1-1.86,12.48,12.48,0,0,1,1.54.33c.16.07.23.16.23.26a.25.25,0,0,1-.18.23,2.13,2.13,0,0,1-.47.31v1.42h2.12v-.69a13.61,13.61,0,0,0-.09-1.86,12.11,12.11,0,0,1,1.56.33c.16.07.24.16.24.26a.25.25,0,0,1-.17.23,2.17,2.17,0,0,1-.51.31v1.42h2l.68-.8c.79.54,1.19.92,1.19,1.14s-.22.4-.66.7v5.58c0,.33-.24.54-.72.65-.27,0-.4-.07-.4-.21v-.44h-8.18v.34a.42.42,0,0,1-.28.36,2.19,2.19,0,0,1-.59.13c-.17,0-.25-.1-.25-.29v-1.11l-.07,0-.7.15a6.21,6.21,0,0,1-.49.73c-.21.25-.41.49-.61.69l-.28-.2a5.67,5.67,0,0,0,.33-.8,6.38,6.38,0,0,0,.21-.73h-7a3.11,3.11,0,0,1-.07.47,4.61,4.61,0,0,1-.23,1.11,1.82,1.82,0,0,1-.3.72.87.87,0,0,1-.24.29.31.31,0,0,1-.21.07c-.36,0-.53-.16-.53-.49a.39.39,0,0,1,.07-.23,5.57,5.57,0,0,0,.58-1,3.56,3.56,0,0,0,.42-1.06,13.19,13.19,0,0,0,.23-1.6h.35c0,.36,0,.68,0,1h.61Zm-.1,9.43,1.28.93h3.67l.53-.85c.89.6,1.33,1,1.33,1.24s-.21.38-.65.54v10.41a1.25,1.25,0,0,1-.26.81,1.75,1.75,0,0,1-.63.64,2.66,2.66,0,0,1-.91.44,2.59,2.59,0,0,0-.14-1,.68.68,0,0,0-.32-.33,3.31,3.31,0,0,0-1.1-.49v-.49a3.4,3.4,0,0,0,1.56.49q.42,0,.54-.18a.81.81,0,0,0,.14-.52v-4.29c-.23.14-.45.26-.65.36l-1.08.52a8.34,8.34,0,0,1-1,.41c-.15.55-.27.83-.35.83s-.39-.48-.84-1.45c0,.14,0,.28,0,.42a17.34,17.34,0,0,1-.26,2,13.05,13.05,0,0,1-.44,1.56,7.23,7.23,0,0,1-.61,1.21,6.79,6.79,0,0,1-.91,1l-.3-.2a6.35,6.35,0,0,0,.56-1c.12-.31.24-.64.35-1a11.23,11.23,0,0,0,.3-1.37,18.29,18.29,0,0,0,.21-1.83c.06-.83.1-1.77.1-2.82C332.41,351,332.37,349,332.31,347.46Zm1.15,7.62c.46-.07.88-.14,1.25-.23s.91-.21,1.4-.36l1.24-.36v-1.22a.4.4,0,0,1-.28.13.8.8,0,0,1-.35-.13,14.62,14.62,0,0,0-1.91-.93,5.43,5.43,0,0,0-1.31-.41v2C333.5,354.1,333.49,354.62,333.46,355.08Zm0-9.79h1.4v-4.55l1.42.83h1.12v-2H333.5Zm0,5.68a14.87,14.87,0,0,1,1.84.24,3.87,3.87,0,0,1,1.33.41,1.3,1.3,0,0,1,.63.49s.05.06.05.08v-3.1H333.5Zm2.54-5.68h1.4v-3H336Zm4.95,5.37,1.4.83h6.72l.63-.83q1.23.81,1.23,1.14c0,.17-.22.41-.65.72V355q.23.21.42.36a.18.18,0,0,1,.12.16c0,.29-.07.44-.19.44h-2.19a9.58,9.58,0,0,1,1.21.74.36.36,0,0,1,.14.29c0,.1-.08.18-.23.23a3.14,3.14,0,0,1-.7.18c-.11.28-.24.55-.38.83a4.1,4.1,0,0,1-.44.8c-.16.24-.33.49-.54.75a3.4,3.4,0,0,1-.21.28h3l.93-1c.47.38.9.75,1.31,1.11a.3.3,0,0,1,.16.26c0,.26-.09.39-.28.39H341.71c-1.09,0-1.83.05-2.24.1l-.44-1.14a9.24,9.24,0,0,0,2.68.31h1.78a2.68,2.68,0,0,1-.17-.51,10.55,10.55,0,0,0-.61-1.79,7.36,7.36,0,0,0-.79-1.31.26.26,0,0,1-.11.07,1.68,1.68,0,0,1-.54.13.24.24,0,0,1-.28-.28Zm-1.59-2.27a10.31,10.31,0,0,0,2.71.28h8l.94-1,1.33,1.11a.31.31,0,0,1,.14.23c0,.3-.09.44-.26.44H342.11a21.67,21.67,0,0,0-2.26.11Zm2.06-5.38h2v-2.17h-2Zm0,3h2v-2.27h-2Zm.65,9.2h7.09v-3h-7.09Zm2.1,4.83h2.49a8.18,8.18,0,0,0,.49-1.08,8.06,8.06,0,0,0,.4-1.14c.12-.41.23-.79.3-1.14a5.11,5.11,0,0,0,.17-.74h-5.83a6,6,0,0,1,1.26,1.42,5.68,5.68,0,0,1,.69,1.21,2.5,2.5,0,0,1,.17.88A1,1,0,0,1,344.21,360Zm.23-19.2V343h2.12v-2.17Zm0,5.17h2.12v-2.27h-2.12Zm3.15-5.17V343h2.05v-2.17Zm0,5.17h2.05v-2.27h-2.05Z" transform="translate(-139.06 -301.78)"/><path class="cls-1" d="M370.24,354h.25V355a13.68,13.68,0,0,1-.07,1.45,4.86,4.86,0,0,1-.21,1.13,2.73,2.73,0,0,1-.28.68,1,1,0,0,1-.3.33.56.56,0,0,1-.26.08c-.37,0-.56-.13-.56-.39a.87.87,0,0,1,.21-.49,4.88,4.88,0,0,0,.68-1.24,4.25,4.25,0,0,0,.37-1.08A9.5,9.5,0,0,0,370.24,354Zm6.62-16.15c.47.38.91.75,1.33,1.11a.31.31,0,0,1,.14.23c0,.3-.08.44-.26.44H374.6V343h1.12l.84-.95c.45.36.86.7,1.23,1,.13.05.19.12.19.21,0,.29-.1.44-.3.44H374.6v3.18h1.12l.84-.91a14.43,14.43,0,0,1,1.23,1c.13.07.19.15.19.23q0,.39-.3.39H374.6v3.51h1.61l.84-.8a7.6,7.6,0,0,1,1.21.91.67.67,0,0,1,.16.33c0,.21-.31.44-.93.7a44.74,44.74,0,0,1-.42,4.52,17.84,17.84,0,0,1-.61,2.85,3,3,0,0,1-.65,1.19,4.46,4.46,0,0,1-.84.74,1.32,1.32,0,0,1-.63.24,1.27,1.27,0,0,0-.16-.7,6.25,6.25,0,0,0-2-1.09l.09-.49a8.79,8.79,0,0,0,2.21.6A1.14,1.14,0,0,0,375,360a.63.63,0,0,0,.3-.36,5.59,5.59,0,0,0,.42-1.17,19.2,19.2,0,0,0,.37-2.45c.13-1.05.21-2.43.26-4.14h-4.94v.29q0,.33-.45.33a1.3,1.3,0,0,1-.53-.15.84.84,0,0,1-.21-.57c0-.31,0-.71,0-1.21a16.41,16.41,0,0,0,.12-2.54V339.5a9.33,9.33,0,0,0-.16-1.78l1.37,1.13h4.32Zm-5.15,15.94a4.64,4.64,0,0,1,.42,1,4.59,4.59,0,0,1,.25,1.11,6.78,6.78,0,0,1,.07,1,3,3,0,0,1-.09.77.65.65,0,0,1-.28.37.53.53,0,0,1-.28.13c-.25,0-.37-.15-.37-.44a2.11,2.11,0,0,1,.07-.47,4.76,4.76,0,0,0,0-1.16,11.69,11.69,0,0,0-.18-2.17ZM373.48,343V339.6h-2.05V343Zm0,3.91v-3.18h-2.05v3.18Zm-2.05,4.23h2.05v-3.51h-2.05Zm1.7,2.18a7.09,7.09,0,0,1,.49.82,2.8,2.8,0,0,1,.42.75,2.07,2.07,0,0,1,.23.62,2,2,0,0,1,0,1.22.52.52,0,0,1-.46.33c-.05,0-.09,0-.12-.13a.93.93,0,0,1-.09-.49c-.05-.32-.11-.65-.19-1a8.46,8.46,0,0,0-.23-.9,6.19,6.19,0,0,0-.4-.91Zm1.37-.21a4.37,4.37,0,0,1,.89.88,2.69,2.69,0,0,1,.42.72,1.07,1.07,0,0,1,.12.49c0,.55-.17.83-.49.83a.19.19,0,0,1-.14-.08,1.82,1.82,0,0,1-.12-.39,8.22,8.22,0,0,0-.39-1.11,9.52,9.52,0,0,0-.54-.93Zm6.56.31a7.24,7.24,0,0,1,1.63.46c.22.07.33.16.33.26s-.13.23-.37.34a6.81,6.81,0,0,1-.66.18c-.22.72-.42,1.32-.6,1.78a8.51,8.51,0,0,1,.81.62,7.57,7.57,0,0,1,.82.65,2.16,2.16,0,0,1,.4.46,1.7,1.7,0,0,1,.16.34.55.55,0,0,1,.07.28c0,.5-.16.75-.44.75a.31.31,0,0,1-.21-.07,4,4,0,0,1-.42-.73,6.91,6.91,0,0,0-.7-1.08,9.45,9.45,0,0,0-.7-.73,15,15,0,0,1-1.05,1.73,9.42,9.42,0,0,1-1.29,1.48c-.46.39-1,.85-1.7,1.37l-.28-.55a15.15,15.15,0,0,0,1.33-1.29,6.91,6.91,0,0,0,.93-1.24,13.62,13.62,0,0,0,.89-1.52,16.2,16.2,0,0,0,.68-1.84A12.76,12.76,0,0,0,381.06,353.43Zm2.8-15.82a9.83,9.83,0,0,1,1.84.57.29.29,0,0,1,.21.29c0,.15-.15.27-.44.36a2.2,2.2,0,0,1-.61.1,9,9,0,0,0,1.31,1.78,15.36,15.36,0,0,0,1.75,1.63,15,15,0,0,0,2,1.29,8.14,8.14,0,0,0,1.79.7v.42a1.59,1.59,0,0,0-1.56.72,6.81,6.81,0,0,1-1.68-1.11,8.68,8.68,0,0,1-1.4-1.45,16.94,16.94,0,0,1-1.35-1.63,15.66,15.66,0,0,1-1.24-2,9.74,9.74,0,0,1-.67,1.29,17.34,17.34,0,0,1-1.26,1.63c-.52.59-1,1.09-1.43,1.5a3,3,0,0,1-.42.34,9.47,9.47,0,0,1-1.07.88,14.59,14.59,0,0,1-1.82,1.19l-.37-.55a11.77,11.77,0,0,0,2-1.42c.55-.5,1.09-1,1.64-1.63a21.3,21.3,0,0,0,1.4-1.78,8.6,8.6,0,0,0,.86-1.58A8.42,8.42,0,0,0,383.86,337.61Zm-4.95,9.1,1.4.83h2.22l.68-.83c.79.55,1.18.93,1.18,1.14s-.21.44-.65.75v3.77l.47.39a.23.23,0,0,1,.09.18c0,.26-.05.39-.16.39H380v.43c0,.16-.1.28-.3.37a1.86,1.86,0,0,1-.54.13.26.26,0,0,1-.28-.29Zm1.12,5.92h2.59v-4.34H380Zm.63-8.56a11.12,11.12,0,0,0,2.71.26h2l.95-1c.47.38.91.75,1.31,1.11a.29.29,0,0,1,.16.23c0,.3-.09.44-.28.44h-4.1a20.87,20.87,0,0,0-2.22.11Zm6.56,9.36a8.39,8.39,0,0,1,1.65.46c.21.07.31.16.31.26s-.12.23-.35.34-.49.14-.68.18a13.14,13.14,0,0,1-.84,2.2,1,1,0,0,1-.12.23,10.73,10.73,0,0,1,1.24.88,9.67,9.67,0,0,1,1.21,1,7.84,7.84,0,0,1,.66.67,2.94,2.94,0,0,1,.25.55,1,1,0,0,1,.1.46c0,.55-.2.83-.54.83a.45.45,0,0,1-.3-.13,4.46,4.46,0,0,1-.63-1,11.83,11.83,0,0,0-1.12-1.62c-.31-.35-.69-.73-1.12-1.14a10.72,10.72,0,0,1-.8,1.19,9,9,0,0,1-1.39,1.55c-.49.39-1.09.86-1.82,1.39l-.31-.54a15.82,15.82,0,0,0,1.47-1.34,7.57,7.57,0,0,0,1-1.27,11.2,11.2,0,0,0,1.7-3.44A12.06,12.06,0,0,0,387.22,353.43Zm-1.89-6.72,1.4.83h2.35l.63-.83c.83.55,1.24.93,1.24,1.14s-.23.44-.68.75v3.77l.45.39c.09.05.14.11.14.18q0,.39-.21.39h-4.2v.33a.39.39,0,0,1-.26.36,1.66,1.66,0,0,1-.58.13.24.24,0,0,1-.28-.28Zm1.12,5.92h2.73v-4.34h-2.73Z" transform="translate(-139.06 -301.78)"/><path d="M418,329.23,403.85,314h28.3ZM406.15,315,418,327.77,429.85,315Z" transform="translate(-139.06 -301.78)"/><path d="M431.93,315H404.07l4.66-7h18.54Zm-26-1h24.14l-3.34-5H409.27Z" transform="translate(-139.06 -301.78)"/><polygon points="278.48 26.91 272.73 12.91 269.5 6.95 270.38 6.48 273.63 12.48 279.41 26.52 278.48 26.91"/><polygon points="284.92 13.52 278.23 7.43 273.32 13.04 272.57 12.39 278.15 6 284.64 11.91 287.5 6.48 288.39 6.95 284.92 13.52"/><rect x="413.38" y="321" width="15.23" height="1" transform="translate(-179.57 279.73) rotate(-66.76)"/></svg>