<?xml version="1.0" encoding="utf-8"?>
<!-- Generator: Adobe Illustrator 22.0.1, SVG Export Plug-In . SVG Version: 6.00 Build 0)  -->
<svg version="1.1" id="圖層_1" xmlns="http://www.w3.org/2000/svg" xmlns:xlink="http://www.w3.org/1999/xlink" x="0px" y="0px"
	 viewBox="0 0 270.1 66.3" style="enable-background:new 0 0 270.1 66.3;" xml:space="preserve">
<style type="text/css">
	.st0{stroke:#000000;stroke-width:0.75;stroke-miterlimit:10;}
</style>
<title>橫式-天生麗質</title>
<path class="st0" d="M35.3,2.8c0.5-0.5,0.8-0.3,1.2,0.5l0.7,1.4c0,0.4-0.2,0.7-0.6,1.1c-0.5,0.7-1.3,1.7-2.2,3.1
	c-0.3,0.5-0.5,0.9-0.5,1.4c0.1,8,0,14.8-0.2,20.4c0,0.3-0.1,0.5-0.4,0.7c-0.3,0.1-0.5-0.2-0.8-0.8c-0.6-0.9-0.7-1.8-0.5-2.5
	c0.4-1,0.5-2.8,0.5-5.3c0-3.5,0-7.1-0.1-10.6c0-0.5-0.3-0.5-0.7,0.2c-1.4,1.7-2.8,3.1-4.2,4.3c-0.4,0.4-0.7,0.5-1,0.3
	c-0.2-0.4,0-0.8,0.5-1.2C32.1,10.8,34.9,6.4,35.3,2.8z M42.3,3.5c0-0.6,0.1-0.9,0.3-0.9c0.3,0,0.6,0.2,0.9,0.5
	c1,0.5,1.3,1.4,0.9,2.5c-0.1,0.9-0.2,1.9-0.2,3l-0.1,3.6c0,0.5,0.3,0.7,1,0.6c1.8-0.2,3.3-0.6,4.4-1c0.4-0.1,0.8,0,1.2,0.4
	c0.7,0.6,0.8,1,0.4,1.3c-0.1,0.1-0.3,0.1-0.5,0.1c-1.9,0.2-3.8,0.5-5.8,0.8c-0.5,0.1-0.7,0.4-0.7,0.9l0,13.1c0,1.3-0.1,2.2-0.4,2.7
	c-0.5,0.2-0.9-0.1-1.2-0.9c-0.4-0.7-0.5-1.4-0.4-2.1c0.4-2.1,0.5-6.3,0.5-12.5c0-0.5-0.3-0.7-0.9-0.7c-2.1,0.3-3.6,0.5-4.5,0.7
	c-0.8,0.2-1.4-0.2-2-1.1c0-0.1,0.3-0.3,0.9-0.4c0.6,0,1.4-0.1,2.4-0.3c1.1-0.2,2.2-0.4,3.4-0.5c0.5-0.1,0.7-0.3,0.7-0.8
	C42.7,8.8,42.6,5.8,42.3,3.5z"/>
<path class="st0" d="M72.8,2.4C73,2,73.5,2.2,74,2.9c1.4,1.1,2,2.1,1.6,3c-0.3,0.5-0.1,0.8,0.4,0.7c2.2-0.3,4.3-0.7,6.2-1.1
	C82.6,5.3,83,5.5,83.5,6c0.4,0.4,0.4,0.7,0.2,0.9c-2.2,0.1-3.9,0.3-5.2,0.6c-0.4,0.1-0.5,0.3-0.3,0.6c0.2,0.3,0.2,0.8,0.1,1.5
	c-0.1,0.3-0.1,0.6-0.1,0.9c0,0.5,0.3,0.7,0.9,0.5c0.7-0.1,1.3-0.3,2.1-0.3c0.8-0.3,1.3-0.2,1.7,0.2c0.5,0.3,0.6,0.5,0.2,0.8
	c-0.1,0.1-0.2,0.1-0.5,0.2c-1.2,0.1-2.5,0.3-3.7,0.6c-0.5,0.1-0.7,0.5-0.7,1.1c0,2.2,0,4.5,0,6.8c-0.2,0.3-0.4,0.2-0.7-0.1
	c-0.6-0.8-0.8-1.4-0.6-2l0-4.5c0-0.6-0.3-0.9-1-0.8c-0.5,0-0.9-0.1-1.4-0.5c-0.1-0.1-0.1-0.1-0.2,0c-0.1,0.1-0.3,0.1-0.4,0.2
	c-0.7,0.1-1.3,0.2-2,0.3c-0.5,0.1-0.7,0.5-0.7,1.1c0,2.1,0,4.3,0,6.5c-0.2,0.3-0.4,0.3-0.7-0.2c-0.7-0.9-0.8-1.8-0.5-2.6l0-3.7
	c0-0.5-0.3-0.7-0.9-0.6c-0.7,0.3-1.5,0.2-2.2-0.4c-0.1-0.1-0.1-0.2-0.1-0.3c0.1-0.2,0.4-0.3,1-0.3l1.3-0.3c0.5-0.1,0.8-0.4,0.7-1
	l-0.1-1.7c-0.1-0.5-0.4-0.7-1-0.7c-0.4,0-0.8,0.1-1.2,0.2c-0.6,0.1-0.8,0.4-0.8,0.8c0,2.9-0.3,5.9-0.7,8.8c-0.1,0.6,0.1,0.6,0.6-0.1
	c1.1-1.6,1.7-3.1,1.7-4.5l0.2-0.2c0.4,0,0.7,0.5,1.1,1.3c0,0.1-0.2,0.5-0.5,1.1c-0.7,1.4-1.6,2.8-2.7,4c-0.5,0.4-0.7,0.7-0.8,1.1
	c-0.7,3.3-2.1,6.4-4.2,9.3c-0.3,0.4-0.5,0.6-0.7,0.7c-0.4,0-0.5-0.2-0.5-0.5c2.5-4,4-8.2,4.5-12.6c0.6-4.2,0.7-8.1,0.4-11.6
	c0-0.4,0-0.7,0-0.8c0.4-0.4,0.7-0.2,0.9,0.3l0.3,0.6c0.2,0.6,0.7,0.9,1.3,0.9l6.5-0.8c0.6-0.1,0.7-0.3,0.4-0.8
	c-0.6-1.3-1.2-2.4-1.8-3.3L72.8,2.4z M72.5,20.2c0.3-0.7,0.5-1.1,0.6-1.2c0.2,0,0.4,0.2,0.7,0.9c0.2,0.7,0.2,1.1,0.1,1.2
	c-0.7,0.4-1.4,1.1-2.1,2c-0.5,0.5-0.4,0.8,0.2,0.7l2.1-0.4c0.5-0.1,0.8-0.3,1.1-0.6c0.4-0.5,0.7-1,1-1.5c0.3-0.6,0.5-0.9,0.6-0.8
	c0.4,0.3,0.7,0.9,0.8,1.8c0,0.1-0.4,0.5-1,0.9c-1.6,1.8-3.2,3.4-4.8,4.8c-0.6,0.5-0.6,0.8,0,0.7c1.8-0.3,3.7-0.7,5.5-1.1
	c0.5-0.1,0.4-0.5-0.1-1.1c-0.9-0.8-1.1-1.4-0.6-1.8c0.2,0,0.5,0.2,0.9,0.4c1.1,0.8,2.2,1.8,3.5,3.2c0.3,0.4,0.4,0.9,0.3,1.5
	c-0.2,0.6-0.3,1-0.4,1c-0.2,0.1-0.5-0.2-0.8-0.8c-0.5-1.2-1.1-1.7-1.7-1.4c-3.9,0.6-7,1.3-9.4,2.1c-0.1,0-0.3-0.1-0.5-0.3
	c-0.8-0.7-0.7-1.2,0.3-1.5c1.3-0.8,2.6-2,4.2-3.6c0.4-0.5,0.3-0.7-0.3-0.6c-1,0.2-2,0.5-3.1,1.1c-0.3,0-0.5-0.1-0.7-0.5
	c-0.3-0.5-0.2-0.8,0.3-1C70.7,23.2,71.8,21.8,72.5,20.2z M76.7,8.5c0-0.5-0.4-0.7-1-0.6l-3.9,0.5c-0.5,0.1-0.7,0.2-0.5,0.4
	c0.4,0.4,0.4,0.9,0.1,1.5l0,0.6c-0.1,0.6,0.2,0.8,0.8,0.6l0.6-0.1c0.6-0.1,1.1-0.1,1.3,0.1c0.3,0.3,0.4,0.4,0.5,0.3l1.7-0.2
	c0.4-0.1,0.6-0.4,0.6-1.1C76.9,9.9,76.8,9.2,76.7,8.5z M72.1,14.4c0-0.7,0-1,0.1-1.1c0.6,0.1,1,0.5,1.3,1.2
	c-0.1,1.1-0.2,2.1-0.2,3.2c0,0.6-0.1,1-0.2,1.1c-0.1,0.1-0.4-0.1-0.7-0.5c-0.3-0.4-0.4-0.7-0.3-1.1V14.4z M75.4,14.2
	c0-0.6,0.1-1,0.3-1.1c0.3-0.1,0.6,0.2,0.9,0.8c0.4,0.4,0.4,0.8-0.1,1.2c-0.7,1.9-1.6,3.1-2.8,3.7c-0.1,0-0.3-0.1-0.3-0.2
	c0-0.1,0.2-0.5,0.6-1.1C74.8,16.4,75.2,15.3,75.4,14.2z M79.3,12.7c0.3-0.3,0.7,0,1.3,0.7c0.1,0.2,0.1,0.4,0.1,0.6
	c-0.2,0.7-0.3,1.5-0.2,2.5c0.1,0.7,0.4,1,0.8,1c0.5-0.1,0.8-0.4,0.9-1.1c-0.1-1,0-1.5,0.6-1.5c0.1,0.1,0.2,0.4,0.3,1.1l0.3,1.4
	c0.1,0.6,0.1,1,0.1,1.1c-0.2,0.2-0.6,0.3-1.1,0.3c-1.1,0.1-1.9,0-2.5-0.3c-0.3-0.3-0.5-0.6-0.5-1.1V14
	C79.2,13.2,79.2,12.8,79.3,12.7z"/>
<path class="st0" d="M112.7,4.2c0.5-0.1,0.8-0.1,0.9-0.1c0.7,0.4,1,0.9,1,1.4c-0.1,0.1-0.4,0.2-1,0.3c-1.5,0.1-3.3,0.4-5.4,0.7
	c-0.6,0.1-0.7,0.3-0.6,0.5c0.3,0.4,0.3,0.7,0.1,1.1l-0.5,4c-0.1,0.6,0.1,0.8,0.5,0.7c2.7-0.5,5.4-1,8.2-1.5c0.8-0.4,1.5,0,2.1,1.1
	c0,0.5-0.3,0.7-1,0.7c-2.6,0.3-5.4,0.7-8.4,1.1c-0.6,0.1-0.7,0.4-0.4,0.8c2.2,3.9,4.2,7.2,6.1,9.7c0.9,1,2.1,1.7,3.8,2.1
	c0.8,0.2,1.2,0.4,1.3,0.5c0.1,0.2,0,0.4-0.3,0.6l-4.4,0.3c-0.2,0-0.4-0.2-0.7-0.7c-1.1-1.9-2.1-3.6-3-5c-1.3-2.2-2.6-4.5-3.8-6.8
	c-0.3-0.6-0.5-0.6-0.6-0.1c-0.7,4.4-3.2,8.3-7.6,11.7c-1,0.7-2.2,1.4-3.6,2c-0.3,0.2-0.5,0.2-0.7-0.1c-0.1-0.1,0.2-0.4,0.8-0.9
	c3-1.8,5.6-4.3,7.9-7.6c0.9-1.9,1.5-3.7,1.9-5.4c0.1-0.5-0.1-0.8-0.7-0.7c-2.1,0.2-4,0.5-5.8,0.8c-0.6,0.2-1,0.2-1.2,0.2
	c-0.2-0.1-0.4-0.2-0.6-0.3c-0.4-0.2-0.6-0.4-0.7-0.5c-0.2-0.2-0.1-0.4,0.1-0.6c2.9-0.3,5.8-0.7,8.6-1.1c0.4-0.1,0.7-0.4,0.8-1.1
	c0.2-1.7,0.3-3.1,0.3-4.4c0-0.6-0.4-0.9-1-0.8c-1.2,0.1-2.4,0.3-3.6,0.5c-0.5,0.3-1.1,0.2-1.6-0.2c-0.6-0.5-0.8-0.8-0.7-1
	c0.2-0.1,0.5-0.2,0.9-0.2C103.9,6.1,108.1,5.4,112.7,4.2z"/>
<path class="st0" d="M140,2.1c0.3,0,0.8,0.2,1.3,0.7c0.6,0.5,0.9,0.9,1,1.2c-0.1,0.4-0.2,0.8-0.3,1.2c-0.1,1.9-0.2,4.4-0.2,7.6
	c0,0.5,0.3,0.7,1,0.6l4.4-0.8c0.6-0.2,1.1-0.3,1.5-0.2c1.2,0.9,1.3,1.5,0.4,1.7c-1.9,0.2-4.1,0.5-6.5,0.9c-0.5,0.1-0.7,0.4-0.7,0.9
	v3.5c0,0.5,0.3,0.7,1,0.6c1.6-0.2,3-0.5,4.4-0.8c0.8,0.2,1.3,0.8,1.3,1.5c-0.1,0.1-0.5,0.2-1.1,0.3c-1.6,0.2-3.3,0.4-4.9,0.6
	c-0.5,0.1-0.7,0.4-0.7,0.9v4.7c0,0.5,0.3,0.7,0.9,0.6c3.3-0.3,5.6-0.6,6.9-0.9c0.1,0,0.2,0,0.4-0.1c0.6-0.1,1.3,0.1,2,0.7
	c0.6,0.8,0.3,1.2-0.7,1.1c-6.4,0.5-12.8,1.1-19.2,1.8c-0.8,0.2-1.4,0.1-1.8-0.2c-0.7-0.4-0.9-0.8-0.4-1.2c2.7-0.1,6-0.4,9.9-0.8
	c0.5,0,0.7-0.3,0.7-0.8v-4.7c0-0.5-0.3-0.7-0.9-0.7l-2.7,0.4c-0.6,0.2-1.4,0.1-2.2-0.4c-0.3-0.3-0.4-0.5-0.4-0.6
	c0.1-0.2,0.5-0.3,1.2-0.4c1.4-0.1,2.9-0.3,4.3-0.5c0.5-0.1,0.7-0.4,0.7-0.9v-3.5c0-0.5-0.3-0.7-0.9-0.7c-1.3,0.1-2.4,0.3-3.3,0.5
	c-0.6,0.2-1.1,0.1-1.6-0.2c-0.3-0.2-0.6,0-0.9,0.6c-1,1.9-1.9,3.5-2.8,5c-0.2,0.5-0.5,0.6-0.8,0.2c-0.1-0.2,0-0.5,0.2-0.8
	c2.6-4.4,4.2-8.5,4.8-12.4c-0.1-0.8,0-1.3,0.4-1.4c0.1,0,0.4,0.3,0.9,0.9c0.4,0.5,0.5,1.1,0.2,1.8l-1.7,4c-0.2,0.5,0,0.7,0.6,0.7
	c1.1-0.1,2.5-0.3,4.2-0.6c0.5,0,0.8-0.4,0.8-1c0.1-4.7-0.1-8.1-0.7-10.3C139.9,2.4,139.9,2.2,140,2.1z"/>
<path class="st0" d="M173.5,11.2c0.1-0.1,0.4,0,1,0.4c0.8,0.6,1.2,1.1,1.1,1.5c0,0.2,0.3,0.3,0.9,0.2c1.9-0.4,3.9-0.7,5.9-1
	c0.6,0.4,0.9,0.7,1,1.1c-0.1,0.4-0.5,0.5-1.2,0.4c-1.2,0.1-2.3,0.2-3.5,0.4c-0.5,0.1-0.7,0.2-0.7,0.4l-0.3,1.1
	c-0.1,0.5,0.2,0.7,0.8,0.6l1.2-0.2c0.7,0.1,1.2-0.2,1.4-1c0.5-0.2,1,0.2,1.5,1.1c-0.4,0.7-0.6,1.3-0.7,1.8c-0.1,0.5,0,0.9,0.3,1.1
	c0.3,0.3,0.5,0.6,0.4,0.9c-0.1,0.1-0.4,0.2-1,0.3c-1,0.1-2,0.2-3,0.3c-0.6,0.1-0.8,0.3-0.6,0.5c0.3,0.3,0.3,0.7,0.1,1.4
	c-0.1,0.4-0.1,0.8-0.1,1.2c0,0.5,0.3,0.5,0.9,0.2c0.8-0.5,1.5-1.1,2-1.8c0.3-0.5,0.6-0.8,0.8-1c0.1,0,0.4,0.2,0.8,0.9
	c0.5,0.6,0.3,1-0.5,1.3c-1.1,0.7-2.3,1.4-3.4,2.1c-0.5,0.2-0.7,0.7-0.7,1.3c0,0.6,0.1,1.1,0.3,1.3c0.3,0.2,0.8,0.3,1.6,0.3
	c1.5,0.1,2.7,0,3.5-0.2c0.5-0.2,0.7-0.5,0.8-1.1c0.1-1.3,0.1-2.5-0.1-3.8c0.1-0.6,0.3-0.7,0.7-0.6c0.1,0.1,0.2,0.5,0.3,1.1
	c0.3,1.8,0.6,3.4,0.9,4.6c0.1,0.5-0.2,0.8-0.7,0.9c-2.6,0.4-4.9,0.5-6.9,0.2c-1.1-0.4-1.7-1.2-1.7-2.3l0-5.7c-0.1-0.5-0.4-0.7-1-0.6
	l-3.6,0.5c-0.6,0.1-0.8,0.2-0.7,0.3c0.1,0.2,0.1,0.6,0,1.2c-0.1,0.6,0.1,0.9,0.7,0.8l2.1-0.5c0.4-0.2,0.8-0.2,1.2,0.3
	c0.3,0.2,0.4,0.4,0.4,0.7c-0.1,0.1-0.4,0.2-1,0.3c-1,0.1-2,0.3-2.8,0.5c-0.5,0.1-0.7,0.5-0.7,1v0.7c0,0.6,0.4,0.8,1,0.6l2.7-0.9
	c0.5-0.2,0.8-0.2,1,0.1c0.1,0.2,0,0.5-0.2,0.7c-1.9,0.8-3.6,1.6-4.9,2.4c-0.8,0.7-1.4,0.5-1.9-0.9c0.1-0.2,0.3-0.4,0.5-0.4
	c0.4-0.1,0.5-0.3,0.5-0.6c0.3-1.3,0.3-3.1,0.1-5.3c-0.1-0.5-0.4-0.7-1-0.6c-0.6-0.1-1,0.2-1.1,0.8c-0.7,3.1-2.5,5.8-5.4,8.1
	c-0.8-0.3-0.7-0.9,0.5-1.7c1.5-1.6,2.5-3.3,3.2-5c1.1-3.7,1.4-7.3,0.9-10.9c0-0.4,0.1-0.6,0.4-0.7c0.3,0,0.5,0.2,0.6,0.5
	c0.2,0.6,0.7,0.9,1.3,0.8c1.4-0.2,2.8-0.4,4.1-0.5c0.5-0.1,0.7-0.3,0.6-0.8c-0.1-0.3-0.2-0.7-0.4-1
	C173.4,11.8,173.3,11.5,173.5,11.2z M172.1,3.2C172.6,3,173,3,173.2,3c0.5,0.2,0.8,0.5,0.8,1.1c-0.1,0.1-0.4,0.3-1,0.4
	c-1.9,0.1-3.8,0.5-5.9,1c-0.9,0.1-1.6-0.2-1.9-0.8c0.1-0.3,0.4-0.5,0.9-0.5C168,3.9,170,3.6,172.1,3.2z M171.9,5.7
	c0.2-0.4,0.5-0.4,0.8-0.2c0.9,0.4,1,0.9,0.4,1.7c-0.1,0.2-0.1,0.6-0.1,1.1c0,2-0.1,3.4-0.4,4.2c-0.3,0.3-0.6,0.2-0.9-0.2
	c-0.3-0.5-0.4-1-0.2-1.4c0.2-0.8,0.3-1.7,0.4-2.8c0-0.5-0.3-0.7-0.9-0.6c-0.7,0.1-1.4,0.2-2,0.4c-0.5,0.1-0.8,0.5-0.8,1.1
	c0,1.7,0,3-0.2,3.7c-0.1,0.3-0.3,0.3-0.5,0.2c-0.6-0.5-0.8-1.1-0.7-1.9c0.2-0.7,0.2-2.2,0-4.4c0.2-0.3,0.4-0.2,0.7,0.1
	c0.2,0.2,0.6,0.2,1.2,0.1C170.2,6.4,171.3,6.1,171.9,5.7z M169,19c-0.3-0.2-0.4-0.1-0.5,0.5l-0.1,0.7c-0.1,0.6,0.1,0.8,0.7,0.7
	l1.9-0.2c0.5-0.1,0.7-0.4,0.7-0.9c0-0.5-0.3-0.8-0.9-0.7c-0.2,0-0.4,0-0.7,0.1C169.5,19.1,169.1,19.1,169,19z M170.6,15.4l-0.3,0
	c-0.3,0-0.7,0.1-1,0.2c-0.5,0.1-0.7,0.5-0.7,1.1v0.5c0,0.5,0.3,0.7,0.9,0.6l1.4-0.2c0.5-0.1,0.7-0.4,0.7-1.1c0-0.2,0-0.3,0-0.5
	C171.6,15.6,171.2,15.4,170.6,15.4z M169,8.1c0.1-0.2,0.5,0,1.1,0.6c0.8,0.7,1.1,1.4,0.8,1.9c-0.4,0.6-0.6,0.9-0.7,0.8
	c-0.2,0-0.3-0.3-0.4-0.7c-0.1-0.4-0.2-0.8-0.4-1.2C169.1,8.8,168.9,8.4,169,8.1z M175.4,18.3c-0.6,0.1-1.2,0.2-1.8,0.3
	c-0.5,0.1-0.7,0.4-0.7,1c0,0.5,0.3,0.8,0.8,0.6l1.5-0.2c0.5-0.1,0.8-0.4,0.9-0.9C176.2,18.5,176,18.2,175.4,18.3z M175.5,14.8
	c-0.5,0-1.1,0.1-1.8,0.2c-0.5,0.1-0.7,0.2-0.6,0.3c0,0.2,0,0.7-0.1,1.2c0,0.5,0.3,0.7,0.9,0.6c0.6-0.1,1.1-0.2,1.8-0.3
	c0.5-0.1,0.8-0.4,0.8-1.1v-0.4C176.4,15,176.1,14.7,175.5,14.8z M182.9,2.3c0.7-0.2,1.2,0.1,1.5,1.1c-0.2,0.3-0.8,0.5-1.6,0.5
	c-2.1,0.3-4.1,0.6-6,1.1c-0.5,0.1-0.9,0.1-1.2,0c-0.5-0.1-0.8-0.4-0.9-0.8c0-0.2,0.3-0.4,1-0.5C178.3,3.3,180.7,2.9,182.9,2.3z
	 M181.5,5.3c0.5-0.6,1-0.5,1.7,0.4c0,0.1-0.1,0.5-0.4,1.1c-0.1,0.2-0.1,0.4-0.1,0.6c0.1,1.3,0,2.6-0.2,3.8c-0.1,0.6-0.3,0.8-0.6,0.8
	c-0.2-0.1-0.4-0.4-0.7-1c-0.1-0.4-0.1-0.9,0.2-1.5c0.1-0.7,0.2-1.4,0.2-2.3c0-0.5-0.3-0.7-0.8-0.6c-1,0.1-1.9,0.3-2.9,0.5
	c-0.5,0.1-0.7,0.4-0.7,0.9c0.1,1.6,0,3-0.2,4.3c-0.2,0.2-0.5,0.2-0.8-0.2c-0.4-0.5-0.5-1-0.4-1.4c0.2-0.9,0.3-2.2,0.1-3.8
	c-0.1-0.7-0.1-1.2,0-1.3c0.1-0.1,0.3,0,0.5,0.2c0.3,0.2,0.7,0.3,1.3,0.2c1-0.2,2-0.4,2.9-0.5C180.9,5.6,181.2,5.5,181.5,5.3z
	 M180,17.5l-0.6,0.1l-1.2,0.2c-0.6,0.1-0.8,0.4-0.9,1c0,0.6,0.2,0.9,0.8,0.8c0.5-0.1,1.1-0.2,1.6-0.3c0.5-0.1,0.8-0.5,0.9-1
	C180.8,17.7,180.6,17.4,180,17.5z M177.8,7.9l0.2-0.2c0.1,0,0.4,0.3,1.1,0.9c0.7,0.7,0.9,1.4,0.7,2c-0.2,0.5-0.4,0.7-0.6,0.8
	c-0.2,0-0.4-0.4-0.7-1.2L178.1,9C177.9,8.3,177.8,8,177.8,7.9z"/>
<path class="st0" d="M206.3,3.2c0.6-0.8,1.2-0.7,1.7,0.3c0.3,0.5,0.1,0.9-0.7,1.2c-1.5,0.4-3.1,0.8-4.6,1.3
	c-0.5,0.1-0.8,0.5-0.8,1.1c-0.1,0.7,0.1,0.9,0.7,0.9c1.4-0.3,2.9-0.5,4.4-0.7c0.7-0.1,1.1-0.1,1.4,0.2c0.5,0.4,0.6,0.7,0.3,1
	c-0.8,0-1.5,0.1-2.3,0.2c-0.6,0.1-0.8,0.4-0.9,1l-0.1,4.9c-0.2,0.3-0.6,0.2-1-0.2c-0.4-0.4-0.6-0.9-0.4-1.3c0.2-0.6,0.3-1.6,0.2-2.9
	c0-0.7-0.3-1-0.9-1l-1.3,0.2c-0.4,0.1-0.7,0.4-0.9,1.1c-0.7,2.4-2.2,4.3-4.5,5.7c-0.2,0-0.4-0.1-0.4-0.3c0-0.2,0.3-0.5,0.9-1.1
	c1.4-1.3,2.4-2.8,2.9-4.7c0.5-1.7,0.6-3.5,0.5-5.3c0-0.6,0-1,0.1-1.1c0.4-0.2,0.6-0.1,0.8,0.5c0.3,0.7,0.7,0.9,1.3,0.7
	C204.1,4.4,205.2,3.8,206.3,3.2z M211.6,4.6c2.3-0.6,4.2-1.4,5.6-2.4c0.2,0,0.5,0.3,1,0.9c0.5,0.6,0.3,1-0.5,1.1
	c-2,0.5-3.9,0.9-5.9,1.5c-0.5,0.1-0.8,0.5-0.8,1.1l-0.1,0.5c0,0.5,0.2,0.7,0.8,0.7c2.3-0.3,4.6-0.6,6.9-1c0.6-0.1,1.1,0,1.4,0.2
	c0.4,0.4,0.5,0.6,0.5,0.7c-0.1,0.1-0.5,0.3-1,0.3c-1.3,0.1-2.7,0.2-4,0.5c-0.5,0.1-0.7,0.4-0.7,1.1c0,1.1,0,2.2,0,3.4
	c0,0.6,0.1,1,0.3,1.2c0.4,0.2,0.4,0.5,0.1,0.9c-0.3,0.3-0.4,0.8-0.4,1.5l-0.6,7.4c0,0.4-0.1,0.6-0.4,0.7c-0.1,0-0.3-0.2-0.6-0.6
	c-0.2-0.4-0.6-0.6-1.2-0.6c-1.4,0.1-2.7,0.3-4.1,0.5c-0.5,0.1-0.7,0.2-0.6,0.4c0.1,0.2,0.1,0.5,0,0.8c-0.4,0.3-0.9,0.6-1.3,1
	c-1.8,1.6-3.8,3.1-6,4.3c-0.6,0.3-1,0.4-1.1,0.4c-0.2-0.1-0.2-0.3-0.1-0.6c0.8-0.6,1.7-1.2,2.5-1.8c1.7-1.2,3.1-2.4,4-3.5
	c0.4-0.5,0.2-0.8-0.4-0.7c-0.6,0.1-0.9,0.3-1,0.5c0,0.6-0.2,0.7-0.7,0.5c-0.6-0.7-0.8-1.3-0.7-1.7c0.4-1.1,0.4-3.2,0.1-6.4l-0.1-1.9
	c0-0.8,0-1.2,0.2-1.3c0.3-0.1,0.6,0.2,0.7,0.7c0.2,0.5,0.6,0.8,1.2,0.6l6.8-1c0.6-0.1,1.2-0.2,1.7-0.4c0.3-0.3,0.4-0.5,0.2-0.8
	c-0.1-0.3-0.2-0.6-0.1-1.1c0.1-0.7,0.2-1.6,0.1-2.7c0-0.6-0.4-0.9-1-0.8l-1.1,0.1c-0.5,0.1-0.8,0.5-1,1.1c-0.7,2.1-1.8,3.7-3.5,4.8
	c-0.7-0.3-0.6-0.8,0.4-1.5c1.2-1.3,1.9-2.9,2.2-5c0.1-1.4,0.1-3.1-0.1-5.2c0.1-0.3,0.3-0.4,0.6-0.2c0.1,0.1,0.2,0.4,0.5,0.8
	C210.8,4.6,211.1,4.8,211.6,4.6z M212.6,16.1c-2.6,0.4-5.2,0.8-7.9,1.1c-0.5,0.1-0.7,0.3-0.7,0.7c0,0.4,0.3,0.5,0.9,0.5
	c1.9-0.2,3.8-0.5,5.7-0.8c0.7-0.4,1.3-0.3,1.9,0.3c0.2,0.3,0.2,0.5,0.1,0.6c-0.1,0.1-0.4,0.2-1,0.2c-2.3,0.3-4.6,0.6-6.8,1
	c-0.5,0.1-0.7,0.3-0.7,0.7c0,0.4,0.3,0.5,0.9,0.5l4.5-0.6c0.7,0,1.2-0.1,1.5-0.2c0.6-0.1,1,0,1.3,0.2c0.4,0.3,0.5,0.6,0.3,0.9
	c-0.1,0.1-0.4,0.1-1,0.2l-6.8,0.8c-0.5,0.1-0.7,0.4-0.7,0.7c0,0.4,0.2,0.6,0.7,0.6l4.6-0.5c1.1-0.1,1.9-0.2,2.4-0.4
	c0.4-0.2,0.8-0.2,1.1,0c0.1,0.1,0.2-0.2,0.4-0.8c0.2-1.3,0.3-2.9,0.3-4.8C213.5,16.4,213.2,16.1,212.6,16.1z M209.8,24.9
	c0.1-0.4,0.4-0.4,0.8-0.2c1.5,0.8,3.1,1.9,4.8,3.1c0.8,0.5,1.1,1.1,1,1.9c0,0.5-0.1,0.8-0.2,1c-0.1,0.1-0.5-0.2-1.2-0.9
	c-1.5-1.7-3-3-4.4-4.1C210,25.5,209.8,25.2,209.8,24.9z"/>
<path class="st0" d="M12.2,50.9c0.3-0.4,0.7-0.2,1.1,0.6c0.2,0.5,0.3,0.9,0.3,1c-0.1,0.2-0.4,0.6-1,1.1c-0.7,0.8-1.4,1.6-2,2.4
	c-1.6,1.9-3.4,3.7-5.5,5.3c-0.5,0.5-1,0.7-1.3,0.7c-0.1-0.1-0.2-0.2-0.2-0.3c0.3-0.5,1.1-1.4,2.4-2.5C9.7,55.7,11.8,52.9,12.2,50.9z
	 M20.7,37.5c0.4-0.7,0.9-0.8,1.4-0.2c0.4,0.5,0.5,1.1,0.1,1.8c-0.5,1.6-1,3.9-1.4,6.7c-0.1,0.5,0,0.9,0.3,1c0.6,0.4,0.8,0.8,0.6,1.1
	c-0.1,0.1-0.2,0.1-0.4,0.2c-2,0.2-5.2,0.5-9.4,1.1c-0.5,0.1-0.7,0.3-0.7,0.6c0.1,0.4,0,0.7-0.3,1c-0.1,0.1-0.5-0.3-1-1.1
	c-0.5-0.7-0.6-1.4-0.2-1.9c0.4-2.9,0.4-5.7-0.1-8.4c-0.2-0.6-0.1-1.1,0.3-1.3c0.3-0.1,0.5,0.1,0.6,0.6c0.1,0.4,0.5,0.5,1.1,0.4
	c1.6-0.2,4.5-0.7,8.7-1.4C20.4,37.8,20.6,37.7,20.7,37.5z M19.6,39.5c-2.7,0.4-5.3,0.7-7.9,1.2c-0.5,0.1-0.7,0.5-0.7,1.1l0.2,5.4
	c0,0.5,0.4,0.7,1,0.6l6.2-0.9c0.5-0.1,0.8-0.4,0.9-1.1c0.3-1.9,0.7-3.8,1-5.7C20.4,39.6,20.2,39.4,19.6,39.5z M17.7,51.1
	c0.1-0.1,0.4,0.1,1,0.5c1.5,1.3,3.3,3.1,5.3,5.4c0.6,0.4,0.8,1.1,0.7,1.9c0.1,0.6,0,1.1-0.3,1.4c-0.1,0.1-0.5-0.3-1.1-1
	c-1.4-2.2-3.2-4.7-5.5-7.4C17.6,51.6,17.6,51.3,17.7,51.1z"/>
<path class="st0" d="M58.2,47c0.6-0.2,1-0.3,1.3-0.2c0.8,0.5,1.1,1,1.1,1.5c-0.1,0.1-0.5,0.2-1.1,0.3c-2.9,0.3-5.8,0.6-8.7,1.1
	c-0.5,0.1-0.7,0.4-0.7,0.9v2.1c0,0.5,0.3,0.7,0.9,0.6c2.1-0.4,3.6-0.7,4.5-1c0.4-0.1,0.8,0.2,1.3,0.9c0,0.5-0.4,0.7-1.1,0.6
	c-1.6,0.3-3.2,0.6-4.9,0.9c-0.5,0.1-0.7,0.5-0.7,1c0,0.8,0,1.6,0,2.4c0,0.6,0.3,1,1,1.3c3,1.3,5.2,2,6.8,2l3-0.1c0.6,0,0.9,0,1,0.1
	c0,0.7-0.4,1-1.2,1c-2.4,0.7-4.1,1-4.9,1.1c-0.2,0-0.5-0.2-1-0.5c-3.1-1.8-6.7-3.7-10.7-5.7c-0.5-0.2-1-0.1-1.4,0.5
	c-1.5,2.1-3.2,3.9-5.2,5.4c-0.4,0.2-0.7,0.4-0.8,0.4c-0.5,0-0.6-0.2-0.3-0.7c4.5-4.1,7.1-7.8,7.6-11c0.1-0.4,0.2-0.5,0.5-0.5
	c0.3,0.1,0.6,0.5,0.8,1.2c0.1,0.7,0,1.3-0.5,1.8L44.4,55c-0.3,0.6-0.2,1,0.2,1.2c1.1,0.6,2.2,1.2,3.4,1.7c0.5,0.3,0.8,0.2,0.8-0.3
	v-6.8c0-0.5-0.3-0.7-0.9-0.6c-3.5,0.4-6.2,0.8-8.1,1.1c-0.6,0.2-1,0.2-1.2-0.1c-0.3-0.2-0.7-0.5-1-0.8c-0.2-0.1-0.1-0.3,0.1-0.6
	c0.8,0,1.7-0.1,2.5-0.2c5.9-0.7,10.7-1.4,14.4-1.9C56.1,47.5,57.3,47.3,58.2,47z M54.1,35.1c0.4-0.5,0.9-0.4,1.4,0.4
	c0.3,0.4,0.2,0.7-0.1,0.9c-0.1,0.1-0.2,0.5-0.4,1c-0.3,1.8-0.5,3.6-0.7,5.4c-0.1,0.5,0.1,0.8,0.4,1.1c0.3,0.3,0.4,0.5,0.5,0.7
	c0,0.2-0.4,0.3-1,0.4c-2.9,0.4-5.6,0.8-8,1.3c-0.5,0.1-0.8,0.4-0.9,0.7c-0.1,0.4-0.2,0.6-0.3,0.7c-0.4,0-0.6-0.3-0.8-0.8
	c-0.6-0.9-0.7-1.7-0.3-2.5c0.3-1.5,0.4-3.4,0.2-5.9c-0.2-1.1-0.2-1.9-0.2-2.4c0.1-0.3,0.2-0.4,0.4-0.4c0.2,0,0.4,0.3,0.6,0.7
	c0.2,0.5,0.5,0.7,1,0.6c2.3-0.5,4.6-0.9,7-1.3C53.4,35.7,53.8,35.5,54.1,35.1z M52.9,37.2c-2.2,0.4-4.5,0.7-6.7,1.1
	c-0.5,0.1-0.7,0.4-0.7,0.9v1.1c0,0.6,0.3,0.9,0.9,0.8c1.7-0.3,3.2-0.6,4.5-0.9c0.6-0.4,1.2-0.2,1.7,0.7c0,0.1-0.1,0.3-0.1,0.3
	c-2,0.4-4.1,0.8-6.1,1.2c-0.5,0.1-0.8,0.4-0.8,0.9v0.7c0,0.6,0.3,0.8,1,0.7l5.7-0.9c0.5-0.1,0.8-0.5,0.9-1.1
	c0.2-1.7,0.4-3.4,0.7-5.1C53.8,37.3,53.5,37.1,52.9,37.2z"/>
<path class="st0" d="M82.4,34.4c0.3-0.2,0.7-0.1,1.2,0.4c0.8,0.6,1.2,1.1,1.1,1.6c-0.2,1.7-0.2,4,0.2,6.8c0.1,0.6,0.3,0.8,0.8,0.7
	c1.3-0.2,2.6-0.5,4-1c0.4-0.2,0.8-0.1,1.2,0.2c0.5,0.5,0.7,0.9,0.7,1.1c-0.1,0.2-0.5,0.3-1.3,0.4c-1.4,0.2-2.9,0.4-4.3,0.7
	c-0.5,0.1-0.7,0.5-0.6,1.1c0.3,1.7,0.6,3.3,1,4.8c0.1,0.5,0.4,0.5,0.9-0.2C88,50,88.6,49,89,48.2c0.2-0.8,0.4-1.2,0.5-1.3
	c0.2-0.2,0.4-0.1,0.6,0.2c0.5,1.2,0.6,1.9,0.3,2.4c-0.7,0.5-1.7,1.6-2.9,3.2c-0.4,0.5-0.5,1-0.2,1.7c0.9,2.9,2.6,5.1,4.9,6.8
	c0.1,0,0.2-0.3,0.4-0.9c0.1-1,0.2-2.1,0.2-3.1c0.1-0.6,0.1-1,0.2-1.1c0.3-0.1,0.4,0,0.5,0.2c0.1,2.4,0.3,4.5,0.6,6.5
	c0.1,0.8,0.1,1.2-0.1,1.3c-0.1,0.1-0.3,0.1-0.6,0.1c-0.8-0.2-1.6-0.7-2.4-1.5c-2.5-2.2-4.1-4.6-5-7.1c-0.2-0.5-0.6-0.5-1.2,0.1
	c-1.6,1.6-3.1,2.7-4.4,3.2c-0.2,0-0.3-0.1-0.4-0.3c-0.1-0.3,0.3-0.7,1.2-1.2c1.2-0.9,2.4-1.9,3.5-3.2c0.4-0.5,0.5-1,0.4-1.7
	c-0.5-1.8-0.9-3.7-1.1-5.8c0-0.5-0.4-0.7-1-0.6l-3.3,0.6c-0.5,0.1-0.8,0.4-0.8,0.8v2.1c0,0.6,0.3,0.8,1,0.5c1-0.5,1.7-0.7,2.2-0.8
	c0.4,0.1,0.5,0.2,0.4,0.5c-0.1,0.2-0.4,0.5-0.9,0.7c-0.6,0.3-1.2,0.6-1.7,0.9c-0.5,0.3-0.8,0.7-0.8,1.3c0.1,3.8,0,6.9-0.4,9.2
	c-0.1,1.2-0.6,1.3-1.5,0.4c-0.8-0.9-1.6-1.8-2.5-2.7c-0.6-0.6-0.8-1-0.8-1.1c0.1-0.3,0.2-0.4,0.5-0.4l2.3,1.6
	c0.5,0.3,0.8,0.1,0.8-0.6c0.1-1.7,0.2-3.6,0.2-5.8c0-0.5-0.3-0.6-0.9-0.3c-1.1,0.5-2.2,1.1-3.3,1.7c-0.6,0.6-1.2,0.5-1.8-0.1
	c-0.5-0.4-0.7-0.7-0.7-0.8c0.1-0.2,0.5-0.4,1.1-0.5c2-0.7,3.6-1.3,4.8-1.9c0.5-0.2,0.7-0.6,0.7-1.1v-2.6c0-0.5-0.3-0.7-0.9-0.6
	c-0.7,0.1-1.4,0.2-2.1,0.4c-0.9,0.4-1.7,0.4-2.4,0c-0.4-0.1-0.7-0.4-0.7-0.7c0.1-0.1,0.4-0.3,1-0.4c1.5-0.2,3-0.4,4.5-0.7
	c0.4-0.1,0.6-0.4,0.6-1c0-0.9,0-1.8,0-2.7c0-0.6-0.3-0.8-1-0.6l-3.2,1.3c-0.8,0.4-1.3,0.4-1.5-0.2c0.1-0.3,0.3-0.5,0.6-0.6
	c3.1-1.4,5.4-2.6,6.9-3.8c0.5-0.9,1-1.1,1.4-0.6c0.7,0.6,1.1,1,1.1,1.2c0,0.2-0.4,0.4-1,0.7c-0.4,0.1-0.8,0.3-1.3,0.5
	c-0.5,0.3-0.7,0.7-0.7,1.1c0,1.2,0,2.3,0,3.5c0,0.5,0.3,0.7,0.9,0.6l3.2-0.6c0.5-0.1,0.7-0.4,0.6-1.1c-0.2-1.5-0.3-3.1-0.4-4.6
	c-0.1-1.4-0.4-2.6-0.8-3.7C82.3,34.9,82.3,34.7,82.4,34.4z M86.8,37.5c0.1-0.2,0.4-0.1,1,0.2c0.8,0.5,1.5,0.9,2.1,1.5
	c0.6,0.5,0.9,0.8,0.9,1.1c0,0.9-0.1,1.4-0.5,1.6c-0.1,0-0.4-0.3-0.9-0.9c-0.5-0.7-1-1.4-1.7-2.1C87,38.3,86.7,37.8,86.8,37.5z"/>
<path class="st0" d="M110.3,35c0.5-0.4,1,0,1.6,1.1c0.4,0.5,0.5,0.9,0.2,1.2c-0.3,0.4-0.8,1.2-1.4,2.5c-0.5,0.8-0.8,1.5-0.7,2
	c0,8.9-0.1,15.7-0.3,20.6c0,0.6-0.1,1-0.2,1.1c-0.2,0.3-0.5,0.2-0.7-0.2c-0.8-1.2-0.9-2.3-0.5-3.2c0.2-0.7,0.3-1.4,0.3-2.2
	c0-4.6,0-9.2,0-13.8c0-0.5-0.2-0.5-0.6,0.2c-0.4,0.7-0.9,1.4-1.4,2.1c-0.6,0.8-1.3,1.7-2,2.5c-0.4,0.5-0.7,0.8-0.9,1
	c-0.2,0.1-0.4,0-0.5-0.2c0-0.3,0.2-0.8,0.8-1.4c2.5-3.3,4.4-6.6,5.7-9.9c0.4-0.8,0.5-1.6,0.5-2.4C110.2,35.4,110.2,35.1,110.3,35z
	 M118,37.3c0.5-0.4,1-0.5,1.3-0.2c0.3,0.3,0.4,0.8,0.2,1.4c-0.3,1.8-0.5,4-0.7,6.5c0,0.6,0,0.9,0.2,1.1c0.4,0.3,0.5,0.6,0.4,0.8
	c-0.1,0.1-0.4,0.2-1,0.2c-1.1,0.1-2.1,0.3-3.2,0.6c-0.5,0.1-0.7,0.5-0.7,1c0,4.2,0,8.5,0.1,12.8c0,0.7,0,1.1-0.1,1.2
	c-0.1,0.2-0.3,0.3-0.5,0.2c-0.9-1.1-1.3-2.2-1-3.4c0.2-9.7,0.1-16.8-0.1-21.3c-0.1-0.4-0.1-0.8,0.1-1.1c0.3-0.2,0.7,0.1,1,0.8
	l0.2,0.5c0.1,0.1,0.4,0,1-0.1C116.3,38,117.2,37.7,118,37.3z M117.1,39.1l-0.2,0.1l-1.6,0.3c-0.5,0.1-0.7,0.4-0.7,0.9v1
	c0,0.5,0.3,0.7,0.9,0.5l0.7-0.2c0.7-0.1,1.1-0.1,1.3,0.1c0.2,0.3,0.4,0.1,0.5-0.5c0-0.6,0.1-1.2,0.1-1.8
	C118,39.1,117.7,38.9,117.1,39.1z M117.7,43.5c0-0.5-0.2-0.7-0.8-0.5c-0.5,0.1-1.1,0.2-1.6,0.4c-0.5,0.1-0.7,0.4-0.7,0.9v1.4
	c0,0.5,0.3,0.7,0.9,0.6l1.4-0.2c0.5-0.1,0.7-0.5,0.8-1.1C117.6,44.4,117.6,44,117.7,43.5z M125.9,36.3c0.6-0.7,1.2-0.5,1.9,0.6
	c0,0.1-0.1,0.3-0.2,0.4c-0.2,0.2-0.2,0.5-0.2,1l0.1,21.3c0,0.8-0.1,1.7-0.2,2.5c0,0.6-0.2,1-0.6,1.3c-0.1,0-0.4-0.3-1-0.9
	c-0.9-0.9-1.8-1.7-2.7-2.3c-0.7-0.5-1-0.8-1-0.9c-0.1-0.3,0-0.5,0.4-0.6c0.1,0,0.3,0.1,0.7,0.4l2.2,1.3c0.5,0.2,0.8,0,0.9-0.7
	c0.1-2.1,0.1-6.3,0.1-12.6l0-0.3c0-0.5-0.3-0.7-0.9-0.5c-0.7,0.1-1.4,0.3-2,0.5c-0.5,0.1-0.8,0.3-0.8,0.5c0,0.4-0.1,0.6-0.3,0.7
	c-0.1,0-0.4-0.1-0.7-0.5c-0.4-0.7-0.5-1.4-0.3-1.8c0.2-0.9,0.3-2.8,0.1-5.7c0-0.5,0-1.1-0.1-1.8c0-0.6,0-1.1,0-1.7
	c0.1-0.1,0.2-0.2,0.3-0.2c0.2,0,0.3,0.2,0.5,0.5c0.2,0.4,0.6,0.5,1.2,0.4C124.3,37.1,125.2,36.8,125.9,36.3z M125.9,42.6
	c0-0.4-0.3-0.6-1-0.4l-1.9,0.5c-0.5,0.1-0.7,0.5-0.7,1.1l0,1c0,0.5,0.3,0.7,0.9,0.5l2-0.5c0.5-0.1,0.7-0.5,0.7-1.1V42.6z
	 M124.8,38.2l-0.6,0.2c-0.3,0-0.7,0.1-1,0.2c-0.5,0.1-0.7,0.4-0.7,0.9v1.2c0,0.5,0.3,0.7,0.9,0.5c0.6-0.2,1.2-0.3,1.8-0.4
	c0.2,0,0.4,0.1,0.6,0.2c0.2,0.1,0.3-0.1,0.3-0.6v-1.8C125.9,38.2,125.5,38,124.8,38.2z"/>
<path class="st0" d="M155.5,42.5c0.4-0.6,0.8-0.6,1.3,0c0.5,0.3,0.6,0.6,0.3,1c-0.3,0.5-0.5,1.3-0.6,2.5l-0.2,2.3
	c0,0.5,0.3,0.6,1,0.5c0.8-0.1,1.9-0.3,3.4-0.6c0.4-0.2,0.8-0.1,1.2,0.2c0.5,0.8,0.8,1.2,0.7,1.3c-0.1,0.1-0.5,0.2-1.1,0.2
	c-1.6,0.1-3.1,0.2-4.7,0.4c-0.5,0-0.7,0.4-0.8,1.1l-0.3,3.2c0,0.4,0.3,0.6,1,0.5l1.4-0.2c0.6-0.1,1.1,0.1,1.5,0.3
	c0.4,0.4,0.5,0.7,0.4,0.9c-0.2,0.1-0.4,0.2-0.8,0.2l-2.9,0.3c-0.5,0.1-0.8,0.4-0.9,1c-0.4,2.7-0.9,4.5-1.6,5.7
	c-0.4,0.4-0.8,0.2-1.3-0.5c-0.6-0.7-1.2-1.4-2-2.1c-0.7-0.7-1.1-1.1-1-1.2c0.1-0.4,0.3-0.5,0.7-0.4c0.7,0.5,1.4,0.9,2.1,1.5
	c0.5,0.3,0.9,0.2,1.2-0.4c0.2-0.8,0.4-1.7,0.6-2.5c0.1-0.5-0.1-0.8-0.7-0.7c-2.9,0.3-5.8,0.6-8.8,0.9c-0.4,0-0.7,0.1-0.9,0.3
	c-0.2,0.3-0.5,0.4-0.8,0.2c-0.6-0.6-0.8-1.1-0.5-1.6c0.5-0.8,1-2.3,1.3-4.4c0.1-0.4-0.2-0.6-0.9-0.6c-1.7,0.1-2.8,0.3-3.4,0.5
	c-0.2,0.1-0.5,0.1-0.9-0.2c-0.6-0.4-0.9-0.7-1-0.8c0-0.2,0.3-0.4,1-0.5l5-0.4c0.4,0,0.7-0.4,0.8-1.1c0.2-1.8,0.4-3.6,0.6-5.4
	c0-0.8,0.1-1.2,0.2-1.3c0.3-0.1,0.6,0.2,0.8,0.8c0.2,0.5,0.5,0.7,1.1,0.6l8.1-1.1C155,42.9,155.3,42.8,155.5,42.5z M145.8,34.4
	c0.6-0.3,1.1,0.2,1.5,1.3c0.2,0.4,0.2,0.6-0.1,0.8c-0.5,0.5-0.9,1.3-1.4,2.2c-0.4,0.6-0.2,0.9,0.4,0.9c4.8-0.6,8.8-1.4,12-2.1
	c0.5-0.1,0.9,0.2,1.3,0.7c0.2,0.4,0.3,0.6,0.1,0.8c-0.2,0.1-0.7,0.2-1.5,0.3c-4,0.6-8,1.2-12,1.8c-0.4,0-0.8,0-1.1,0
	c-0.3-0.1-0.7,0.1-1.1,0.6c-1,1.4-2.4,3-4.2,5c-0.5,0.5-0.8,0.6-1.1,0.4c-0.2-0.1-0.2-0.4,0-0.7C142.9,41.9,145.3,37.9,145.8,34.4z
	 M154.7,51.3c0-0.5-0.3-0.7-0.9-0.6l-4.6,0.5c-0.6,0.1-0.6,0.2-0.2,0.5c0.5,0.4,1,0.8,1.6,1.4c0.7,0.6,0.7,1.4,0.2,2.3
	c-0.1,0.1-0.2,0.1-0.4,0.1c-0.1,0-0.3-0.4-0.7-1c-0.3-0.6-0.6-1.1-1-1.7c-0.5-0.8-0.7-1.2-0.5-1.3c0.1-0.1-0.1-0.1-0.7-0.1l-1.7,0.2
	c-0.5,0-0.8,0.4-0.9,1c-0.2,1-0.3,2.1-0.4,3.1c0,0.5,0.3,0.7,0.9,0.6l8.2-0.8c0.6-0.1,0.9-0.3,0.9-0.7
	C154.5,53.7,154.6,52.5,154.7,51.3z M154.3,44.4c-1.7,0.1-3.4,0.3-5.1,0.6c-0.5,0.1-0.7,0.1-0.6,0.2c0.5,0.2,1.2,0.8,1.9,1.7
	c0.5,0.8,0.5,1.5,0,2.2c-0.4,0.3-0.7,0-0.9-0.9l-0.8-1.5c-0.3-0.6-0.5-1-0.5-1.2c0.1-0.2-0.2-0.2-0.9-0.1l-0.9,0.2
	c-0.5,0.1-0.8,0.5-0.9,1.1l-0.4,2.7c-0.1,0.6,0.1,0.8,0.5,0.8c2.8-0.2,5.6-0.5,8.4-0.9c0.5,0,0.7-0.4,0.8-1l0.2-3.2
	C155.2,44.5,154.9,44.3,154.3,44.4z"/>
<path class="st0" d="M190,36.7c0.5-0.1,0.8-0.1,0.9-0.1c0.7,0.4,1,0.9,1,1.4c-0.1,0.1-0.4,0.2-1,0.3c-1.5,0.1-3.3,0.4-5.4,0.7
	c-0.6,0.1-0.7,0.3-0.6,0.5c0.3,0.4,0.3,0.7,0.1,1.1l-0.5,4c-0.1,0.6,0.1,0.8,0.5,0.7c2.7-0.5,5.4-1,8.2-1.5c0.8-0.4,1.5,0,2.1,1.1
	c0,0.5-0.3,0.7-1,0.7c-2.6,0.3-5.4,0.7-8.4,1.1c-0.6,0.1-0.7,0.4-0.5,0.8c2.2,3.9,4.2,7.2,6.1,9.7c0.9,1,2.1,1.7,3.8,2.1
	c0.8,0.2,1.2,0.4,1.3,0.5c0.1,0.2,0,0.4-0.3,0.6l-4.4,0.3c-0.2,0-0.4-0.2-0.7-0.7c-1.1-1.9-2.1-3.6-3-5c-1.3-2.2-2.6-4.5-3.8-6.8
	c-0.3-0.6-0.5-0.6-0.6-0.1c-0.7,4.4-3.2,8.3-7.6,11.7c-1,0.7-2.2,1.4-3.6,2c-0.3,0.2-0.5,0.2-0.7-0.1c-0.1-0.1,0.2-0.4,0.8-0.9
	c3-1.8,5.6-4.3,7.9-7.6c0.9-1.9,1.5-3.7,1.9-5.4c0.1-0.5-0.1-0.8-0.7-0.7c-2.1,0.2-4,0.5-5.8,0.8c-0.6,0.2-1,0.2-1.2,0.2
	c-0.2-0.1-0.4-0.2-0.6-0.3c-0.4-0.2-0.6-0.4-0.7-0.5c-0.2-0.2-0.1-0.4,0.1-0.6c2.9-0.3,5.8-0.7,8.6-1.1c0.4-0.1,0.7-0.4,0.8-1.1
	c0.2-1.7,0.3-3.1,0.3-4.4c0-0.6-0.4-0.9-1-0.8c-1.2,0.1-2.4,0.3-3.6,0.5c-0.5,0.3-1.1,0.2-1.6-0.2c-0.6-0.5-0.8-0.8-0.7-1
	c0.2-0.1,0.5-0.2,0.9-0.2C181.2,38.5,185.4,37.8,190,36.7z"/>
<path class="st0" d="M225.1,36.8c0.7-0.9,1.3-0.7,2,0.6c0.1,0.3,0,0.5-0.4,0.8c-0.2,0.2-0.4,0.4-0.5,0.6c-0.6,1.9-1.5,3.9-2.6,5.8
	c-0.3,0.5-0.2,1,0.1,1.6c1.5,2.3,3.4,3.5,5.8,3.8c0.7,0.1,1.1,0.1,1.2,0.2c0.2,0.3,0.1,0.5-0.1,0.7c-0.6,0.2-1.8,0.4-3.5,0.7
	c-0.8,0.3-1.4,0.2-1.8-0.3l-2.3-3.7c-0.4-0.7-0.8-0.7-1.3-0.1c-0.6,0.9-1.6,2-3.2,3.3c-0.5,0.4-0.5,0.8,0.1,1.4
	c0.3,0.4,0.3,0.9,0.1,1.7c0,0.5,0.3,0.7,0.9,0.6c1.5-0.2,2.9-0.5,4.3-0.9c0.7,0.2,1.2,0.7,1.4,1.4c0,0.2-0.2,0.4-0.7,0.4
	c-1.8,0.2-3.6,0.4-5.4,0.7c-0.5,0.1-0.7,0.4-0.7,1.1c0,0.6,0,1.3,0,2c0,0.5,0.3,0.7,0.9,0.6c2.9-0.3,5.4-0.7,7.5-1.2
	c0.7-0.1,1.2,0.4,1.6,1.3c0,0.1-0.1,0.3-0.2,0.3c-0.1,0.1-0.3,0.1-0.7,0.2c-5.8,0.6-11.8,1.2-18,2c-0.6,0.2-1,0.2-1.2,0.2
	c-0.9-0.4-1.4-0.8-1.4-1.1c0.2-0.4,0.5-0.5,1-0.4c2.1-0.2,4.9-0.5,8.5-0.9c0.5-0.1,0.7-0.3,0.7-0.8v-2.1c0-0.5-0.3-0.7-0.9-0.7
	c-1.1,0.1-2.2,0.3-3.3,0.5c-0.7,0.2-1.3,0.1-1.9-0.1c-0.5-0.4-0.8-0.7-0.8-0.8c0.1-0.3,0.3-0.4,0.7-0.4c1.8-0.2,3.7-0.5,5.5-0.7
	c0.5-0.1,0.7-0.4,0.7-1.1l-0.1-1.1c-0.1-0.5-0.3-0.7-0.5-0.5c-0.5,0.3-0.8,0.3-1-0.2c0-0.2,0.3-0.5,0.9-1c1.9-1.6,3.4-3.2,4.6-5
	c0.3-0.5,0.3-1,0-1.5l-1.7-2.5c-0.5-0.7-0.7-1.1-0.7-1.2c0.1-0.6,0.6-0.8,1.4-0.4c0.1,0.1,0.3,0.4,0.5,1c0.3,0.6,0.7,1.2,1.1,1.8
	c0.4,0.6,0.7,0.6,1,0c0.7-1.4,1.2-2.8,1.6-3.9c0.2-0.6,0-0.8-0.4-0.8c-1.4,0.2-2.8,0.5-4.3,1c-0.6,0.1-1.1,0-1.4-0.5
	c-0.2-0.3-0.3-0.5-0.3-0.6c0.1-0.1,0.4-0.2,1-0.3c1.5-0.2,3.1-0.4,4.8-0.8C224.2,37.2,224.6,37.1,225.1,36.8z M208,35.9
	c0.4-0.3,0.7-0.1,0.9,0.6c0.3,0.5,0.7,0.7,1.3,0.5c1.8-0.4,3.7-0.7,5.5-1c0.6-0.1,1-0.1,1.3,0.1c0.4,0.2,0.6,0.5,0.5,0.8
	c-0.1,0.1-0.4,0.2-1,0.3l-2.4,0.4c-0.5,0.1-0.8,0.5-0.8,1.1l0,1.4c0,0.5,0.4,0.7,1,0.6c0.3-0.1,0.5-0.2,0.9-0.3
	c0.7-0.9,1.3-0.7,1.8,0.6c-0.3,0.5-0.5,1.2-0.7,2c-0.1,0.6,0,0.9,0.2,1.1c0.4,0.2,0.6,0.5,0.5,0.8c-0.1,0.3-0.4,0.4-1,0.4l-2,0.3
	c-0.5,0.1-0.7,0.4-0.7,0.9l0,1.6c0.1,0.6,0.3,0.8,0.7,0.7c0.7-0.1,1.4-0.3,2.2-0.5c0.4-0.2,0.9-0.1,1.3,0.4c0.5,0.3,0.6,0.6,0.3,0.9
	c-4.2,0.5-7.1,1-8.5,1.4c-0.3,0.1-0.5,0.2-0.6,0.4c-0.4,0.4-0.8,0.1-1.4-0.8c-0.1-0.2,0-0.3,0.1-0.5c0.3-0.3,0.4-0.8,0.4-1.5
	c0.1-2.7,0.1-6.5,0-11.5C208,36.4,208,36,208,35.9z M214.5,42.1c-1.4,0.3-2.9,0.5-4.3,0.7c-0.5,0.1-0.8,0.5-0.8,1.1v0.4
	c0,0.5,0.3,0.7,0.9,0.6l3.9-0.6c0.5-0.1,0.8-0.3,0.9-0.8l0.1-0.8C215.3,42.2,215,42,214.5,42.1z M211.3,46l-0.5,0.1l-0.7,0.1
	c-0.5,0.1-0.7,0.4-0.7,0.9v1.4c0,0.6,0.3,0.9,0.9,0.9c0.4,0,0.8,0,1.2-0.1c0.5-0.1,0.7-0.3,0.7-0.8v-1.6
	C212.2,46.2,211.9,45.9,211.3,46z M212.2,38.8c0-0.5-0.4-0.6-1-0.6l-0.9,0.1c-0.5,0.1-0.8,0.4-0.8,0.8v1.7c0,0.5,0.3,0.7,0.9,0.6
	c0.4-0.1,0.8-0.2,1.2-0.2c0.5-0.1,0.8-0.4,0.8-0.9L212.2,38.8z"/>
<path class="st0" d="M244.4,34.7c0.3-0.4,0.6-0.4,1,0.2c0.6,0.5,1,1,1.3,1.5c-0.2,1.4-0.3,3.3-0.4,5.7c0,0.5,0.3,0.7,1,0.5
	c0.3-0.1,0.6-0.2,0.8-0.2c0.7-0.1,1.3,0,1.6,0.3c0.5,0.3,0.6,0.6,0.2,0.9c-0.3,0.1-0.6,0.2-1.1,0.2c-0.6,0.1-1.1,0.2-1.7,0.3
	c-0.5,0.1-0.7,0.4-0.7,0.9v3.1c0,0.5,0.3,0.6,0.9,0.2c0.4-0.3,0.8-0.5,1.2-0.5c0.3-0.1,0.4,0.1,0.5,0.4c-0.1,0.1-0.4,0.4-1,0.8
	l-0.8,0.6c-0.5,0.4-0.8,0.8-0.7,1.4c0.1,3.5,0,7-0.2,10.3c-0.1,0.9-0.2,1.6-0.4,2c-0.2,0.2-0.3,0.3-0.6,0.2c-0.2-0.1-0.5-0.4-0.8-1
	c-0.6-0.8-1.2-1.7-1.9-2.5c-0.3-0.4-0.5-0.7-0.5-0.8c-0.1-0.2,0-0.4,0.4-0.5c0.1,0,0.5,0.2,1.2,0.7l0.4,0.3c0.6,0.4,0.9,0.3,1-0.3
	c0.2-2.4,0.2-5,0.2-7.7c0-0.5-0.3-0.6-0.9-0.2c-1.1,0.7-2.2,1.4-3.3,2.2c-0.5,0.2-1.2,0-1.9-0.6c-0.2-0.2,0.1-0.6,0.8-1
	c0.3-0.1,0.6-0.2,1-0.4l3.5-1.8c0.5-0.3,0.8-0.7,0.8-1.1v-3.6c0-0.5-0.3-0.7-0.9-0.6l-2.1,0.4c-0.6,0.1-1.1,0-1.6-0.3
	c-0.4-0.2-0.5-0.5-0.3-0.8c0.2-0.1,0.6-0.2,1.1-0.3l3.1-0.6c0.5-0.1,0.7-0.4,0.7-0.9c0-2.5-0.2-4.9-0.7-7.1
	C244.4,34.9,244.4,34.8,244.4,34.7z M254.9,34.3c0.2-0.1,0.6,0.2,1.3,0.8c0.3,0.2,0.5,0.5,0.5,0.8c-0.2,0.9-0.4,2.3-0.4,4.1
	c0,0.5,0.3,0.7,1,0.5l3.2-0.7c0.6,0,1,0.4,1.4,1.2c0,0.2-0.2,0.4-0.6,0.4c-1.4,0.1-2.8,0.4-4.2,0.7c-0.5,0.1-0.8,0.4-0.8,0.8v2.3
	c0,0.5,0.3,0.7,0.9,0.6c2.7-0.5,4.6-0.9,5.7-1.2c0.7,0,1.2,0.4,1.6,1.3c-0.1,0.3-0.4,0.4-1,0.5c-1.3,0.1-2.6,0.3-4,0.6
	c-0.5,0.1-0.6,0.2-0.5,0.4c0.3,0.2,0.3,0.5,0.1,0.8c-0.1,0.4-0.2,0.8-0.2,1.2c0,0.5,0.3,0.7,0.8,0.6c0.7-0.1,1.4-0.3,2.2-0.5
	c0.5-0.2,1-0.2,1.3-0.1c0.6,0.4,0.9,0.8,1,1.2c-0.1,0.3-0.4,0.5-0.9,0.4c-1.2,0.1-2.3,0.2-3.5,0.5c-0.5,0.1-0.8,0.4-0.8,0.9
	c0.2,5,0,8.7-0.4,11.2c-0.2,0.7-0.5,0.8-1,0.3c-0.6-0.9-1.4-1.9-2.2-2.8c-0.5-0.6-0.8-1-0.8-1.1c0.3-0.6,0.8-0.5,1.5,0.4l0.6,0.5
	c0.6,0.4,0.9,0.3,0.9-0.4c0.1-2.6,0.1-5.2,0.1-7.8c0-0.5-0.3-0.7-0.9-0.6l-3.3,0.5c-0.6,0.1-0.6,0.3-0.3,0.8
	c0.9,0.7,1.2,1.5,0.7,2.3c-0.2,0.5-0.4,0.8-0.7,0.8c-0.1-0.1-0.3-0.4-0.5-0.8c-0.3-0.6-0.6-1.3-0.9-1.9c-0.3-0.5-0.7-0.7-1.3-0.6
	c-0.8,0.1-1.5-0.2-2.2-0.9c0-0.4,0.5-0.6,1.4-0.5l7.1-1.1c0.5-0.1,0.7-0.4,0.7-1.1l-0.1-1.2c-0.1-0.5-0.4-0.7-1-0.6
	c-1.6,0.2-3.2,0.5-4.9,0.8c-0.8,0.3-1.6,0-2.4-0.9c0-0.1,0.3-0.3,0.9-0.5c1.4-0.2,2.8-0.4,4.1-0.6c0.5-0.1,0.7-0.3,0.7-0.8v-2.2
	c0-0.5-0.3-0.7-0.9-0.6c-0.3,0-0.6,0.1-0.9,0.2c-1,0.3-1.6,0.3-2,0c-0.5-0.2-0.8-0.5-0.8-0.9c0.1-0.1,0.5-0.3,1.3-0.4l2.6-0.4
	c0.5-0.1,0.7-0.4,0.7-0.9c0-1.6-0.1-3.2-0.3-4.7C254.8,34.7,254.8,34.4,254.9,34.3z"/>
<g>
	<g>
		<g>
			<path d="M244.6,26.5l-14.1-15.2h28.3L244.6,26.5z M232.8,12.3L244.6,25l11.9-12.8H232.8z"/>
		</g>
	</g>
</g>
<g>
	<g>
		<g>
			<path d="M258.6,12.3h-27.9l4.7-7h18.5L258.6,12.3z M232.6,11.3h24.1l-3.3-5h-17.5L232.6,11.3z"/>
		</g>
	</g>
</g>
<g>
	<g>
		<g>
			<polygon points="244.2,26 238.4,12 235.2,6 236.1,5.5 239.3,11.5 245.1,25.6 			"/>
		</g>
	</g>
</g>
<g>
	<g>
		<g>
			<polygon points="250.6,12.6 243.9,6.5 239,12.1 238.2,11.4 243.8,5.1 250.3,11 253.2,5.5 254.1,6 			"/>
		</g>
	</g>
</g>
<g>
	<g>
		<g>
			<rect x="240" y="18.3" transform="matrix(0.3945 -0.9189 0.9189 0.3945 132.6904 238.9018)" width="15.2" height="1"/>
		</g>
	</g>
</g>
</svg>
