<svg id="圖層_1" data-name="圖層 1" xmlns="http://www.w3.org/2000/svg" viewBox="0 0 276.93 65.76"><title>橫式-光芒</title><path d="M395,320.23,380.85,305h28.3ZM383.15,306,395,318.77,406.85,306Z" transform="translate(-147.81 -295.06)"/><path d="M408.93,306H381.07l4.66-7h18.54Zm-26-1h24.14l-3.34-5H386.27Z" transform="translate(-147.81 -295.06)"/><polygon points="246.73 24.64 240.98 10.63 237.75 4.68 238.63 4.21 241.88 10.21 247.66 24.25 246.73 24.64"/><polygon points="253.17 11.25 246.48 5.16 241.57 10.77 240.82 10.12 246.4 3.73 252.88 9.64 255.75 4.21 256.63 4.68 253.17 11.25"/><rect x="390.38" y="312" width="15.23" height="1" transform="translate(-193.98 259.88) rotate(-66.76)"/><path d="M187.2,301.6a46.34,46.34,0,0,1-3,4.53l-1,1.27c.89.21,1,.23,1,.44s-.08.23-.28.31-.31.23-.31.34v11.68c0,.15-.12.28-.35.31-.91.2-1.08.23-1.08-.31V308.64a21.38,21.38,0,0,1-5,4.51.25.25,0,0,1-.23-.23.55.55,0,0,1,.05-.13,33.68,33.68,0,0,0,8.86-11.19h-8.57l-.2-.78h9.17a14.22,14.22,0,0,0,1.43-4.11l1.57.36q.51.12.51.39a.36.36,0,0,1-.4.39c-.23,0-.34.07-.34.15-.37.88-.86,1.87-1.37,2.82h11.77l1.8-1.37,1.83,1.24a.46.46,0,0,1,.22.39c0,.29-.22.52-.65.52Zm-1.74,17.71-.23-.8h7.63v-8.73h-6l-.23-.77h6.2v-5.83l1.48.23c.46,0,.66.21.66.42a.42.42,0,0,1-.37.41.39.39,0,0,0-.34.39V309h3.8l1.79-1.38,1.83,1.25a.43.43,0,0,1,.23.41c0,.34-.28.49-.65.49h-7v8.73h5.14l1.8-1.35,1.83,1.22a.45.45,0,0,1,.22.41c0,.34-.28.52-.65.52Z" transform="translate(-147.81 -295.06)"/><path d="M182.44,321.61a1.24,1.24,0,0,1-.81-.27,1.42,1.42,0,0,1-.48-1.17v-9c-1.56,1.54-3.3,3-4,3a1.25,1.25,0,0,1-1.23-1.23,1.16,1.16,0,0,1,.18-.61l.09-.18.15-.12a32.13,32.13,0,0,0,7.82-9.41h-7.67l-.72-2.78h9.82a11.21,11.21,0,0,0,1.08-3.27l.17-1.06,2.61.6c1.2.28,1.29,1.12,1.29,1.37a1.34,1.34,0,0,1-1,1.33l-.48,1h9.79l2.1-1.6,2.43,1.65a1.38,1.38,0,0,1,.66,1.21,1.55,1.55,0,0,1-1.65,1.52h-7.45a1.35,1.35,0,0,1,.82,1.23,1.38,1.38,0,0,1-.71,1.22v3h2.46l2.1-1.61,2.43,1.65a1.44,1.44,0,0,1,.66,1.24,1.52,1.52,0,0,1-1.65,1.49h-6v6.73h3.8l2.1-1.57,2.42,1.61a1.4,1.4,0,0,1,.67,1.24,1.53,1.53,0,0,1-1.65,1.52H184.71l-.13-.45v.31a1.33,1.33,0,0,1-1.17,1.29A4.69,4.69,0,0,1,182.44,321.61Zm20.05-2.41.09.06Zm-17.91-1.69h7.28v-6.73h-5.72l-.82-2.77h6.54V302.6h-4.08c-.73,1.24-1.63,2.6-2.74,4.12l-.21.26a1.06,1.06,0,0,1,.34.86,1.32,1.32,0,0,1-.59,1.08Zm16.56-7.82a.33.33,0,0,0,.1.06Zm1.34-8.18.1.06Z" transform="translate(-147.81 -295.06)"/><path d="M224,303.26l1.69.28c.34,0,.51.18.51.36s0,.37-.4.37c-.2,0-.37.05-.37.13a30.89,30.89,0,0,1-2.74,6,16,16,0,0,1-4.26,5c-.08,0-.23-.08-.23-.18a.4.4,0,0,1,.12-.23,26.35,26.35,0,0,0,5.68-11Zm7.37-6.84,1.46.18c.48,0,.74.21.74.44a.4.4,0,0,1-.4.42c-.28.05-.37.15-.37.31V319a1.51,1.51,0,0,1-.63,1,4.18,4.18,0,0,1-2.17.68c0-1-1.17-1.37-2-1.69-.23-.05-.31-.15-.31-.28s.26-.18.37-.15l2.66.31.54-.06.14-.33Zm6.49,7.07a.29.29,0,0,1,.28-.26.34.34,0,0,1,.2.08c5.31,5.9,6.29,9.19,6.29,10.28a.94.94,0,0,1-.89,1c-.29,0-.31,0-.6-.55a23.87,23.87,0,0,0-5.23-10.38A.22.22,0,0,1,237.89,303.49Z" transform="translate(-147.81 -295.06)"/><path d="M229,321.76v-1.1c0-.16-.45-.41-1.34-.73a1.25,1.25,0,0,1-1-1.24,1.17,1.17,0,0,1,.43-.91,1.34,1.34,0,0,1,1.1-.23l2.18.25V295.29l2.58.32c1.5.16,1.62,1.14,1.62,1.43a1.36,1.36,0,0,1-.77,1.26V319a2.41,2.41,0,0,1-1,1.76,5,5,0,0,1-2.74.92Zm4-25.29h0Zm-14.56,19.88a1.22,1.22,0,0,1-1.23-1.18,1.38,1.38,0,0,1,.31-.83A25.68,25.68,0,0,0,223,303.83v-1.76l2.85.49a1.39,1.39,0,0,1,1.35,1.34,1.29,1.29,0,0,1-1,1.32,31.9,31.9,0,0,1-2.66,5.67C222.11,313.36,219.5,316.35,218.46,316.35Zm25.31-.75c-.89,0-1.18-.52-1.48-1.06l-.09-.26a22.74,22.74,0,0,0-5-9.93,1.21,1.21,0,0,1-.32-.86,1.29,1.29,0,0,1,1.28-1.26,1.38,1.38,0,0,1,.87.33l.08.08c6.06,6.74,6.54,10.09,6.54,10.95A1.93,1.93,0,0,1,243.77,315.6Zm-5.57-12.1h0Zm-.31,0h0Z" transform="translate(-147.81 -295.06)"/><path d="M258.89,300.75l1.32,1h1.54l.85-2.31.35-2v-.81l1.71.13c.34.05.51.18.51.37a.34.34,0,0,1-.28.36l-.4.21-1,2.27-1,1.74h3.74l.69-.83,1.31.78c.09.05.11.13.11.26a.54.54,0,0,1-.4.49c-.22.08-.31.18-.31.26v15.17c0,.13-.14.26-.28.34-1,.18-1.12.18-1.12-.31v-1.53h-5.94v2.41c0,.33-.34.41-1.14.59-.2,0-.29-.2-.29-.59Zm1.43,8.05h5.94v-6.29h-5.94Zm0,6.78h5.94v-6h-5.94Zm14.91,2.49a13.77,13.77,0,0,0,3.08.65c.66,0,1.2-.88,1.49-1.48s1.49-4.63,1.49-14.84h-8.63l-.37.83c-1.4,2.88-3.23,4.84-3.49,4.84a.21.21,0,0,1-.2-.2.4.4,0,0,1,.09-.24c2.77-3.85,4.11-8.39,4.11-10.95l1.66.1c.37,0,.54.16.54.37a.34.34,0,0,1-.34.36c-.23,0-.37.08-.37.18a32.53,32.53,0,0,1-1.32,3.94h8.29L282,301l1.14.8a.47.47,0,0,1,.2.37.47.47,0,0,1-.34.33c-.32.08-.32.21-.32,1.33,0,6.93-.83,12.17-1.57,13.82-.94,2-1.91,2.57-3.65,2.72-.15-1-1.06-1.47-2.43-1.73-.14,0-.23-.11-.23-.21a.32.32,0,0,1,.34-.31Zm-3.17-11.21a.24.24,0,0,1,.23-.24c.68,0,4.08,3.34,4.08,4.9,0,.23-.11.85-.66.85a.69.69,0,0,1-.71-.52,8.75,8.75,0,0,0-2.83-4.81A.2.2,0,0,1,272.06,306.86Z" transform="translate(-147.81 -295.06)"/><path d="M276.63,321.4l-.13-.94c0-.21-.09-.6-1.63-.89a1.22,1.22,0,0,1-1-1.19,1.33,1.33,0,0,1,1.34-1.31l.34,0a12.39,12.39,0,0,0,2.8.61,3.67,3.67,0,0,0,.59-.91c.36-.81,1.31-4.81,1.38-13.41h-7l-.11.24c-.23.46-.64,1.21-1.13,2l.22,0c1.38,0,5.08,4,5.08,5.9a1.73,1.73,0,0,1-1.66,1.85,1.67,1.67,0,0,1-1.67-1.25,7.87,7.87,0,0,0-2.45-4.27,1.14,1.14,0,0,1-.51-.75c-.8,1.09-1.66,2-2.28,2h-.14v8.8a1.43,1.43,0,0,1-.8,1.22l-.15.07-.16,0c-.78.14-1.35.25-1.84-.16a1.42,1.42,0,0,1-.45-1.13v-.53h-3.94v1.41c0,1.13-1,1.36-1.92,1.57l-.22,0c-.14,0-1.29,0-1.29-1.59v-20l2.65,2h.51l.58-1.57.32-1.79v-1.79l2.79.21c1.08.16,1.43.8,1.43,1.36a1.34,1.34,0,0,1-.9,1.29h0l-1,2.29h1.57l.93-1.13,2,1.22a1.24,1.24,0,0,1,.6,1.12,1.48,1.48,0,0,1-.71,1.26v2.68a19.87,19.87,0,0,0,3.14-9.2v-1.06l2.72.17a1.39,1.39,0,0,1,1.48,1.36,1.35,1.35,0,0,1-.88,1.28c-.2.72-.43,1.46-.7,2.2h6.46l1.08-.95,1.79,1.26a1.45,1.45,0,0,1,.62,1.18l0,.18a1.44,1.44,0,0,1-.63.93c0,.15,0,.35,0,.55,0,7.23-.86,12.45-1.65,14.23-1,2.22-2.25,3.11-4.48,3.31Zm-1.39-3.8Zm-13.92-3h3.94v-4h-3.94Zm8.18-6.37h0Zm-8.18-.41h3.94v-4.29h-3.94Zm11.37-1.62.09.07Zm10.64-2.77h0Zm-15.68-1.93Z" transform="translate(-147.81 -295.06)"/><path d="M305.38,297.72c-1.38,3.1-5.46,7-6.26,7a.24.24,0,0,1-.23-.23.21.21,0,0,1,.09-.16,16,16,0,0,0,5-7.25l.11-.72,1.57.36c.35.1.52.23.52.41s0,.08-.15.29c1.32.49,3.89,2,4.57,3.23l.15.68a.62.62,0,0,1-.66.54.74.74,0,0,1-.6-.34,12.9,12.9,0,0,0-2.37-2.66Zm-4.63,6.47,1.43,1.09H308l.78-.73,1.31.8a.23.23,0,0,1,.14.21.49.49,0,0,1-.43.47c-.22.05-.37.18-.37.31v6.29c.09.41-1,.52-1.08.52l1.4.9a.75.75,0,0,1,.31.52c0,.29-.23.49-.6.49h-7.25v2.54h4.4l1.74-1.37,1.74,1.17a.73.73,0,0,1,.29.51c0,.31-.23.47-.58.47h-7.59v1.81c0,.31-.32.39-1.15.57-.2,0-.28-.21-.28-.57Zm1.43,1.86v2.13H308v-2.13Zm0,2.93v2.15H308V309Zm0,2.93v2.35h4.05l1.74-1.34.09,0a4.25,4.25,0,0,1-.06-1Zm4.37-9.48,1.37-1.19,1.25,1a.5.5,0,0,1,.21.42.54.54,0,0,1-.58.52h-6.08l-.23-.78Zm6.25,2.25,1.09.67h3.71V301.5h-3.74a9.85,9.85,0,0,1-3.14,3.26.22.22,0,0,1-.23-.21c0-.08.06-.15.11-.26a14.71,14.71,0,0,0,2.49-3.49,10.06,10.06,0,0,0,1.37-3.94l1.63.36q.51.12.51.39c0,.13-.14.34-.46.34s-.34,0-.37.13a20.33,20.33,0,0,1-1.4,2.64h7.14l1.75-1.37,1.74,1.16a.75.75,0,0,1,.31.52c0,.21-.17.47-.6.47H319v3.85h3.48l.66-.75,1.23.88a.63.63,0,0,1,.23.5.6.6,0,0,1-.37.46c-.23.05-.32.18-.32.31v9.82c0,.9-1,1.32-2.08,1.5,0-.91-1.15-1.22-1.72-1.4-.2-.05-.34-.16-.34-.31s.26-.26.32-.26,1.57.23,1.85.23.54,0,.54-.57v-9.6H319v14.21c0,.37-1,.47-1.09.47-.23,0-.34-.16-.34-.47V306.16h-3.37v11.7c0,.13-.11.26-.34.36-.94.19-1.09.21-1.09-.41Z" transform="translate(-147.81 -295.06)"/><path d="M317.94,321.84a1.35,1.35,0,0,1-1.34-1.47V307.16h-1.37v10.7a1.38,1.38,0,0,1-.93,1.27l-.22.08c-.76.14-1.31.25-1.8-.16a1.52,1.52,0,0,1-.48-1.24V305.27a3.28,3.28,0,0,1-.6.36,1.45,1.45,0,0,1-.8,1.23v5.71a1.17,1.17,0,0,1-.13.66,1.73,1.73,0,0,1,.76,1.34,1.48,1.48,0,0,1-1.22,1.46l.92.63a1.68,1.68,0,0,1,.62,1.25,1.48,1.48,0,0,1-1.58,1.47h-6.59v.81c0,1.13-1,1.35-1.93,1.55l-.22,0c-.13,0-1.28,0-1.28-1.57v-14.6a1.57,1.57,0,0,1-.63.17,1.22,1.22,0,0,1-.82-2.13,14.53,14.53,0,0,0,1.45-1.36v-.1l.05,0a14.67,14.67,0,0,0,3.18-5.33l.26-1.7,2.62.6a1.62,1.62,0,0,1,1.24,1.06c1.47.7,3.61,2,4.35,3.37l.1.28.16.74a9.4,9.4,0,0,0,.48-.87,9,9,0,0,0,1.27-3.58l.1-1.14,2.74.61c1.21.27,1.3,1.11,1.3,1.36a1.38,1.38,0,0,1-1.11,1.3c-.13.28-.27.55-.4.81h5.08l2-1.61,2.34,1.57a1.73,1.73,0,0,1,.76,1.35,1.5,1.5,0,0,1-1.6,1.47H320v1.85h2l1-1.09,2,1.41a1.61,1.61,0,0,1,.65,1.31v.13a1.56,1.56,0,0,1-.68,1.09v9.37c0,.74-.38,2.05-2.91,2.48l-1.17.2v-1.18a2.1,2.1,0,0,0-.83-.39v2.69C320,321.58,318.52,321.84,317.94,321.84Zm-14.76-5.24h3.05l.68-.54h-3.73Zm16.94-1.5c.08,0,.45,0,.87.11l.52.07v-8.12H320v7.94Zm-16.94-1.84h2.71l.35-.27-.14-.08h-2.92Zm0-3.13H307V310h-3.82Zm0-2.95H307v-.13h-3.82Zm6.37-2.13h0Zm1.86-.16Zm-.88-.47.49.26-.14-.14Zm3.64-.07h2.43V302.5h-2.2c-.3.41-.67.88-1.07,1.33h0Zm-11.66-.07h5.07l.08-.07h-5.24Zm7.85-1.39a.87.87,0,0,1-.05.22l.23-.27Zm-1.82.15a.1.1,0,0,0,0,0Zm-4.35-1.61h2l1.12-1c-.27-.28-.56-.54-.85-.79l-.7-.49A21.21,21.21,0,0,1,304.19,301.43Zm6.07-.46,0,0Z" transform="translate(-147.81 -295.06)"/><path d="M344.18,308.54l1.4.88h6.74l.74-.72,1.31.8a.24.24,0,0,1,.17.23.54.54,0,0,1-.45.44c-.23.05-.37.18-.37.31v9.63c0,.16-.12.31-.26.37-1,.2-1.11.23-1.11-.37V318.3H345.6v1.58c0,.13-.11.26-.34.36-.91.21-1.08.24-1.08-.41Zm1.42,9h6.75v-7.3H345.6Zm15.09-19.91.74-.73,1.31.8a.25.25,0,0,1,.17.24.54.54,0,0,1-.45.44c-.23.05-.37.18-.37.31v8.21a.46.46,0,0,1-.26.39c-.94.2-1.12.23-1.12-.39v-1.32H350.17v1.19c0,.13-.11.26-.31.36-1,.21-1.09.23-1.09-.42v-9.78l1.09.7Zm-10.52.77v6.4h10.54v-6.4Zm7.17,10.26,1.26.8h7.2l.77-.72,1.31.8a.26.26,0,0,1,.15.23.51.51,0,0,1-.43.44c-.23.05-.37.18-.37.31v9.63c0,.16-.12.31-.29.37-.88.2-1.11.26-1.11-.37V318.3h-7.06v1.58c0,.13-.11.26-.34.36-.91.21-1.09.24-1.09-.41Zm1.43,8.88h7.06v-7.3h-7.06Z" transform="translate(-147.81 -295.06)"/><path d="M366.14,321.62a1.25,1.25,0,0,1-.81-.28,1.49,1.49,0,0,1-.5-1.23v-.81h-5.06v.58a1.4,1.4,0,0,1-.93,1.28l-.19.06a2,2,0,0,1-1.81-.12,1.54,1.54,0,0,1-.5-1.27v-13l2.55,1.63h6.51l1-1,2,1.2a1.3,1.3,0,0,1,.62,1.09,1.48,1.48,0,0,1-.8,1.27v9.06a1.36,1.36,0,0,1-1,1.37A4.9,4.9,0,0,1,366.14,321.62Zm-6.37-5.12h5.06v-5.3h-5.06Zm7.61-7.3Zm-14.73,12.41a1.23,1.23,0,0,1-.83-.28,1.49,1.49,0,0,1-.47-1.22v-.81H346.6v.58a1.39,1.39,0,0,1-.93,1.28l-.19.06a2,2,0,0,1-1.81-.12,1.56,1.56,0,0,1-.49-1.27v-13.1l2.68,1.69h6.05l1-1,1.94,1.18a1.24,1.24,0,0,1,.68,1.11,1.48,1.48,0,0,1-.82,1.27v9.06a1.38,1.38,0,0,1-.92,1.36l-.13,0A4.73,4.73,0,0,1,352.65,321.61Zm-6-5.11h4.75v-5.3H346.6ZM361,308.38a1.28,1.28,0,0,1-.83-.28,1.49,1.49,0,0,1-.5-1.24v-.32h-8.54v.19a1.43,1.43,0,0,1-.85,1.25l-.26.09c-.78.16-1.32.27-1.81-.13a1.51,1.51,0,0,1-.48-1.27V295.06l2.38,1.53h10.13l1-1,1.93,1.19a1.21,1.21,0,0,1,.69,1.11,1.48,1.48,0,0,1-.82,1.27v7.63a1.44,1.44,0,0,1-.78,1.32l-.27.1A5,5,0,0,1,361,308.38Zm-9.87-4.62h8.54v-4.4h-8.54Zm11.07-6.4Z" transform="translate(-147.81 -295.06)"/><path d="M163.29,343.39,156.8,345V357.4l.15.26.43.11h15.68c.65,0,1.05-.21,1.45-1.74l.55-1.94c0-.21.11-.29.25-.29s.2.11.2.31l-.25,1.87a4.65,4.65,0,0,0,0,.62c0,.44.06.7.2.8a.75.75,0,0,1,.45.57,1.27,1.27,0,0,1-1.2,1.06H156.12a1.09,1.09,0,0,1-.74-1.11V345.34l-4.92,1.24-.68-.67,5.6-1.43v-6.37l2,.49a.35.35,0,0,1,.29.34.44.44,0,0,1-.43.47c-.29,0-.46.1-.46.26v4.47l6.49-1.6v-7l1.6.2c.45,0,.68.19.68.39a.57.57,0,0,1-.43.52c-.28.11-.42.26-.42.44v5.13l6.65-1.63.52-.78,1.37.93a.38.38,0,0,1,.25.34c0,.1,0,.23-.4.39a.52.52,0,0,0-.37.44c0,1.16,0,2.22,0,3.16a28.54,28.54,0,0,1-.23,4.76c-.34,1.84-.63,3.45-2.8,3.63l-.25-.83c-.18-.31-.72-.57-1.66-.75a.31.31,0,0,1-.23-.26.29.29,0,0,1,.29-.29.15.15,0,0,1,.11,0,6.55,6.55,0,0,0,2,.47.54.54,0,0,0,.23,0,6.1,6.1,0,0,0,.74-2.46,57.8,57.8,0,0,0,.37-7.9l-6.59,1.61v11c0,.44-.92.57-1.12.57s-.31-.08-.31-.24Z" transform="translate(-147.81 -295.06)"/><path d="M174.68,360H156.12a2,2,0,0,1-1.74-2.11v-11.3l-4.22,1.07-2.35-2.31,6.57-1.68v-6.86l3.26.79a1.34,1.34,0,0,1,1.05,1.31,1.43,1.43,0,0,1-.89,1.36v2.57l4.49-1.11v-7.35l2.72.35c1.14.07,1.56.79,1.56,1.38a1.55,1.55,0,0,1-.85,1.36V341l5-1.23.86-1.3,2.15,1.47a1.36,1.36,0,0,1,.75,1.2,1.3,1.3,0,0,1-.76,1.19c0,1,0,2,0,2.8a27.76,27.76,0,0,1-.25,5c-.35,1.86-.78,4.16-3.69,4.4l-.8.07-.44-1.39a4.22,4.22,0,0,0-1-.27l-.15,0a1.27,1.27,0,0,1,.4-2.49,1.24,1.24,0,0,1,.52.11,8.52,8.52,0,0,0,1.18.34,13.91,13.91,0,0,0,.37-1.62,51.06,51.06,0,0,0,.35-6.44l-4.59,1.11V354c0,1.14-1.3,1.57-2.12,1.57a1.23,1.23,0,0,1-1.31-1.24v-9.7l-4.49,1.09v11h15.4a3,3,0,0,0,.35-1l.53-1.91a1.22,1.22,0,1,1,2.43.24v.14l-.25,1.87a4,4,0,0,0,0,.48v.14a1.56,1.56,0,0,1,.65,1.23A2.24,2.24,0,0,1,174.68,360Zm.22-2.18Zm-5.46-6.68Zm-4.64-15.45Z" transform="translate(-147.81 -295.06)"/><path d="M198.15,344.43c-3,3.7-6,5.67-6.23,5.67a.22.22,0,0,1-.23-.21.39.39,0,0,1,.14-.23,32.59,32.59,0,0,0,6-6.6l1.92-3.08H192l-.23-.81h8.43a9.82,9.82,0,0,0,1.31-3.18l1.57.52c.32.07.46.23.46.38,0,.34-.17.34-.6.34-.14,0-.23,0-.26.08l-1,1.86h12l1.8-1.34,1.83,1.21a.47.47,0,0,1,.22.42c0,.33-.28.52-.65.52H201.17a30.52,30.52,0,0,1-2.28,3.36l.51.39h12.14l.63-.7,1.12.83a.73.73,0,0,1,.37.54.5.5,0,0,1-.37.44c-.23.08-.32.21-.32.32v13c0,.72-.57,1.24-2.6,1.58L210,359a4.7,4.7,0,0,0-1.89-.8c-.2-.05-.28-.16-.28-.31s.11-.18.26-.18h.08a19.07,19.07,0,0,0,2.29.2c.6,0,1-.05,1-.64V353.1h-12v6.06c0,.31-.25.37-1.14.57-.2,0-.28-.18-.28-.57Zm1.42.08v3.36h12v-3.36Zm0,4.17v3.65h12v-3.65Z" transform="translate(-147.81 -295.06)"/><path d="M209.79,360.82l-.57-1.2a7.84,7.84,0,0,0-1.36-.48,1.28,1.28,0,0,1-1-1.27l0-.21a1.21,1.21,0,0,1,1.24-1h.21a17.29,17.29,0,0,0,2.21.19V354.1h-10v5.06c0,1.1-.94,1.32-1.84,1.53l-.3,0c-.13,0-1.28,0-1.28-1.57V347.08c-2.2,2.31-4.47,4-5.23,4a1.22,1.22,0,0,1-1.23-1.21,1.28,1.28,0,0,1,.47-1A31.53,31.53,0,0,0,197,342.5L198,341h-6.76l-.79-2.81h9.14a7.23,7.23,0,0,0,.94-2.39l.23-1.09,2.63.87a1.4,1.4,0,0,1,1.15,1.33,1.19,1.19,0,0,1-1,1.28h9.83l2.09-1.57,2.42,1.61a1.42,1.42,0,0,1,.67,1.25,1.53,1.53,0,0,1-1.65,1.52H201.74c-.37.6-.75,1.18-1.15,1.75H211.1l.94-1.05,1.84,1.38a1.59,1.59,0,0,1,.78,1.34,1.45,1.45,0,0,1-.69,1.21v12.52c0,2-2.41,2.39-3.43,2.56Zm-.48-1.15Zm-.92-2.46h0Zm-7.82-5.88h10v-1.65h-10Zm-9-2.17Zm9-2.29h10v-1.36h-10Zm12.39-3Zm3.73-4,.09.06Z" transform="translate(-147.81 -295.06)"/><path d="M235,338.6l1.43,1.09h5l.6-1.68.26-1.48v-.8l1.71.13c.31.05.51.18.51.36a.36.36,0,0,1-.31.36l-.37.21-.89,1.74-.74,1.16h9.06l.71-.83,1.31.78a.26.26,0,0,1,.12.26.54.54,0,0,1-.4.49c-.23.08-.32.18-.32.26v18.2c0,.13-.14.26-.28.34-1,.21-1.14.23-1.14-.31v-1H236.43V359c0,.33-.34.41-1.14.59-.2,0-.29-.21-.29-.59Zm1.43,1.87v4.79h14.86v-4.79Zm0,5.57v5.07h14.86V346Zm0,5.87v5.18h14.86v-5.18Z" transform="translate(-147.81 -295.06)"/><path d="M235.4,360.55h-.11c-.13,0-1.29,0-1.29-1.59V336.58l2.77,2.11h4l.34-.94.23-1.3v-1.8l2.79.21c1.08.18,1.43.84,1.43,1.36a1.35,1.35,0,0,1-.91,1.29h0l-.6,1.17h6.82l1-1.11,2,1.2a1.24,1.24,0,0,1,.61,1.12,1.47,1.47,0,0,1-.72,1.26v17.69a1.43,1.43,0,0,1-.8,1.22l-.27.1c-.8.17-1.37.29-1.88-.12a1.45,1.45,0,0,1-.47-1.17H237.43V359c0,1.13-1.06,1.37-1.92,1.57Zm2-4.46h12.86v-3.18H237.43Zm0-6h12.86V347H237.43Zm0-5.85h12.86v-2.79H237.43Zm15.28-4.82h0Z" transform="translate(-147.81 -295.06)"/><path d="M292.49,337l.74-.7,1.31.77a.28.28,0,0,1,.17.26.5.5,0,0,1-.45.44c-.23.06-.37.18-.37.29v9.35a.35.35,0,0,1-.26.36c-.92.21-1.12.23-1.12-.36v-1.53H276.75v11.39c0,.11,0,.55.74.55h16.65c1.15,0,1.52-1.22,1.63-1.58l.49-1.56c0-.13.11-.18.28-.18s.2.1.2.26l-.23,1.68c0,.21,0,.39,0,.55s0,.49.11.54a.58.58,0,0,1,.37.54,1.13,1.13,0,0,1-1.14,1H276.66a1.2,1.2,0,0,1-1.34-1.24V344.12l1.43.91h15.76v-7.28H274.29l-.2-.8Z" transform="translate(-147.81 -295.06)"/><path d="M295.83,360H276.66a2.17,2.17,0,0,1-2.34-2.24V342.3L277,344h14.47v-5.28h-18l-.7-2.8h19.28l1-.95,1.93,1.15a1.27,1.27,0,0,1,.69,1.13,1.45,1.45,0,0,1-.82,1.27v8.75a1.35,1.35,0,0,1-1,1.38c-.78.17-1.39.31-1.91-.11a1.46,1.46,0,0,1-.5-1.21v-.53H277.75v9.93h16.39c.19,0,.43-.1.67-.87l.47-1.49a1.25,1.25,0,0,1,2.46.3v.13l-.23,1.69c0,.13,0,.25,0,.35A1.57,1.57,0,0,1,298,358,2.13,2.13,0,0,1,295.83,360Zm.32-1.66Zm-1.67-19.67Z" transform="translate(-147.81 -295.06)"/><path d="M316.75,339.82l1.31,1h1.54l.86-2.3.34-2v-.8l1.72.13c.34.05.51.18.51.36a.34.34,0,0,1-.28.36l-.4.21-1,2.28-1,1.73h3.74l.68-.82,1.32.77a.27.27,0,0,1,.11.26.52.52,0,0,1-.4.49c-.23.08-.31.18-.31.26v15.18c0,.13-.15.26-.29.33-1,.18-1.11.18-1.11-.31v-1.53h-5.94v2.41c0,.34-.35.42-1.15.6-.2,0-.28-.21-.28-.6Zm1.43,8.05h5.94v-6.29h-5.94Zm0,6.79h5.94v-6h-5.94Zm14.91,2.48a13.11,13.11,0,0,0,3.08.65c.66,0,1.2-.88,1.49-1.47s1.48-4.64,1.48-14.84h-8.62l-.38.83c-1.4,2.87-3.22,4.84-3.48,4.84a.21.21,0,0,1-.2-.21.43.43,0,0,1,.08-.23c2.78-3.86,4.12-8.39,4.12-11l1.65.11c.38,0,.55.15.55.36a.34.34,0,0,1-.35.36c-.22,0-.37.08-.37.19a32.34,32.34,0,0,1-1.31,3.93h8.28l.77-.67,1.15.8a.44.44,0,0,1,.2.36.47.47,0,0,1-.35.34c-.31.08-.31.21-.31,1.32,0,6.94-.83,12.17-1.57,13.83-.94,2-1.92,2.56-3.66,2.72-.14-1-1-1.48-2.42-1.74-.15,0-.23-.1-.23-.21a.33.33,0,0,1,.34-.31Zm-3.17-11.21a.22.22,0,0,1,.22-.23c.69,0,4.09,3.34,4.09,4.89,0,.24-.12.86-.66.86a.7.7,0,0,1-.71-.52,8.8,8.8,0,0,0-2.83-4.82A.18.18,0,0,1,329.92,345.93Z" transform="translate(-147.81 -295.06)"/><path d="M334.48,360.48l-.13-1c0-.21-.08-.59-1.62-.89a1.22,1.22,0,0,1-1-1.19,1.33,1.33,0,0,1,1.34-1.31l.34,0a11.68,11.68,0,0,0,2.8.61,3.87,3.87,0,0,0,.58-.91c.37-.81,1.32-4.81,1.39-13.4h-7l-.1.24c-.23.46-.64,1.21-1.13,2l.21,0c1.38,0,5.09,4,5.09,5.89a1.74,1.74,0,0,1-1.66,1.86,1.69,1.69,0,0,1-1.67-1.25,7.86,7.86,0,0,0-2.45-4.27,1.12,1.12,0,0,1-.51-.75c-.81,1.08-1.66,2-2.28,2h-.14v8.8a1.42,1.42,0,0,1-.81,1.21l-.14.08-.16,0c-.79.14-1.36.24-1.84-.17a1.39,1.39,0,0,1-.45-1.13v-.53h-3.94v1.41c0,1.14-1,1.37-1.92,1.57l-.23,0c-.13,0-1.28-.05-1.28-1.6v-20l2.64,2h.52l.58-1.56.31-1.79v-1.8l2.79.21c1.08.16,1.44.81,1.44,1.36a1.34,1.34,0,0,1-.9,1.29h0l-1,2.28h1.57l.93-1.12,2.05,1.21a1.24,1.24,0,0,1,.6,1.12,1.5,1.5,0,0,1-.71,1.27V345a19.87,19.87,0,0,0,3.14-9.2v-1.06l2.72.17a1.4,1.4,0,0,1,1.48,1.36,1.34,1.34,0,0,1-.88,1.28c-.2.73-.43,1.46-.7,2.2h6.46l1.08-.94L341.6,340a1.47,1.47,0,0,1,.63,1.18l0,.18a1.37,1.37,0,0,1-.64.93v.55c0,7.24-.86,12.46-1.66,14.24-1,2.21-2.24,3.1-4.48,3.3Zm-1.38-3.8Zm-13.92-3h3.94v-4h-3.94Zm8.18-6.37Zm-8.18-.42h3.94v-4.29h-3.94Zm11.37-1.61.08.06Zm10.64-2.78h0Zm-15.68-1.92Z" transform="translate(-147.81 -295.06)"/><path d="M370.77,345.85V335.78l1.49.23c.43.06.63.21.63.42a.43.43,0,0,1-.35.41.4.4,0,0,0-.34.39v8.62h8.37l1.8-1.37,1.83,1.24a.48.48,0,0,1,.23.42c0,.34-.29.49-.66.49h-9.23v10.64l.15.29.25.1h6.54c.89-.1,1.09-.7,1.2-1.47l.2-1.79c0-.08.12-.16.23-.16s.2,0,.2.13v1.82c0,.67.15,1.11.4,1.21a.58.58,0,0,1,.43.55,1.13,1.13,0,0,1-1.14,1h-9.17c-.31,0-.71-.54-.71-1.11V346.63H368.6c0,1.74-.37,5.72-2.37,8.21-2.51,3.11-7.31,4.56-7.37,4.56-.26,0-.26-.21-.26-.29a.25.25,0,0,1,.18-.23c8.08-3.21,8.39-8.39,8.39-12.25h-8.28l-.23-.78ZM364.15,339c1.34,1.22,2.8,3.14,2.8,4.51a.81.81,0,0,1-.8.88c-.55,0-.77-.31-.95-1.19a12.66,12.66,0,0,0-2.68-5.23.17.17,0,0,1-.06-.13c0-.11.06-.13.14-.13a.25.25,0,0,1,.18.05Zm14.91-1.42,1.63.62c.25.08.37.23.37.39s-.18.33-.86.44l-2.09,3c-.48.62-2.28,2.77-2.68,2.77-.12,0-.31-.1-.31-.23a.21.21,0,0,1,.08-.18,21.09,21.09,0,0,0,3.63-6Z" transform="translate(-147.81 -295.06)"/><path d="M358.86,360.4a1.27,1.27,0,0,1-.5-2.43c7.06-2.8,7.74-7.12,7.81-10.34h-8l-.81-2.78h7.53a3,3,0,0,1-.64-1.47,11.3,11.3,0,0,0-2.46-4.76,1.23,1.23,0,0,1-.3-.79,1.11,1.11,0,0,1,1.14-1.13,1.22,1.22,0,0,1,.84.3l1.38,1.25c1.44,1.31,3.13,3.47,3.13,5.25a1.9,1.9,0,0,1-.53,1.35h2.35V334.61l2.64.42c1.08.13,1.48.81,1.48,1.4a1.4,1.4,0,0,1-.69,1.21v7.21h1a.93.93,0,0,1-.05-.34,1.21,1.21,0,0,1,.36-.88,20.13,20.13,0,0,0,3.39-5.58l.53-1.8,2.64,1a1.39,1.39,0,0,1,1,1.32c0,.93-.68,1.22-1.28,1.35l-1.85,2.62a20.11,20.11,0,0,1-2,2.3h3.31l2.11-1.6,2.39,1.63a1.46,1.46,0,0,1,.7,1.26,1.53,1.53,0,0,1-1.66,1.49h-8.23v9h5.88l.12,0a1.62,1.62,0,0,0,.16-.59l.19-1.73a1.2,1.2,0,0,1,1.22-1.07,1.13,1.13,0,0,1,1.2,1.13v1.82a2.83,2.83,0,0,0,0,.4,1.55,1.55,0,0,1,.8,1.36,2.13,2.13,0,0,1-2.06,2h-9.25c-1,0-1.71-1.11-1.71-2.11V347.63h-2.55c-.11,1.82-.59,5.39-2.56,7.84A17.06,17.06,0,0,1,358.86,360.4Zm24.5-2.06h0Zm-3-19.2h0Zm-7.55-1.34h0Z" transform="translate(-147.81 -295.06)"/><path d="M414.12,338.79v-2.72l1.45.18c.49.05.72.18.72.41a.44.44,0,0,1-.4.49c-.23,0-.35.13-.35.24v1.4h4.34l1.8-1.38,1.83,1.25a.42.42,0,0,1,.23.38c0,.29-.23.52-.66.52h-7.54v2.82c0,.19-.14.32-.37.37-.94.18-1.05.18-1.05-.34v-2.85H406.6v2.82c0,.19-.14.32-.37.37-.88.15-1.06.2-1.06-.34v-2.85h-7.08l-.23-.77h7.31v-2.72l1.49.18c.49.05.69.18.69.41a.47.47,0,0,1-.38.49c-.22,0-.37.13-.37.24v1.4Zm-11,8.25v9.43l.11.83a1.21,1.21,0,0,0,.8.31c1,.16,4.37.23,7.66.23,2.94,0,5.48-.07,7.57-.2a3.45,3.45,0,0,1,.54,0c1,0,1.37.44,1.37.67s-.14.34-.37.42c-.86.39-6.63.41-8.69.41a72.93,72.93,0,0,1-8.85-.36c-1.29-.21-1.57-.62-1.57-2.05V347h-3.4l-.23-.77h11.77v-4.12l1.48.23c.46.06.66.21.66.42a.42.42,0,0,1-.37.41c-.23.08-.34.21-.34.39v2.67h7.25l1.8-1.37,1.83,1.24a.45.45,0,0,1,.23.39c0,.28-.23.51-.66.51Z" transform="translate(-147.81 -295.06)"/><path d="M412.14,360.11a64.11,64.11,0,0,1-9-.38c-2-.32-2.39-1.39-2.39-3V348h-3.15l-.82-2.77h12.11V341l2.64.42c1.43.16,1.5,1.19,1.5,1.4a1.38,1.38,0,0,1-.71,1.22v1.25h5.92l2.1-1.61,2.42,1.65a1.4,1.4,0,0,1,.67,1.22,1.55,1.55,0,0,1-1.66,1.51H404.15l0,8.58h0c.91.13,3.92.22,7.54.22,2.79,0,5.32-.07,7.5-.2a4,4,0,0,1,.61,0c1.55,0,2.37.84,2.37,1.67a1.42,1.42,0,0,1-1.05,1.36C420.91,359.76,420.13,360.11,412.14,360.11ZM421.6,347l.09.07Zm-7.18-3.1a1.28,1.28,0,0,1-.85-.28,1.44,1.44,0,0,1-.45-1.16v-1.85H407.6v1.82a1.38,1.38,0,0,1-1.15,1.34l-.14,0c-.67.12-1.2.21-1.68-.19a1.42,1.42,0,0,1-.46-1.15v-1.85h-6.83l-.81-2.77h7.64v-2.85l2.61.31c1.41.15,1.57,1,1.57,1.41a1.57,1.57,0,0,1-.48,1.13h5.25v-2.86l2.58.32c1.43.16,1.59,1,1.59,1.41a1.54,1.54,0,0,1-.47,1.13h2.73l2.1-1.61,2.43,1.65a1.4,1.4,0,0,1,.66,1.21,1.56,1.56,0,0,1-1.66,1.52h-6.54v1.82a1.38,1.38,0,0,1-1.15,1.34A5.31,5.31,0,0,1,414.42,343.85Zm8.52-4.38a.33.33,0,0,0,.1.06Zm-16.08-3.31h0Z" transform="translate(-147.81 -295.06)"/></svg>